/* XPM */
static char *door11700672406[] = {
/* columns rows colors chars-per-pixel */
"85 85 256 2 ",
"   c #020102",
".  c #0B0402",
"X  c #0C0905",
"o  c #030309",
"O  c #0C0C0B",
"+  c #080707",
"@  c #120401",
"#  c #130A04",
"$  c #1B0C03",
"%  c #130D0B",
"&  c #190C07",
"*  c #1C1204",
"=  c #14120D",
"-  c #1C130D",
";  c #191608",
":  c #141312",
">  c #1C1512",
",  c #1C1A14",
"<  c #1C1C1A",
"1  c #151915",
"2  c #0E0F0D",
"3  c #280D00",
"4  c #23150C",
"5  c #2C1B0D",
"6  c #251608",
"7  c #331B09",
"8  c #241B14",
"9  c #2B1C13",
"0  c #241D1B",
"q  c #251A16",
"w  c #321F13",
"e  c #1E211A",
"r  c #2C2315",
"t  c #23231C",
"y  c #2C241B",
"u  c #28251A",
"i  c #342314",
"p  c #33241C",
"a  c #322A1E",
"s  c #3C2A1C",
"d  c #3A2615",
"f  c #372511",
"g  c #1F2421",
"h  c #2D2B24",
"j  c #292624",
"k  c #332C23",
"l  c #3B2C23",
"z  c #362B28",
"x  c #3A3225",
"c  c #34332C",
"v  c #3B342C",
"b  c #38352A",
"n  c #3C3A32",
"m  c #3A3732",
"M  c #31312B",
"N  c #462B18",
"B  c #552C1A",
"V  c #5A2D1A",
"C  c #582B14",
"Z  c #47321D",
"A  c #54321D",
"S  c #5C321C",
"D  c #583016",
"F  c #4B240D",
"G  c #65391B",
"H  c #64340E",
"J  c #432E24",
"K  c #443324",
"L  c #4A3425",
"P  c #44352B",
"I  c #443B2D",
"U  c #4C3B2C",
"Y  c #4A3728",
"T  c #563926",
"R  c #443C34",
"E  c #4A3D33",
"W  c #423D3A",
"Q  c #433732",
"!  c #523C33",
"~  c #653B24",
"^  c #693D26",
"/  c #713E26",
"(  c #491C0C",
")  c #3E4137",
"_  c #454135",
"`  c #44433B",
"'  c #4C443B",
"]  c #4C4637",
"[  c #5C4B3D",
"{  c #544639",
"}  c #544531",
"|  c #6C432B",
" . c #6A4327",
".. c #73442B",
"X. c #76492C",
"o. c #7B4B2C",
"O. c #754525",
"+. c #684A37",
"@. c #744B33",
"#. c #7B4D33",
"$. c #734E3A",
"%. c #7A4D3A",
"&. c #724631",
"*. c #6A533C",
"=. c #755136",
"-. c #7C5134",
";. c #75523C",
":. c #7A543B",
">. c #7A5A3D",
",. c #7A502E",
"<. c #6F411C",
"1. c #4C4B44",
"2. c #494442",
"3. c #534C43",
"4. c #574B45",
"5. c #5B5244",
"6. c #54544C",
"7. c #5B554B",
"8. c #585749",
"9. c #5C5B53",
"0. c #5A5854",
"q. c #4E5147",
"w. c #674E41",
"e. c #625B4C",
"r. c #675647",
"t. c #775846",
"y. c #635D53",
"u. c #655B56",
"i. c #745F55",
"p. c #5E6152",
"a. c #7A634B",
"s. c #646255",
"d. c #6B6354",
"f. c #64635A",
"g. c #6C655B",
"h. c #6C6A5C",
"j. c #64695B",
"k. c #746C5C",
"l. c #786657",
"z. c #6E6753",
"x. c #6C6C63",
"c. c #696964",
"v. c #736E63",
"b. c #766D67",
"n. c #6E7166",
"m. c #747265",
"M. c #74746B",
"N. c #7B756A",
"B. c #7C7A6D",
"V. c #787568",
"C. c #7C7C74",
"Z. c #797973",
"A. c #665D60",
"S. c #844D2B",
"D. c #87522D",
"F. c #845434",
"G. c #8B5534",
"H. c #8D5A35",
"J. c #84553C",
"K. c #89563B",
"L. c #85593C",
"P. c #8C5B3C",
"I. c #855A30",
"U. c #925C3C",
"Y. c #925B36",
"T. c #834E31",
"R. c #8D613E",
"E. c #97623D",
"W. c #8B5C43",
"Q. c #865B45",
"!. c #905C42",
"~. c #915D4A",
"^. c #8D624B",
"/. c #886347",
"(. c #936344",
"). c #94644B",
"_. c #966B4C",
"`. c #996947",
"'. c #866756",
"]. c #9C6B53",
"[. c #956A55",
"{. c #9C7358",
"}. c #937154",
"|. c #A36C49",
" X c #AA734C",
".X c #A57354",
"XX c #AB7554",
"oX c #AD7A55",
"OX c #A4755A",
"+X c #AD7C5B",
"@X c #A8775B",
"#X c #B27B55",
"$X c #B27D5C",
"%X c #B87D54",
"&X c #A77152",
"*X c #867769",
"=X c #987A66",
"-X c #837D74",
";X c #887065",
":X c #AA7C63",
">X c #B27D64",
",X c #7D8075",
"<X c #B9835A",
"1X c #AE825C",
"2X c #99836D",
"3X c #848275",
"4X c #8B857B",
"5X c #888679",
"6X c #978779",
"7X c #86816E",
"8X c #AA8469",
"9X c #B38363",
"0X c #B98868",
"qX c #A68977",
"wX c #B58B74",
"eX c #B89275",
"rX c #B29176",
"tX c #C3885B",
"yX c #C48B65",
"uX c #C58C68",
"iX c #C7946C",
"pX c #D49A6A",
"aX c #C99774",
"sX c #D29B74",
"dX c #D8A479",
"fX c #E2A779",
"gX c #8B8B84",
"hX c #9B8C85",
"jX c #989689",
"kX c #9C9B91",
"lX c #A38E87",
"zX c #A69587",
"xX c #B69B88",
"cX c #AC9E94",
"vX c #A7A69A",
"bX c #B7A899",
"nX c #B7A792",
"mX c #B3ADA3",
"MX c #B9B4A8",
"NX c #B3B0AA",
"BX c #9CA398",
"VX c #CEAD92",
"CX c #CBB8A9",
"ZX c #C69A81",
"AX c #C7C5B9",
"SX c #D4C8B8",
"DX c #E7CCB8",
"FX c #D9D4C8",
"GX c #D2D0C8",
"HX c #E7D9CC",
"JX c #E8E4D9",
"KX c #F6EEDD",
"LX c #FBF7E9",
"PX c #FEFDF2",
"IX c #EBE9E5",
"UX c #DFE2D6",
/* pixels */
"B B B B B V &.$.&.&.&.&.W.~.).W.~.Q.@X>X9X9X<X1X9X9X9X9X1X9X_._.E._.).).L.X. .=.,.*. . . .@.| &./ ^ / ~ ~ <.O.(.R.(./.R.:.~  .T  .T  .-.#.o.F.o.P.@X.XOX>X&X&XXX>XXX#X+XXX",
"S B B B C B &.$.$.$.#.&.W.W.~.~.~.~.@X>X9X1X1X1X1X9X+X$X1X9X_.E.`.R.).{.>.@.=.+.=.,.+. .&.+.&.@.&.~ ^ .. .G ,.R.>.R.R.^.J.S ^ /  .T X.-.#.T.D.,.F.>X@XOX&XOX>X>X$XXX$XXX@X",
"C C C B B B @.&.&.@.#.#.Q.).Q.^.'.Q.:X>X9X9X9X1X>X0X0X>X>X9X].!._.`.{.:X=.~  .Z } f f f r.a.2X2X=X'.*.t.~ ~ -.)._.R.R.(.K.G G G  .G O.,.o.,.S.o.F.OXOX@X@XOXOX&XXX#X#X$XXX",
"C V B V C B &.&.@.%.&.&.Q.Q.Q.~.~.~.:X>X1X1X1X+X>X>X>X>X>X>X{.~._.^.~.wX8XqXxXCXSXCXCXSXSXcX6X7Xl.a.i.t.;.t.@.^.R.P.(.(.D.G O.G G <.O.,.F.-.-.-.Q.:X{.:X:X@X@X>XXX%XXXXXoX",
"C C ( C ( C &.#.&.%.&.@.Q.^.Q.).~.~.>X>X>X>X>X>X0X>X>XwXwXwX].~.Q.[.[.xX6X6XqXmXSXnXBX6XBX6XjXkXjX4X[ z.a.t.'.^.^.L.(.E.D.H H H H H <.,.o.o.X.o.>.@X8X:X{.:X>X>X+X>X>X+X:X",
"^ ^ / / / / &.#.&.@.&.$.%.t.%.t.%.%.].OX=XOXOXOXOX).].~.~.~.Q.w.i.=XlXnXk.l.y.k.5Xj.8.q.) j.BXSXJXMX5X6 r *.=X=X[.^.(.(.`.H.I.I.I.I.I.R.E.R.R.W.^./.[.^.^.^.~.].].].].].].",
"~.&X].|.).~.#.&.@.X.&.| T V B B V C / %.Q./ %.%.B ( ( ( ! ^ +.w.lXbXk.V.e.m.4X4X) 8.,X5X8.8.8.n.n.h.AXb N.bXqXxX'.{.OX_.1X0XiXiXiXiXiXiXiX0XeXaX{.D N F S B B %.%.%.&.%.#.",
"~.~.!.~.].].&./ &.| ..&.V B B V V V t.%.Q.t.%.Q.V B L w.[.i.! l [ 4X8.6XkX,Xp._ MX5Xp.p.8.5Xh.8.p.p.) vXFXAX[ zXxXzX2X_.1X0X0X1X0XyX<X<XyX<X0XuX:XC D A T B V t.t.T.t.%.%.",
").`.(.).).).&.....&.&.| T V B V V V t.t.t.t.Q.t.T +.r.;X7Xk.CX) ' V.jXp.h.n.n.,X,Xj.k.,Xk.7X7.5.p.j.; AXmX7X*X7Xl.*XqX2XR.eX0X0XuXyXtXyXyXyX0XuXOXC B B T B V $./ t./ t.%.",
"`.`.(.).).(.X...&.@.&...G B B B V V ^ Q.w.$.w.i.r.2X;X6X*Xp.mX,Xp.8.5Xj.,Xm.j.5Xz.,Xn.z.d.m.z.e.[ [ n.SXvXp.,XB.e.k.qX2X}.qX8X0X$XuXyXyXuXtXyXuX:XC B A A B T t.t.w.J.w.w.",
").`.`.`.`.).#.....&...| D D C B V B $.t.w.w.;X6X*X6Xd.p.V.6Xj.AX,X) [ ,X5X,Xj.,Xn.7X,Xe.8.h.V.z.) 6 LXJXvXj.j.V.6X5X7Xk.zX*.2XrXaX0XyXyXuXyXyXaXOXF B A B J ! w.w.w.w.$.w.",
"K.K.P.L.L.K.F.#.#.#.#.%.^ ~ ~  .~ T Q.;X;Xw ;XGXk.9.V.j.p.j.M.GXV.X e n.e.n.5X,X8.,X,Xj.s.h.s.) # X FX] ] n.p.kXV.h.e.2X$ *.l.qX8X9X<X1X%XtXXX>X XG ~ ^ ^ T ^ [.'.;Xi.'.'.",
"....X. .X.X.J.L.K.K.L.L.%.@.#.#.;.$.2XlXmX[ _ n.jX,Xx.p.c.M.Z.f.vXSXh ) V.p.c ) u ) ) b ) p.p.` b 8.PX3Xv.m.9.4Xx.m.6XBX. 5.zXzX/.1X}.(.E.E.|.E.`.X.#.@.t.*.t.lXlXlXlXlXlX",
"..X.X.X.X.X.K.W.Q.W.K.W.o.#.@.#.;.;.qXCXbX8.) ) 5X5X,XB.c.3XM.0.jXAX) ) 6.) 2 e 2 h t 1 2 q.` M u j.FX3XC.B.7.B.5Xk.p.{ 5.mXkXzX2X}.8X_.`.E.|.E.R.D.-.@.$.$.t.lXhXhXlXhXhX",
"&.X.X.-.#...K.J.K.K.L.L.#.o.o.=.:.'.zXCXm.M.q.h j.,X,XM.n.b.-Xq.,XBX2 M ` g + +   1 1 X   c c j j n vXjXB.g.g.N.4XN._ ; vXmXkXB.nXV.}.}._.E.E.|.E.S.#.%.$.+.t.lXlXlXlXlXhX",
"@.X.X.X.#...L.K.K.K.K.L.o.#.#.;.;X*Xl.k.3.,Xq.t ` n.,Xn.9.u.c.m ) 1.  1 2 + + 2 + X +     = 1 = 2 g 6.M.b.b.*Xr.4Xz.b b FX5Xj.s.5XnX*.a.1X_.|.E.E.o.o.-.@.$./.qXlXlXhXhXhX",
" ./ O./ / O.K.P.U.S.!.K.-.@.+.'.bX-Xu.4Xh.jX5Xj.n 5Xm.h.f.1.h = X +   +   . O < 2 O   +               c R 3.C.7.u.u.M.MX5Xq.j.,XM.b.bX;X@.].E.E.E.<.O.O. .| L.rXzXzXlXlXlX",
".X|.].&X&X|.P.G.G.U.G.J.-.t.{.qXI ` Z.Z.N.8.N.N.k s.b u h - # . # = # = X O o . O     + X     X 2     X . - ' 5.e.N.hXJX2.M.,XZ.gX1.-XxXrX_.1X<X<X1X X1X X1XOX{.=X;X=X=X;X",
"sXsXaXsXsXaXU.G.F.F.F.=.^.=XSXw.e.n.-Xg.3Xs.N.4X` { x k k , X X % > % # . . .   +     O 2     2 X . X X .   4 ] Q 7.*XmXc.Z.c.n.gXc.g.2XnXdXVXaXdXdXfXdXdXVXiXR.J.K.K.J.K.",
"sXpXsXsXsXaXG.S.F.K.>.#.a.xXSXY N.4X-Xy.-Xd.h.*Xe.k R v k u X . % = X   o . O + +     X X     X O   . X @ @ - k a ' v.V.n.j.j.c.,Xc.6.k.rXCXeXdXdXdXpXpXiXdXiXY.P.H.U.U.U.",
"pXpXpXpXpXaXD.G.-.@.:.N ! z.5.5.V.5X7XV.m.d.[ { 4.* x k 9 0 . . . . . . + . O . + + .   +           . # & - 4 * @ a ] ] j.h.n.p.q.gX6.d.qXCX/.ZXaXdXdXfXfXdXiXI.G.G.Y.Y.Y.",
"tXpXpXpXpXaXD.S.L.:.2X} 5 u 1.x.,Xj.[ ,Xe.k.5.u x 8 a x Q y @ . . . . . #   +             + +   + X   . . = y 9 # a _ b h.e.x.B.j.9.p.q.b @ L :XaXdXpXpXpXpXpXI.Y.H.H.H.U.",
"pXpXpXpXpXpXY.D.-.>.2XCXcXs.t e k.k.[ [ k.[ r * i 9 9 p v 9 . . . . .   +   X                     . . . . # 9 8 i a r 6 I m.N.V.V.] t q.kXHXHX:XdXdXdXfXfXfXpXE.P.L.L.P.P.",
"tXtX%XtXtXtXY.T.Q.+.nX6XhXjXc.` [ ] _ p.[ x 5 # x 9 l k k 0 . .   . .   .                           . . @ - - 4 r r k * x 7.5.8.p.] n.vXAXjXlXqXqX1X<X<X<X<X1XI.P.P.P.P.U.",
" X X X X X XY.F././.nXl.N.cXmXjX_ a x e.K r 6 * I i x a w q . . .   .                             .   . . * 4 4 r a y 4 r ] _ _ [ e.MXFXAX9.4.xX:X:.U.G.G.U.G.P.P.I.K.P.U.",
" X X X X#X XY.D.t.xX;Xw.-XbXMXPXjX[ ; } i 6 * 6 I a p a z j . .   .   . .                   o       .   X = ; - p a a r ; k a f [ AXmX5Xc.c.u.GX=X^.!.(.P.(.W.W.P.L.G.P.R.",
" X X X X#XXXR./.t.VX4.6Xb.r.E 4XMX,X_ x [ _ r 6 9 - @ - y j                                       o o . # - > - r u r * e._ u a P k.*Xc.9.Z.gXMXhX'.=X^.Q.W.W.Q.U.U.U.U.U.",
"%X%X X%X#XoX/.{.=XnX4.u.k.b.*X4X2Xe.a 5 { 9 # @ 4 y y v Q k     .                                 o o + O > 8 > r > 9 X x _ _ a * 5.-XN.,XgXA.jXCXzXt.'.^.~.W.W.W.P.H.P.U.",
" X%X X%X X X).8XVX-X4Xg.*XN.7X*Xe._ k E v 4 & - k ] v ' 2.M   .                             o     o o o O 1 0 0 a k a ; u a b ] R ' g.C.-XZ.0.b.mXSX+.'.'.[.~.Q.W.P.L.(.(.",
" XE. X X|.Y.R.=XCXu.kXC.M.N.k.4Xx r z E I 9 9 a R 3.v ` n j                                     o o o   2 1 j j v n ` h a b n n R ` y.V.-Xf.u.7.kXmXu.'.$.@.:.W.U.P.W.P.W.",
"Y.Y.E.Y.Y.E.G.t.bXV.h.c.c.s.7.zX3.4 . 9 u.3.' ' ' ` > % : +                                   o o o o o + : < , c ` n _ ' B.' X . 2.v.M.f.2.c.u.u.b.PX! +.^ O.K.!.P.W.U.!.",
"Y.Y.E.E.Y.E.o.+.d.3X5Xn.0.q.5X_ ` 3.y.0.W 4 4 = - 8 X = < O                                   o o o o o     .   X , t X # M ` 8.M.m m M.kX6.6.Z.Z.kXCXw t.+./ `.!.R.P.U.U.",
"E.E.Y.`.(./.8Xl.u h ` q.q.9.c.0.W m j , 0 cXNXgXj   O > j +                               o o   o o o o o : o % @ 0 m 4XGXz % 0 W M 1.9.0.m m h e M kXq k.t.$.K.!.U.U.U.(.",
"U.E.E.Y.!.^.=X4XB.x., M ) ) 6.n j j j < % kXmXB.8 # > 0 j + o o                         o     o o o o o o : O > : > z 4XNXj : j z q W m M n 0.n.x.C.CXj ;X'.@.).!.!.U.U.U.",
"E.U.E.G.`.).r.jXGXFXt M M c 0 t 1 j m z . e.e.v # 8 j z h o                                 o o o o o   O : % y % . # ' 0.q j Q Q . y : : 0.gXMXUXIXIX1.5.a.=.P.P.U.U.U.P.",
"|. X`.&X`.[.2Xk.j.,XPXAXBXx.> j > q 4 @ . 9 * . 4 v v W v   .                       o     o       o   o O % > v z q & 4 @ & - - @ O W 2.0.IXUXgXc.6.n.u.9 t./.}.|.|.&X|. X",
" XXXXXXX.X8X*Xz.p.6.5XgXvXvX7.P @ & & 3 9 i $ 6 l E k W W + .                               o     o o   . X - z Q J i 9 9 w & @ & . 2.z 4.IXs.k.Z.Z.C.vXw.2X2X1X1X#X#X<X1X",
"XX X|.#X@X{.a.p.M.BX9.p.m.b.- 4 @ 9 U { Y J 5 w U K 9 k W @                             o o       o o . . . & w l l l 6 ! L J J J @ q 0 z UXs.b.M.M.c.Z.i *XrX1XoX#XoXoXXX",
" XoX#X`.|.rXr.p.,X5Xn.s.g.*X4 w i Z ! T T L d 7 Y l 9 l Q X .                       o       o o   o   . . . & 4 s J L 3 w.N L ! w.w 9 - j JXd.V.M.x.n.M.x *XVX0X1X%X#X1X1X",
"XXXX|.XX.XrXz.p.j.x.kXC.gX;X5 ! *.} Z 7 } L f 6 N d l Q E . . .                             o   o     @ . $ 9 5 w d J 3 +.N N +.i.J w 9 E PX8.p.9.c.gXgX3.lXCX0XoX#X#X#X+X",
"&X XXX.X].xX*X5.j.BXn.j.V.z.$ $ N L  .*.} A f 6 N Q J E Q @ .                                     . . . . & p p d L T 7 ;.F 7 N Z A f * } LXa z.Z.gXZ.m R qXCXqX1X1X#X<X>X",
"!.!.E.R.(.eXk.5.9.n.6.p.z.k.d 7 +.T N F Z T f 7 N P p l l . . .                 o           o     o + . @ $ w 7 w N B 3 T T A A Z *.f ; _ KXk.] 9.Z.Z.0.c lXDX8XE.E.E.E.!.",
"U.Y.U.P.L.8Xr.{ 6.j.' e.e.d.! 6 a.+.f f T  .F 3 L Y 9 k J @ . .           o +     o o   o           X . . @ 6 5 7 B L 3 Z A A A Z a.6 ; _ LXz.e.n.n.c.A.z zXHX).P.H.G.Y.K.",
"U.U.P.P./.rXr.8.6.,X8.z.d.[ Y $ a.*.F N N } 7 $ L L 5 l W & . . .               o   o         +       . . @ 5 7 d T T 3  .A N F D 7X6 f } SXz.k.n.n.0.0.j hXSX{.K.Y.P.H.K.",
"P.R.P.R./.8Xr.g.n.,Xj.j.8.] 5 # *.*.} *.6 d 7 3 E ! p J ' & .               o o o     o         o     X # # 5 w f d F 7 >. .N 3 7 2X} x [ nXe.p.9.6.c q.a jXDX8XW.U.!.K.!.",
"P.L.P.P.W.t.5   2 +   ; 6 r f f 7Xa.F * }  .7 3 s N 5 l Q @ @ .             o o o   o     o           . # @ 5 6 7 Z A 7 7 F A T Y rXZ 2 ; ] X X   2 2 M X V.SXR.W.!.!.!.!.",
"W.(.R.L.).8XbXGXUXUXUXDXnXh.) * =.>.} A f Z w 5 ! } J Q Q @ . .         o   o                         X . . 6 6 7 N A N A A  .T 7 a.; u p.FXJXUXJXUXGXAX,XnXDXa.W.~.!.~.!.",
"OXOX]..X:XqXlXlXNXvXMXjX,Xz.f 6 z.*.T Z Z T 9 6 l Q z E Q . .               o o   o   o                 . . r 5 7 s T f T N A } f 7Xf f ] KXjXjXjXBXBXBX[ 2XCX1XOX].&X].&X",
"$X9X$X+X>XwXl.v.x.9.5Xv.g.p.i r i.w.L d r.I y & 0 t z m W % . .                                 + o   X . % k p w d J 7 w.N B ! J -Xs i I KXe.e.p.h.n.,Xb 7XCXrX:X@X+X@X@X",
"$XXX+X$X:XwXa.3.` ` V.g.d.' r r { +.U } [ ] z > > 0 j W m , X                 +               o       + + 4 l k p p l 4 ! T J N l i.9 @ _ JX[ e.j.,X,X,X) rXDXeXOX@X@X@XXX",
">XXX+X1X>XwX;Xb.3XgXM.v.h.V.' l w.4.! w.. - y n 6.2.2.n Q % .                 +   o o   o   o   o o   o o - z z q l P w 3 4 s w.i.;XE x } KX{ h.,X5X,X,X} zXHXrXOXOXOXXX@X",
"+X>X$X+X+X{.[ y.n.C.9.5.d.f.9 @ 4 4 - p ' u.f.u.2.% + > :   .                                 o   o + + . + > > q z ! 4.A.4.! p & 9 # # x LXq.h.,X,Xz.,X_ 2XDXrXOXXXXXXX.X",
">X>X$X:X>X:Xw.6.A.M.7.u.3Xm.- 9 ' Q ' 4.4.2.W < < j O O + > . o                                 o o o O o . : j > p j z J z u.u.Q 0 y > M PXj.A.h.,X9.h.] 6XDXaX@XXXXXXXXX",
"!.K.P.W.Q.=Xt.3.6.b.7.-X4X-X: P w.A.7.4.z 2.m z + M < O % : .                                       o + . o : j > % % z 2.q 2.;X0.Q W h m PXc.0.p.p.6.x.} 2XDXZX0XuXuXyX0X",
"K.K.K.P.#.^.i.' 1.A.e.b.-XN.E N.2.9 . O 0 NXFXNXj . : j j o % .   .                               o o O + o   . o j A.NXIX0.> % o 2.M.6.0.UX2.2.p.j.6.h._ 2XVXZXuXuXuXyXyX",
"K.W.o.K.K.Q.i.u.n.n.0.gXB.0.. q @ q 2.A.o m z > o > < % : o . o                                         O : : > + o % z > % W 0.W o < 2 g BXZ.Z.n.n.q.s.Z 2XVXwXuXuXuXuXtX",
"P.P.F.G.L.=.f ; g g 8 y r y 7.kX4.0 O > & 0 & O % z j 0 q 0 +                       o o             +   o . + 0 0 > + # % @ % q % 0 Z.c.W 6.1 2 = : = ] d ;X8XwX0XuXuXuXyX",
"T.H.G.P.I.R.>.m.C.Z.4X4X8.c m b.z 0 & O + 0 q % > 0 > > > %   @ X             o o                 . O . .   + > 0 > : - q . . % . q M.0.2.Z.Z.,XZ.C.N.7X} '.:XaXuXuXuXyXyX",
"U.U.D.D.K.].2XnXGXFXGXJXmX3.& > q > q > @ 0 0 - > q % % % O                           o             % .   . : > 0 - q > y @ . # > @ M n 1.IXAXIXIXIXFXmXw.;X{.0XuXuXuXyXuX",
"%XXX#X<X1X9Xa.z.s.x.8.h.8.1.4.0 O @ q 2.Q q @ & Q Q z y 0 > X   X       o     o o               .       X - , # - & @ . & 4 w p Q 4 # X ` PXj 2.9.c.B.7X_ '.:./.W.U.W.U.U.",
"yXtXtX<XtX0Xa.a.k.B.z.m.v.] u   Q Q z 0 4 p z p q 3 @ & 8 %   . X           o   o                   X . o . > % z v z w k P J p 9 a q r ' LX0.c.c.0.c.*Xf l.-.I.K.K.G.K.K.",
"%X%XtX%X<X0X>.*.z.h.7Xm.s.f.R . z p p J J w 4 3 l q 4 0 y - .             o   o   o o           .     . # % 4 . - w 9 @ 6 ! L J w s 9 * k PX' Z.Z.Z.C.5Xf /.:.L.K.T.K.T.K.",
"%XtXtX%X<X0X>.e.k.k.h.z.d.j.b . v z w P Q w 3 & w 9 w y j - X               o o o     o               . @ % q & & q w @ 9 U J w w N * * r LX7.b.C.3X3XC.s a.@.J.K.K.K.K.Q.",
"tX%XtX<X<X0XR.a.7Xh.{ z.e.5.b @ J z p J P w 4 @ N 4 q p a @ . X             o   o   o o           .     o @ > 4 q q w $ w L N w 6 } $ @ U LXe.c.Z.3X*Xm.Y a.=.J.Q.J.Q.K.K.",
"%X%XtXtX%X>Xa.r.x.,Xp.V.B.V.5.r ' J w w J s 4 $ l 4 9 u q @ .                 o     o                 . . . = > > 9 w @ 9 d K Z K [ i 5 d.LX[ 5.u.7.y.e.! t.Q.t.Q.Q.:.Q.L.",
"G.Y.S.Y.G.!.;Xb.M.n.s.h.[ _ 9 . s J w l l d 6 3 v 4 8 y 8 X . .           o o o                   X   X X . > ; 0 y y & J L Z f f 9 $ 3 K AX7Xh.i.u.e.i.i.qX=Xt.:.:.%.:.:.",
"S.D.S.S.F.Q.=Xk.p.8.8.h.e.[ b r { ! J J J p 5 * Y 9 9 9 4 @ . .                                       . . . - > 4 p l @ l i d Z s K 5 P y.GXs.4.0.0.u.b.b.lX=Xw.;.;.=.;.:.",
"D.D.Y.S.F.J.l.r.] ) ) ] ] } a 9 w.! d w N s 5 3 Y 9 9 9 4 . . .                                       . . . - > q k l @ J i d N K x 9 l E mXn n W 2.W A.b.lXlXt.t.:.=.:.>.",
"D.S.S.G.K.:.+.l j b M a r 9 * . J J s N J J 7 6 P 5 9 q > @ . .     .     + o o     +       +   + .   . . . - = q k l @ Y f f Z l s 5 . 4 k.8 0 0 W 4.A.b.lX6Xt.;.;.>.=.>.",
"S.Y.S.T.S./.nXCXHXLXIXHXMX*X] 6 P J J L ! J w 5 K 6 - 4 & @ @ . . . . X O o O o X + + + X 2 X + X X   . . . - - - y w & Z Z s f s [ N E i.GXJXUXJXIXAXcX=X6X6Xt.;.>.=.>.>.",
"G.G.S.S.J.^.'.k.e.9.j.z.e.{ b * J s w w J J 4 & p # # & & . . . X X X + O O 2 o 2 2 2 = 2 2 2 2 # % . % # # - # & 4 5 * } } Z f 5 K 6 3 w.KXE E ' u.b.*X=XqX2X@.=.*.=.=.=.",
"G.G.U.G.J.[.t.r.9.` j.x.p.[ x # J z p z Q z 4 & r . . @ # . X @ X X O O O 2 2 2 : = 2 2 = 2 ; 2 : : + = = = , # . - 4 X s x Z s d [ $ $ J KX{ ' 4.4.w.t.w.w.:. . . . . . .",
"K.U.!.G.K.[.r.r.9.1.f.x.e.5.m > v x k k u u - X - X X # = X 2 = O 2 : : : : 1 2 1 1 1 1 1 1 1 1 1 : : : e , , ; = = - * 6 f a x K 5.9 * ) UX[ 8.[ 5.[ a.*.,.-. .O. . . .| ",
"K.G.U.G.W.[.+.' u.1.6.y.9.q.` j n b k , @ . X X = X X = = = : : < < < g g < < < g g g e g g t e j t t t t u t e u u t r 6 ; ; 6 a ' u u ) SXx p.d.[ } *.*.=.,.O. . . . . .",
"U.G.G.G.L.].w.{ q.n n q.5.` M = 8 , = X X X X % = X = 1 1 1 1 = : : < 1 1 1 1 g g g g g t t t t e e e e e u t t t u t r u ; ; ; X t X 2 ` GXh 8.h.h.e.r.>.>.=.<.O.<.O.<.O.",
"K.G.Y.G.T.).+.{ e.7.W 3.4.Q j % # X X   # 2 = % = = 1 , = , , < e j j j j M M j M M M c c c M c c M k k c M c M c M h h b x a a u t ; e ` UX) ) 8.s.} *.*.=.=.<. . . . ./ ",
"Y.Y.E.E.Y.|.^ E Q 4.x ' ' ' y % # # # X # X # % - - > : > , u h h h c c m m c m m m m b Q n v b n b v b b b b m b n v M a k x _ ) ) u b ] AXb a n ] 9 +.*.=.,.,.O.,.O.,.X.",
"iXyXpXyXyX0X| L l ! l { ' ' y # # = = # % & % - - - 8 8 8 r u a h z b v m n n n n ) R n Q Q Q I I n v b n n n b m m Q m b b _ _ _ ] x Z [ vXb u k I i *.+.X.-._._._._._._.",
"tXtXtXtXyXuX&.T ! [ K Y Y Q k 4 & & & - & 4 4 - 0 r k a a a x x b v n n n n W ` E _ _ R ! W ! ! _ _ _ _ _ ` ` R ) n W ` 1._ _ _ Z } Z f 5.2X_ x K U Z }  . .I.|._._._._._.",
"tXyXtXtXuXyX^ T ! ! L ! +.w.{ ! U J L Y L { [ w.! Y L L L U [ r.5.[ +.{ [ [ +.5.r.r.r.r.r.r.r.r.r.r.r.w.*.[ [ [ 5.{ { 5.5.*.r.a././.2X2X2X8X2XrX=X+. .+.>. .o.}.`._.|._.`.",
"tXtXtXtXuX0X/ G ~ ~ T S =.>.=.>.t.;.t.;.*.t.t.Q.~ B V V S D @.;.;.=.:.=.=.=.=.=.:.;.:.t.w.t.%./ t.%.t.$.t.%.%.@.:.>.:.@.P.}..X`. X|.oXeXuXeXeXeX9X/ #.X.&.X.#.]._._.`._.`.",
"yXyXuXyXaXyXO.C G G G G L./.R.L.W.P.Q.L.J.Q.K.Q.~ C V C V C X.F.F.F.I.F.-.F.-.F.F.F.F.J.T.Q.Q.J.Q.J.!.Q.W.P.L.U.U.P.Y.H.E. X#X%X1X X<XpXaXpXiXsX0X/ S./ T.&.J.].{..X].&X].",
"<X<X%X#X+X.Xo.G G ~ G  .,.:.J.-.:.=.Q.:.Q.J.%.Q.^ ~ S G G G -.(.P.P.P.L.R.R.R.R.W.!.W.J.Q.J.Q.Q.K.T.K.J.K.T.P.).(.(.(.E.`. X X X X X#X<XyXyXuXiX+XO.o.o.o.&.T.Q.~.W.W./.~.",
"<.O.O.O.o.T.O. .....@.| S D S D S D ^  .^ ../ ..J.J.K.K.J.-._.OX@X@X@XXX@X+X+X1X+X:XOX).[.).~.).Q./ &./ X./ F.]..X&X.X XXX X X X X X|.E.Y.G.H.H.U.o.o.o.#.o.&.S C H C C V ",
"S.S.S./ O.O./  .| | @.&.~ B S S S S  .| | &.....#.:.K.F.F.-.`.OXOX.X.X@XXX@X>X>X+X+X.X(.).).!.).Q.^ / / ../ K..X|.|.|.|.|.|.|.|. X XE.E.H.Y.Y.U.H.S.o.#.o.#./ C C C V C G "
};
