/* XPM */
static char *_9820f582f98b9a4773cf124df963960[] = {
/* columns rows colors chars-per-pixel */
"85 85 185 2 ",
"   c #4C1C02",
".  c #501E06",
"X  c #501D09",
"o  c #4D2003",
"O  c #4B2108",
"+  c #532306",
"@  c #53240B",
"#  c #59270C",
"$  c #55290E",
"%  c #5B2B0D",
"&  c #582511",
"*  c #552B12",
"=  c #5B2C13",
"-  c #592F18",
";  c #5E3214",
":  c #5E3319",
">  c #602F14",
",  c #602D18",
"<  c #623215",
"1  c #683717",
"2  c #633A17",
"3  c #683A16",
"4  c #64341B",
"5  c #68371C",
"6  c #65391E",
"7  c #6A3A1D",
"8  c #703F1F",
"9  c #693621",
"0  c #663B21",
"q  c #6C3C22",
"w  c #6F3F28",
"e  c #713F25",
"r  c #713E28",
"t  c #6B401E",
"y  c #70421E",
"u  c #6D4125",
"i  c #6E4329",
"p  c #734225",
"a  c #794726",
"s  c #774926",
"d  c #7A4A26",
"f  c #74452A",
"g  c #78462C",
"h  c #75492C",
"j  c #7B4B2D",
"k  c #7D502E",
"l  c #7A4731",
"z  c #764A31",
"x  c #7D4C32",
"c  c #7E5134",
"v  c #7E5238",
"b  c #814F2E",
"n  c #82522E",
"m  c #814F33",
"M  c #835335",
"N  c #895736",
"B  c #875935",
"V  c #8A5936",
"C  c #855539",
"Z  c #89573A",
"A  c #86593C",
"S  c #8B5B3C",
"D  c #905E3E",
"F  c #8E603C",
"G  c #92613E",
"H  c #99633F",
"J  c #875B41",
"K  c #8D5D41",
"L  c #915F42",
"P  c #8E6143",
"I  c #8E6349",
"U  c #946344",
"Y  c #996645",
"T  c #976846",
"R  c #9A6946",
"E  c #966549",
"W  c #996749",
"Q  c #96694B",
"!  c #9C6B4B",
"~  c #9F704F",
"^  c #976950",
"/  c #9E6D51",
"(  c #9E7152",
")  c #A16E4D",
"_  c #A2724D",
"`  c #A3714E",
"'  c #AB724E",
"]  c #A06F51",
"[  c #A27151",
"{  c #A47353",
"}  c #A57453",
"|  c #A47257",
" . c #A67555",
".. c #A97655",
"X. c #A87756",
"o. c #A77855",
"O. c #AB7956",
"+. c #A77558",
"@. c #A57659",
"#. c #A97759",
"$. c #A9775B",
"%. c #A6795B",
"&. c #AB7A59",
"*. c #AC7B59",
"=. c #AD7B5B",
"-. c #AF7E5D",
";. c #B07754",
":. c #B17B57",
">. c #B27D5B",
",. c #B07F5E",
"<. c #B87F5B",
"1. c #AE7D61",
"2. c #B07F60",
"3. c #AE815D",
"4. c #B0805B",
"5. c #B3825D",
"6. c #B9815E",
"7. c #AD8164",
"8. c #AD8469",
"9. c #B38263",
"0. c #B48362",
"q. c #B58560",
"w. c #B58462",
"e. c #B48366",
"r. c #B68566",
"t. c #BA8563",
"y. c #B88766",
"u. c #B68963",
"i. c #B88862",
"p. c #BB8A65",
"a. c #BA8A66",
"s. c #B68669",
"d. c #B98769",
"f. c #B7896B",
"g. c #BC8C6A",
"h. c #BF916A",
"j. c #BE8F70",
"k. c #BE9172",
"l. c #C08661",
"z. c #C18B66",
"x. c #C38D6B",
"c. c #C88F6C",
"v. c #C09164",
"b. c #C2926D",
"n. c #C3926D",
"m. c #CA926E",
"M. c #C99A6E",
"N. c #C18F70",
"B. c #C59472",
"V. c #C79772",
"C. c #CB9572",
"Z. c #C69972",
"A. c #CB9A74",
"S. c #CA9A76",
"D. c #C69679",
"F. c #C8967B",
"G. c #C7997A",
"H. c #CC9C7A",
"J. c #CD9C7B",
"K. c #D19772",
"L. c #D39A75",
"P. c #D49D7A",
"I. c #D89E79",
"U. c #CFA077",
"Y. c #CFA278",
"T. c #D0A176",
"R. c #D3A37C",
"E. c #D3A37E",
"W. c #D9A17D",
"Q. c #D8A97F",
"!. c #D3A381",
"~. c #DFA680",
"^. c #D5A880",
"/. c #DBAB84",
"(. c #DBAA89",
"). c #DFB085",
"_. c #DFB288",
"`. c #E2A984",
"'. c #E4AC8A",
"]. c #E1B286",
"[. c #E2B28B",
"{. c #EAB18C",
"}. c #E9BA8E",
"|. c #E3B091",
" X c #ECBD93",
/* pixels */
"& 4 f C U &.q.a.=.U m l C l w x K f e M L X.} =.! S L C f x W M f [ ! _ ! S M q = C r.j 4 p f ) 4.y.l X e C S _ q.i.i.W S j x M 9 q / S q x S -.q.} W M S U x f C l p 9 9 ",
"4 9 l K K +.0.-.2. .S f l x f m E M q M U ] &.0./ C S m x x C S m E } y.! x C f % S 0.g < q x  .=.,.g # e m U } 5.} } W U M x f q e E M < g S ! =.-./ C S S M x C m j 4 = ",
"m x g g p L W j M K ! ! x e x C [ [ W &.U f S E M r f m E S 7 W ] j M +.C w l f f S E S U ! U x M ! K x x j f C E j f g M E C e x M W ! D ) ! M M ! S f x x L U e L X.N f ",
"E L f 4 & l x + & q &.B.C e K W  .a.n.H./ # q g , , 9 m #.K =  .e.< > C 4 = 4 e ! L g X.B.R.&.# < S W / M f = 5 x + @ = j r.L g L W } a.n.A.e.q @ g 4 = q f / [ % R A.X.E ",
"S S x r = C S = 9 e ! 1.x m E W ! 5.,.d.+.5 j K 4 4 f C / S 5 / #.7 f W 9 & q j ] U g [ i.B.-.< g U S E x p 5 x L < 4 e S d.U M S U W =.a.a.=.p < S p > g M  .! 7 G g.! S ",
"x x Z Z l 1.1.f x m Z S M S l x W } R W E j ! g.S w L U U E S / ! g W B.U 5 Z S g M M S U } W p U 0.M q g j g { g.S f M M U S K j p M E U G U j M d.! g S U W U E R X.B f ",
"Z x x x m s.=.j x M M S U M 5 p U U U W M M ! g.U q { ! C ! [ &.} B _ g. .g Z Z 7 p M M G } W f S d.S 5 M Z g  .x.U g j j M Z S g 7 M U G D G M S 0.{ j U ! S S [ ! X.n j ",
"2.W m f M [ ) X.q.=.=.&.! U E W ! S ! a.=.0.} ) K M n.=.M U ! n.n.X._ ! S g M S ! ! ) E U q.g.X._ X.X.! U S m U ! ! 5.4.4.5.S p E ! W ! ! 5.g.5.! U S j } a.M S } =.n._ } ",
"R.a.S x K U ! /. X/./.n.! ! B.a.X.W ! A.R./.,.S M ! /.a.S j V n./.R.5.V g M E _ B.B.g._ S g.R./.n.U i.R.U j L D S i. X}.]./.! < r.!.5.} _ n.].).n.G S S n.R.S M 8 X././.A.",
"A.a.S U  .W U n.R.A.Q.n.E U g.=.! [ R g.n.g.[ S S } A.a.! S R n.U.n.=.S N W R R g.a.5.S j a.B.n.=.G 5.n.M g E R G 5.A.M.v.n._ 7 &.r.[ ! D 4.M.M.g.R E ! n.A.S D S O.g.n.i.",
"q.[ M [ 0.! Z E W E =.=.E U 0.[ M Z M  .5.U S E W } 4.5.q.5.g.g.=.R E D R  .S S 3.} } g 7 -.5.S M U X.! S D ! ! S E G G G =.! m j q x C g E X.R U U ! =.i.i.X.i.q.4.X.X.X.",
"&.! x / ,.E K U S C U ! E W &.! C x M [ -.S m U  .,.=.q.n.n.B.q.} U U U R } Z L =.! [ M 5 [  .j M U  .} U ! ,._ S W L C S -.U C 4 = x j f U -.E M S ! a.5.O.g.B.g.q.=.X.} ",
"[ [ m E -.U K S C M K L m C L E E E E E E M x S [ =.) &.q.=.} } } D S W ! _ S S W U W E V W U f C S E ) M S g.X.S U C M M W x f q M W S K U [ U M S E q.R S 0.=.! X.=. .W ",
"L E M / e.W M q q e x C 5 q C U !  .[ S m f j S } =.M S  .U S ! ! j j W } ! S M S E U _ &.L j q x U S M j S a.O.M p 7 g e x p 9 x !  .&.#.S M e f S ! y.S j =.X.n G W W S ",
"U S S  . .] ! p e e j E M Z L E ! [ } [ ! j M ! &.a.S S =.W S L K j x U ! W _ ) M E W E  .C g g g S L S M U q.4.R M m x j K M j S E E [ W E E p g S ! g.! S } &.U S S U E ",
" .W S M p  .g.S C m U r.r.&.C S [ ) _ B.g.g S -.[ 0.) ! -.[ S q f E E E E G n.g.7 j U M S Z S L x q S ] M W B.A.B.a.=.M S s.! S U S M M p [ H.W N m M =.! M M L d.E M E &.",
" .+.K p < =.B.E U S  .g.g.,.Z Z [ [ _ n.g.N ! 0.!  . .[  .{ K 5 9 / ! ! R G n.a.< q S M S U W U m 5 Z } M ! B.A.R.B.0.j S g.} E E ! K M %  ./.R M S W X.W j j ! f.E S E  .",
"S E S M f [ =.} ! p S ! W ) W U E ! W } =.5._ E ! W  .[ E U C f g S K U _ 4.5.X.g x S  .&.E U x g m S E _ } O.O.O.=. .p p W W _ U S j M M [ a.R W } W W L S g j m E =.! S ",
"C M x K C E [ g.] = f K S K / U L [ [ W } A.[ M L S -.-.S M x x x x C M _ A.X.! M j x r.B.S j e p K S S g.=.S S V ! { > # f S =.U S f g W  .=.X.X.=.E U K x # @ # W B./ x ",
"E C q f x L ! d.[ q x L C x U L S ! ! U U g.[ K S f U ! S j f r x x S S R n.X.W x q < #.H.S j f m L S S q.} S S S E ! j e j W 5.R S j e K U E } ! ! D S E m 7 q 5 / D. .Z ",
"-.U 4 4 g C E -.=.W ! L g f L S x M C C E 0.X. .U j r p L x e f g g M E R q.} S j f . ! /.=.E S S U S U } R M M S f S g.-.G q.B.X.E M m K p < L W U S j W  .r.} M  .D.0.! ",
"d.W 4 r x g C #.5.&.&.E x x C x f g g x / 5.} X.U S w 9 E x e g M e M [ _ q.! M x x . ! /.5.) S S S M S } E M M U 5 M A.d.U a.R.q.} S U L f < Z  .W S j E ] g.X.N &.B.0.[ ",
"] E g U / m j S W [ X. .X.W x C L m f m U W =.g.S f x x S C S C { M U =.W ! ! S g w @ L #.x l j S ! M S X.W U ) =.R [ L C M S U E K E K p K ! g K L S C C w M S S W -.! E ",
"j W K #.d.U e 4 x !  .&.B.a.M ! -.M e x x j a.H.M = x K x U =.! r.U U -.S j ) ] f > @ M l # , 4 U B.U M ) W } 5.A.H.B.< = j =   q q { L % W H.p 7 M x x 5 = e M U N S B N ",
"Z W j E #.K f q M ! [ } B.n.M W &.M f L U m &.-.m e l K Z W =.[  .M B =.! B W W x q > K C 5 q 5 S d.W M S S ! O.g.g.a.7 7 U 7   g m [ E p [ G.n f E M Z 5 q j M E S N G U ",
"g.] < x E S K L E ! &.=.n.n.S W #.W W g.g.M S S W &.Z S U ! =.W _ n V 0.a.X.M j L L j #.#.g q f g U S M x g S R R G R p U r.K p W ! U U U [ _ n S a.-.0.C l M j D j n _ i.",
"B.[ q x J S L E E W } } n.g.S !  .W } B.d.b M K =.g.S M S W 0.W X.M G 5.g.q.N j L U M +.0.M q M M S S S M f Z U S U E p W d.W g [ ! S E W X.U b G n.n.g.E x M N j p n O.n.",
"! [ / U C Z U !  .! E U n.g.j M ! U E [ } [ E S  .a.X.=. .) &.W ! j b [ } } &.} M M x S ) q.=.X.q.q.! U } W W ! [ q.g.=._ R G g 5.0.S S S a.a.=.=.} _ ! S j S W ! U G R R ",
"j ! g.! g m W r.-.! Z M n.q.> 4 L S S S W B.[ g E &.n.R.B. .U E S p f K S U n.n.S M S M G R.}.T./.R.=.! g.n.5._ X.n./.}.g.V G S A.^.M g j i././.B.M g S Z M M ! R.A.q.R n ",
"x U 0.W j C U #.W K M x 0.-.g x E M M W W 0.U j E W =.5.5.[ M ! S x M M m S 5.i.S S ! E S a.n.a.M.a.} _ 5.i.=.W U =.n.A.a.V G ! n.A.U U S =.B.M.q.j M L K L M U g.n.q.R V ",
"C Z U S x x f M x g f f E  .-.[ S f j W U S x x J M C M S M f W { [ ! M M N _ } M S =.} M U U G ! ! U U X._ U B j R _ S E V G _ 4.5.i.m.5.=.=._ R N E U E W M V ! ~ R G V ",
"U S C Z g p 9 f x p w p C  .R.-.f j j L S x f f h z Z S Z 5 < E d.N. .M S N X.&.M W a.X.g K E M S  .U M 5.} B a p R  .j M S ) ,.4.5.A.R.A.a.! U L S S S _ [ M U 3.o.R S B ",
"#.W j x f h z q v f M J f M  .! C ! U #.g.g p Q q 4 M K K x f U ! ! U U ) :.Y } S S ,.! S M x M M U ! U U G W ! W W [ K j M X.A.Y G _ _ G T ! M M W E S G } S M T U G G =.",
"B.=.4 l U ^ J : 9 f Z S M K U N M W =.B.j.j x +.f : 9 x K M m S U M m M X.B.} E M D g.X.K j p f x U U E N S } } [ S S g p E -.B.G D } ! j Q { p f / ! K W y.B M U T } q.A.",
"d.+.4 z K U J 4 p S U S S U x M U ) =.g.1.x S ^ x i h M S K E C S f j D :.x.) S U W &.W S x f c A U U R N S } } } R U M j U E ! S E [ P h Q { j M E E S U ! S R G G _ =.g.",
"Z C q q 0 q f h S  .X.) U S j A ] } ) ! U f p i f A / ! W -.d.S M j S [ ) W N S x.' j p p M c U E S ) } E U D N V X.,.E c u p f M U S j 6 c K S c ; q 6 f M =.a.D V n n B ",
"f l x 9 = 0 f M K [ r.>.} D f S ) } } W S f : * f E #.X.) 0.g.S j p S } U M S U C.) ; ; 7 M M U U M =.6.E E D M N 6.0.! j = 4 6 K K C x 0 M U { S + + * 7 j y.,.V V G j p ",
"f x Q C i c M E U U X.} c.6.9 M ! ! [ N Z E M u C [ ,.q.:.' ! K S < j ! K j M M >.} j E [ [ U W S 7 W =.j E y.X.) R G W U U S f  .) X.K 0 h j [ [ ! U E U K } R n G =.V s ",
"f C g.&.C C S =.} S S M L.C.< x  .W U j S N.e.K E >.B.L.z.Y f K E < p / U j f j ! X.! m.P.t.X.&.U 5 M ! u S W.C.t.N g } t.A.} j g.C.W.=.h 0 ; W t.{.`.W.,.U U U B _ B.U k ",
"i x =.! j S ! =.=.W E S C.x.q l E L U U R ,. .C W q.x.B.x.X.M E P g h S U U g j U W D 0.x.R ! &.Q j c S f M a.l.O.M j E X.m.W j =.g.C.) q i h K ) A.m.C.[ S ! W M ! B.S g ",
"M h i i p #.m.) } ) ) } 6.X.S x x L ) m.t.Z u q U X.S S D ) ) U S C h 7 } L.! S M q + x E ; 6 h S ! x u c S ) O.5.O.! 7 7 S 6 = c K =.S + I 7.p u P C S u ; c c P Q M A h ",
"K f O = f e.B.Y ) U ) :.) ) ] S j L ) L.B.Z 4 4 S U j m p E 0.) Y E c % :.`.) S M u + f K $ $ < M ! g 6 x U U ' :.6.} % < A 6 $ p c } S   Q r.# = x x i ; $ u h P E j M g ",
"0.E 4 q C } X.>.t.;.<.:.W W X.) D U ) C.L.>.U f Z Z X.=.m L R ,.>.6.} p ! g.D D ) ! S M S S G G W W ! _ S S S R ' t.x.Y ) X.M 7 U  .X.W p X.x.Y S M M x S ) M c M E O.O.=.",
"W.y.C x S Z D C.W.K.L.6.U U q.t.} ) X.C.I.C.y.S S L L.B.S S M z.P.P.x.B M U M U x.C.x.U S B.W.P.q.U z.P.U M M M G z.~.K.L.x.' S ,.n.} ) W 6.m.W.x.Z j Z a./.E M g [ [.P.L.",
"K.t.S K ] S L c.C.m.m.t.U D a.6.U E U a.m.>.,.S U ! t.>.D U V 6.L.m.O.j M U S ! a.z.x.N b B.A.m.O.D q.x.S S W D U c.L.t.6.5.) V ,.x.) ! U O.z.m.t.E M S ,.x.U V M &.A.m.z.",
">.X.M E =.W S U W Y ) =.D S 0.R j x g X.,.! ! S ] } X.>.6.c.t.6.,.' U j S W S U O.X.X.g 1 ) X.) U N R ! M S =.) M R R D ' O.R N X.,.S N p ! t.) S U D } } X.t.,.t.=.U 6.6.",
"X.) Z W 0.) L U U D ) =.L S X.Z j f g  .W S U S =.:.) q.m.I.c.6.O.U G N U X.S U ) Y D f 5 U X.D S N U _ S S X.! M S S M R } U M } [ M M p ! y.G x M S 0.O.=.m.m.P.=.D X.0.",
"} U M ! y.U M M M M U E C K ] W ! W W -.S f M Z ) 6.! ) 6.6.) X.X.j S E ) ,.M S ! ' _ G Z E [ M M S N ! S S ,.Y M x j j M ! U b ) ) U U N ! W M A S M =.X.} ' 6.=.[ &.W [ ",
"Z m g  .B.) c q q h M Z M C U ! =.=.) W x 4 u C W 0.L M O.! j S K ; x W X.0.M M N _ t.,.X.L M 6 j P x C f S y.) K q : 0 p K A M S S } ,.} ! M < < S E 0.D M } D j #.B.K K ",
"C S U ! ,.W f 6 : f c M K C K E W  .W S Z f h J E #.E S =.W f Z x q c S W [ U U j U ,.} ' U M p j K M M M W =.) S u 0 z A S S U M n ' ,.) W M p f K U  .S M W ) m ] s.K S ",
"U ! B.W x M f J Z K U E =.W K M 0 c S M U S f i f h U U K c w A K A h : 6 m 0.6.S M D S W t.=.S x h S W t.O.j h u c A S ! U } t.D H t.O.V S S A x 6 4 x S E S U x J W K S ",
"Z U P.W 5 f q E ! U K W t.X.S f $ u K K W K l 6 : 4 K U x f p C c A x = 6 7 a.n.U S S M V a.t.W C q j D m.t.q q 6 A K S ! U X.t.Y R z.O.B S S S A 4 $ 6 S ! b j e x K Z S ",
"j S B.) q c x E ! W S U 6.=.S M f C W K U S S M q p W ! E C h x c S P h M p ,.t.M S U ! R X.) U S j g M a.>.g x M L S S U S ) 6.D V :.:.) G S D ! P h u S } S Z f x S S C ",
"9 K x.! p S U W ) ! E L =.=.S ! #.+. .S U E U / l l =.=.&.E p c K ! ! S S M ,.0.S S W &.[ S S E U W M M z.,.m S ! X.W ! E C ! X.S D :.O.,.G M U ) ) M q U 0. .W g j x x l ",
"f U e.W M ! ) U U U E S ! [ S ! =.[ ! M S E D ] j p  .} W E f c K W S S M G =. .S S E =.] M S U Y ,.S f ,.} j N ' X.E W U C [ #.S U } ! X.S M S Y X.S a W ,.X.U M x g p p ",
"l j M S ) g.y.D Z M S M x M f x S C S x M L ) B.X.E  .W S E E M j M U x.X.} E M x C M D M g Q G X.A.U q M U E O.a.R S S S x M c x M S N U S M M ! A.a.! ) R E M E K M g f ",
"J h u S } c.c.S M h f c f f h f M C S S C S X.P.g.X.! U x S %.C M g R `.x.) j u q c C M M A / N :.P.W j q c ! 6.x.H N C M c x x j h C M c S S M ) P.m.=.) L S j E K S M x ",
"0 0 h C W ,.t.O.W C f z z z i f S M j C S ) >.t.=.U U U j x E x S M ) C.O.D j f : x | f 7 x S D :.z.S g h c E X.z.,.! U M x c x u f P C u c S D ) 6.X.Y U S M M E M j w 9 ",
"* 0 C S ! :.:.g.=.U M f u z q z U f w f S 0.,.:.] j M M x c c x C U X.X.U M x u $ x B.g + q M ,.,.X.j ; x M S ) t.m.O.! S j v f 6 q S M ; u M } O.>.) N S C j M M f p = * ",
"* 0 f x L #. .=.[ K W K 0 i f M U j M M S W ) =./ l x h A M f K K M ! ! W C h p 6 c -.j < M U X.! [ M 4 j x M ! =.X.E U S S f = u h U S f M U ) ) X.E x M M M x f M L p 4 ",
"K Z h q 0 M x 6 0 9 W 2.i h Q E ) X.>.q.! 4 q A q 4 i u E j 5 +.-.< p S M 0 q x W D S ! O.m. .q q S K C x u : u M 6 : q C 0.S q S E ' ,.O.q.=.p 7 S h 6 q h / E % S t.R Z ",
"[ C f : $ z i O - q ! y.x z / U ! t.t.A.#.o = x : 4 h x { S 7 #.r.= q S 0 O q M X.E g ,.m.W.=.+ * x S U j u $ 6 v = * : M B.E q U ! ) t.m.W.a.% @ c q * 6 j =. .% D C.;.W ",
"P x x p q U P q f x E ! M x Z C L #.} 0.{ 4 j Q f z S K / W Z [ &.g V  .f = h c S S M  .6.t. .7 g E U M j h q M / f q f M =.E g C C U ! 6.t.,.p f / A 4 M S ! ! N ) x.U M ",
"q f C S C 1.d.P C C U M S M q j M U U U K f U 1.S S W E S W [ ) ! S R d.! c A S p j x S ) W W M E d.] g M S M Q -.M j S M D E S u q S N ! G U M U d.+.p E E S W ,.} } g f ",
"A S Q A p {  .s M P M T E j j M M U W ! E C E 0.S j [ } S W _ } } V ! g.E M K S S f j U ! ! R j S y.U j S C c U X.S a N W U Z K 7 f S U U G _ U V 5.W f ! ! N U } =.) b j ",
"u.7.M S S U [ g.A.h.g.h.o.T -.#.~ ! } n.B.B.5.U U S B.g.S B D 6.B.H.,.! M x K W g.a.=.! W 0.n.g.t.D ,.B.L j S S ! x.P.m.P.P.} U d.&. .W U q.A.R.t.W U M q.R.M M M ,.P.g.B.",
"Y.Z.f C E S _ /.[.R._.^.X.! n.u.} _ X.P.[.}.a.d F ! /.n.V n V g.R.[.,.M M S L ! B.R.B.X.S n.R./.m.n a./.E M E M D P.'.P.`.W.O.G n.g.q.X.! n.R./.A.S S G g.[.S g M 0.`.W.P.",
"h.a.c P [ W U 3.5.3.a.u.R F u._ G G G i.n.u._ n R R i.4._ O.) O.5.i.} M U ! S D i.g.5.U p q.n.q.X.Y >.6.S U &.S N >.>.' l.t.X.R X.,.! E U 5.B.i.X.S U } i.B.=.E ) y.x.t.t.",
"O.o.A ! &.U j A S S G ! F S o.U n a s X.X.V V G } _ X.X.a.C.B.t._ D U S  .0.S N =.O.! j 7 #.0.M ) } :.X.M K y.W x L Z m U ) U V &.X.Z g f U =.G S U W =.} =.B.C.P.m.:.=.X.",
"{ { M ! =.S A K A S !  .E ! =.! D N M }  .S G S 3.d.X. .g.g.5.=.X.D S U ! } S S X.=.) M p U ] M U W } } C U >.! S A K K E [ E S &.[ S M j U  .S U U ! a.X.=.n.g.t.q.-. .[ ",
"E E c [ r.U S M p f M S S P U E !  .W U M g N S -.d.E L ,.) D U  .M M ! } ! M M U _ } } W S C x j K U L M E O.) K x h h M K M S p C W X.) E Z f x M ! n.} S  .! U [ -.! ! ",
"S S M { k.| C l w w f C W P c E  .=.X.] m p j U 0.f.W K } W M U ! g S [ -.! M M S _ ! =.X.K x p x K U S Z E ,.#.U Z i 4 l Z S E 7 m &.0.0.[ M f q j [ B.[ c / ! j E =.P E ",
"S Q Q S Q U x M c M K Q &.E M K ! U W ! S M j C S E E K Z m p S E M L j S E W ! U W L ! E L C l C j S D ' ) C M z v c f x C !  .M M W W ! E m M g p C ! K C Q S c P ! P A ",
"S =.g.S 4 9 q c K E E P =. .C C K M Z Z K K j 7 % f U S f e < C U L K + # j &.0.S C M S M C C U x 5 S W C.0.= * q f Z U P C #.y.W M M S Z Z S L S p 4 e M U K g q h A g c ",
"M { k.S = q f x P E C C 0. .f Z K Z D M S J j f = l ! U x j e U L S S q 5 p ! X.S S U S U j m ! j q x C t.=.; 4 l x M E E M ] e.U g M S M x C L x e 4 q K E P M u u c k h ",
"f x E c w J K f f l x S Q M @ p x S W Z C 4 K 1.M f K L K L S ! S f U g.1.U ) W M W g.a.g.p p ) r.B.C p X.X.W #.9. .E { K p L { Z g x.g.-.M q / ] 0.{ S 2.r.q.3.t ; 2 t u ",
"w 7 M C x E / f 9 q P ( C C w j m Z W U K 4 W F.K w x S L W S ! L p W (.d.U ! E S _ R./.H.< p X.x.|.c = W } ! y.B.&.! 1.S w Z U j M ^.R.B.S 7  .0.H.r.S y.H.B.{ t 6 2 ; ; ",
"x l C x 7 M A 6 9 6 E #.j M M C M L } ] L 5 x  .M f j S ! ! L  .W > g 0.S g M M S U O.n.B.M N M U 0.S h U S g K &.M f K S M x l x U q.g.a.W S U S =.U f U &.g.! 3 k S c c ",
"P S x 9 + p h ; 9 7 E -.j h M C D [ ,.=.E < 7 S p p j S X.=.W 1.{ # < S 4 = q f S E b ! =.=.W < < h A K x q * 6 M 4 $ q A { M w K U M R X. .0.j # x q 4 f M #.! ; S 3.I Q ",
"E x p p $ f l 4 4 7 U o.M A S j G } =.r.+.< f N < % p S _ } W 2.#.+ < Z 4 = f j M E g  .-.d.E % q M A M z 0 * 0 c q 6 0 c +.U p S c M  .g.q.-.g = K l 4 f M +.! o F f.E P ",
"< p E A K s.f.S P ! B p S S s V A.n.=.m j ! 5.B.S M d.n.B.} b ! =.-.W q q u c C q p j M M B M f p #.M u c c h u h 0 u 8.7.U M c u g x U j ~ r.p 7 C S g l S U Q E F F h g ",
"< p / E E D.G.E W 0.V 3 E U y T B.B.-.f f =.n.n.S L B.B.B.} j R 0.q.! p u i c M % < q j x S x 5 c u.c ; A c h i i h v 7.7.! A c 6 u p C g [ g.M p S Z g x K K U E F S ; ; ",
"S S S S P &.&.U ! 3.! V G F F o.5.=.} U ! q.q.&.C C -.-.-.W b =.x.x.X.g f f c M S S S S S #.! k E ! U B k c c c h A Q %.=.=.P c K P S E M #.D.K m S M f M L K C M U | k V ",
"G.=.p t A M M S T _ 3.a.V B q.q._ S ! g.A.n.} U x f U S K Z b a.C.C.,.j h h c M j.0. .U S f.r.Q ! j 5.R.g h c M h ( 8.( #.f.E x f.f.+.+.P 9.H.W K K x f S U S c p ! R.g.g.",
"B.3.p j M M M B T ~ a.Y.B k B.r.W S ! g.T.B.=.M m x L S M m a t.L.L.6.n j h c M G.f.#.K M f.g.( ! B O.B.g h A A g %.k./ +.D.Q j f.g.| ( P s.!.{ E K j g K E A j g ~ !.n.n."
};
