/* XPM */
static char *player_1__removebg_preview_1_1700666107[] = {
/* columns rows colors chars-per-pixel */
"85 85 256 2 ",
"   c #0B0605",
".  c #150B0A",
"X  c #180A07",
"o  c #1D140B",
"O  c #1D1B0C",
"+  c #181708",
"@  c #1D1712",
"#  c #180D0F",
"$  c #230D0D",
"%  c #260D08",
"&  c #23130D",
"*  c #231B0D",
"=  c #28190B",
"-  c #230E14",
";  c #241312",
":  c #2A1514",
">  c #231C12",
",  c #2C1A14",
"<  c #2D1B1A",
"1  c #27161A",
"2  c #321B15",
"3  c #331D1B",
"4  c #3B1D1A",
"5  c #371715",
"6  c #36120D",
"7  c #2B260E",
"8  c #2C2413",
"9  c #2C2715",
"0  c #342C15",
"q  c #392D15",
"w  c #352C19",
"e  c #3A2D1B",
"r  c #36231A",
"t  c #3A3216",
"y  c #3B331A",
"u  c #373117",
"i  c #332811",
"p  c #2C1C21",
"a  c #392725",
"s  c #3C3522",
"d  c #3D3131",
"f  c #1F2010",
"g  c #451B16",
"h  c #521D15",
"j  c #47241B",
"k  c #562C18",
"l  c #43361D",
"z  c #5C341C",
"x  c #5A3518",
"c  c #48260B",
"v  c #63351C",
"b  c #6A3B1D",
"n  c #65381A",
"m  c #67301B",
"M  c #462924",
"N  c #572B25",
"B  c #483828",
"V  c #5C3423",
"C  c #573626",
"Z  c #543B35",
"A  c #493433",
"S  c #662D28",
"D  c #653B23",
"F  c #6B3C24",
"G  c #643C2A",
"H  c #6B3D2A",
"J  c #673426",
"K  c #733928",
"L  c #673933",
"P  c #76322A",
"I  c #461F22",
"U  c #6B411C",
"Y  c #76481C",
"T  c #4A4228",
"R  c #55462B",
"E  c #594639",
"W  c #534D35",
"Q  c #6D4124",
"!  c #6D432B",
"~  c #66442A",
"^  c #734425",
"/  c #73442C",
"(  c #7A462B",
")  c #754B2C",
"_  c #7B4B2C",
"`  c #784926",
"'  c #7D512C",
"]  c #684737",
"[  c #734532",
"{  c #744A32",
"}  c #7B4C33",
"|  c #744C3A",
" . c #7C4E39",
".. c #794434",
"X. c #67553C",
"o. c #7D5134",
"O. c #7C523B",
"+. c #77543C",
"@. c #5B4942",
"#. c #694C44",
"$. c #6A5545",
"%. c #785747",
"&. c #785C53",
"*. c #734E45",
"=. c #7B634A",
"-. c #7A6555",
";. c #6E6154",
":. c #796763",
">. c #7E7161",
",. c #8F392F",
"<. c #824D2D",
"1. c #844D2A",
"2. c #84522D",
"3. c #8A552C",
"4. c #834E32",
"5. c #854C3A",
"6. c #845334",
"7. c #8A5534",
"8. c #855934",
"9. c #8C5A35",
"0. c #84543B",
"q. c #8B563A",
"w. c #855A3C",
"e. c #8C5B3C",
"r. c #925B35",
"t. c #925D3C",
"y. c #945938",
"u. c #965131",
"i. c #AC493A",
"p. c #8D603D",
"a. c #94623C",
"s. c #9A643D",
"d. c #986638",
"f. c #A56B3D",
"g. c #CF523A",
"h. c #855542",
"j. c #855A43",
"k. c #8C5C43",
"l. c #8C5C4A",
"z. c #875847",
"x. c #925D42",
"c. c #955D47",
"v. c #825B51",
"b. c #B85346",
"n. c #8E6243",
"m. c #8D644C",
"M. c #86644A",
"N. c #946343",
"B. c #9B6544",
"V. c #9C6A44",
"C. c #94644B",
"Z. c #9B654A",
"A. c #956A4B",
"S. c #9C6B4B",
"D. c #956945",
"F. c #9E724B",
"G. c #836353",
"H. c #886856",
"J. c #9C6C53",
"K. c #956A57",
"L. c #897358",
"P. c #9D7254",
"I. c #98755C",
"U. c #A26C45",
"Y. c #A36D4B",
"T. c #A66A48",
"R. c #A57146",
"E. c #A5724C",
"W. c #AA744D",
"Q. c #AD7A4D",
"!. c #AA7446",
"~. c #B3784C",
"^. c #A36D52",
"/. c #A56C55",
"(. c #A57353",
"). c #AB7553",
"_. c #AD7A54",
"`. c #AC755B",
"'. c #AC7B5C",
"]. c #A4775A",
"[. c #B27B54",
"{. c #B37D5B",
"}. c #B67956",
"|. c #8D7564",
" X c #937563",
".X c #997966",
"XX c #997C76",
"oX c #887570",
"OX c #AC7C62",
"+X c #A47B65",
"@X c #A27D74",
"#X c #B57D62",
"$X c #D75845",
"%X c #E85B48",
"&X c #C3704E",
"*X c #AD825A",
"=X c #B58255",
"-X c #B5825B",
";X c #BA845C",
":X c #BE8A5D",
">X c #BA8656",
",X c #B78851",
"<X c #9A8367",
"1X c #9C8379",
"2X c #A88569",
"3X c #B48262",
"4X c #BB8562",
"5X c #BD8A64",
"6X c #B88969",
"7X c #A88676",
"8X c #B58C74",
"9X c #B9977A",
"0X c #B29374",
"qX c #BFA27E",
"wX c #C48B5D",
"eX c #C3885A",
"rX c #C79359",
"tX c #C38C64",
"yX c #C48D6A",
"uX c #C58A65",
"iX c #C59164",
"pX c #CB9465",
"aX c #C6926B",
"sX c #CB946C",
"dX c #CD996B",
"fX c #C99A68",
"gX c #D2996A",
"hX c #CC9A74",
"jX c #C79776",
"kX c #D29C74",
"lX c #D49972",
"zX c #C68C6D",
"xX c #C8A27A",
"cX c #D9A478",
"vX c #D7A26C",
"bX c #E0A26E",
"nX c #957D83",
"mX c #9E8A89",
"MX c #A78985",
"NX c #BA9D83",
"BX c #AB9388",
"VX c #BCA488",
"CX c #BBA79E",
"ZX c #B3A5A4",
"AX c #C5A582",
"SX c #C9A684",
"DX c #C9A988",
"FX c #C9AC93",
"GX c #CCB299",
"HX c #D7B798",
"JX c #D4AD89",
"KX c #E2B593",
"LX c #D7BBA2",
"PX c #C19C81",
"IX c #E4C7A7",
"UX c #DFC2A1",
/* pixels */
"! D Q Q p.p.U n U ) O.].'.)._._.l.h.w.h.0.) _ _ ' ' ' _ ) A.F.'.{./.k.q.H ..[ S D ].'.'.z m ^ ^ ` F._.*X}.`.k N /  .{ l.K.OX3XOX4X#XB.B.C.` } K [ [ G F O.n.n.b Q { _ _ '.",
"| / Q ^ k.e.) F / 0.h.P.K.].'.].z.h.w.h.6.6.' _ O.' ' ' o.D.A.P.].OXq.0.[ ^ H v K ^.'.(.m n <._ ` D.F.].'.E.n x [ { { j.m.`.3X'.'.'.S.C.B.0.4.H ! / F ! n.p.e.^ ^ _ 6.e.A.",
"/ z.h.N.S.S.'.{.W.-X].) [ [ z.v.~ G G / ) S.S.U.V ) '.3X'.^ ^ c.z.k.D n ! Q Q k.x.C.c.x.).[.-X{.'.) ~ M.M.w.w.6.[ [ ] D H k.k.w./ / ( <.4.`.].} / { k.n.S.B.V.).-X-X{.'.} ",
"{ Z.D.D.U.E.5XtXwXiX6Xk k V ] | C k z Q _ )._.Q.~ ! 6XaX5Xn z *.v.%.z z Q Q b J.A.z.5.y.sXpX5XsXzXx k { j.o.S.J.{ { ) k z  .%.+.j h J F K 6X6X! [ F C.A.S.E.).uXtXtXyX6Xn ",
"} k.N.n.E.E.4X5XuXtX'.z k C +.$.V k z / <.Y.W.W.n Q -XaX{.D G &.v.v.V v Q / ) C.A.h.*.k.4XiXtXyX6Xx n =.+.+.C.N.) K / k V %.%.&.N j ! ( ( 3X'.) { } k.C.J.^.^.4XuXtXyX4XD ",
"O.[ / / k.w.Z.Y.Z.S.S.O.X.#.@XmX] ! { A.Z.V.t.e.E.F.F.R.Y.7.h.7XMX7X| { ) _ } ) } } 4.} e.B.B.Y.D.) *.1XmX1X| ) e.t.k.[ | XX@XXX| ! o.<.4.B.e.q.h.h.^ K q.q.y.^.B.B.U.S./ ",
"0./ F ) k.t.Z.B.s.U.d.2.o.*.MXMXO./ ) S.Y.e.t.C.Y.W.E.R.U.t.h.7X8X7X ._ 2.6.6.} ( 4.<.' N.D.D.V.V.0.v.nXmXXX%.^ 6.7.7._ } @X7X@XO.} 6.3.r.t.t.q.w.7.) ` q.e.N.B.B.U.V.V.6.",
"B.).W._.Y.V.E.V.Y.yXiX:X:X6XA.G.k.0.x.yXtXa.q.e.y.t.sXsXsX-X6Xn.G.K.w.9.r.a.t.3X6X-X-X).N.x.4XiXwXuX{.K. XL.-X=Xw.7.6.e.w.K.H.K.6X6X5X5X;XtX;X( ^ ^ (.'.S.Y.B.S.S.4XtXiX5X",
"Y.uXpXwXQ.W.U.T.).kXgXbXcXvXa.e.M.k.C.kXsXr.6.e.4.r.JXcXvXbXpXe.3.w.n.D.C.P.P.9XjX9X8X6XJ.F.8XxXdXcXdXa.r.d.pXgXt.2.4.t.k.x.N.t.vXcXcXkXcXlXaXK n U rXrX~.[.T.T.E.sXcXlXcX",
"U.tXuXwXE.W.V.N.Y.lXpXgXgXdXa.9.x.s.U.sXsXB.e.e.9.s.sXhXkXpXlXA.m.H.$.$.$.E E E Z Z E E Z E -.H.2XxX9Xn.t.T.gXrXy.4.e.e.N.t.7.r.hXlXhXlXsXdXtX^ F ^ _.;X!.(.).S.V.aXgXgXlX",
"N.{.}.[.7.6.6._ 6.{.{.x.x.c.6.a.~.~.Q.[.eX:XiXpXpXeX}.{.{.S.J.%.B , ; 1 < ; > 1 r p p p < 1 r 3 a B $.H..XZ.).Q.7.7.q.{.{.1.y.x.y.c.y.s.a.W.'.q.l.h.H F } q.6.) } {.{.).B.",
"c.).Q._.t.8.} } 4.(.`.l.l.m.k.k.Q.=X>X!.Q.pXpXwXtXtXQ.{.`.x.m..X&.d < < : ; ; > ; : : 3 3 , : 6 < 3 , 2 B #.I.2Xc.0.t.[.[.9.y.7.e.t.9.9.9.Y.(.x.l.z.V k o.8.6.4.4.J.`.`.c.",
"} S.s.V.V.F.n.n.a.B.N.} [ } k.t.;X-X{.s.B.[.).~.s.E.B.T.Y.5. .A..X$.3 < , 2 : = 1 < < < < < , , 4 : = < < < B ] I.h.8.).=Xr.r.t.} { _ _ 7.t.y.1.` ) *.h.D.V.U.x.N.a.V.S.6.",
"F w.t.a.W.W.E.Q.V.t.q./ ! H w.a.&XeX}.r.3.T.).T.9.7.B.Z.J.} { C.I.|.A < a < 3 < ; ; ; & : 8 < 3 : 2 , r 1 ; ; 3 Z H.m.*X}.r.r.u.| ..} / ( 6.3.n U U w.x.E.!.~.Y.(.9.9.q.F ",
"..h.t.y.W.E.U.U.S.V.e.F ! ! c.t.2X6X{.7.3.Y.W.U.u.z.c.Z.z.#.| Z.A.+X%.w < < < 3 2 : = : , 2 2 2 3 < = , , < , : 3 A &.6X-Xs.3.s...{ _ [ { z.j.b n ^ q.t.T.E.(.^.C.S.x.x.^ ",
"@Xc.7.3.E.R.!.!.Q.fXiX8.) 8._.[.nXoXXX.X].`.).).x.h.G H G :.|.K.U.S. Xj : 2 3 2 3 , 3 < > 1 > < 3 5 4 2 2 3 = = < : C 2XjXyXsXeX{.Y.6.O.v.@X7XM.a.t.r.s.r.a.w.G ^ 6XkXsXa.",
"@Xx.2.r.T.Y.W.W.Q.dXhX7.3.y.).{.oXoXXXI.].).).~.z.h.J J C :.H.K.f.P.-.a & = : 2 < 4 4 < # .     # $ 1 3 : : r : 5 : a XXyXiXaXpX-XOXh.{ &.nXMXn.d.a.s.r.t.w.q.J G jXJXlXd.",
"m.c.a.a.r.r.Y.Y.R.-X=X=X-X{.B.B.-.:.K.+X`.N.x.y.O.o.^ [ [ M.z.z.r.K.E . . X X = @ : 2 ; # X $ 6 % X X & ; < 3 2 1 ; @ #.].U.Y.E.(.(.F ~ R v.G.S.U.V.r.p.` / } O.z.{.}.}.T.",
"h.A.S.D.q.e.E.Y.S.R.R.dXdXyXr.7.z.0.k.`.OX6.4.5.} } } ) +.5.4.4.7.H.r           . # X X X 6 N K K S 6 % X . ; ; X X # M A.9.y.w.].J.x c k | 0.^.).W.a.p.n n H N.c.~._.!.Q.",
"4.C.n.m.w.q.U.U.P.S.R.yXsX5XB.Z.q.4.q.).`.q. .0.o.} ) ) | 4.1.7.l.H.; .   . .   . .     % S i.b.$Xb.,.P 5 X       % M Z .Xt.y.M.P.N.U x v  .6.).Q.Q.a.p./ b ^ w.c.T.R.V.Q.",
"` 6.o.0.) ` q.x.w.w.N._.{.{.^./.7.4._ b b w.x.w.H ^ ~ R / ..4.n.A..X#     X   . . # #   % P i.g.%X%X$Xb.,.h X   . g ,.z..Xh.7.6.Y ' *XiXwXZ.B.fXgXpX[.).e.6.4.k.q.J v G H.",
"2.6.} 4._ 6.) 0.0.k.t.'.`.`.'.#XO.} o.F ^ N.B.p.! ) ! ) [ ..} m.A..XE a X X X X # X .   % P $Xg.%X%X%X$Xg.P 6 . . h b./..Xz.u.9.Y 6.3XpXtXZ.S.fXhXsX[.).9.7.<.q.0.D v G G.",
"].7.7.7.B.S._ / o.w.q.U.U.U.{.{.{ D Q / ) 8.8.8.n.n.B.S.Z.q.q.(.^.2X7X:.a , , $ $ $ #   % P $X$X%X%X%X%X$X,.6 X # g i.b.2X(.~.!.Q.].l.M.z.z.l.M.C.C.n.s.B.U.c.4.} A.S.A.o.",
"aX9.7.e.R.E.F D U q.e.B.t.t.yXuXn k z o.O.O.8.p.Q.F.(.}.).e.q.}.}.8XFX7X] M M a 3 2 , o X k i.g.%X%X%X$Xb.P 6 X . g u.b.7X*XeX6XuX4Xx x C | | C C C [ ( U.).Y.b D 3XyX8XQ ",
"yX7.7.t.E.E.Q n ^ 9.t.x.h.U.tXuXn x v | O.8.8.8.W.E.*X(.].w.e.6XDXGXGX|.B M Z M j 4 3 1 X % j P ,.i.i.,.P h $ - . 6 L /.OX5X>XtXiX4Xn k l *.*.k V V [ _ R.!.V.^ ^ 3XaX3XQ ",
"aX3.1.7.V.Y.D.S.S.tX;X6.o._ t.q.).].^.N.6.7.w.e.(.R.R.R.F.8.I.FXHXIXUX<XB 5 3 M M M M < $ $ % $ % 6 5 g g g 2 : - - #.Z.x.B.V.B.s.S.) ) $.1X7X] G | C.B.B.e.B.A.S.E.R.F.6.",
"iXu.9.y.U.U.U.B.W.uX;Xo.+.6.w.w.`.{.'.a.t.t.x.r.U.W.s.d.F.*XVXGXUXIXIXJXH.M = $ 2 M M j 5 , < < r 3 3 j M N N M 4 A G.A.q.T./.B.U.S.q.6.O.7X7X*.) ) A.S.Z.c.B.W.E.R.E.R.e.",
"5XY b K c.U.B.y.s.!.(.L. X X+.%.'.{._.W.[.Q.).[.f.U.D.P.I..XBXVXFXHXIXIXFX.X#.r - $ 5 a M 4 r 2 5 4 4 4 M M M M A G.+XB.s.U.Z.Z.>X:X{.{.-X.XK.%.O.8.8XNXC.w.9.9.a.;XfX5X-X",
"6Xb m K N.N.7.r.r.r.C.MXMXMX+.+.(.`.{.tXsXtX;XuXy.s.P.L.$.W ] =..XVXJXJXJXJXNXL.$.a & - , 4 4 r 2 r r , r r 2 4 %.9XsXW._.F.V.Y.gXkXlXvXvXs.7.e.c.m.CXCXH.w.y.7.q.lXJXcXkX",
"6X/ v ^ e.N.y.q.9.9.Z.1XmX1X=.+./.`.`.5XzXzXuXyXs.D.G.A 9 9 i i E |.qXAXAXSXDXAX9XL.W w o X & : 3 r p r r : j $.BXcXwX~.E.d.V.V.gXlXlXcXpXu.9.a.r.n.VXVXA.8.t.q.y.sXlXcXsX",
"F.*X-X'.t.7.q.h.e.y.t.0.%.+.^ ~ ( ( } 0.k.m.K.K.=.$.T 9 > > 8 = 9 E <XqXDXxXxXDXAXqX0XL.X.M r & % : 2 4 3 j -.CXLXjX_.9.7.} 6._ ~.`.D.B.d.r.A.P.*X_.*X*X>XrXpXtXeX4X{.{.U.",
"d.:X:X-Xq.4.z.h.h.B.d.2.' ' ^ ! ^ } G.G.$.W W B B s 9 * 9 > 8 > = 7 W L.9XFXDXAXDXDXDXAXNX0X.XG.$.X.E X.=.7XFXLXIXFX6X9.5.5. .' ~.`.l.k.k.K.=.H.L.2X4X}.iXfX:XpXpX~.[.'.c.",
"B.Y./.Y.p.w.Z.T.!.-X[.2.' ' +.M.L.=.W l l t t l y t 0 9 7 * * 8 > > , B -.0XVXDXxXVXDXDXDXJXDXAXqXqXqXqXDXDXJXHXHXGXBX2XA.y.s.a.S.J.0.O.G.-.a 1 2 a :.+X}.}.>X!.!.{.^./.7.",
"} x.t.y.t.N.).`._.jXaX) { %.2XNX<XX.l t u t t t t t t 0 8 8 * = > > * = l +.<XVXDXxXDXAXAXAXDXDXJXDXDXxXAXAXDXJXFXVX2X0X'.E.]..XI.K.+X7X.XE % ; & $ a M.'.W.U.7.3.B.S.C.( ",
"h.h.6.4.B.B.).-X7X7X7XH. X7XGXDX<X=.T t l u t t y t y u 0 8 * & * > > * 7 t R X.D.<X9XxXAXAXAXxXDXxXDXxXAXAXAXAXVXNX<XI.].+XH.W w E 1XFXVX$.i 1 : 1 @ E .XT.E.o.4.Z.Z.C. .",
"c.{ / } T.T.'..X#.j M M B H.DXJXqX<XX.T t u t t y y t 0 0 8 7 * > * = = * 7 t y l R =.L.<X0XqXqXqXDXVXqX9X0X2X<X|.<XL.|.%.B 8 > + s |.GXGX<XC & ; $ - A K.7.7.H F w.z.l.l.",
"Z.F ! ) ^.`.+X=.e r r r j #.9XLXFXqXL.T t t t t t u 7 0 0 9 8 > > * o * * 7 i y u u t l R X.=.L.<X<X<XL.L.$.R l e s a w 7 O > * 8 7 X.VXHXVX&.< 1 $ , @.K.e.4.D D h.z.l.C.",
"{.b D Q S.J.+XH.M 2 3 6 2 E 7XHXHXxX<XX.l t t t 0 0 7 7 7 9 8 O > * > > * * 8 w y u u u y y y y l T R T B y 8 = o @ @ f @ + * * * * B 2XHXHX|.B & & , G.+X_.E./ G { } } Z.",
"sXm k F K.S.J.I.#.M a M d W 2XGXHXHXqXL.T t t 7 0 7 7 0 7 0 > O > & o O + 7 8 8 u y u t y y w 0 u u 0 u u 0 9 9 > > 8 O @ O * * @ , q G.DXLXVX$.2 $ E 8XlXuX4X<./ ! J D J.",
"jXD k J C.S.c.c. X&.@.:.1XmX0XGXHXHXAX<XR 7 7 0 7 7 7 0 7 8 8 7 > * * > = * * O i q t t u u u 0 u u u u t w 9 * O > * = * 8 O O > @ * X.NXHXGXL.M s oXjXuXpXtX` H / D ! (.",
"OXk.l.l.| | C.e.V.hXPXm.K.@X2XVXKXUXVX0XX.7 7 7 7 7 w 7 9 7 = O * * > O + * 7 7 i 0 u t t u u y e q q q q w 9 = : , & * 8 O > O @ @ > B  XDXGX7X;.&.v.4.).{.(.m V P.+X*X~ ",
"].B.N.p.} { N.N.B.kXjXw.h.K.<XBXHXHXHXqX=.l u T W W T s 9 0 O O O * > > 7 * * 7 i T R y t t t t y 0 0 y w 9 > > 7 O * > O & = > 7 > + , E 7XFX<XX.~  .<.).}.^.m v '.6X].b ",
"V.)._.W.p.p.N.a.f.sXgXf.W._.I.1XqXGXDXCXBXL.=.>..X.X8X2X=.u O > * * > > > * 7 9 T W X.T t t t 0 t q 0 0 w w 7 + + O * = = * + * + * O > Z L.2X0.{ / V.U.W.~.E._ } 5XiXtXU.",
"a.;XwX:XQ.W.V.B.!.pXpXpXpXyXK..X0X*X<XZXZX=.p.=. .6.lXJXVXW 8 & * > * O O * , w u T T l l t t l l q q e e 8 = * * * 8 * O 7 O O > 9 s E I.9XtXy.h.r.eXeX~.W.(.d.Y.sXpXsXsX",
"t.tXwX>XR.R.D.B.V.tXpXgXpX4Xx.c.y.9.c.BXmXM.d.q.4.a.dXcXqXT + * O > * o & 8 9 w 0 t t t t t t t 0 0 w w w 8 > > > @ + @ @ O w A &.|.0XjXsXiX[.d.x.y.>XeX!.E.(.D.B.uXpXpXuX",
"t.[.}.T.9.2.` ` 9.{.{.y.y.r.9.y.(.W.~.`.*X-XiX5XyX:X=X2XX.7 O O * * > + + 8 w 0 t t t l l t t t u w s s w 7 O f @ f f 7 s $.L.K.J.C.N.s.r.!.(.h.0.q.Q.!.9.7.6._ 1.[.eXQ.y.",
"e.`.W.T.9.6.} ` 1.).{.q.7.k.x.y.).W.~.T.!.uXtX5XpXuX2XH.8 X = 7 * * O + 8 w y B l t t y t t l t w y X.L.-.C w 9 > 8 l G.+XA.m.c.x.y.e.9.r.W.).k.7.x.`.^.9.2.6._ 2.E.[.).y.",
"q.B.T.Y.N.t.p.9.y.T.B._ _ } q.c.~.}.~.T.U.{.;X;X!._.I.y O 8 * + * O + * 8 y R $.W t t y t t t t y E H.H.l. X.X-.$.=.M.3X{.t.r.7.4.} }  .6.B.x.7.6.7.Z.^.V.d.s.9.e.Y.Y.Y.4.",
"6.t.a.y.W.~.Y.W.Y.e.k.b n n t.y.~.;X}.u.3.E.).T.r.l.$.9 * * * + > o o > 9 y T T l l t t y y w w T =.0.k.e.t.x.N.l.0.6.#X}.y.s.y.V z F / / h.w.2.o.2.p.d.W.Y.).E.F.d.p.p.D ",
"2.6.t.s.W.W.Y.Y.U.t.q.D D F 0.z.).[.Y.7.2.Y.Y.T.x.M.A > O * * 7 O * * 9 w 0 i t t t t y u u w w ;.%./ w.h.N.t.e.8.2.9._.{.x.e.q.J D F H ( k.e.3.8.8.q.9.Q.}.}.E.V.p.8.q.K ",
"-Xa.q.} n b q.x.q.e.t.q.l.j.~ C ~ D ! N.N.q.6.7.[ &.9 > > * * > @ + O 9 B B l l q y w y s 0 s $.mXK.0.L ~ D _ w.,XiX-X' / ! { G z.k.k.k.x.c.U.[.,X[.a.q.;XyX;Xx.a.e.a.k.w.",
"=X2.q.0.v n 8.w.B.r.t.e.p.k.D D L V G l.c.7.q.q.L ;.9 8 O * > O O * 7 y X.-.X.T t B q w s w W mXMXm.9.D L b 6.w.:XpXfX) ~ G C G l.C.k.N.x.y.s.wXrX;Xx.q.4XpX;Xt.q.7.e.w.e.",
"=Xr.7.q.6.6.a.U.A.6.e.a.a.e.2.' L L [ /.Y.t.x.y.&.#.9 > O O 7 + + 7 8 B X.L.;.l t 0 t t 0 B ;.mXXXC.r._ | w.6.4.,XzX5X) Q O.%.8.k.A.N.a.N.N.a.=X,X,Xx.q.}.;X-XS.S.r.w.8.a.",
"Q.r.4.x.`.'.{.).].0.7.t.t.t.D.a. .^ ( `.`.).).(.;.B : = * > > * & 8 9 w B R T u u 0 t t i l X.>.M.9.r.B.C.c.} } }.4X6XO.6.A.A.F.S.E.A.A.A.N.a._.,XQ.x.k.).)._.).).e.o.6.a.",
"_.t.w.x.U.`.).(.J.w.8.n.D.a.F.V.) ` 4.(.#X+X Xv.Z r = > > 8 @ o > 9 w q 0 q 0 0 u y u u t 9 B E L.K.t.s.S.S._ { `.6X'.8.' P.E.V.Y.V.a.S.n.k.k._.W.(.k.t.^.].)._.(.w.0.8.a.",
") ' 4.4.7.7.6.e.q.0.8.M.A.P.0XjX].S.J.+XK.] a < 1 , , , & > @ > o = w y t q 0 u w u u t y e 9 9 ] K.Z.iXiX5Xo.{ 0.} o.F._.5X5XaXs.r.9.q.0.0.} 0.o.6._ } q.7.<.7.e.6.j.0.0.",
") 6.} { 5.7.6.6.0.0.Z.&.d d E &.&.G.&.Z a < < : : : : < : & & ; ; o < 0 0 t u 0 y u w 0 9 < , ; > $.P.hXsXsX4.|  .[ 0.J.).yXsXyXs.y.q.x.5.4. .} ) ) } } 0.6.) 6.2.7.0.h.x.",
"{ / ) } 0.w._ o.} K.&.A = ; 5 g j M 4 < : - ; : , 1 < : 1 : ; & & $ & , y t u u w 0 8 , * & # o - : #.8X8X6X/ ^ } | { C.(.5XtXuXB.U.y.q.q.0. .} [ { [ { 0.w.q.' ) } h.w.c.",
"[ D F Q w.k.b n %.$.M ; - : j N M g 5 3 < : : 1 ; , : : , , 1 : & : & > = 0 y e , * & & o o - ; - ; : B I.2XJ k / O.{ m.Z.6X#X#X3X3XZ.B.c._ ^ Q ] / H F w.l.w.b Q } o.} `.",
"[ ! ^ ) p.p.( ^ q.G.B @ : M h N M 4 : , 5 ; : = : 1 : ; : < : : : $ $ # > , = & & & & & ; ; ; ; 1 1 # # r #.*.R [ / } O.z.+XOX'.'.(.Z.A.x.q.0./ ! H ^ ` w.a.e.` Y 7.7.w.Z.",
"{ l.C.a.Y.E.-X4X;X9X1XB 6 M S N g 4 3 3 3 : , : : : : = 1 2 3 , 1 - - o : # X 1 ; - ; ; ; ; - - ; & - 1 1 - a ;.%.[ / n V +.%.4.k k F K ( OXOXO.[ [ N.n.V.F.(.3X:XtX5X4XG ",
"/ m.D.C.Y.Y.yXyXwX5X9X*.] C M I j 4 < 1 : 2 : - & 1 : : : 1 1 : < ; 3 5 o @ 1 - ; - - ; - ; ; - # & < - - ; # a G.{ ) k k %.%.| j h H J ( 6X6XK ! / n.N.S.V.W.iXtXuXtX5Xz ",
"o.0.e.k.S.S.{.[.[.;X_.! v.*.N M 4 3 3 < < < : : : : : : 1 : < p a Z *.#.r o > - - ; ; ; ; ; 1 ; : X - : ; : ; 3 *.M.0.F L H.|.v.G V [ / <.^.(.} 5.} 0.w.A.S.B.{.{.;X[.W./ ",
"0.! ^ [ h.e.B.U.S.s.U.} ] oX:.N 4 3 3 < : 5 5 < 1 ; : : p M Z ;.oXMX%.j.&.M & - ; ; ; ; ; # ; - - 1 & $ & 5 4 M Z K.w.4.| XXMX@X| | } <.4.r.t.q.w.w./ H 0.e.e.B.S.B.T.B.o.",
"0.) ^ ` x.k.Z.Z.B.Y.S.' o.M.MX:.A 2 2 6 : : 2 : 1 p M *. XK.K.7X0X7X%.} l.H.@.a - - ; o @ ; ; 1 - & ; : g S S N Z K.z.1.0..X7XXX%.} 0.7.w.a.N.q.x.q.[ / 0.k.c.B.A.(.B.D.9.",
"E.;X5X>XQ.R.Y.V.~.pXdXlXlXyXA.J.&.Z r a a p a M Z %.NXjXhXxXaXa.8.d.7.r.a.D.K.+X@.5 - 1 - - : - - : : j N L P S L v.k.e.x.l.m.l.jXhXxXvXlXdXtXY.x.B.;XwX!.Y.W.Y.U.iXdXlXgX",
"s.wXpXwXW.Q.E.V.W.lXcXbXbXgXr.y.I. X:.:.&.:.|.m.m.C.cXJXcXlXdX3.3.3.r.y.r.9.s.aX9XK.B 1 - - $ = $ 6 I S J S J P S ] L.l.c.c.c.7.cXcXcXcXcXhXsXV.U.T.wXrX~.!.!.S.!.fXvXvXcX",
"U.tX:X;XU.U.x.N.U.yXaXaXiXwXd.r.s.D.I.NXNXI.U.W.S.^.jXlXsXuX;Xr.3.3.s.x.e.N.a.5XiX6X@X&.a ; ; & 4 N S P P J P P S N L.|.H.l.Z.U.tXjXtXtX5XtXzXB.C.B.;X;X!.!.V.N.B.yXyXyXsX",
"x.{.{.).7.7...} 4.'.).n.C.N.k.w.Q.~.Q.;X;XwXwXeXtXwX}.}.}.t.x.B.t.N.`.J.x.h.7.}.,XU.(..X*.Z a , I S P P P K P m j 4 A M ; e H.q.y.t.t.t.t.).`.x.c.w.#X#X7.2.w.) ( {.4X'.Z.",
"N._.W.E.q.7.<._ 7.).).q.h.m.l.c._.>X}.!.Q.uXsXaXwXuX}.).).Z.c.x.x.x.W./.h.5.4.W.T.T.U.a.) M.G.#.N S L P P J S h 4 1 - - ; B K.k.x.e.r.7.r.Y.Y.x.e.N.^.(.N.e.9.` 6.S.E.].k.",
"k.N.a.s.U.E.E.V.V.r.7.^ H / 0.x.-X4X;X9.9.Y.W.Y.r.9.c./.c... .K.J.Z.W.T.y.h.5.t.y.Y.U.U.F.P.M.K.v.] N S L S M 5 % # # : Z %.F.y./ / ^ ` _ t.t.t.c.B.( ( S.E.U.R.S.t.a.e.( ",
"C.e.r.t.W.^.W.E.A.N.q.H ~ ! c.r.>XeX;X7.7.Y.Y.Y.7.6.J.C.m.} / A.K.Z.).T.q.5.k.e.t.U.U.!.E.W.7.6.H.v.#.N 4 g 5 $ - > 1 #.+XA.r.r.....[ { { 6.0.c.c.Z.^ ` S.).).W.Y.r.t.0.K ",
"U.3.9.a.V.V.V.R.B.e.6.5.} ..k.0.S.'.S.N.y.B.J.Z.4.4.x.Z.c.5.h.h.0.p.D.a.V.S.S.r.k.B.s.V.S.S.2.3.q.} v.#.p 1 @ : p A G.+XY.r.q.3.} ..| } o.q.9.Y.Y.S.4.4.S.V.R.V.Z.e.7.q.} ",
"{.t.7.9.B.a.9.9.t.9.q.w.C.m.D D ^ ^ ) n.c.5.7.q.H H z.k.l.K.l.J S z ! _ #X4X4Xa.e.2.3.9.7.9.q.q.7.c.m.*.#.B 5 a H.8X8XF m J V G h.z.l.k.e.9.a.>X:X-Xq.6.w.a.e.a.r.7.7.k.l.",
").q.6.6.e.e.p.t.4.6.t.e.N.z.V G H D ) M.C.7.6.7.G H l.l.l.m.h.Q D J F ' ;X>X3Xp.0.e.9.3.r.e.8.j.y.B.e.F ! v.G.|.eXsXtXb D ! J ] h.c.C.N.B.3.r.=X>X;Xe.7.p.a.9.t.t.7.q.0.x.",
"6.b n ^ _ ' e.e.C.x.r.Y Q ! @XMX| ! | +.w.w.e.q.C.x.B.e.c.` 2.>XrX>XB.p.s.d.V.O.0.aXpXfXpX4XQ x J ^.{.sXhXzX) ] /.Y.W.s.N.jX6X6XU.Y.).`.^.( Y C.s.s.2.' 3XaXsXtX=X_ H / (.",
"( v v D ( 6.w.e.x.t.t.b n ~ BXMX) ~ { =.j.0.h.k.a.a.a.a.t.Y Y dXvXfXF.p.d.d.n.h.6.jXhXpXlXfXx k m Y.).JXcXlX^ D Z.(.F.A.S.jXhXlXR.V.].3X/.K F C.T.y.{ ^ 6XcXhX:X-X^ J K F.",
"[ / H ! _ 6.B.V.B.U.D.n z ] .XXX[ R ~ +.0.C.Z.Z.B.V.Y.F.S.K ^ 3X3X3Xp.O.p.p.w.w.p.*X4X>XpX:X^ ^ ) n.A.6XzX6X) ) e.C.N.h.m.OX6X3XM.n.Z.S.N.6.0.8.h.z.0.} *X5XwX;X=X8.6.0.N.",
"{ 0.0.0.N.B.).}.}.;X].x k B ] $.C N R ) 4.(.).).Y.S.*X3X'.z k +.v.O.J z ! ! ) w.0.k.k.e.-X5X[.-X].z z %.*.*.w.a.` / / k N *.v.| N C H Q ` F.F.' H } 0.0.D.D.Y.[.{.[.{.].F ",
"[ w.0.w.Z.Y.[.[.~.}.].v C C +.*.Z C D 0.w.{.[.Q.E.U.*X*X*Xx C | *.| V V ] { Q w.w.h.h.h.3X{.-X{._.z C #.*.%.w.w.{ ) { k N *.] %.C M ~ / ` ].P.) [ {  .0.C.t.B.`.~.;X-X-Xv ",
"p.} ) 8.sXpXeXtX{./ ( /.!._.tXrXk.6.w.yXaXyXwXwX6.)  X.XP.(.P.H G D [ { O.0.0.Q V ! ! ^ k.w.9.r.8.F L oX1XoXG ^ 4.h.h./ ^ ^ ` ^ ] L XXnX@XA.e.} } { b D { } _ e.l.7XMXMX] ",
"B.' ^ 8.sXlXeX4X'.F K ).Q._.iXpXw.7.t.aXsXsXaXaX' ) I..X].(.(.F J D H / 6.0.o.n n ~ K / h.w.7.3.9.D [ XX1X.X~ b 0.w.0./ / ^ ^ b ~ | @XBX7XN.a.5.o.) b m ( } 4.x.N.8XBXMX[ ",
"9.e.8.s.tXuX=X;X{.x.y.~.~.;X4XtXw.9.k.4X4X3X-X'.) _ ].2X_.=X).K F ^ ^ ` 0.0.6.6.2.( _ <.6.7.B.s.a._ } K.|.H.2.1.4. . .{ _ ( ( ` h.j. X@X].S.U.4.} _ <.2.2.6.7.y.x.8X8X6X4.",
"t.;X:X[.!.!.t.B.Y.yXsXpXgXtXa.7.<.( ` B.N.9.0.6._ 8.9XjXjXgXwX3.<._ ` <.9.7.e.{.;XW.).Y.e.t.tXpXaX!.U.w.0.8.=XeX} / { 5.6.<.4.4.3X3XP.J.(.tX4Xq.h.7.}.wXR.V.W.x.B.zXkXjXT.",
"7.;XpX;XT.T.d.B.U.lXsXpXgXiX9.x.<.<.<.e.q.6.} } ` 2.jXhXdXgXpX1.' 1.Y ( 7.7.y.tXyX~.}._.q.q.yXgXyX~.W.7.7.3.uXeX_ ^ [ 5.7.6.7.7.4XyXY.N.U.uXyX0.5.4.eXpXY.V.W.t.B.zXlXsXT."
};
