/* XPM */
static char *player21700655210[] = {
/* columns rows colors chars-per-pixel */
"85 85 256 2 ",
"   c #0C0705",
".  c #1C0C0C",
"X  c #160806",
"o  c #1D140C",
"O  c #1E1A0C",
"+  c #1A1804",
"@  c #180D12",
"#  c #1D1212",
"$  c #1C1C13",
"%  c #1B1519",
"&  c #0C110D",
"*  c #230E0E",
"=  c #260B08",
"-  c #22130D",
";  c #231B0D",
":  c #291B0D",
">  c #27160B",
",  c #35150E",
"<  c #220F12",
"1  c #241313",
"2  c #2A1614",
"3  c #241C13",
"4  c #2B1A15",
"5  c #2C1B1A",
"6  c #271619",
"7  c #331A15",
"8  c #331D1B",
"9  c #3A1D1B",
"0  c #361715",
"q  c #350E0D",
"w  c #29240E",
"e  c #2B2314",
"r  c #2D2B12",
"t  c #272216",
"y  c #342C14",
"u  c #392E15",
"i  c #33231B",
"p  c #3B221C",
"a  c #342D1A",
"s  c #3B2D1A",
"d  c #332315",
"f  c #3A3216",
"g  c #3B331A",
"h  c #373218",
"j  c #342911",
"k  c #351D22",
"l  c #392723",
"z  c #373024",
"x  c #491D15",
"c  c #53280D",
"v  c #48261A",
"b  c #562B18",
"n  c #42351B",
"m  c #5D331C",
"M  c #5A3419",
"N  c #4A230D",
"B  c #62341D",
"V  c #64391D",
"C  c #693B1B",
"Z  c #713F1C",
"A  c #472924",
"S  c #572A26",
"D  c #493827",
"F  c #593727",
"G  c #4C3933",
"H  c #583C36",
"J  c #672D25",
"K  c #623523",
"L  c #643B23",
"P  c #6B3C24",
"I  c #643D2A",
"U  c #6C3D2A",
"Y  c #693328",
"T  c #74372A",
"R  c #6A3A33",
"E  c #74372F",
"W  c #461F20",
"Q  c #74441D",
"!  c #6B421F",
"~  c #55452C",
"^  c #594536",
"/  c #4D4227",
"(  c #6D4224",
")  c #6D432B",
"_  c #67442A",
"`  c #734325",
"'  c #73442C",
"]  c #75492C",
"[  c #7C4B2C",
"{  c #794828",
"}  c #7D512C",
"|  c #6D4533",
" . c #684838",
".. c #734532",
"X. c #744A33",
"o. c #7B4C34",
"O. c #744C3A",
"+. c #7C4E3B",
"@. c #794634",
"#. c #7C5134",
"$. c #7D523A",
"%. c #77543B",
"&. c #67563C",
"*. c #5D4C45",
"=. c #684D44",
"-. c #744E42",
";. c #6A5545",
":. c #755342",
">. c #795847",
",. c #7A5C54",
"<. c #76644A",
"1. c #7B6355",
"2. c #6F6649",
"3. c #7B6965",
"4. c #8B3930",
"5. c #824D2D",
"6. c #894C2D",
"7. c #84522D",
"8. c #8A532D",
"9. c #8C582D",
"0. c #824E33",
"q. c #884D36",
"w. c #845334",
"e. c #8B5534",
"r. c #8C5A35",
"t. c #84543B",
"y. c #8B563B",
"u. c #855A3C",
"i. c #8C5B3C",
"p. c #845A36",
"a. c #925C35",
"s. c #925C3C",
"d. c #965A38",
"f. c #974F34",
"g. c #AA4C3C",
"h. c #95623C",
"j. c #9A633D",
"k. c #986639",
"l. c #8D603D",
"z. c #A1693C",
"x. c #D9553D",
"c. c #835542",
"v. c #845A43",
"b. c #8C5C43",
"n. c #8D5D4A",
"m. c #875946",
"M. c #935D42",
"N. c #965C48",
"B. c #8A5649",
"V. c #B75145",
"C. c #8E6143",
"Z. c #8C634B",
"A. c #856349",
"S. c #946343",
"D. c #9A6543",
"F. c #9D6A44",
"G. c #93634B",
"H. c #9B654A",
"J. c #946A4C",
"K. c #9C6B4B",
"L. c #966945",
"P. c #886855",
"I. c #936C54",
"U. c #9B6C53",
"Y. c #966A58",
"T. c #8A7459",
"R. c #9C7254",
"E. c #97735B",
"W. c #9D714C",
"Q. c #A26C45",
"!. c #A36D4B",
"~. c #A76946",
"^. c #A4724C",
"/. c #AB734D",
"(. c #A97548",
"). c #B2794B",
"_. c #A26E52",
"`. c #A47353",
"'. c #AB7553",
"]. c #AC7A54",
"[. c #AB765B",
"{. c #AC7B5B",
"}. c #A4775A",
"|. c #B17652",
" X c #B37B54",
".X c #B27D5B",
"XX c #B87B58",
"oX c #987967",
"OX c #977A76",
"+X c #8A726C",
"@X c #A77C66",
"#X c #AB7E6B",
"$X c #CF5647",
"%X c #E95A46",
"&X c #DE6551",
"*X c #AC825A",
"=X c #B5825B",
"-X c #BB845D",
";X c #BA8457",
":X c #B7844C",
">X c #99836A",
",X c #9B8479",
"<X c #8A817C",
"1X c #A7846A",
"2X c #B48363",
"3X c #BA8463",
"4X c #BD8963",
"5X c #BC8C6B",
"6X c #B68769",
"7X c #A78977",
"8X c #B89679",
"9X c #B19074",
"0X c #B29874",
"qX c #C38B5D",
"wX c #C4875A",
"eX c #C69055",
"rX c #C38C64",
"tX c #C48D6A",
"yX c #C78A64",
"uX c #CB9464",
"iX c #C5926B",
"pX c #CC946B",
"aX c #CC9B6C",
"sX c #C79465",
"dX c #D3996A",
"fX c #CC9A73",
"gX c #C79775",
"hX c #D49C74",
"jX c #C08A70",
"kX c #D7A26C",
"lX c #C8A27B",
"zX c #DAA375",
"xX c #D8A578",
"cX c #E2A775",
"vX c #8D7784",
"bX c #7D8184",
"nX c #9C8586",
"mX c #9C8F98",
"MX c #A58986",
"NX c #B79984",
"BX c #AC9491",
"VX c #BDA385",
"CX c #BCA793",
"ZX c #B5AAB0",
"AX c #C49D85",
"SX c #C9A683",
"DX c #C8A887",
"FX c #D3B28E",
"GX c #C8B193",
"HX c #D7B899",
"JX c #CFAC8E",
"KX c #E4B28E",
"LX c #CCBAA5",
"PX c #E1C29E",
"IX c #E5C8A8",
"UX c #DBC2A7",
/* pixels */
"K.}.}.{.]. X].M.n.v.u.u.c.u.{ 0.} } p.} } ] ] [ L.J.U.`.[.[.}.u.b.t.( ' ..| J m w.6X[.6X0.c m ( ] { { L.*XW.*X X Xh.b b F X.X.O.%.G.m.J.2X2X2X2X.X3X^.S.H.b.0.@.{ ` ) | U ",
"_.}.}.`..X{.{.G.m.m.c.c.0.w.[ [ } } #.[ #.} { ] C.L.J.{.[.'.[.b.v.v.' T ' P m m e.@X.X2X6.m M Z Q Q Q W.R.R.}.{.#XG.b b b X.@.o.c.N.n._.5X.X.XXX2X@X_.S.S.M.w.[ [ ) ....) ",
"c.X. .O.m.v.v._ I ~ ) o.] e.D.Q.^.} ! ( J.{.*X*Xt.` ' v.n.Z.m.L K P P P ( o.y.u.n.M.M.d.D.'.^.'.=X.X[.#._ _ n.P.u.Z.t.b.t.o.] ' _ ~ V ] Z.n.b.0.E ' ] 0.q.e.!.'.[.o.| U +.",
"$.b N H  .:.O.F S M K ..T e.'./. X} M M U.5XgXiX' b m X.>.n.-.J m B ) ` ( } `.J.N.u.y.0.~.fXpXfXtXtXgXV N c X.%.} r.S.D.n.( ' X._ b b H >.O.O.S N N J P C 0.[.jX5Xc.| O.t.",
"w.B M K :.:.O.F F M K X.` r./.'. Xy.M M K.tX5X=X' B K O.>.<.>.B b B P ` ' o.U.U.Z.t.t.t.`.tX3XrXrXrX2X( c M O.%.>.Z.G.L.S...' ' E S m | B.B.-.F v b F T ` w.].3X{.t...@.o.",
"p.X.| ;.,XnX+X>.| ) t._.D.j.D.s.d.S.`.W.`.^.(.].t.+.+.oXMXMXOX..` #.o.#.w.o.@.@.o.t.w.] t.D.F.Q.j.`.U.+.] %.OXMXnX+XO.o.' u.i.y.p.{ ` v.7XvXOX,. . .X.p.5.w.S.S.D.t.t.u.o.",
"v.w.] >.MXBX,X,.X.( w._.!.K.M.M.j.!.].~.^.Q.~.Q.t.u.b.@XNXBX#Xt.5.7.} #.5.5.[ { { [ } [ y.S.h.S.F.L.G.w.0.+.OXmXmXoX[ { ] b.M.d.[ { { I.MXvXOXP._ ) } p.e.9.i.r.h.w.u.b.y.",
"uXuXyXrXC.<.G.u.b.u.`.pXgX=XM.y.i.e.e.a.;XaXhXhXrXqXwX^.v.v.b.9.y.e.y.h.e.H.rX3X4X=X3X3XK.r.r.2XpXrXiXuXqXsXR.P.Z.W.;XqX=Xp.$.0.y.b.p.N.Y.N.U.=XgXaXiXiXpXuXuXrXtXw.C ` b.",
"cXzXcXuX9.e.h.r.Z.u.'.hXcXyXa.r.u.s.e.5.qXxXhXcXhXhXkXk.} 7.9.d.d.D.^.`.~..XgXAX5X4X6X5X2XC.K.5XzXdXdXkXzXdXk.r.s.(.kXkXyX6.0.w.y.M.s.s.s.s.s.pXxXxXxXzXcXhXdXhXlX{ V Z l.",
"dXkXxXpXs.q.b.C.b.r. XhXhXXXC.$.w.r.7.r.wXhXhXKXhXzXhX~.8.7.l.A.<.:.^ ~ ~ H ^ ^ G G G G G G ^ =.>XgXlXzXkXdXF.h.F.Q.uXkXwXd.y.t.e.b.s.i.s.h.Q.pXxXzXzXxXhXhXhXfXpX{ V C l.",
"!.F.J.L.y.s.D.^. X).XXwX).;XrX3X;X-X;X-X=X-XXXXXz.Q.D.M.k.j.Z.:.p 1 1 # @ . # % 6 5 6 3 4 6 2 4 d D ^ P.E.}.D.i.a.Q.).)./.q.5.y.j.]..X!.e.e.e.M.F.F.F.j.S.F./.)..Xs.u.u.#.",
"Y.G.v.v.b.y.a./. XXX).).).wXuXuXuXaXaXpXXX[.[..XH.G.n.M.a.a.L.U.^ 8 8 5 2 2 5 4 2 4 i i 4 0 : 7 * 8 4 6 p ^ %.I.H.h.Q.:X~.d.B.y.S.=X3X^.e.a.a.s.b.M.i.s.r.j././.'.S.G.n.#.",
"e.o.X.+.Z.i.M..XXX-X^.j.j.k.).=X).Q.L.F.~.!._._.c.o.t.S.J.K.K./.oX;.d i i 5 3 1 # 3 5 5 5 5 5 8 k 5 4 7 4 2 4 *.Z.b.K.~.d.q.y.q.L.=X=XQ.8.a.s.6.w.o.[ 5.5.q.N.N.s.5.{ ] X.",
"@.P L ( C.i.M..XwXyX(.8.8.d.F.K./.j.5.6.M.H.H.H.+.' [ b.I.I.K.`.}.E.p 2 l 4 8 k 5 2 - 1 3 5 8 4 7 : i 4 2 5 5 6 F P.E.n.D.e.q.y.k.=X-X(.a.h.r.[ ....' @.[ [ e.e.t.Z C C ' ",
"[ P U ` h.r.L.].3X5X^.7.6.j./.~.^.s.q.i.b.n.J.J.O.X.X.Z.J.K.!.K.!.}.:.8 5 k k 0 4 * > 2 4 i p 7 , 9 5 5 l 4 * 8 1 G B.Y.i.p.y.] j.2X;X^.a.d.s.6.R @...@.X.] $.u.m.U C Z 5.",
"F.w.w.r. X].`.@X<X+XOXE.}.!.'.'.'.D.e.M.@.E R I 1.3.3.E.H.z.F.h.d.K.7XD 3 i 5 7 8 5 8 k 4 2 2 5 k 9 , 7 , 7 i % 5 * A E.G.r.r.y.W.iXpXyX4XyX4X.X/.].u.%.%.,.OXMX#XP.y.h.s.",
"(.r.0.e.XX=X1XoXbXOXOXoX`.'..X'. XD.b.B.@.F J F 3.3.+XT.R._.j.r.9.k.oXl 4 4 4 4 k 8 p 5 . X     @ 1 8 7 2 5 4 7 3 0 k 1.K.b.t.7.^.gXlXaXdXaXpX4X{.6XN.t.>.P.nXmXnXI.k.j.H.",
";X=X-X|.~.a.h.Z.3.1.T.@X[.!.S.s.s.q.0.0.@...' P >.>.>.>.M.d.a.XX;X1XG   X   X o 6 4 8 4 . X X = X X X # 6 8 8 4 4 1 t ^ U.F.(.).z.z.k.Q.Q.Q.Q.^.`.{.] M F ^ >.1.1.J.(.j.D.",
"4XpXaXrXe.a.y.t.c.0.M..X.X!.q.@.t.o.@...] ] #.[ w.0.o.t.q.6.d.gXhX9Xi     X . X X . . X X q J @.T b > . X @ 6 6 @ X   4 R.:XeXz.).9.9.e.y.a.e.F.^.{.) N b M ] ] ) F.]./.Q.",
".XpXaXrXe.i.M.y.q.e.D. X.X_.b.q.0.o.o.o.X.%.%.] 6.0.0.q.q.q.d.5XhX1X@ @   X X . & . X   X b g.$X&X$X4.J 0       X * W A oX*X:X:X`.r.u.b.y.s.s.K.}.R.| c c K o.q.t.^.^./.~.",
"`.=X].{.`.[._.y.e.0.o.{ ] w.i.u.S.#.) ( ) ) ) ) @.o.+.b.N.H.D.3X=XoX    &     & & # #   = J g.x.%X%X$X$X4., X   X x N.y.@XOXOXOX+X,.c.u.p.r.e.w.} } L.=X.X`.H.N.M.qXuXsX-X",
"_.{.{.`..X[._.y.#.o.X.B V ] C.C.C.[ V V P U ) ' @.....n.I.H.K.|.5X1XG $     X   X . X   = T $Xx.%X%X%X%X$X4.q X X x $Xg.oXvXvXvX+X,.:.v.p.8.7.{ ( ` ^.aXhXrX].L.!.uXzXzXgX",
"D.H.H.~.rX3X[.0.V V ....o.o.p.p.p.i.S.L.L.U.H.H.b.u.t._.`.'.`.D.N.Z.oXP.A 9 * 1 1 2 = X X J $X$X%X%X%X%Xx.g.q X X x V.V.E.P.P.P.E.Y.G.R. X X|.'.*X}.7.C C { #.#.#.{ ! ` [ ",
"h.i.B.~.yXuXXX{ b M L 0.w.w.} p.} K.*X{.].]..X=XN.s.d.'..X.X'.q.t.R.8X7XR H A d 8 8 6 # X S g.%X&X%X%X%X$XE = X X x g.f.Y.M.S.Z.F.`.`.|.tXtXrXuXsXaX#.N A F  .O.&.v b A F ",
"s.S.l.!.yXiX{.5.c M P o.+.w.w.p.#.L.`.(./.).].].h.y.i.^.]. X`.u.9XHXLXoXG D D S W 9 k 5 @ = x T 4.g.g.f.4.x = # X q E B.b.N.N.S.U.'.H.'.rX4X3XrX5XiX] c F F X.%.;.I K m B ",
"j.p.#.q.S.D.D.K.K.K.S.y.u.u.i.r.r.K.'.^.^.^.W.^.C.7.e.`. X].5XSXHXPXUX7Xp , l A A A p 8 * X X X X . = q 2 0 l 6 . 2 R Y.c.O.o...0.M.s.D.^.^.^.^.^.'.t.'  .,.OXvXOX=.I ' +.",
"S.] X.o.0.t.y.[.2X2X`.i.y.r.w.e.e.Q.'.|.^.K.F.W.n.u.i./. XiXDXUXIXIXIXHXT.i * 1 9 A D A 0 2 4 i k k 9 v A S S p l l Y.n.t.~ I Y ` y.i.M.H.D.D.D.k.d.8.{ I ,.mXmXBX>.X...w.",
"@XI.oXT.>.>.t.`.[.{.'.].|.|.'.|.|.~.j.F.k.F.L.L.@.) ] b.}.8XCXGXJXPXPXPXHXoXF > . < 9 A A l p 8 0 W W 9 A A S D A ,.oXi.j.z.k.(.F.K.H.~.H.D.!. X-XqX=X;XXX}.U.U.U.t.t.p.I.",
"@X7XBX,X:.&.%.R.[.'.3XpXpXpXpXpXdX/.e.d.h.a.a.D.( F =.;.=.~ ~ <.>XSXFXFXFXHXAXT.*.p X . 2 p v p 9 d 8 8 9 9 0 , -.8XD.Q.(.uXuXdXrX*X/.!.~.Q./.tXxXzXhXkXcXuXz.8.r.i.h.l.1X",
"oX7X7XoX%.%.u.J.'.!..XrXrXXXtXXXyX~.a.y.s.Q.K.K.%.>.2.z t O w : ~ >XSXlXDXAXSXFXVXT.^ t . X * 4 p 8 i p p > 0 _ NXAXM.D.(.yXqXeX;X~.(.(.S.s.Q.5XhXfXdXdXhXyXj.e.u.J.S.l.}.",
"N.A.>.u.` _ ( ] o.[ t.M.y.b.M.b.y.@.P ) P.1X#XE.T.;.D 3 t ; w w i G >XDXVXSXJXlXAXSXVX>X=.s 4 . . 1 2 2 6 l ,.LXUX8XM.M.M.2X XXX'.r.a.e.5.t.b.}.6X.X X!.D.G.b.M.u.`.].].=X",
"q.[ } } ! ! ( ' T ' @.+.c.@.@.o.-.+. . .;.~ D D n n e w w : e 3 ; : / 3.DXDXlXSXDXSXSXJXJXNXoXT.&.^  . .>.7XGXIXIXCXE.N.H.].*X).!.0.w.] X.$.-.>.c.Y.Y.m.Z.S.y.i.a.). X X X",
"h.7.] o.b.t.u.` P L ( o.[ 0.%.m.T.&./ f h h f f g f g r w : : e t 3 ; a >.NXGXlXDXlXlXlXFXFXGXFXFXDXDXDXGXFXFXFXHXGX,X,XU.L.Q.j.W.L.Q.C.P.;.7 . = k =.>.+.0.i.n.d.|.;X:X'.",
"K.#.] o.R.`.G.` m K ) $.@.B.E.6X>X&.f f f f f n f g g h d w ; : 3 3 ; - a &.>XDXDXlXGXlXlXlXlXlXDXDXDXDXDXlXlXDXGXCX,XoXC.r.h.S.P.I.gXSX7X~ X 1 1 @ 5 ^ O.` r.Z.s.XXqX;X).",
"J.o.' ] S.K.c...=. .;.m.A.1XJXGX1X2./ f n h f f f f g h s e ; ; 3 3 t ; > j ~ 2.*X0XlXDXGXFXlXDXlXlXDXlXlXDXSXDXDX9XoXR.R.I.>.^ e D 7XHXNX;.: 5 1 6 < H O.' b.u.i.].=X]./.",
"i.[ t.[ P P O.P.^ A l l G P.GXGXlX*X2.n h n h n g f h y y e 2 3 : 3 3 : w y y f n ~ <.T.>X0XlXVXDXDXDXDXVX0X9X1XE.E.1XI.O.g t $ $ a >XLXHX>XD = 1 1 < H A.c. .I U +.#.t.u.",
"} ` X.) c c  .;.l 9 9 k 0  .SXPXGXlX>Xh f f f f h f r r r e t 3 O ; ; O O w a g h y f g D &.<.T.>X>X>X>XA.2.~ s e t a t ; + ; ; ; ; >.DXHXGX,.5 . - . ^ Y.c.L M m F K P ..",
"K.U.Y.P.| O.1.,.W 8 9 l p F 7XHXFXGX0X&.f f f f y j j r r r w : ; o 3 t ; O t a g g h h f u u j f / / D n h r ; 3 O 3 $ t $ : ; ; ; / 9XHXHXoXz 1 2 4 :.}.F.K.F.F.w.o.#.M.",
"@XNXBXMX>.v.P.oX=.A 7 8 D ^ 7XLXPXFX0XT./ r j r r r w r r e w ; 3 O o 3 3 O w e u u s u f g h y h f h u y a r e > : 3 3 $ $ $ w - : z 1.HXPXVX=.8 . A I.6X:XuXxXaXF.w.i.^.",
"oXMXMXOX>.$.t.oX7X;.=.1.+XoX8XHXFXGXGX>X/ f r r j r r r r r ; O ; 3 3 2 ; ; : w j h g g g g h h h h y y g s i O $ 3 : ; : ; ; ; 3 $ t =.SXFXHXoXi 8 P.}.Q.).eXtXrXy.0.u.K.",
"_.N.G.B.Y I ' C.W.E.}.!.K.oX,XGXPXPXHX0X~ r r w r w r r r r : ; O 3 3 3 ; O w w u y j f f f f f s u u g y g d - 3 3 3 O ; w ; ; t $ o D E.FXLXNX<.>X>._ _ ) v.n.<._ F F X.",
"!.0.0.o.b b B v.W.J.S.5.[ Z.oX8XPXHXHXVX2.h w h h / g g r w 3 $ 2 ; $ 3 3 ; w r u / / n f f f g g y y g s y ; t w ; w 4 3 - $ 3 w w O 3 ^ 9XJXAX-X2X{ N x A =.=.| D D F I ",
"-X/.^.K.` @.{ b.C.u.Y.@X>XoXE.oXlXGXFXlX0XE.T.7X2X9X*Xv.^ r $ O ; ; ; 3 3 ; t e g 2.2.~ f h g g h h u u a s w O ; O - > : ; ; O + + $ $ i >.9X5XuXpX^.l.Z.J.R.I.J.o.) ..t.",
"dXhXzXtXa.s.i.i.r.[ oXZXZXMXP.oX>X>XT.%.5XKXFXxXhXkXkXz.Z.D O w O O 3 3 ; 3 t a h / ~ n g f g h f j s s s i ; ; ; 3 3 3 O w w + o t t D >.Z.D.wXzXcXxXkXkXkXeXeXiXF.r.s.(.",
"qX;X-X=Xd.s.e.M.f.e.oXBXBX7XG.G.n.G.b.r.].aXdXdXwXwX:XF.v.z O ; ; ; 3 o o ; a a h g f f f g g g h g h a a t t t w ; $ t O $ 4 z ^ =.P.Y.n.i.j.XXhXsXsX;XqXqXXXXX=XS.u.i.F.",
"Q.j.k.j.a.r.M.~.'./.'.[.@X2X3X3XtXXXrX-X;X].). X~.j.D.U.H ; t O : ; O + O e r y u h n f h f h f g r a a r O O $ o $ + + r ^ >.>.U.2X X~.a.s.s.H.j.j.j.j.D.F.!.|.'.M.y.i.S.",
"k.s.e.y.M.s.D.~.|.|.~.).(.XXiXpXuXsXpXpX-X X X].N.N.Y.>.j o ; $ ; 3 O O ; a D D D f f f f n n h h g &.1.>.D j t 2 ; g ;.T.C.$.u.M. XXX(.6.s.S.i.M.M.S.h.r.j.^.'.|.M.s.y.D.",
"i.[ o.0.i.e.h./.|..X~.z.j.!.XX;XXX.X]. XQ.z.^.F.$.+.P.y + w ; O ; O O - w g ~ 2.~ g f f f f g h h ^ I.Z.$.m.P.*.~ &.J.`.F.e.6.p.M.wX).^.i.i.e.9.o.o.[ o.5.e.D.N.L.b.u.t.b.",
"' m B P u.a.d./.XX;X~.Q 8.a.Q.^./.d.e.e.e.e.s.N.L ^ ^ 3 w + ; t 3 O o ; a a D / n f f f n f h s z P.u.E Y P i.H.K.H.y.r.w.w.w.#.k.3XrX/.e.d.y.` m S K I K ' q.s.p.#.#.#.t.",
"] P P ' t.t.u.K.'.!.H.y.a.a.j.Q.^.h.t.#.y.b.b.y.{ >.D # > w : O 3 o O e z u y u f f f g n y z r 1.oXG.p.` ' u.c.t.u.y.r.r.S.h.h.F.^.'.H.y.s.t.' P U R ....0.a.s.r.k.l.l.l.",
"M.s.b.u.U L I | | R $.n.N.a.s.a.t.X.X. .%.c.M.m.M.T.l # o : w $ 3 O w e u g g n f n g g h a a *.nX,X7Xl.e.i...R U ' t.y.h.4X4XsX^.] ] ] _ L ) $.m.b.b.b.y.i.M.s.k.*X:X;X(.",
"e.s.s.t.m m F F K S ..U.N.B.q.q.p.] _  .%.c.u.q.y.P.t $ t : ; O O + t h ;.T.2.D f n h h a g D ,XBXmXBXG.a.S.F K K P t.e.h.fXuXuX}.V ( F I F _ v.S.C.b.n.M.j.D.D.j.:XeX:X).",
"h.S.i.l.` #.X.( _ L +.}.U.H.M.d.h.0.) | +.t.t.q.Y.:.3 $ t 3 ; O O + d D ;.>X2.n f u g g g j >.>X+XOX+XN.d.M.#.0.o.] t.[ r.iXrXqX`.` ] X.%.%.#.b.S.Z.C.C.C.h.s.S.s.XX:X:X(.",
"i.l.l.j.k.L.S.7...E b..X.X|.|.|.|.s.` ) X.0.:.>.P.H 3 O 3 ; O O 1 e h u g / / u u h h g u j  .1.r.p.e.j.j.j.F.S.U.C.+.' w.2X-X-X`.[ } u.W.K.K.^.W.W.W.K.K.G.C.i.s.|. X;X^.",
"u.C.i.k.^.^.L.w.o.[ b.].'._.Q.D.!.y.] X.>.m.>.=.A 7 4 4 t O O ; 3 t a u y u y y h g h f h s y ^ l.r.9.d.s.h.F.K.F.S.` ' u.@X}.2XK.p.} h.].K.^.F.j.j.D.j.S.S.b.u.u._.}.].^.",
"i.s.r.k.rXiX4X].^.F.W.'.`.U.U.Y.S.U.E.Y.:.G 8 < 2 4 7 4 o t O 2 o i a u g u s h f g u u g g y t *.P.e.i.b.l.rXiXiX=X[ o.X.m.$.$.b.}.R.{.iXsXrXQ.k.j.a.e.y.u.+.t.#.#.o.0.w.",
"e.i.s.s.aXuXsXXX^.~..X,.l l G H  .=.=.G 8 < 1 8 8 2 2 5 2 1 1 < o # 4 y h f f h g g g a i 4 2 - < =.P.y.8.r.rXdXpX2Xt.O.+.o.o.@.u.[.^.-XgXuXrXQ.r.a.f.q.q.0.t.t.w.o.o.' #.",
"s.H.H.!.4XrX;X~.D.}.,.z . * 7 9 v 9 7 2 2 2 5 2 2 2 6 7 7 2 1 * o o - 4 u h h g a e t : - O # 1 . = G P.I.H.-XyXwX{.I U ) +.o.:.t.U.S.].tXrXrX'.F.!.s.s.N.y.0.[ [ X.X...] ",
"K.{.[.@X{..X[.N.G.^ t 6 = > A S W 9 7 2 0 7 2 1 2 2 2 2 5 5 8 2 1 < < * t h s e 4 3 - * . # 1 # 4 < @ l ;.>X2X X{.L.c c M X.@.O.$.G.b.U.6X.X=X3X4X5X'.K.!.M.0.T ' U U ' L ",
"J.G.I.U.U.R.U.u.>.;.t % 0 W S S A v 8 8 5 < 2 2 < 2 5 2 2 2 2 < * 2 2 < o - 4 : - - - 1 1 2 1 1 < # 6 # 1 ^ P.7X`.n.L B B X.X.O.$.>.t.G.@X[.`.[._.U.Z.b.b.y.i.i.b.' ) ..) ",
"t.m m F O.-.+.L S  .^ l 0 S S S 9 7 4 4 8 2 4 2 6 2 2 2 2 2 8 8 5 1 . < 1 # * 1 1 1 * - 1 1 1 1 2 4 1 # 1 o 2 *.m.c.G.J.n.o.) ' _ m b U c.t.o.K x c J P ` w.[.XX@Xo.U @.#.",
"v.b v b =.=.| m v c ' >.G S S W A 9 8 5 5 4 2 2 5 2 2 2 2 2 2 8 3 2 2 1 1 1 1 2 1 1 1 1 1 < 1 1 @ * < 2 1 1 @ k ,.B.J.L.C.' ' X.P b b I O.-.O.S x c K U Y 0.[.5XjXt.U ' $.",
"t.( F I P.,.,._ I m Y m.n.-.S W 9 p 8 8 2 2 2 2 1 2 5 2 6 5 2 1 2 A ^ F 8 * < 6 < < 1 1 1 1 1 1 2 2 = < > 2 < 6 =.T.v.S.b.#.o.' U V K O.P.,.P.H b b P ..' w.[.[.'.t.@.@.+.",
"#.#._ >.BXMXnX,.X.| c._.}.+X=.W 9 9 5 5 5 8 5 2 5 0 1 * 5 z G *.=.>.n.I.=.l @ # 2 1 1 1 < # < 1 < < 2 2 * 2 p v G OX) ` ' u.C.y.u.o...P.MX7X,X1. .O.o.t.6.6.y.a.a.e.b.i.+.",
"J.p.s.Z.,XnXOX>.#.` i.#X[.}.Y.-.9 : 9 8 5 k 7 0 @ # l ^ 1.7XOXm.y.t.w.7.u.A.^ 1 < < 2 1 # < < 2 * 1 1 1 W S Y J R +X>.b.y.w.p.t.t.+.o.P.@X#XOXP.v.c.b.S.S.S.L.K.K.M.N.B.y.",
"zXhXzXtXC.n.C.y.Z.v.oXGXCX7XI.G.;.G i 2 6 6 1 d F A.9X}.v.u.i.y.l.r.h.h.r.}.9XoXG > . 1 % 6 2 * 7 * q W S E E J S n.fXdXwXe.6.8.e.r.r.b.n.v.U.5XxXlXlXdXaXdXfXpXpX`.M.M.`.",
"dXcXcXdX8.e.r.h.i.$.>XLXLXBXb.s.,.m.:.^ B.#X#XAXSXxXhXQ.6.9.9.d.r.d.D.d.9.Q.hXaX8XA.A 1 < 6 * - * 2 S Y T J E 4.R ..hXcXtXw.p.6.y.s.s.s.s.e.D.gXKXxXxXxXxXzXkXaXhX`.D.Q.].",
"pXsXuX;Xs.r.a.h.L.G.1XAXGX9XK.k.~.~.Q.D.XXhXAXhXyXrX4Xk.9.e.8.k.s.D.N.N.M.!.yXuX4X6X@X=.2 * 5 2 8 S J T T J J Y S S 9X9XP.:.P.q.i.H.D.s.M.D.s. XrXrXuXrXrXrXiXiXtXK.D.H.'.",
"S.i.M.u.b.y.S.`. X X X XXX;XpXuXuXeXuXuX-X=X|.|.S.s.k.r.h.S.M.'./.!.b.c.B.M.|./.(.z.K.E.<.A = 2 A J E J T J J J A 0 A l X 5 ,.i.j.*X;XQ.9.9.6.d.s.s.a.r.e.s.!.'.].M.b.s.H.",
"J.n.b.i.D.y.i.].).;X).(.).).uXyXwXwXyXwX/.'..X[.D.s.i.S.D.M.i.!.~.~.a.B.t.M.'./.~.z.k.W.l.%.=.D S J T E E T J J 9 * . # @ z Z.f.k.].;XQ.6.s.s.i.s.s.y.w.r.h.~.^._.G.N.N.S.",
"@.T P ' s.a.h. XqX-X~.8.8.s.~.!.'.a.6.e.N.~.H.H.0...` n.U.U.!.`./.D.s.q.q.p.h.a.N./.Q.D.F.`.}.I.E R Y J R Y S 0 q 2 # * l | N.e.K.2X-X/.s.M.i.@.' ' ] { { } e.e.u.M.N.G.y.",
"o.( _ _ Z.i.L.=X-XtX X6.y.M.H.'.`.S.e.e.D.D.N.H.O.X...P.U.U.!.`.`._.i.0.y.s.y.M.j.!.Q././.].].i.n.P.^ 9 x 0 q 1 < @ 6 G P.Z.@.q.D.4X;X).a.a.a.5.R ....' ) o.e.y.t.M.b.N.0.",
"w.@.o.@.u.+.t._.U.U.H.s.y.M.Q.D.!.e.{ +.m.G.N.G.t.t.0.c.n.t.i.G.S.S.D.S.F.s.M.i.r.D.F.k.!.F.F.a.0.c.A. .< . 1 < 6 z  .U.D.!.N.j.z.D._.N.w.w.p.#.] o.[ o.w.o.i.9.r.F.Q.^.s.",
"i.G.G.B.K F B K P C o.J.K.s.0.e.w.P B K o.v.m.b.n.Y.Y.P x b m E P 7.-X3X3X.Xy.y.i.0.w.5.7.e.p.y.f.s.m.Y.,.A 1 5 H =.P.N.N.yXpXdX}.b b m F L K O.n.n.b.N.M.i.a.l.a.XXqXqX].",
"i.r.b.m.I R O._ ( P o.Z.J.u.e.0.t.o.P ) $.m.C.n.N.b.n.[ V ( U @.' w.2X=X;X].w.y.i.i.h.i.s.h.G.t.e.f.q.M.Y.Y.,.B.X.X.b.q.M.sX;XyX}.B P ....) ) $.B.N.n.N.J.S.p.9.e.|.XXXX/.",
"' C M X.7XBXOX:.' ) #.>.$.v.M.b.n.S.Z.S.G.G.l.S.[ Z Q *XaXkX4Xh.C.S.j.h.F.h.w.t.^.hXaXkXuXiXaX} b K B H.|.[.fXSXzX2XE P ` ^.Q.~.K.M.N.{.iXgXgX.XD.H.`..X{.U.] P Q a.z.d.f.",
"' Q C _ BXBXnX,._ _ X.<.u.v.m.y.e.s.H.D.S.h.r.k.{ [ { =XaXaXaXk.K.K.h.k.F.i.t.O.F.xXaXuXuXaXxX} b b L D.|. XhXcXxX5XP P ( ^.^.`.Q.!.S..XSXhXfX'.^.^.`.=X{.U.X.P C i.!.D.s.",
"o.V L | 7X7XoX-._ _ } >.$.u.N.M.d.S.D.D.F.j.F.F.[ P ' }.5X5X2Xl.#.p.l.l.l.u.t.c.`.5X4X4XiXpXiXi.V ! C u.}.M.9XgXgX@X) ( ] J.G.J.S.Z.m.Y.9X6X2X}.u.u.J.`.U.S.} ] #.t.m.b.t.",
"%.M b F =. . .I M n _ X.o.M.'.'.]./.Q.^.*X*X=X*XP c M X.>.%.&.M m m ] ' ) o.u.b.v.b.u.#.U.3X3X-X].4X2X( b b  .=.| $.Z.h.u.` ( ] I b v F -.-.O.S F b M _ ( [ F.].R.#.' X.o.",
"%.L H F >.>.:.H H F | c.u.D.'.XX.X/.F.K.*X*X2X*X_ M F | :.O.;.F F F X.| ) ] p.p.t.c.v.0.K.-X].XX X X1XF A D -.>.:.>.u.p.u.] ' ] ) b S R -.-.-.R A S _ | ' [ ^.{.`.o.....X.",
"D.'.(.).uXsXqXh.y.0._.fXiXsXyXrXuXD.` o.P.oXoXoX`.`.}.X.P K I ..' ] 0.$.c.X.V V L | R T o.u.i.e.h.p.p.( K I +XOXOXT._ ( ' 0.u.t.$.' ) ] ! ` ( _  .H +XnXOXOXG.j.S.w.o.o.] ",
"H.^.).XXpXhXyXh.u.0._.gXgXpXuXuXfXF.Q ) C.E.I.E.'.].'.{ Y L U ' ' ] t.t.c.` V M V L P ! ] y.y.r.7.p.p.C B L +XnXOXP.V C P c.b.w.$.X.) ` Q Q ! ) _ H Y.MXMX1XJ.h.k.#.o.o.] ",
"/.|.:XXX X-X.XS.y.w.K.3XrXXX X*X=XS.` ' U.1X}.1X=X=X X[ Z P P ` { ] t.t.t.o.7.7.[ 0.q.0.w.t.t.D.k.k.D.6.{ w.Z.E.+XJ.w.9.6.0.t.+.o.o.] { { { { u.c.v.U.#X#X@XR.Q.W.q.@.0.w.",
"dXpXdXwXe.r.e.[ { { 6.M.M.i.w.w.[ } { [ {.lXlXfXuXdXpXj.w.w.7.[ { { e.i.s.!.rXtX;X'.'.].H.y.b..XdXdXpX|.^.!.u.q.t.h.wXqX.X{ U ( ] t.u.7.7.7.y.'.iX6X[.H.H.`.5XiX5XM.t.b.D.",
"pXyXdXwX8.s.w.0.5.[ w.s.d.y.+.o.#.#.#.} {.lXaXpXuXdXuXk.5.5.{ Q { [ e.e.e.~.yXwX:X|.'. XD.0.t.XXuXuXyXXX/.|.a.y.e.d.eXeXXXZ ' ..@.y.y.w.e.6.s..X5XtX|.D.~.`.3XtXtXs.0.e.F."
};
