/* XPM */
static char *padrao_de_fundo_de_blocos_de_jog1700668678[] = {
/* columns rows colors chars-per-pixel */
"85 85 252 2 ",
"   c #491B0A",
".  c #4A230E",
"X  c #4C2514",
"o  c #542B15",
"O  c #5B2E15",
"+  c #552D1A",
"@  c #5A2E1B",
"#  c #512615",
"$  c #55311C",
"%  c #5C321C",
"&  c #5D3115",
"*  c #52250E",
"=  c #62351C",
"-  c #65391D",
";  c #68381B",
":  c #553223",
">  c #5B3422",
",  c #5C3727",
"<  c #522D22",
"1  c #623523",
"2  c #653B23",
"3  c #6A3C24",
"4  c #6C3E2A",
"5  c #653928",
"6  c #713D25",
"7  c #723D29",
"8  c #6D4325",
"9  c #6E422B",
"0  c #65422C",
"q  c #734325",
"w  c #72442C",
"e  c #794729",
"r  c #75492D",
"t  c #7A4B2D",
"y  c #7B4725",
"u  c #7C502F",
"i  c #6E4432",
"p  c #6D4B3C",
"a  c #694939",
"s  c #734532",
"d  c #754A33",
"f  c #7B4C33",
"g  c #744C3B",
"h  c #7C4E3A",
"j  c #764537",
"k  c #67533C",
"l  c #7D5134",
"z  c #75523D",
"x  c #7C533B",
"c  c #78583A",
"v  c #7B623A",
"b  c #73421F",
"n  c #684F42",
"m  c #734E41",
"M  c #7A4F41",
"N  c #655243",
"B  c #6B5443",
"V  c #6A5843",
"C  c #745342",
"Z  c #7C5342",
"A  c #7B5B43",
"S  c #765947",
"D  c #7B5C51",
"F  c #635353",
"G  c #7C6245",
"H  c #5D504A",
"J  c #824D2E",
"K  c #86522D",
"L  c #8A562E",
"P  c #834E33",
"I  c #824E3A",
"U  c #845334",
"Y  c #8A5534",
"T  c #8C5935",
"R  c #84543B",
"E  c #8A553B",
"W  c #86593C",
"Q  c #8C5A3C",
"!  c #855935",
"~  c #915A35",
"^  c #925C3C",
"/  c #965A39",
"(  c #91562E",
")  c #85643C",
"_  c #8C623D",
"`  c #8C6839",
"'  c #94623C",
"]  c #99633E",
"[  c #946B3C",
"{  c #9A753D",
"}  c #9E7A3C",
"|  c #96733A",
" . c #A37C3D",
".. c #A97F39",
"X. c #845542",
"o. c #895542",
"O. c #855A42",
"+. c #8B5C43",
"@. c #8C5D4A",
"#. c #83564A",
"$. c #925D42",
"%. c #835D50",
"&. c #856344",
"*. c #8D6442",
"=. c #8D6A44",
"-. c #8D644A",
";. c #8D6A4A",
":. c #836449",
">. c #946343",
",. c #9B6543",
"<. c #946A45",
"1. c #9C6B45",
"2. c #93644B",
"3. c #99664A",
"4. c #946B49",
"5. c #9B6C4B",
"6. c #957143",
"7. c #9C7444",
"8. c #9D7A44",
"9. c #9C714C",
"0. c #97754A",
"q. c #85655A",
"w. c #9B6C52",
"e. c #956852",
"r. c #9E7353",
"t. c #997457",
"y. c #8E744C",
"u. c #A16C45",
"i. c #A26D4B",
"p. c #AA6F4A",
"a. c #A47245",
"s. c #A27B43",
"d. c #A3724B",
"f. c #AB734D",
"g. c #A37B4B",
"h. c #AB794D",
"j. c #AA7445",
"k. c #B2764B",
"l. c #B27B4D",
"z. c #A36E52",
"x. c #A47353",
"c. c #AB7554",
"v. c #A57A52",
"b. c #AD7A54",
"n. c #A4755A",
"m. c #AB765A",
"M. c #AC7B5B",
"N. c #A6795C",
"B. c #B37D55",
"V. c #B27D5B",
"C. c #B37856",
"Z. c #977567",
"A. c #977B6F",
"S. c #AA7D63",
"D. c #B37E61",
"F. c #A07E74",
"G. c #A5813D",
"H. c #A9853C",
"J. c #B38E3E",
"K. c #9D824A",
"L. c #A58243",
"P. c #AA8444",
"I. c #A4844B",
"U. c #AD8A4C",
"Y. c #AC8848",
"T. c #B38D44",
"R. c #B38D4B",
"E. c #B28743",
"W. c #B59246",
"Q. c #BD9A46",
"!. c #B5934C",
"~. c #B9954C",
"^. c #BD9B4B",
"/. c #B89645",
"(. c #AC8955",
"). c #B58155",
"_. c #BB8355",
"`. c #B5825B",
"'. c #BA845B",
"]. c #BE895C",
"[. c #B68D55",
"{. c #BA9651",
"}. c #BD9A53",
"|. c #B79555",
" X c #AF914E",
".X c #BFA155",
"XX c #9E867C",
"oX c #B48362",
"OX c #BB8563",
"+X c #BD8A63",
"@X c #BC8C6B",
"#X c #B68967",
"$X c #B8956A",
"%X c #A78779",
"&X c #B89777",
"*X c #AD866B",
"=X c #BDA375",
"-X c #C19E4D",
";X c #C38B5C",
":X c #C38759",
">X c #C19E53",
",X c #C9935D",
"<X c #C4A24D",
"1X c #CBAA4E",
"2X c #C8A64A",
"3X c #C4A353",
"4X c #C9A653",
"5X c #CCAA54",
"6X c #CDAB5B",
"7X c #C7A65A",
"8X c #D1AE55",
"9X c #D1AE5A",
"0X c #D2B25A",
"qX c #D1B257",
"wX c #CDB257",
"eX c #C38C64",
"rX c #C98C64",
"tX c #C48B69",
"yX c #C88B68",
"uX c #CB9364",
"iX c #C6916A",
"pX c #CB956B",
"aX c #CE996C",
"sX c #C79364",
"dX c #D4966A",
"fX c #D39B6C",
"gX c #D39867",
"hX c #CD9871",
"jX c #D49D72",
"kX c #DB9D73",
"lX c #C88F71",
"zX c #CDAB63",
"xX c #D4A965",
"cX c #D4B462",
"vX c #D8B868",
"bX c #D6A174",
"nX c #DBA374",
"mX c #D8A47A",
"MX c #CAAA77",
"NX c #E1A874",
"BX c #E1C37A",
"VX c #9D8D8C",
"CX c #9C8784",
"ZX c #9B908E",
"AX c #A28C8B",
"SX c #A58984",
"DX c #A6938A",
"FX c #B29889",
"GX c #AB9293",
"HX c #BBA691",
"JX c #C6B198",
"KX c #CEB7A3",
/* pixels */
"@ + + # O + w g s d j f +.+.-.@.@.+.S.oX*XoXoX`.*X*XM.`.D.oX5.>.5.2.,.5.U t e e t f 7 7 s w i s 8 0 3 3 3 8 r >.W ' Q 2.! - ; ; 8 - 8 l t l l t W x.x.n.N.n.n.m.N.M.V.M.m.",
"@ + @ + + + s d g g j d @.@.+.@.@.+.N.oX`.oXoXS.v.`.`.oXD.OXx.>.3.>.3.w.U r e t j f s w s 9 9 9 4 2 3 0 4 3 d -.*.*.W <.U - ; 8 ; - q l t l U f W *XN.n.z.m.D.D.M.M.M.b.c.",
"# # # @ o o g s d g d s @.2.@.2.@.+.M.oXoXoXoXoXoXOXoXD.D.D.z.$.3.>.2.5.U e J t t t w 7 9 4 s w 9 0 2 0 8 2 r *.>.*.Q +.l - - 3 3 - 8 l f l l d R N.n.N.N.m.m.m.C.b.C.C.C.",
"+ + + > o o g s d h s d @.@.O.@.+.+.m.D.`.M.oX`.`.M.oXM.D.D.m.$.3.3.>.3.E e P e t d w s s 4 s 9 0 4 3 8 3 3 d -.Q _ _ <.! 3 - 8 8 ; r l l l l l W S.t.N.N.m.m.V.c.B.c.b.b.",
"# o * # * # s d s d s x @.@.@.2.2.-.D.oX*XD.*XD.oX*X#X#XD.@Xz.2.3.z.i.3.P 6 e q q w w w s 9 w 3 3 2 2 2 - - r +.W Q *._ u - = & = = ; t t r r r R N.S.S.n.N.D.M.D.V.V.V.D.",
"3 3 3 4 3 9 s d r d s d g g h Z x f w.n.n.z.n.n.w.-.e.e.e.e.e.o.E o.o.E $.$.$.^ ^ >.f 7 4 s s w w d d t r t W 2.>.2.<.>._ T L Y U ! T >.>.>.' >.<.*.e.-.-.-.;.w.w.w.w.w.e.",
"3.z.3.z.2.2.d w d s i 9 $ o + o + + j h I j Z Z @           1 7 6 6 6 6 w.@XoX#X@X@X3.w s j w 9 O.2.2.>.<.2.3.m.9.r.x.x.V.@XiXiXtXiXiXiXiXeXeXiXw.@ * + + X : g g g g g g ",
",.$.$.$.3.w.d w r w r i $ $ $ $ : + j h X.X.Z Z , X # # * * 1 7 6 6 6 1 w.lXD.#X`.@X@.4 j j w w R 2.3.>.>.>.3.9.x.9.i.5.b.eX+X].eXeX'.+XeX+X+XiXS.< < < , < : C g m m M g ",
"3.i.$.3.3.3.s w s s s i > : + : @ # m Z M Z Z #.: X X X X X 5 7 6 6 6 ; z.OXD.OXoX#X@.7 j j j i x 2.>.' <.' 5.w.x.r.x.x.c.eXeX+X+XeX+XeXOXeXyXrXt.$ : < : + % B g g m g p ",
"3.3.$.,.2.>.d w d w s s % $ : + > + M Z M Z Z Z , X X X X * 5 6 1 6 6 ; 3.@XtXD.#XlX@.7 s s j i R 5.>.>.' ' <.r.x.5.i.5.c.+XeX+X+X+XeXeXeXOXeXrXS.$ < < > + > z z g M m z ",
"3.3.3.5.3.2.f d w w 8 w & + + + @ * 7 #.M M M Z < . X .     % 3 6 6 6 ; u.tXOX'.oX@X>.q w s w w U 2.3.>.>.>.3.d.x.d.x.x.M.iXiXeXeXtXeXyXrXeXeXiXN.* < : + X $ N m m m n g ",
"R o.E W O.E l f f f f l 3 2 2 2 7 1 %.q.q.q.q.q.0 : , , , : 4 r y 6 6 b i.'.'.B.).'.p.' >.,.^ U U W R E O.W ' 5.>.2.2.>.d.V.V.b.B.C.C.B.C.B.B.V.v.% 5 0 2 1 a q.D D q.q.D ",
"r r q w w t R O.E E W +.t d f f o.j F.SXSXSXSXSXq.p p p C m f U J ( ' u.].sX,XgXuXgXgXgXgXpXeXh.<.! r 9 3 3 q W E E Q E Q 1.1.,.u.,.] u.] u.] u.3.r d z d z D SXGXZXAXAXAX",
"q w r r r r W Q W ! E Q f t t l j j Z.F.F.CXCXF.D p m p m i d Q / k.:X:X,XuXgXgXgX,XgXgX,XgXpX:X+X).9.<.U r u W W E ^ Q $.3.,.,.1.] u.] ] ] ] ] _ u l d x d A DXZXZXVXVXCX",
"8 r d u d r W U E T E Q t J f f M j F.CXCXCXCXSXS a m j g x Q h.B.rXjXgXgX,XuXuXdXgX,X,X,X,X:XgX,X,XeX`.d.1.Q Q Q Q +.Q $.3.1.1.,.,.] u.u.u.,.u.' u l d r s S CXZXZXVXAXCX",
"u r a r d r Q W E E E Q t t t J 7 j Z.F.CXCXCXXXq.g g m ;.9.c.sXdXdX:XuX,X:X:XrX:XgXgXuXgX:X_.uX,X,X,X,X].+Xh.>.$.$.^ +.$.3.u.$.u.u.] u.u.] 1.u.[ t t l f p G VXVXVXVXVXXX",
"8 8 w 7 ; q W *.E W _ ! l t f f e f Z.SXAXCXSXSXS 4 4 d 5.].,XpXsXeX]._._.].'.].:XuXsXgXuX,X;X_.:XsXaX;XsXsX;Xj.1.' o.o.^ ,.,.3.,.u.] ,./ ] ] ] *.w r w q 0 G DXZXZXDXDXAX",
"9.9.i.z.x.d.Q l E E E E U U Y R U R z.Z.Z.Z.Z.e.Z.N.S.D.pXfXgX,X_._._.'.,X,XpXfX,XuX,XaXsX;X:X[.j.f._.eX]._.'.;Xh.c.c.i.u.u.u.3.,.,.u.V.`.'.).`.).g.c.s.h.h.t.t.t.Z.Z.Z.Z.",
"bXjXjXkXkXpX^ U J P P R Q $.>.$.$./ $.$.o./ o./ aXmXbXfXgX,X:X).sXsX,X,X;X'.].]._.).j.j.a.j.'.+X`.7.[ a.).;X:X).).B.M.i.u.u.i.i.p.3.C.mXmXbXbXmXnXnXNXnXnXNXaX_ ! ! R W U ",
"gXgXdXdXfXfX( J U U J U Q +.Q +.$.$.$./ / / / / ,XgXgX,XuXuXuXsXuX:X).).d.d.1.1.v.h.d.d.7.6.9.d.(.`.).a.<.g.].$X;X`.h.d.u.u.3.i.u.] V.mXkXjXjXbXkXkXkXfXkXkXpXY ~ Q ~ / / ",
"dXdXdXdXdXfXK I Y Y P Y ^ $.^ ^ W E ^ / / / o./ uXdXdXgX,X,X[.].h.d.7.<.<.<.<.=.5.x.r.9.r.9.0.*.4.3.9.r.>._ 1.x.'.).b.a.,.,.1.1.i.$.V.nXjXjXkXhXnXkXnXnXkXkXfX/ ~ ~ ~ ~ E ",
"dXdXdXkXfXhXK P J U J U Q $.+.>.+.>.^ $.$./ $.o.pXuXdXuX,X].h.h.9.6.<.<.5.0.4.;.*.*.*.` <.=.5.5.*.=.0.r.4.*.-.4.1.b.(.7.>.5.i.u.p.$.V.kXjXjXkXkXfXfXbXnXxXgXuXL Q T E Q ^ ",
"dXdXdXdXjXaX^ P U Y J P Q ^ W Q ^ ^ E T E / $./ pXaXsX_.B.h.5.4.<.` *.4.4.<.<.4.;.&.=.6.0.` 4.6.<.=.=.*.<.4.4.+.>.b.(.d.<.,.i.u.z.3.V.jXjXjXjXjXnXbXnXnXNXNXdX^ E T Q Q E ",
":X:X_.:X:X:XT U U T U E 3.z.w.x.p.p.^ E / Y / ( ].sX_.h.a.1.9.2.=.<.4.4.<._ =.[ =.=.0.8.U.{ g.(.0.<.<.<.*.9.0.4.5.9.g.9.>.E E E $.E u.eXeXeX:XyX:X'.'.V.B.:XV.T Q Q ^ ~ / ",
"j.j.k...k.p.E E E E E E M.`.`.`.V.`.' ( ( ~ E Y f.'.c.7.5.=.4.<.;.;.-.:.;.` 8.I.g.P.P.W.U.8.^.wX/.| <.*.-.[ 6.*X`.v.t.;.A d e t d r K c.f.C.p.C.z.U O.O.o.W +.O.E Q Q Q ^ ",
"k.k.k.k.k.f./ E Y Y E U v.`.).`.V.B./ T T ~ T ~ i.f.9.5.4.-.4.*.) *.:.v ) 7.U.s.|.6X7X<XE.{ <XvX5XT.I.5.[ [ ` w.v.6.<.W W r r y s r T M.C.B.C.C.n.E 2.2.-.-.$.Q Q Q Q Q $.",
"k.k.k.k.k.k.Y E Y R E R v.).h.).B.B./ L Y ~ Y ~ >.,.' _ ) &.=.*.) 6.8.8.I.|.[.{ U.wX6X-XT.{ -XvX9XT.G.8.s.U.K.;.[ _ _ ' 1.t U f f t / V.c.m.C.m.x.E @.+.O.+.-.Q Q +.Q Q $.",
"k.k.k.k.k.k./ Y E E E Y b.).b.).).).' L ~ ( E Y d.v.9.9.9.;.[ 7.I.U.}.zXcX7XR. .T.qX6X-XR.s.^.cX9XJ. .} P.7X Xy.oXoX].+X).t t w f w E m.f.C.C.C.x.+.-.O.@.-.+.+.+.W Q $.+.",
"k.p.k.k.C.p.Y E E E o.E C.B.).).B.`.' T ( ~ E ~ d.].OX`.oX8.8.R.U.L.{.wX0X<XG.} !.0X6X/.R.8.^.vX4XW.H. .G..X X:.9.x.v.).f.y u r t r E m.m.m.V.m.n.$.2.@.2.@.o.+.+.+.Q +.^ ",
",.u.u.p.u.i.Y Y E I E ( C.B.).).`.'./ ~ ~ ~ / / ' B.h.v.M.8.h.>Xs.} ^.0X0X3XH.8.T.0X6XW.Y.{ .XvX>XE. .a.G..X(.G 0.0.1.a.a.T >.>.>.Q ,.1.,.u.i.u.3.f I h x j x +.Q ^ +.Q $.",
"/ $.$.$./ $.P E Y P Y P C.'.).).'.`.] ( ^ / / / T d.<.5.0.7.|.7X8. .}.9X9X3X .{ !.0X6X-XR.{ ^.cX9XT.s.s.G.7XU.S 3.<.[ 5.d.x.x.x.v.x.,.E Y Y Y E Y 3 3 1 4 2 w +.*.^ +.$.$.",
"/ ,.,.$.$.,.U E Y P E P V.'._.'.).'.] ~ ~ / / / _ 5._ 5.4.| }.{.s.{ }.6X9X4Xs.8.W.8X4XQ.T.{ <X0X<XT.P.b.L.3XI.&.>.4.5.9.6.v.u.u.u.x.3.^ Q ^ Q ^ E 3 9 4 9 3 w +.$.$.Q ^ ^ ",
"$.,.$.,.^ ^ U U P Q ^ J B._.B.:X_.'.u.( / $.$./ Q 0.*.<.9.4.>XQ. . .>X6X8X4X..7.W.8X4XQ.R.7.^.zX}. XL.s.H..XK.G 0.0.9.a.d.d.a.d.i.f.1.~ T ^ ^ Q R 3 7 5 4 4 i +.-.Q Q _ $.",
"$.,.$.$.$.>.Y E Y P I U C.:X'.B.V.B./ Y ] / / / U 5.=.<.0.1.>X~.s. .{.8X9X-X .a.T.1X6X-X!.{ !.3X3X~.s.s.H.3XL.G <.1.1.1.d.d.d.d.d.d.,.~ Y ^ ^ Q P 3 4 4 4 4 i o.>.Q ^ ' ^ ",
"$.$./ ^ ^ ,.Y U Y U U Q b.+XoXoXeXD.,./ / ~ ( ^ l 5.=.<.0.0.{.^.s. .!.6X8X<XG.8.W.8X5X-X{.{ ^.wX4X-XL.s.G.^.I.:.4.4.<.9.d.d.a.d.d.f.1.^ Y T T T Q - 4 4 4 3 q +.Q T ~ ~ ^ ",
"p.p.i.i.u.i.E E Y R W E l U U x U P i.M.c.f.c.V.W 5.<.<.5.9.[.-X . .{.4X8X-X .7.W.5X3X/.R.7.3XcX4XW.s...s.3XI.&.;.*.<.d.d.d.a.a.a.a.h._.`.'.'.'.V.J f f f r U h.i.f.a.d.x.",
"f.f.k.c.c.z.^ E E E E U = @ O @ O * N.$X#X$X#X$X*.4._ 4.r.6.I.~.a. .{.8X0X<X..a.W.4X4X^.!.{ ^.6X4XJ.} s. .3XI.A 4.*.4.d.7.d.j.a.a. .B.bXbXbXbXmXiXT ! U T ! / ).).).B.).V.",
"f.f.p.f.f.z.^ U E E W O.5 , 1 1 4 + S.&X(.#X(.#X=.4.[ 9.v.d.s.~. . .>X9X0X4X .8.!.5X5X-X{.{ ^.wX1XJ. .g.s.3X(.A 4.4.<.r.<.d.p.j.j.u.l.bXxXaXsXxX,XK L K ! L ( l.l.l.l.b.m.",
"f.f.p.k.f.p.~ ! o.E T W 4 , 5 , , + n.@X*X$X$X@X<.4.<.d.v.d.{ {.8. .>X6XqX3XG.s.W.1X3XQ.!.{ Q.0X1XE.P.(.L..XI.:.;.4.<.9.>.d.d.j.f.a.V.bXaXaXaXbXeXK L ! L L ( l.l.l.).h.`.",
"f.k.p.p.f.d.~ ! o.E W R 4 < 5 1 > 4 t.@X@X`.#XoX-.0.1.5.5.9.{ !.{  .~.5X8X-X .7.!.1X4XQ.!.} ^.qX4XW.[.+X(.7X XG *.<.4.9.W u.j.p.i.d.B.bXhXjXjXjXtXK ^ T U L ~ B.l.l.).b.M.",
"c.c.f.c.x.x.Q U W ! R R 2 1 1 1 1 = n.&X#X@X#X#X>.5.*.5.6.5.7.^.7. ./.5X8X<XL.{ T.4X2X-X[.{ ^.wX1XHXHXKXHXMX(.0.5.<.<.<._ x.i.j.a.a.).aXbXaXaXbXeX( K T J K T V._.C.`.V.D.",
"^ / ^ ,.' >.U P u t u l w d j j j 4 w.M.x.v.v.M.b.g.*.<.6.9.0.!.a.L.~.5X5X<XL.{ ~.6X5X~.R.L.7XcXBXKXJXZX%XK.7.<.v.v.9.0.<.i.u.p.d.u.f.).V.B.B.B.).V.OXOX'.].`.,.] ] $.<.$.",
"^ ^ ^ Q T Q t r r 8 w f j I R R R f e.5.5.d.5.5.OXv.=.<.1.9.9.W.8. .W.4X0X}.P.{ T.5XcX9XzX7XzX6X.XHXHXHX&XK.{ 4.d.9.9.5.*.5.u.a.a.u.p.u.1.u.u.1.d.aXhXhXpXaXtXK ~ ~ ^ Q / ",
"+.Q Q Q Q Q f d u u r f f R h I R I z.i.d.x.z.5.'.g.<.5.1.9.9.!.s.s.~.5XwX.XT.Y.5XcXcX9X6X-XT.P.K.FXFXHXJX=X8.0.5.6.9.1.' z.u.f.p.d.d.d.u.d.f.a.h.hXpXpXiXuXrX^ E E Q / o.",
"Q ^ ^ ' _ Q d r r r r f f P I P I I 3.5.d.x.i.i.OXd.5.d.7.5.0.W. . .~.4XqX5X.X.X6X7X{.!.P.H.G.P.K.=XDXXXHXJX X<.4.1.7.5.>.i.i.u.i.u.p.a.a.u.d.1.h.yXpXpXaXsX+X^ ^ o.$.o.$.",
"Q $.+.Q T W u d s f d d R I I I I R z.z.x.z.z.z.+Xg.9.9.7.9.0.^.P.R.4X0X0X0X7X.X(.U.I.8.8.` K.|./.=XCXK.%XKX X6.<.<.9.1.>.x.i.i.p.i.u.d.a.d.1.u.h.pXhXiXpXhX'.T / $.o.$.$.",
"^ ^ ^ Q Q Q l r d f j t R h I I I I e.x.x.z.z.z.`.h.d.9.u.9.9.4X6X7XxX6X7X}.I.8.| 8.} 8.0.` {.vX1X=X%XK.XXHX(.>.' 4.9.1.>.i.i.i.z.p.z.d.w.x.x.d.c.hXhXrXpXaXOX$.$.$.$.$.$.",
"x.c.x.m.v.0.r & 1 2 3 1 s j t j j 7 o.$.$.^ $.+.f.d.r.5.a.5.0.wX>X-XT. .{ 0.=.W I./.^.~.(.| /.1X.X=X%X&XHX&XI.*.<.6.7.<.E Q Q ^ E ^ $.$.+.$.>.+.] `.V.`.'.C.`.p.z.z.z.z.z.",
"oXD.D.C.V.V.4 $ , $ > > 4 w w w 4 7 R R o.O.O.#.t.<.6.d.9.4.` L.t.) { L.T.P.` =.!.1X<XQ.~.{ ^.6XwX X&XHXFX X X=.5.4.1.=.U U R R R R X.R O.O.O.+.$.V.c.C.b.c.b.C.c.m.m.m.m.",
"m.m.D.C.C.M.3 > 5 % 1 1 4 w w w w 4 R O.@.X.o.X.e.>.5.7.5.9.[ 8.v ` I.>X6X>XI.0.W.1X4XQ.!.{ ^.qX1X Xy.Z.t.{.(.0.5.6.5._ R R o.o.R o.O.R +.O.O.o.$.D.m.V.V.C.V.m.c.m.m.m.n.",
"V.OXD.V.V.c.2 > > @ , % 4 s w 7 w 8 x O.o.O.O.o.e.<.9.9.r.9.<.8.` | ~.5X8X<Xs.{ R.1X4XQ.{.{ ^.qX4XR.K.8. .4XY.=.4.5.6.*.W R R R R R o.R +.O.O.o.+.V.m.c.f.C.m.m.n.x.n.n.n.",
"m.m.m.c.D.m.3 > 1 , 1 1 w s w w w w x O.O.O.O.R n.>.1.d.9.<.*.8.{ K.~.4X5X<XH.{ W.5X4XQ.!.8.^.qX5XJ. .s. .<XY.=.4.6.5.' _ R O.o.O.x R W O.W +.$.>.D.V.V.m.V.C.m.c.m.c.n.n.",
"C.D.D.M.D.m.7 1 , @ = O w t 7 w q r f W O.O.+.W e.2.5.9.1.*.) 7.8.s.^.5X8X>XP.a.!.5X1XQ.{.{ ^.qX4XJ. .a. .Q.[.=.5.0.<._ *.f R o.R h R +.W E Q W ^ m.M.c.c.b.m.C.c.m.c.c.c.",
"^ +.$.+.,.$.f x R R R R z.m.c.c.b.m.+.c x d r d f W 7.1.<.5.*.1.s. .{.4X8X-X .{ R.5X4XQ.{.{ ^.wX1XJ.P.h.s.>X Xc 1.0.5.' *.8 8 9 9 8 t Q T Q E W Q 3.,.>.$.1.p.D.tXtXtXtXeX",
"E U E P I Y I +.R o.E T M.OX'.OX'.OXW 9 s z d x 4 l 9.9.9.x.6.6.s. .~.4X8X3XP.a.R.1X<X-X~.{ ^.6X1XT. .8.L..XI.;.<.9.4.<.<.; % = - & q T Y T T T ^ >.Q $./ $.p.lXyXyXyXeXrX",
"^ U o.o.E E E E R R U Y c.'.V._.B.].Q r d l w d 9 c 0.d.v.x.[ 7. . ./.4X5X^. .8.T.1X<XQ.!.{ ^.0X7XW...s.G.^.c %.4.0.<.2.<.= 2 3 8 3 q T L ` T T T _ ' ,.$./ 3.yXyXeXyXyX;X",
"o.R o.o.E Q o.o.E U U T c.`.`.`.V.tXE w h g d d 9 h 5.9.1.2.*.{ 7. .W.6X}.W.U.8.W.4X5X-XR.s.^.qX6XJ. .8.P.{.c v 5.0.4.<.>.= = 2 , - 8 Q W ^ T ^ / ,.,.' $./ ,.yX:XrXrXrXrX",
"W E o.E I U I o.W E T Q m.OX`.'.oXOXQ 7 d s d f 3 f >.d.0.4.*.| a.s.~.5X.X!.Y.{ ~.4X2X-X[.{ ^.8X4XJ.G.G.h.|.D :.,.5.4.<.<.; - 8 - % 8 ` T T T Q ^ ^ >.>.>.$.,.yXrXyXyXyX:X",
"K U ~ Y / ^ Y E E R E E m.D.V.D.OXD.$.f f r r y q f ,.8.1.2.=.{ g.P.3X6X6X3XY.7./.7X<X-X{.| -XqX7XQ.!. X}.{.G ;.d.d.6.[ >.; - = 8 - q _ ' ~ ~ ' $.T Q _ $.>.5.tXyXyXyXtXOX",
"'.`.V.B.B.c.P 6 4 7 7 4 E $.Q 2.+.Q U Q ^ ^ ,.>.! Q 1.7.6.2.*.6.8. .^.4XwX7XL.7./.6X<X^.~.| <X0XwX<X.X7XcX/.v 6.1.9.5.4.d.>.,.,.>.>.u.].'.'.'.'.c.U U l U U Y >./ o.$./ $.",
"_._._.:X:XV.K 1 4 3 5 6 R o.R o.O.R Q <.>.' [ ^ ' >.6.a.4.;.*.{ s. .^.1XqX3X} } /.qX4X^.}.H.7XwX0X8X7X{.|.G.C e.a.9.4.' 1.,.i.5.i.5.c.pXrXrXrXpXoXK t w t t t J E E E Q o.",
"_.:XB.:X:X'.J 6 7 7 4 6 X.X.X.X.O.R _ ,.' / ,.' ' Q <.7.5.2.*.{ g. ./.3X5X^.G.G./.wX6XcXvX6XzX7X X[.K.| [ 8.G w.1.d.6.<.,.u.i.u.u.,.h.;X;XrXeXrXV.e u u l U l W R I R I E ",
"k._.:X_._.B.y 7 7 4 7 4 o.@.#.#.O.R ' ] ' ' ' >.' W >.7.0.2.*.7.}  .W.7X5X3XW. X0XvXcXzX.X XL.} | <.&.v <.U.t.h.d.9.0.2.$.u.i.u.u.,.f.rXrXrXrXrX`.t l t f t t W E R E E E ",
":X:X:X_.:X'.e 1 3 3 3 1 X.#.o.#.X.U ' ] ~ ] [ ' ~ E >.1.4.;.*.{ s.P.}.wXvX0XcX6X!.{.P.} | 6.8.I.{.T.| 0.d.!.y.a.d.5.5.<.>.u.u.u.u.u.k.rX;XrXrXpXoXe l t x f t E E R E E E ",
":Xk._.'.C.C.P 0 j j a p X.X.#.#.R o.+.' [ ' >.>.^ *.*.2.4.2._ g.7X6XcXzX4X3XT.L.0.8.| 8.8.W {.4X2X~. . .s.W.,.x.a.<.*.<.>.,.u.,.u.1.h.;XeXeX;XeXD.R c c U d l W W R O.W o.",
"( ( ( ( / $.*X%X%X%X%X%X#.j h g g x R Q E T Q U x.x.4.4.<.<._ 0.}.^.!.Y.P.s.6.=.s.!.!.~.U.` ^.wX4X!. .s.L.~.<.9.d.4.;.-.Q ~ / ~ T L T ' ' / ^ ' e.%XXX%X%XSXXXz z z x z R ",
"J Y J ( J X.SXGXSXSXGXFXZ s z g m g R W E T E E c.d.<.*.*.5.=.0.U.K.K.} L.8.4.O.T.2X^.^.R.[ -XqX7X!.s.s.} {.<.0.9.1.<.*.Q ~ ~ T ^ Q ^ / ^ Q ^ ^ e.DXCXZXZXZXCXC z z z x z ",
"E P Y P P o.%XGXAXAXSXSXD g g C g z X.O.W E Q Q f.u.<.<.<.4.*.&.=.) 8.U.~.R.7.=.R.5X3X.X{.8.^.qX2XT... .} {.<.6.7.4.-._ ' T ^ T Y E Q Q Q ^ ^ Q 4.%XZXCXXXDXXXc z C z z c ",
"E J P P P o.%XGXGXGXVXGXD m j m g z R W / E E T d.h.<.4.<.<.*.&.A ;.U.7X5X-XG.{ R.6X3X-X!.a.^.5X2XT.G.L.8.|.0.0.>.<.;.W ^ E E / Q T Q ' ^ ' / Q 2.SXDXCXCXDXXXc C c k c c ",
"J / P ( P I %XSXSXSXGXGXZ p C m g z O.+.Q ^ $.W m.x.4.4.*.<.*.&.[ 8.!.6X8X<XL.7.T.1X2X-XP.8.^.wX^.P.} [ ) 8.=.1.<.<.;.W $./ ^ o.Q Q ^ / T ~ ~ ~ e.SXCXVXAXCXXXS A z c c Z ",
"J Y J P P I D.SX%XF.%X%XZ j g p g d Z R o.R o.R z.w.<.5.4.<.*.&.|  .W.5X1X-XL.7.W.1X3X/. .0.U..XK.6.v S k c :.7.=.4.;.U $.Q o.$.Q E E ^ ' / ' ' 2.%XXXF.F.SXXXd p c r c c ",
"( Y / Y Y E o.#.x X.Z Z j s 9 i i i s j 7 s s 9 e j r <.4.4.<._ s.s.~.4X9X-XL.| P.^.~.R.7.O.` ) c B N H H k :.9.<.-.O.d E U E o.o.E ^ ] ' ' / ~ ^ f x P R z d b 8 0 0 8 8 ",
"/ / E / / I E c U l R W t s s j j i i r 9 s s j j j d &.<.>.=.O.0.8.^.2X2X<XK.;.{ K.0.=.A B B V k N V N V V &.0.*.&.&.d I E E o.o.E o.$.' ' ~ / ~ U u u ! l l 8 8 8 8 8 9 ",
"^ E Y E ~ E Q R R R l R d s 4 s i s 9 i s s s s s i l ;.<.&.*.c 7.{ W.^.<X^.` A c V G G V V V S z z B B B p O.,.<.*.O.x X.o.o.o.o.o.E ,./ ' ' ] ' U u u ! u l 8 8 8 8 8 8 ",
"E E E / / E l l f U h x d d s s 9 i i i 9 s w s j j d *.O.&.&.c <.| L.I.I.K.c N N V B C C C Z A G S V V k k G =.<.W O.x o.o.#.@.o.I / $.' ' ' ] _ K u u l l u 8 8 8 9 8 8 ",
"( ( Y K L Q l O.R R W x r 0 8 r w i s s w i s d j i i G c &.:.G v &.y.;.&.G V N D S C C S S A c C C C C B B c &.;.G A g I I I R o.E / $.~ ~ / / T u ! u u c u ; 8 8 8 q 8 ",
"$.,.>.' ] ,.t t d f f r f t d f r w t r w s w s i 0 0 A A A S S N k V k k p N B N k k k n n n k S V S C B V A G G B k p W ' ^ ^ / E / i.1.u.u.u.1.u l u u l l t r r r r w ",
"eXyXrXrXyXeXe - 2 2 - 3 x W Q Q ) T W W W O.O.O.5 > , a p i z k N N a n n n n k k a k N n F n n a k k k k k k c A k z d >.f.c.l.m.C.OXiXlXpXyXaX`.y r u r r l 4.5.5.5.5.5.",
"eX:X;X;XeXOXq & 3 - = - W _ W ! T Q W W E O.O.o.3 $ % > , % d c #.A c R X.A c c X.#.Z Z M #.#.#.#.#.R o.Z A O.$.+.O.+.W u.h.C.c.f.C.B.pXpXpXaXaX@Xy w d r r l r.5.5.5.4.3.",
":X:XeX;XrXeX6 = 1 2 2 - U W ! ! W T W E W R o.W 6 O % & = O f W P Y L Y U U ! ! ! ! R x X.X.o.I X.W W o.O.R E Q ^ ^ $.E 5.C.k.f.f.C._.pXuXuXuXpXOXe l d a u l 4.5.5.5.4.4.",
";X;X;X:XsXeXb ; 5 2 - & K ! ! ! T ! E W o.O.O.O.3 $ O O & & J R T R U E U E E T ! ! O.#.X.X.X.j E E @.R E Q Q ^ Q ^ Q ^ ,.f.C.C.c.k.B.aXsXsXsXaXOXq U j d r f w.4.5.4.3.5.",
"eXeX,XrXiXeXb & 2 2 - - c _ _ T ' W +.Q R X.R W 3 = O = & & t E ! R U R U ! U U l ! h h X.X.X.I o.R @.E o.E ^ $.Q Q T ^ 1.f.C.C.h.h._.aXaXaXaXfX@Xe f d d r l z.w.r.5.w.5.",
").V.B.B.b.c.q - 1 - - 0 f l W c x c W R R R R R 3 = - - ; ; f Q Q Q W _ Q Q ' Q ' -.Q o.o.o.o.o.o.I E P R P E ,.,.,.,.,.u.f.f.f.f.C.B.'.].eXeXeXc.e f d f r f E *.+.-.+.@.",
"y y y y e t q q u w r r % % > $ $ $ 5 9 4 9 4 8 R P R R U U 3.m.n.b.m.m.m.M.M.oXM.M.x.3.e.3.3.@.I w j w w q R u.z.i.p.i.i.f.f.p.f.f.u.' ~ T T T ' e f j f d w = o O O O O ",
"y e y e 8 q 8 8 8 q w r % $ > : % > 0 9 9 r 9 9 l R R ! R t ,.m.x.x.x.m.M.M.M.M.b.M.5.>.$.2.$.3.R 7 w 7 w 7 Y x.i.c.i.p.f.p.p.p.p.i.] ~ ~ ^ ' ' Y t f f s d t o o O O O % "
};
