/* XPM */
static char *_a3f97fbb8034c618e9e199f8cd84cc2o70d5gQHoCWObBGL[] = {
/* columns rows colors chars-per-pixel */
"60 60 255 2 ",
"   c #795D56",
".  c #7A5E56",
"X  c #7C5F58",
"o  c #765B54",
"O  c #644F49",
"+  c #4A3D3A",
"@  c #332E2C",
"#  c #2B2827",
"$  c #38312F",
"%  c #51423E",
"&  c #6A534D",
"*  c #785C55",
"=  c #7B5F57",
"-  c #7A5E57",
";  c #735952",
":  c #5F4B46",
">  c #463A37",
",  c #302B2A",
"<  c #232222",
"1  c #1D1E1F",
"2  c #785D56",
"3  c #725952",
"4  c #624D48",
"5  c #493C39",
"6  c #332D2C",
"7  c #37302F",
"8  c #4F413D",
"9  c #67514B",
"0  c #755A53",
"q  c #775C55",
"w  c #705750",
"e  c #5C4A45",
"r  c #443936",
"t  c #6F5650",
"y  c #715851",
"u  c #6C544E",
"i  c #5C4945",
"p  c #453A37",
"a  c #312C2B",
"s  c #2A2727",
"d  c #362F2E",
"f  c #4B3E3B",
"g  c #614D48",
"h  c #6E554F",
"j  c #715852",
"k  c #715751",
"l  c #705751",
"z  c #725852",
"x  c #69524D",
"c  c #574642",
"v  c #413735",
"b  c #2E2A29",
"n  c #1D1F1F",
"m  c #634E49",
"M  c #644E4A",
"N  c #654F4B",
"B  c #604C48",
"V  c #534340",
"C  c #403634",
"Z  c #2F2B2A",
"A  c #292726",
"S  c #584642",
"D  c #624D49",
"F  c #654F4A",
"G  c #644F4A",
"H  c #634E4A",
"J  c #66504B",
"K  c #5F4B47",
"L  c #50413E",
"P  c #3D3432",
"I  c #2D2928",
"U  c #1E1F1F",
"Y  c #564542",
"T  c #574643",
"R  c #544340",
"E  c #493C3A",
"W  c #3A3230",
"Q  c #2C2928",
"!  c #272525",
"~  c #3E3433",
"^  c #4D3E3C",
"/  c #554441",
"(  c #584643",
")  c #574542",
"_  c #564442",
"`  c #574543",
"'  c #473A38",
"]  c #38302F",
"[  c #222222",
"{  c #1F2020",
"}  c #4B3D3B",
"|  c #4B3D3C",
" . c #4C3E3C",
".. c #413635",
"X. c #352E2E",
"o. c #262524",
"O. c #383030",
"+. c #443837",
"@. c #4A3D3B",
"#. c #4A3C3B",
"$. c #4C3D3C",
"%. c #473A39",
"&. c #3D3433",
"*. c #322C2C",
"=. c #282626",
"-. c #483B3A",
";. c #463938",
":. c #3E3434",
">. c #332D2D",
",. c #262424",
"<. c #2B2828",
"1. c #403635",
"2. c #493B3A",
"3. c #453938",
"4. c #433737",
"5. c #3F3534",
"6. c #403535",
"7. c #423736",
"8. c #433837",
"9. c #3C3332",
"0. c #2D2929",
"q. c #202021",
"w. c #473A3A",
"e. c #493B3B",
"r. c #3C3333",
"t. c #463A39",
"y. c #322D2C",
"u. c #242323",
"i. c gray13",
"p. c #362F2F",
"a. c #3A3131",
"s. c #312C2C",
"d. c #393130",
"f. c #302B2B",
"g. c #292626",
"h. c #252424",
"j. c #2B2727",
"k. c #443838",
"l. c #2C2828",
"z. c #3D3333",
"x. c #342E2D",
"c. c #212122",
"v. c #3B3232",
"b. c #2E2A2A",
"n. c #3B3231",
"m. c #2F2A2A",
"M. c #3A3231",
"N. c #3B3332",
"B. c #342E2E",
"V. c #202020",
"C. c #312B2B",
"Z. c #282625",
"A. c #202121",
"S. c #1E1F20",
"D. c #282525",
"F. c #252423",
"G. c #232322",
"H. c #232323",
"J. c #423735",
"K. c #3F3633",
"L. c #393230",
"P. c #423835",
"I. c #433835",
"U. c #403734",
"Y. c #3C3431",
"T. c #342E2C",
"R. c #2A2827",
"E. c #37302E",
"W. c #3F3533",
"Q. c #413734",
"!. c #3D3532",
"~. c #36302E",
"^. c #2F2A29",
"/. c #5C4944",
"(. c #584742",
"). c #4F403D",
"_. c #2F2B29",
"`. c #3B3330",
"'. c #4C3E3B",
"]. c #5D4A45",
"[. c #5A4843",
"{. c #52433F",
"}. c #433936",
"|. c #2A2726",
" X c #483C39",
".X c #554541",
"XX c #5B4944",
"oX c #594743",
"OX c #594843",
"+X c #5A4844",
"@X c #554440",
"#X c #473B38",
"$X c #564541",
"%X c #39312F",
"&X c #6B534D",
"*X c #4B3E3A",
"=X c #69524C",
"-X c #6D554F",
";X c #2D2A29",
":X c #554540",
">X c #66514B",
",X c #6C554E",
"<X c #6E5650",
"1X c #735953",
"2X c #50413D",
"3X c #3B3331",
"4X c #5E4B46",
"5X c #6C544F",
"6X c #745A53",
"7X c #6F5750",
"8X c #68514C",
"9X c #68514D",
"0X c #6A524D",
"qX c #5D4A46",
"wX c #3C3432",
"eX c #67504C",
"rX c #68524D",
"tX c #67504B",
"yX c #67514C",
"uX c #524240",
"iX c #50413F",
"pX c #594643",
"aX c #5A4744",
"sX c #423836",
"dX c #463A38",
"fX c #594744",
"gX c #483B39",
"hX c #493C3B",
"jX c #4D3E3D",
"kX c #3E3534",
"lX c #433736",
"zX c #2E2929",
"xX c #262525",
"cX c #483A3A",
"vX c #393131",
"bX c #413636",
"nX c #463939",
"mX c #383130",
"MX c #4D3F3B",
"NX c #5E4A46",
"BX c #433836",
"VX c #594644",
"CX c #292727",
"ZX c #242423",
"AX c #272625",
"SX c #322D2B",
"DX c #574641",
"FX c #6E564F",
"GX c #352F2D",
"HX c #6B544E",
"JX c #3E3533",
"KX c #4D3F3D",
"LX c #372F2F",
"PX c #252323",
"IX c white",
/* pixels */
"    . X X o O + @ # $ % & * X =                           = X * & % $ # @ + O o X X .                 - X = ; : > , < 1 ",
"o o o 2 2 3 4 5 6 # 7 8 9 0   * o o o o o o o o o o o o o *   0 9 8 7 # 6 5 4 3 2 2 o o o o o o o o o q   * w e r , < 1 ",
"t t t y y u i p a s d f g h j k t t t t t t t t t t t t t k j h g f d s a p i u y y t t t t t t t t t l z l x c v b < n ",
"m m M N N B V C Z A 6 p S D N F m m M M G M M H m m m m m F N D S p 6 A Z C V B N N M m m m m m m m m G J N K L P I < U ",
"Y Y Y T T R E W Q ! Z ~ ^ / ( ) Y Y Y ) ) ) Y Y Y _ _ Y Y ` ( / ^ ~ Z ! Q W E R T T Y Y Y Y Y Y _ _ Y ) ( ( V ' ] s [ { ",
"} } |  . .E ..X.s o.Q O.+.@. . .| } #.#.#.#.#.} } | | | |  . .@.+.O.Q o.s X...E  . .| } } } } | | | } | $.} %.&.*.=.[ { ",
"%.%.%.-.-.;.:.>.A ,.<.d 1.%.2.-.%.3.4.1.5.6.7.3.%.%.%.%.%.-.-.%.1.d <.,.A >.:.;.-.-.%.%.%.%.%.%.%.%.%.3.8...9.X.0.o.[ q.",
"%.%.w.-.-.;.:.>.A ,.<.d ..%.e.2.%.+.:.O.X.7 r.7.t.-.-.%.%.-.2.%...d <.,.A >.:.;.-.-.w.%.%.%.%.%.-.-.t.4.~ O.y.0.=.u.[ i.",
"-.-.-.2.2.t.5.>.A ,.<.p...%.#.#.%.7.a.s.0., ] 1.t.2.2.-.-.2.2.%...p.<.,.A >.5.t.2.2.-.-.-.-.-.-.2.2.t...d.f.s o.u.< [ i.",
"3.3.3.;.;.8.9.*.g.h.j.X.5.+.%.%.k.5.X.l.! s 6 z.8.;.;.3.3.;.;.+.5.X.j.h.g.*.9.8.;.;.3.3.3.3.3.3.;.;.8.&.x.# u.[ i.c.[ i.",
"v.v.v.r.z.v.d 0.,.< ! b.p.n.&.~ 9.7 m.! [ u.l.x.a.9.9.v.v.9.9.M.p.b.! < h.Q x.M.9.z.r.9.9.N.v.v.9.9.a.B.0.h.q.{ V.i.i.[ ",
"m.m.Z C.s.a 0.Z.[ A.[ ! l.m.a *.a b.g.< { i.h.s b m.m.m.m.m.m.b.l.! < A.[ ,.j.b.f.a s.s.a f.m.m.m.m.b j.,.i.S.U { i.i.[ ",
"! ! ! Z.=.D.o.u.[ [ < u.o.! =.=.Z.! F.< i.[ u.,.! D.D.! ! ! D.! o.u.< [ [ u.,.! Z.=.=.Z.Z.D.! ! D.D.! ,.u.[ i.i.i.i.i.[ ",
"I Q s Z.F.G.u.o.A # Q Q Q # =.h.H.u.,.g.# Q Q Q Q Q Q Q Q Q Q Q Q Q l.l.Q Q Q # A o.u.H.h.=.# Q Q Q Q Q Q Q # =.,.H.[ i.",
"J.K.W a Z.G.o.Z L.C P.I.U.Y.T.R.u.,.I E.W.v J.U.C C C C C C C C C U.Q.Q.Q.J.Q.!.~.I h.u.R.T.Y.C Q.U.C U.J.v W.$ ^.! [ V.",
"/.(.).K._.,.# `.'.c e ].[.{.}.6 Z.|.E. X.XXXXX[.oXoXoXoXoXoXoXoXoXOX[.[.+XXX[.@X#XE.|.Z.6 }.{.OXXX[.oX[.XXXX$X5 %X# [ S.",
"l &X: *X~.R.a r +X=Xw y -Xm 8 L.# ;XW.:X>X-Xt -Xu u u u u u u u u u u u -Xt -XJ :XW.;X# L.8 m ,Xt -Xu -X<X-X>X.XC b < n ",
"1X<Xm 2X3X, E.5 4X5X; 6Xl J % 3Xl.b C c x k z l t t t t t t t t t t t t l z k x c C b l.3X% J l z y 7Xl z k x S J.b < n ",
"8XF i ).C ] 9.+ oXH 9X0XJ qXf 7 s Q wXL B eX8XJ N N N N N N N N N N N N J 8XeXB L wXQ s 7 f qXJ rX8XtXyX9XyXB % ~ I < U ",
"( Y uX} +.5.7.E iX_ pXaXT L sX6 =.s d dXV ( pXT ) ) ) ) ) ) ) ) ) ) ) ) T pX( V dXd s =.6 7.L T fXpX( ( fX( V ' 7 s [ { ",
"| } #.-.t.3.t.gXhX}  .jX| dXv.m.! =.*.~ -. . .$.| | | | | | | | | | | | $. . .-.~ *.=.! m.v.dX| $.} #.@.$.| -.kX6 =.[ { ",
"%.%.%.-.-.2.-.-.w.%.-.-.%.lXd.zXxXD.f.N.k.-.-.cX%.%.%.%.%.%.%.%.%.%.%.%.cX-.-.k.N.f.D.xXb d.7.;.+...5.1.8.;.+.9.a =.[ { ",
"%.%.-.-.hX#.#.2.-.%.-.-.w.4.d.zXxXD.f.9.k.-.-.-.%.%.%.%.%.%.%.%.%.%.%.%.-.-.-.k.9.f.D.xXb.vX7.+.5.d.X.O.~ 8.+.r.*.=.[ { ",
"-.-.-.-.-.2.2.-.-.-.-.2.-.8.d.b xXZ.f.9.3.-.2.-.-.-.-.-.-.-.-.-.-.-.-.-.-.2.-.3.9.f.Z.! m.M.4.lXv.*.0.f.d.bX+.&.*.=.[ { ",
"3.3.3.3.3.3.3.3.3.3.3.nX3.1.7 0.,.! Z a.7.3.;.3.3.3.3.3.3.3.3.3.3.3.3.3.3.;.3.7.a.Z ! o.b mX1.5.p.Q ! s x.&...v.a Z.[ V.",
"v.v.v.v.v.v.v.v.v.v.v.9.v.O.f.g.H.u.s y.d.v.9.v.v.v.9.9.9.9.N.v.v.v.v.v.v.9.v.d.y.s u.H.A s.7 p.m.xX[ h.zXd vXX.zXo.[ A.",
"m.m.m.m.m.m.m.m.m.m.m.m.m.0.=.u.i.i.h.s 0.m.m.m.m., C.a s.a f.m.m.m.m.m.m.m.m.0.s h.i.i.u.g.0.l.! [ { [ ! 0.f.0.g.u.[ i.",
"! ! ! ! ! ! ! ! ! ! ! D.! ! h.< [ [ H.h.! ! D.! ! ! Z.Z.Z.Z.D.! ! ! ! ! ! D.! ! h.H.[ [ H.h.xXo.u.< i.[ u.xX! o.u.< [ i.",
"Q Q Q Q Q Q Q Q Q Q Q Q Q Q Q l.l.l.l.Q Q Q Q Q # A o.u.H.h.=.# Q Q Q Q Q Q Q Q Q l.l.l.l.Q Q Q Q Q # A ! u.[ [ i.[ [ i.",
"C C C C C C C C C C C C C C U.Q.Q.Q.Q.C C C Q.U.!.~.I h.u.R.T.Y.C Q.U.C C C C C C Q.Q.Q.Q.U.C U.v J.C W a Z.[ V.q.i.i.[ ",
"oXoXoXoXoXoXoXoXoXoXoXoXoXoXOXOX[.[.OXoXoX[.XX[.@X#XE.|.Z.6 }.{.OXXX[.oXoXoXoXoXoXOX[.[.OXOXoXOXXXXXc MXP ;X< { { i.i.[ ",
"u u u u u u u u u u u u u u u u u u u u u -X<X-XJ :XW.;X# L.8 m ,Xt -Xu u u u u u u u u u u u ,X<X<X=XXX#Xy.u.{ { i.[ [ ",
"t t t t t t t t t t t t t 7Xt t t t t t t l z k x c C b l.3X% J l z k t t t t t t t t t t t t l z j u NX X6 F.{ { i.[ [ ",
"N N N N N N N N N J J J J J J J J N N N N J 8XeXB L wXQ s 7 f qXJ 8XeXN N N N N N N N N N N N J 8X8Xm $XBXa u.V.{ i.[ [ ",
") ) ) ) ) ) ) ) ) ) ` T ( ( ( ` ) ) ) ) ) T pX( V dXd s =.6 sXL ` VX( ) ) ) ) ) ) ) ) ) ) ) ) ` ( ( / } 9.b u.q.q.i.[ [ ",
"| | | | | | | | | } } #.#.#.#.@.} | | | | $. . .-.~ *.=.! m.v.dX|  .$.| | | | | | | | | | | | |  . .E 7.p.# H.A.A.i.[ [ ",
"%.%.%.%.%.%.%.%.%.t.+.7.5.5...+.nX%.%.%.%.cX-.-.k.N.f.D.xXzXd.lX%.-.-.%.%.%.%.%.%.%.%.%.%.%.%.%.-.-.;.5.x.s < A.A.i.[ [ ",
"%.%.%.%.%.%.w.-.-.;...v.p.d vX5.3.%.-.cX%.-.-.-.k.9.f.D.xXzXd.4.w.2.-.%.%.%.%.%.%.%.%.%.%.%.%.w.-.-.;.5.x.s < A.A.i.[ [ ",
"-.-.-.-.-.-.-.2.-.3.:.X.b.0.>.9.+.-.2.-.-.-.2.-.3.9.f.Z.xXb d.8.-.e.-.-.-.-.-.-.-.-.-.-.-.-.-.-.2.2.t.5.X.s < A.A.i.[ [ ",
"3.3.3.3.3.3.3.;.3.7.M.f.=.! b O...3.;.3.3.3.;.3.7.a.Z ! ,.0.7 1.3.nX3.3.3.3.3.3.3.3.3.3.3.3.3.3.;.;.8.z.>.CX< A.A.i.[ [ ",
"v.v.v.v.v.v.9.z.z.M.>.s u.[ Z.f.7 v.9.v.v.v.9.v.d.y.s u.H.g.f.O.v.9.v.v.v.9.9.9.9.9.v.v.v.v.v.v.9.9.a.X.0.,.i.V.A.i.i.[ ",
"m.m.m.m.m.m.f.a s.f.l.h.i.V.< =.0.m.Z m.m.m.m.m.0.s h.i.i.u.=.0.m.m.m.m.Z f.a s.a f.m.m.m.m.m.m.m.m.b.<.xX[ { { V.i.i.[ ",
"! ! ! ! ! ! D.=.=.! ,.u.[ [ < h.! ! D.! ! ! D.! ! h.H.[ [ < h.! ! D.! ! ! Z.Z.Z.Z.D.! ! ! ! ! ! D.D.! ,.u.[ i.i.i.i.i.[ ",
"Q Q Q Q Q l.|.! u.G.ZX! s # Q Q Q Q Q Q Q Q Q Q Q Q l.l.l.l.Q Q Q Q Q l.|.! u.H.F.AXs Q Q Q Q Q Q Q Q Q Q Q # =.,.H.[ i.",
"C C C Q.Q.W.$ _.! u.A SX3XU.P.Q.C C C C C C C C C C Q.Q.Q.Q.U.C C Q.Q.W.$ _.! u.=.a W K.Q.Q.C C C C C U.J.v W.$ ^.! [ V.",
"oXoXOX+X+XDXf 3XQ ! Z C 2XoXXXXXoXoXoXoXoXoXoXoXoXoXOX[.[.OXOXoXOX+X+XDXf 3XQ ! Z K.8 (.XX[.oXoXoXoXoX[.XXXX$X5 %X# [ S.",
"u u ,XFXFX=X[.r a s GX+ : HXt FXu u u u u u u u u u u u u u u u ,X<XFX=X[.r a |.GX+ : HX<XFXu u u u u -X<X-X>X.XC b < n ",
"t t l j j u ].> a s d '.4 <Xz j t t t t t t t t t t t t 7Xt t t l z j u ].> a s d '.4 <Xz j l t t t t l z k x S J.b < n ",
"N N J yXyXm / v Z A 6 dXaXF 8XyXJ N N N N N N N J J J J J J J J J 8XyXm / v Z A 6 dXaXF 9X8XeXJ J J J J 8XeXB % ~ I < U ",
") ) ` ( ( / + M.Q Z.Z JXKXY pX( ) ) ) ) ) ) ) ) ) ` T ( ( ( ` ) ` ( ( / + M.Q Z.Z JXKXY fXfX( ( T ` ) T pX( V ' ] s [ { ",
"| | |  . .E ..X.s o.Q O.+.@. . .| | | | | | | | } } #.#.#.#.@.} |  . .E ..X.s o.Q O.+.#. .| #.#.#.} } $. . .-.kX6 =.[ { ",
"%.%.%.-.-.;.:.>.A ,.<.d 1.%.-.-.%.%.%.%.%.%.%.%.t.+.7.5.5...+.nX%.2.-.;.:.>.A ,.<.p...3.3.7.5.5.7.+.t.-.2.-.k.9.a Z.[ { ",
"%.%.w.-.-.;.:.>.A ,.<.d ..%.2.-.%.%.%.%.%.w.-.-.;...v.p.d vX5.3.cXe.2.;.:.>.A ,.l.LX..k...M.d p.v...;.-.hX-.k.9.a Z.[ { ",
"-.-.-.2.2.t.5.>.A ,.<.p...%.2.2.-.-.-.-.-.-.2.-.3.:.X.b.0.>.9.+.-.#.hXt.5.>.A ,.l.7 bX+.&.x.zXb.X.:.3.2.#.2.3.9.a =.[ { ",
"3.3.3.;.;.8.9.*.g.h.# X.5.+.nX;.3.3.3.3.3.3.;.3.7.M.f.=.! b O...3.%.t.8.9.*.g.,.<.d 5.1.d.m.! =.f.M.7.;.%.;.7.M.f.! [ V.",
"9.9.9.z.z.v.d b ! PX=.f.7 9.&.z.9.9.9.9.9.9.&.z.M.>.<.h.u.A s.d.9.~ &.v.d b ! PXg.a ] mXy.s u.h.<.>.M.&.~ &.M.x.Q ,.[ A.",
"a a a *.*.C.0.g.h.H.,.s b.a *.*.a a a a a s.*.*.f.l.! H.< ,.# Z s.y.*.C.0.g.h.H.,.j.m.m.<.o.< H.! l.f.*.y.*.f.Q =.u.[ i.",
"=.=.=.=.=.Z.xXu.< [ H.h.! Z.=.=.=.=.=.=.=.=.=.=.! ,.u.[ [ H.h.! =.=.=.Z.xXu.< [ H.h.! ! ,.u.[ [ u.,.! =.=.=.! ,.u.< [ i.",
"[ [ [ [ [ [ [ [ [ [ [ [ [ [ [ [ [ [ [ [ [ [ [ [ [ [ [ [ [ [ [ [ [ [ [ [ [ [ [ [ [ [ [ [ [ [ [ [ [ [ [ [ [ [ [ [ [ [ [ i.",
"{ { { { { V.q.i.i.i.i.A.V.{ { { { { { { { { { { V.A.i.i.i.i.A.V.{ { { V.q.i.i.i.i.A.V.V.A.i.i.i.i.A.V.{ { { V.A.i.i.i.[ "
};
