/* XPM */
static char *collect1700667936[] = {
/* columns rows colors chars-per-pixel */
"85 85 256 2 ",
"   c #481C0A",
".  c #4B2513",
"X  c #4E2917",
"o  c #542A15",
"O  c #5B2D15",
"+  c #552D1A",
"@  c #5A2E1B",
"#  c #512615",
"$  c #55311C",
"%  c #5D321C",
"&  c #5C3116",
"*  c #4D230E",
"=  c #62351C",
"-  c #65391D",
";  c #6B3B1D",
":  c #673519",
">  c #622F1C",
",  c #553122",
"<  c #5B3422",
"1  c #5C3628",
"2  c #542D23",
"3  c #623523",
"4  c #653B23",
"5  c #6A3C24",
"6  c #643B2A",
"7  c #6B3E2A",
"8  c #653729",
"9  c #723D25",
"0  c #733F2B",
"q  c #683D33",
"w  c #6D4325",
"e  c #6D432C",
"r  c #66422B",
"t  c #734325",
"y  c #72442C",
"u  c #79462A",
"i  c #75492D",
"p  c #7A4B2D",
"a  c #794826",
"s  c #7D502F",
"d  c #6D4432",
"f  c #6B4739",
"g  c #734532",
"h  c #754A33",
"j  c #7B4C33",
"k  c #744C3B",
"l  c #7C4E3A",
"z  c #784534",
"x  c #7D5134",
"c  c #76533D",
"v  c #7C533B",
"b  c #765236",
"n  c #6F431E",
"m  c #754E41",
"M  c #755240",
"N  c #7C5343",
"B  c #79594B",
"V  c #77584C",
"C  c #834E2D",
"Z  c #814E21",
"A  c #84522C",
"S  c #89542E",
"D  c #8B592C",
"F  c #834E33",
"G  c #814E39",
"H  c #845334",
"J  c #8A5534",
"K  c #8D5935",
"L  c #84543B",
"P  c #8A553B",
"I  c #86593C",
"U  c #8C5A3C",
"Y  c #865836",
"T  c #915B35",
"R  c #925C3C",
"E  c #965B39",
"W  c #925F2B",
"Q  c #986A2A",
"!  c #8E603E",
"~  c #946333",
"^  c #95623C",
"/  c #99633E",
"(  c #986939",
")  c #966D34",
"_  c #A8782A",
"`  c #A97739",
"'  c #A8742E",
"]  c #B27D1F",
"[  c #845442",
"{  c #895542",
"}  c #865942",
"|  c #8C5C42",
" . c #8C5D4A",
".. c #84584A",
"X. c #925D42",
"o. c #945B43",
"O. c #8F6242",
"+. c #8E624A",
"@. c #946243",
"#. c #9A6543",
"$. c #9D6944",
"%. c #94644B",
"&. c #9A654B",
"*. c #9C6B4B",
"=. c #97684A",
"-. c #9E714B",
";. c #84655B",
":. c #9B6C52",
">. c #946753",
",. c #9E7355",
"<. c #A16C45",
"1. c #A36D4B",
"2. c #AA6E4C",
"3. c #A47244",
"4. c #AB7345",
"5. c #A4714B",
"6. c #AB734C",
"7. c #AC7A4D",
"8. c #A97B43",
"9. c #B2764B",
"0. c #B27B4D",
"q. c #B17C46",
"w. c #A36E52",
"e. c #A47353",
"r. c #AB7554",
"t. c #AD7954",
"y. c #A5755A",
"u. c #AB765A",
"i. c #AC7A5A",
"p. c #A67958",
"a. c #B37C54",
"s. c #B27D5B",
"d. c #B57A57",
"f. c #987566",
"g. c #9A7A6F",
"h. c #AA7D63",
"j. c #B37E61",
"k. c #A07E74",
"l. c #B78F1D",
"z. c #B98828",
"x. c #B78938",
"c. c #B48C32",
"v. c #DD990B",
"b. c #DB9A18",
"n. c #CD9419",
"m. c #E58E06",
"M. c #E69204",
"N. c #EA9502",
"B. c #EB9B04",
"V. c #E79A09",
"C. c #E29A15",
"Z. c #F09D03",
"A. c #D9A719",
"S. c #DDB61A",
"D. c #D6A911",
"F. c #ECA404",
"G. c #ECAB03",
"H. c #E4A40B",
"J. c #ECAC0B",
"K. c #E7A60A",
"L. c #F1A304",
"P. c #F2AB05",
"I. c #EEB303",
"U. c #EEBC03",
"Y. c #ECB40A",
"T. c #EABA0B",
"R. c #F1B403",
"E. c #F1BC04",
"W. c #F2BC0A",
"Q. c #F3B109",
"!. c #E7A816",
"~. c #E6B716",
"^. c #C28D29",
"/. c #C99828",
"(. c #D89B26",
"). c #C79838",
"_. c #D49B35",
"`. c #C48D3B",
"'. c #D6A724",
"]. c #DDB726",
"[. c #D2A831",
"{. c #E6AA26",
"}. c #E5B626",
"|. c #E3AD38",
" X c #E09F27",
".X c #EDC508",
"XX c #F3C305",
"oX c #F5CB04",
"OX c #F9CB02",
"+X c #F6C608",
"@X c #F6D203",
"#X c #F9D302",
"$X c #F9DB03",
"%X c #F5DA07",
"&X c #E9C515",
"*X c #F1D10E",
"=X c #F9E707",
"-X c #FAF403",
";X c #F7E916",
":X c #FCF114",
">X c #ECCF2E",
",X c #F4EB2C",
"<X c #DEC417",
"1X c #B88647",
"2X c #B58155",
"3X c #BD8255",
"4X c #B5815B",
"5X c #BA835B",
"6X c #BD895D",
"7X c #BB8857",
"8X c #B58B50",
"9X c #9E867C",
"0X c #B48362",
"qX c #BB8563",
"wX c #BE8A63",
"eX c #BC8C6A",
"rX c #B58967",
"tX c #A8867A",
"yX c #B58A6C",
"uX c #C89649",
"iX c #C38B5C",
"pX c #C28658",
"aX c #C8935C",
"sX c #C08C46",
"dX c #DBA746",
"fX c #D4A255",
"gX c #C38B64",
"hX c #C98C64",
"jX c #C48C69",
"kX c #C88B68",
"lX c #C69264",
"zX c #CA9464",
"xX c #CD9A64",
"cX c #C6916A",
"vX c #CB956C",
"bX c #CD996C",
"nX c #D29B6D",
"mX c #D6986A",
"MX c #CE9872",
"NX c #D39D73",
"BX c #D99E75",
"VX c #C88F71",
"CX c #D6A174",
"ZX c #DBA474",
"AX c #DCAA7A",
"SX c #D9A57A",
"DX c #D7A26D",
"FX c #E1A874",
"GX c #9D8D8C",
"HX c #9D8784",
"JX c #9B908E",
"KX c #A28C8B",
"LX c #A58984",
"PX c #A4928A",
"IX c #AA9091",
"UX c #DFA981",
/* pixels */
"@ # @ + + @ e h g k k g  . . . . . .h.0X0X0X0X0X0X0X4X0X0X0X*.@.*.@.=.&.H j a u g j y 0 g y g g w 6 5 w 7 4 j O.! O.! +.Y - - ; w = w x p j x p } ,.p.y.u.y.y.u.i.i.i.s.u.",
"2 @ + + + + h h h k j g  . . .|  .| p.0X0X0X0X0Xp.0X,.0X0X0X,.@.@.%.=.*.H t a p j j y y g e e e 4 w 4 6 w 5 p O.O.O.! @.x - ; n ; - t x x x H j I 0Xh.,.y.u.h.j.i.u.u.t.t.",
"# # # @ + o k g h k h h  .+. .@. .U i.0X0X0X0X0X0X0X0X0Xs.0Xw.&.*.=.@.*.H u j p u j y 0 e 7 g e w 7 w w w 4 p O.O.O.I O.x = - - w - y b j x x i x h.y.y.y.y.r.p.a.a.t.d.t.",
"+ @ + @ o + g g h l g h  . . . . .| p.j.0X4X0Xp.0Xp.4X0Xj.j.w.&.=.&.%.&.P u C u u j y y 0 e g e e w 6 6 4 w h +.! ! ! +.Y w ; w ; - i x x x x x | h.,.p.i.u.u.u.t.t.r.t.u.",
"# o * o * o h h h h g h } +. .>.%.+.h.qXj.j.rXrX0X0XqXrXyXj.u.o.&.w.w.o.H t a t t u y y g d y 7 6 4 4 - - 4 u } ! O.! ! s - : & : : - a p u p i L p.0Xh.,.p.0X0Xj.s.s.h.i.",
"4 w 5 7 5 t y h h g h h h l l N v l :.e.y.,.,.w.,.+.>.>.>.>. .o.P { o.P X.X.R o.| @.l 7 0 0 i e i h h p u p I %.O.@.@.@.! Y S Y H H ! ^ @.@.! @.+.O.>.+.+.+.+.>.:.:.:.:.:.",
"&.&.*.:.%.%.h y h g d i $ o X o + + z G G l m N +         * > 0 5 5 9 9 w.yX0XrXwXeX%.g g g y y } %.%.+.+.@.-.p.-.,.,.e.4XeXcXcXjXcXlXcXcXcXgXcX,.@ . X , X , k k k l z k ",
"#.#.o.%.&.:.g y i e i d $ $ $ $ 2 + z m [ N N B 1 . X # # * > 0 9 9 9 3 &.VXj.yX0XeX .7 z z y e L %.=.@.@.@.=.,.,.-.1.*.t.wXgX6XwXgXwXwXwXwXgXcXh.+ 2 2 1 2 , M k M m m m ",
"&.#.&.&.&.%.g i g g g d % + , , 2 # k ..m N N [ , . . . X . = 9 9 ; 9 : 1.eXqXj.qXjX .y g g g g L =.! @./ @.@.,.,.-.e.*.t.wXwXgXwXwXgXgXqXgXgXhXh., , X , $ , M k k m k k ",
"&.&.o.@.%.@.g y g i h g < $ $ + < + l N N N N [ < . . . X . = 9 0 9 9 : 1.qXqXj.0XrX| 9 y z l g v =.O.( ^ @.&.-.*.,.-.*.t.gXwXwXwXwXgXgXgXwXgXkXh.X 2 , $ $ , M c k m M k ",
"&.%.&.*.&.%.l i y y y e % + + + @ # z [ m m m [ ,   . . . . % 5 : : 9 ; *.eXjXwXeXeXo.y y y g 5 H =.O.=.@.=.$.e.e.e.e.e.0XjXgXgXjXgXjXgXgXgXjXjX,.. $ , $ . , c m V m m f ",
"I I I U I I x j j p j j 5 4 4 4 8 3 ..;.;.;.;.;.f $ < < 1 1 w u u u Z 9 @.r.p.e.5.t.X.z l l l j x I ! I Y Y R *.@.=.*.@.-.s.a.s.a.a.a.d.a.a.a.a.e.% 1 r r < f ;.V V ;.V ;.",
"u i t y e p L } P P I U p h j j [ [ g.LXLXLXLXLXB k m k c f x H J F F C R R U K K ^ U L  .| L  .g 7 5 5 5 5 y P P P P P U *.#.<.<./ <.<.<./ <./ *.i b h b l B tXIXJXKXKXKX",
"t i i i i i I U Y I I U p j j s z 0 f.k.HXHXk.9XB k M k c f h H F S F H R U U ^ K U U U | P L | L 7 7 7 e 7 j  .U U U P @.&.&.#.$.#./ / / / / #.^ s v h b h V PXJXJXGXGXHX",
"w i b b h i I H P P P U p F p j z m g.HXHXHXLXHXV f f f f h x x F F S J P U ^ U ~ U U I | P P | x 6 6 6 7 6 u | U ! U P @.$.#.$.#.$./ <.<.<.$.<.^ s b j p h M GXJXJXJXGXHX",
"b w i i h i ! P U Y P U p p p C z z f.k.HXHXHXLXV M M k c c v Y J J F F Y R @.! ^ U R Y P U P I l 5 d e e 7 j | U U | P @.&.&.$.<.#./ <.<./ $.$.( i p x b b B JXJXJXIXGX9X",
"n w y 7 ; t I O.P I Y U x j j p u b f.KXKXHXHXk.V f f f f f h x p C p p H P U U U R J U P F { { i 6 3 6 3 6 i } I P P Y R &.#.#.#.#.#./ / / / ( %.e i w t r B JXPXJXPXPXKX",
"5.,.w.w.5.1.U x P P U Y H H H L P L >.h.f.f.f.f.,.,.,.,.,.,.t.7.7.t.7.t.t.t.s.t.t.p.*.X.o.o.o.o.@.$.@.@.^ #.^ $.@.$.&.&.$.*.$.$.#.#.1.a.s.5Xa.4X2X7.7.7.7.7.,.,.f.f.f.f.,.",
"nXnXNXBXBXvX^ H C F H P U o.@.X.E P o.o.P E E F MXAXAXAXAXSXAXDXAXAXAXAXZXCXbXbXNXMXj.1.<.w.w.&.2XlXxXzXaXzX3X9.t.9.r.r.r.<.1.1.1.<.d.SXSXCXBXSXDXFXAXDXFXFXbX! x Y L Y v ",
"mXmXmXmXmXnXS C H H C F U | U | o.o.E o.E E E E cXAXDXZXAXCXZXCXDXCXDXCXbXbXbXbXMXNXd.o.1.o.&.o.a.lXzXaXaXzX3X2.6.6.6.9.<.<.#.<.<.@.t.SXCXNXNXCXBXBXCXmXmXZXvXJ T ~ T R R ",
"kXmXmXmXzXmXJ H H J J H U X.U X.| U K R E P E o.jXUXCXCXSXCXSXBXNXCXZXNXNXbXNXNXvXNX4X+.w.w.&.1.9.jXaXiXpXaXpX2.9.4.6.6.2.<.#.<.1.o.d.BXNXmXBXBXBXBXBXFXBXBXnXR K T T T E ",
"mXmXmXmXnXMXS j C H C H R X.R @.| o.R ^ o.E o.{ cXZXCXCXAXCXSXCXZXCXCXNXMXMXvXvXMXNXt.@.&.&.o.>.t.zXiXaXaXaX7X4.2.4.6.6.2.#.#.<.1.#.a.SXMXNXBXMXmXmXDXCXDXmXzXS U U P P U ",
"mXmXmXmXmXMXR F H J F C U | I U K R P U R E E P nXAXFXAXAXUXAXZXAXAXSXSXSXCXNXNXMXNX4X&.&.:.=.=.2XzXlXzXaXhXpX4.9.9.t.r.5.1.<.1.1.&.s.BXNXNXBXBXZXAXAXZXFXFXmX^ K P U U U ",
"iXiXpXpXpXpXK H H J H J *.e.*.,.w.2.E P K T E T r.a.5Xs.s.4Xa.a.a.a.a.s.5XqX5X5XqXgXe.| %.%.+.+.1.gX5X5XpX3Xd.E #.#./ #.R E K K o.P 1.gXgXiXpXkXiXs.d.3X0.pX4XH U U T R R ",
"2.4.4.4.9.2.E P P P P H t.4X2X0Xs.5X^ K J E T T S J T J P P T S A S S K $.6.7.` q.q.8.` ) -.=.( r.u.a.t.a.s.5.A Z A H H x a a u h i H t.6.6.2.d.w.H I } L } O.} P U P R R ",
"9.9.9.9.9.r.E P H P P P p.4X2X4Xa.4X^ S J T S T E R E o.R X.R K R ~ W ~ ` sXuX).).).c.c.c.c.c.c.q.1X0.t.u.t.-.Z J H H H x p i i i i H s.d.a.r.d.y.I %.+.+.O.+.U U U U U R ",
"9.9.9.9.9.9.J P P P P H t.4Xt.2Xa.s.E S J T J T o.R P o.o.R K ~ E ( ' ] z._.'.'.A.].].A.'.'.[.l./.uXuX1X4Xa.-.s H H H Y s s i x l u P s.r.r.r.u.e.| +. ...O.| U | U U U X.",
"9.9.9.9.9.9.J J P P P H t.2X7.2Xa.2XE D S E J J { o.o.o.X.I ~ ~ ' _ z./.A.{.~.J.Y.T.Y.Y.&X~.S.S.].].[.uX8X2X-.x Y H H Y A p p j j u U d.r.d.d.d.e.U +.} +.}  .| U | | | | ",
"9.9.9.d.6.r.K J P J P P d.d.2X2Xs.4X~ K T T J T o.o.o.o. .o.( ` z./.'.!.!.J.J.Q.P.Y.Q.R.I.W.XX.X*X&X>X].[.8X8.I s A x A s a w i u a U u.u.j.s.d.w. .%.%.>. .} | | U U | X.",
"#.<.<.<.<.<.J P J P P J d.d.2X2Xa.5XE T T J E T F F G G H D Q c.n.!.!.G.P.F.L.P.J.P.P.I.I.R.E.W..X&X&X~.<X[.1X` ( ( $.$./ ! ! @.@.U =.&.<.o.<.&.&.j l l l j l | | | U O.X.",
"E E o.R R / C P F F P F a.4X2X2X4X4XE T T T E E z u 0 u A Q l.D.Y.Y.I.F.L.L.L.L.F.P.I.Y.U.I.I.R.U.U..X&X&XS.[.).1X7.6.r.r.5.5.p.p.5.&.U F J K K P ; 5 3 5 5 y | @.U U X.^ ",
"E #.&.o.R &.H P J F P J a.5X2X5X5X5X/ E E E E E F 0 0 F ) z.n.S.Y.Y.G.L.L.L.Z.L.P.R.W..XU.U.I.P.R.E.W.+X*X&X].[.8X1X6.5.e.5.5.5.*.5.$.U R R U R L 9 e 7 e 5 y | X.X.U U X.",
"o.@.@.o.R o.H H H P R F d.7Xa.5XpXa.<.T E o.E / b d b b l.D.T.U.Q.I.G.G.F.F.F.F.I..X*X%X*X.XI.I.G.I.I.U.XX.X&X<X[.x.5.5.7.5.1.e.1.5.$.R K U U U P 7 7 4 7 7 g | | U U ! R ",
"@.#.R #./ @.J P H H G A a.7X5X5X5Xd.E J / E R U p i s c.l.S.&XU.R.G.I.P.L.L.L.G..X*X%X=X=X.X.XU.I.I.I.U.E..X&X&X].).8X-.3.5.5.3.5.6.$.T J R R R F 5 7 7 q 7 e  .| ! ^ R R ",
"o.#.o.E R @.H H K F L U r.wX5X0XqXqX#.R E T K R p a W l.].&XXXU.R.I.P.P.J.F.I.W.@X%X-X-X-X%X.X.XI.R.R.R.R.E.+X+X&X[.8X1X4.<.5.3.5.5.$.^ K K P K P 5 7 7 e 5 t X.R T K R R ",
"<.1.<.<.1.1.U P J H Y P x H v x F H 1.p.r.6.8X8X! Q l.'.&XoXXXE.R.R.R.Q.Q.I..X.X=X:X-X-X-X=X%X.XE.E.I.I.I.I.W.OX&X].[.x.` 3.5.3.3.3.7.2X2X5X5X5Xa.C p j j a H 5.5.5.3.5.e.",
"6.r.9.r.r.2.R P P P P L = O O % o O y.eXyXyXyXrX-.) l.&X.XXXXXE.XXU.U.W.W.XX*X%X=X=X-X-X-X=X=X@XOXXXXXU.U.I.E.E.&XS.[.x.3.5.6.<.3.3.2XCXCXCXCXAXcXK K Y Y Y E a.2X2X2X2Xs.",
"6.2.2.6.r.5.U F P U U I 8 3 3 3 w + 0XeX8XrXyXrX` z./.~.XXU.U.Y.XXXXoXoXOX@X%X%X=X=X=X=X=X=X=X$X@X@XoXoXXXW.E.I..X&X].x.8.6.6.5.3.3.q.CXDXxXzXbXlXA S H Y D D 0.0.9.7.t.p.",
"9.6.2.9.6.5.R J { P P I 7 1 8 < < $ f.yXrXrXeXwX` z.A.~.U.U.W.Y.U.XXoX@X@X$X%X%X=X$X$X$X$X$X$X$X$X#X@XoXXXW.Y.J.Y.T.].).q.8.6.5.5.3.2XCXbXbXbXDXgXA S J S S W 0.a.0.2Xt.s.",
"2.9.2.2.6.6.K H P I I L q 2 8 1 1 < 0XyXeX0XrXjX` z.(.Y.Y.G.H.H.G.XXoX@X@X#X@X@X#X#X#X#X#XOX@X#X#X@X@XoXXXW.J.K.J.T.S./.1X4.3.6.5.5.i.CXMXCXNXCXlXS T J H J T d.0.0.0.2Xi.",
"r.r.6.r.5.e.U H Y I L v 5 3 3 3 3 % ,.eXeXyXeXrX` ^.!.J.P.J.H.v.H.T.oXoXOXOXOXOXOXOX#XOXOXOXOXOXOXoXoX+X.XG.K.H.J.Y.S./.x.7.-.3.3.3.2XbXCXbXbXCXgXT C K A A K a.2Xa.s.s.h.",
"R R ^ #.@.@.H j s i s H y g g l l t ,.p.p.p.p.t.sX_.{.L.P.F.K.V.v.H.W.XXOX+XOXOXOXOXOXOX+XOXOXOXOXoXXXU.Y.K.B.V.J.Y.S./.x.e.3.5.6.<.6.2X4Xa.a.a.2Xs.5XqX3XwXa.&./ / #.@.@.",
"R @.U U P Y p p t i i j j l L L L j *.*.*.5.-.-.uXdX{.J.P.P.F.V.v.v.H.T.+X+XOXOXOX+X+XOXOXOXOXOXOXXXW.Y.H.V.B.B.B.J.D.z.` 6.-.5.5.<.3.<.$.<.<.$.4.vXNXMXvXbXjXS P T U R U ",
"U R P U U U x j b p i j l F G G l H *.e.e.e.<.-.uX|.{.L.L.L.Z.B.C.V.v.Y.W.+XOXOXOXOXOXOXOXOXOXOXOXOXW.J.H.N.N.B.L.Y.A.z.` 6.5.3.1.5.5.5.<.5.5.5.7.MXvXvXcXlXlXR E K R U U ",
"U U U @.! ! p i i i i i l l G G l F &.*.1.:.1.1.uXdX{.J.L.L.Z.Z.V.V.v.H.T.oX#X#XOXOXOXOX#X#X#X#XOXOXE.K.V.N.N.N.K.Y.A.z.` 6.3.<.<.<.<.<.<.3.$.$.6.cXvXvXvXzXwXR P R R o.{ ",
"U @.R U Y I p b h h h j H G G G G L &.1.e.w.1.1.aXfX|.!.Z.Z.Z.Z.V.m.v.v.T.@X%X%X$X$X$X$X$X$X$X$X$X@XW.G.N.M.N.N.H.J.n.z.<.5.3.5.6.1.5.6.-.-.3.*.7.vXMXjXvXNX5XJ o.o.{ o.o.",
"R R R U U ! h p h j l g L l F H G G *.y.y.w.e.1.7XuX|.C.L.B.N.N.N.m.C.H..X*X;X=X=X=X=X=X=X=X=X;X=X$XXXG.B.N.N.N.H.H.n.` $.1.*.1.w.1.w.5.5.5.e.e.t.MXMXgXzXbXqX#.P o.o.o.o.",
"r.r.5.p.p.-.i & 3 5 4 = z g z z z y L X.X.| @.U 9.sX_.{.!.N.N.N.m.m.C.H.&X%X:X:X:X;X;X:X:X:X:X:X;X;X*XY.B.V.N.V.H.v.z.' K U P | R P o.X.| +.@.U / 4Xs.5X5Xa.s.w.w.w.w.w.w.",
"j.j.j.d.a.s.5 $ 1 $ < % 7 0 y y 7 t L [ ..| ..[ 5.2Xx.'.!.Z.m.N.m.m.C.C.>X,X,X,X:X,X;X;X;X,X,X,X,X,X>XQ.B.N.N.V.H.n._ ~ H L { L H L ..v  .} ..I o.j.r.t.t.6.r.r.r.u.u.i.u.",
"u.u.i.d.s.u.5 < 3 < 3 3 e i g y 0 e L [ | [ [ [ ,.2X`._.{.L.N.N.m.m.C.(.>X,X,X,X,X>X<X>X>X,X>X,X,X,X>XJ.H.N.B.K.v.l.' W A H L { L [ | L  .I | L o.s.u.s.s.u.s.u.r.u.u.y.y.",
"s.qXj.s.s.u.3 < < % < % 7 0 7 y e e v } } [ } } w.d.0.).(.C.B.N.m.m.C.(.|.>X>X>X>X}.~.}.S.].>X>X>X>X>X!.V.F.V.!.n.] Q H p H P ..L L I I } } | | | s.u.t.r.d.u.r.y.p.y.y.w.",
"u.u.u.u.s.d.7 < 3 1 6 < g g y y i e x } } } } I w.s.d.sX). X!.B.N.m.m.(.(.|.{.{.!.!.!.K.D.S.!.S.}.}.{.L.F.G.!.A.z.Q Z C H A L [ } v [ I I I | | X.0Xs.s.d.d.u.u.u.r.u.y.y.",
"d.j.j.i.j.u.7 3 @ < = % y u u t t a j I } } } } 1.w.r.a.1X_.{.H.Z.Z.m.m.C.C.C.C.v.N.V.G.G.H.H.H.H.!.!.H.G.G.D.l._ W s v H Y I ..L l L | U U U U X.p.p.t.r.a.r.d.r.r.r.w.r.",
"U | X.| o.o.j H [ L L L w.u.p.u.p.p.O.v v h i h z z j p D ' /.b.V.V.V.V.m.V.m.V.M.N.N.N.B.H.H.H.G.K.G.T.~.A.'.c.q.7.-.-.Y ; 5 4 e w u U Y Y P P K *.#.@.o.#.w.qXjXjXkXkXgX",
"K H P F H F L  .L L P J u.qX5X5X5XqXI y h b h v 7 3 3 3 ; Z ` _. XC.C.Z.V.m.N.N.N.N.V.B.F.F.P.Q.Y.T.~.S.'./.x.1X7.e.e.4X@.5 - 4 - % w K K K K Y R =.U R R E 1.VXkXkXkXkXhX",
"P P | [ P E P L L P H J t.5Xa.5Xa.wXK y h v i h d 6 e q 8 t ' 1X/.(.C.!.L.N.N.N.N.B.V.V.B.G.P.R.T.T.D.D.l.z.3.6.u.7.3.t.+.4 - % 4 ; a ! J ~ K K Y R ^ &.#.E o.VXkXgXkXgXiX",
"[ L { L | P { P P H H Y r.5X4X2Xd.eXP y l k h h 0 7 7 q 7 5 ! t.q.`./.(.!.C.C.V.B.B.B.L.F.K.~.}.S.D.[.z.` Q / r.6.e.e.t.@.& - r r % t ! K K K U T o.@.^ o.R #.VXhXhXhXhXpX",
"P { { P H H G { I I J U u.wX4X5XqXqXP y j g h j 7 8 8 6 6 4 ! t.9.x.x.^.).(.(.C. Xb.!.{.!.{.}.|.[.z._ Q ~ T #.u.6.t.7.p.+.- - 4 - $ w ! K K K U R R =.@.X.E <.jXhXkXkXkXkX",
"S H P T R R F { P L P P r.0Xs.j.0Xj.O.x j i a a y 8 7 7 7 5 I -.:.e.3.q.sX`.)._._.(.|.|.|.dXdXdXpX) W T P J o.r.5.e.5.5.U n ; - w - t ! ~ K R R / Y ^ ! R @.*.jXkXkXkXkXqX",
"5X4Xs.d.a.6.F 9 7 0 0 7 | o. .X.| U H I R U $.@.U L P I I H *.5.:.:.*.5.9.3X1X1X`.x.uXfXfXfXfXfX2XW S J J J T 2.5.5.5.5.5.^ @.&.@.O.3.6X5XqX5X6Xr.H H x x H J @.P E o.P o.",
"7X3Xa.pXiXpXC 3 8 9 9 9 H { L { } L U $.^ ^ ^ ! ~ K ! U ! Y $.-.-.:.:.&.r.a.a.2X1Xq.iXaXxXaXxXxXa.S S K J S T <.$.<.<.<.$.<.5.5.1.*.t.vXlXhXhXvX0XF p u p p p p P P L P P ",
"7XpXpXpXpXd.C 9 5 9 7 8 N { [ ..} L ! @.^ ^ / ^ ^ K ~ ~ ^ K $.*.-.*.*.w.r.s.a.d.a.0.iXxXxXbXxXnXr.A F J P F E 2.1.2.<.<.<.<.$.*.<.#.6.iXiXhXhXhX4Xa s b x x H P H L L L P ",
"3X3X3X3X3Xa.u 0 9 0 7 7 [  .[ ....I R / ~ ^ ^ @.R T K U T Y *.*.*.*.w.1.9.0.0.3Xa.0.aXbXxXxXxXDXd.S S J F F E <.<.<.<.4.<.1.<.1.<.#.6.hXhXhXhXkX0Xp A p x j u P P L P P P ",
"3XpX3X3XpX5Xu 8 5 5 9 8 [ ..{ ..[ L R / ( / ^ @.R R R R E Y *.*.-.:.:.1.9.0.0.d.0.0.iXxXxXxXaXxX6.C S J S S E <.2.<.<.<.<.<.#.*.<.<.9.hXiXhXhXhX0Xa x i x x j I L I P P P ",
"3X9.pXpXd.d.F 6 h h f k v [ ....L [ | / / ^ $.^ U &.E o.R @.#.*.*.*.*.1.6.t.d.9.0.4.iXnXzXbXlXNXt.a J S A C P <.<.<.5.<.<.<.#.<.<./ 7.iXgX6XgXgXs.L c x x b x ! v I N I ! ",
"S T S S E o.h.tXtXtXtXtX} l N g k l I P Y K P I 6.t.6.d.9.t.3.^ ^ ^ ^ ^ R T T K W T a.MXvXMXbXCX5.% 8 - = 3 F &.^ / #./ E T T R K S K ^ ^ E E ^ >.tX9XtXtXPX9Xc c c v v v ",
"C J S F F { LXIXLXLXIXIXB g M c m c v I I P U P 7.d.3X5Xd.a.( W ( ~ ^ E K S C J S S 9.NXMXMXVXMX:.* 8 1 8 3 g @.R o.o./ R U T K R U R R R U R R >.PXJXJXPXJX9XM c c c c v ",
"J F J S F { LXIXKXIXLXLXV k k M M v v | Y P ! P 6.s.d.s.d.d.1.E ~ T ~ ~ T K K R J F i.BXVXMXVXSX,.o 6 < < % z / o.^ #.o.R R U T U P U R U R R U =.tXGX9X9XPX9Xc M M v c c ",
"F F F C F { tXIXIXIXGXKXV m f m f k L U P P P J 6.d.d.s.d.a.<.E ~ ~ W ~ T C J K T C t.CXcXvXMXNX-.o r $ $ 1 z / R @.@.@.R E E T K U R R R ^ E U %.9XPXHXHXPX9Xv M M c B b ",
"C E S J S G tXLXLXLXIXIXV k M m k v [ | R R o.U a.7Xd.s.3X2X( W ^ ^ ( E T J J Y J S i.CXvXNXMXCX=.+ $ % % + u &.^ o./ R R R P J U U U U K T T T >.LXJXGXPXGX9XM c c c c v ",
"C T C F F G j.LXtXtXLXtXN z k d k k L [ { [ | L 1.r.2.r.r.6.#.K Y ! ! Y Y H x Y F C 6.cXeXcXlXvX-.i 5 t t 0 G o.R R R o.o.U o.P U P E R R E ^ E %.tX9Xk.k.LX9Xi b b b b b ",
"J J J E J P { ..l [ [ N g g g d d d d h y 0 e e 0 z 0 z y z y g w e i w w w i w y 9 J $.( ( ~ / -.4XrX7X7XeXr.C J F P P P P G { { P R @.^ ~ ^ E E j N F L v b n r r r w i ",
"E E P E E F P v H H v I y h g g g d d g y d g g g l z g z f d d r d d r i r d f k r x $.) ( ( ! 2X8XrX6X5XcX5.A P H P P L { [ { { { P o.^ ^ T E U H p s ! b s w w w w w w ",
"E P J J P E I I v L x L h g y g d g d d g g g g z z z q z z d e d d d d d f d h f w x =.~ ) ( ^ -.6X6X6X4XjXt.H J H P P { { { { { { E o.E ^ ^ / ^ H s p x s x w w w w w n ",
"P E P E E P H b l x x v h g d h e d d e e g i g d d g d g d e 7 d e r d i d r r g e Y ) ~ ) ( ~ 1XwX6X6X3XgXr.A H H P P P { L { { P R o.E / E / ! Y s s x x s w w w w w w ",
"S J J F S U x } H } I L i e w i y i i g i d d h g f z k k d g e e d e e r r d e 7 7 x O.) ! ( ( -.wX6X6XwXjX6.C P J P G L { G L P L E o.T ~ E E K s Y s x x s ; w w w w w ",
"o./ / / / #.i p h j j i j p i h i u i i i g i g g 4 e 7 e 7 h h y h i g h e e i g g L | { { R U -.2Xa.4Xa.4X1.K J J U H H o.| | P P o.1.<.<.<.<.$.a A b p s s p i i b i b ",
"gXhXgXhXkXgXa - 4 4 = 5 x | ! Y I I I } I } [ } 5 @ % @ = O g H [ P L I I I I I [ L [ | [ [ L G Y I K U J J U J @.X.@.X.*.r.t.t.r.d.5XvXcXcXcXvX4Xa i b b i x =.-.=.-.=.=.",
"hX6XiXiXgXqXt & 4 - = - I I I Y Y U I I I } [ L 5 O % O = O j U P P L P L H H H H L L [ [ [ [ [ L I P L P P X.X.R R R U #.t.a.t.r.9.4XvXvXMXzXbXeXa i h i i b ,.=.-.=.=.=.",
"iXpXgXiXhXgX9 = 4 4 4 - Y I Y ! U Y K P L L | | 5 o = O > O j P H H J H H Y Y H Y L L [ [ ..[ m [  .L | I U | P o.U R R / 9.9.6.9.r.4XvXzXzXzXmXeXa p b i h x =.-.=.-.=.-.",
"iXiXiXpXgXgXn - 6 4 - % x Y D Y K Y P U [ } I } 5 % O = O & C P P H P P H I P K Y I I N [ [ [ [ { { | L P U R U U R U R $.6.a.t.t.6.a.bXxXzXlXbXqXt H g h h p :.=.=.-.=.*.",
"gXhXaXhXvXgXn & r 4 - - x ! ! ! @.Y O.} L [ L } 5 & O O & O u L H H H L H H H H x Y L l N { G G { L o.P | P P X.U U K R #.r.a.9.6.7.3XmXbXbXbXnXwXu l g h i x e.-.:.:.:.*.",
"a.s.a.a.t.e.a - = = % w b x I v v x L L L L H L 5 = 4 5 - : x U U U U U U Y ^ U O.@.| { { { { { P l P l H F P #.#.@.#.#.1.6.9.6.6.r.a.5X6XwXgXgXp.a j h j i j P O.O.O.O. .",
"t a a a a C t t p u i i - $ $ $ % $ 6 r e e 7 w L H L H H H *.u.p.p.u.u.u.0Xi.0Xi.i.e.%.>.&.%.o.L y g y u y P 1.w.5.2.1.1.2.2.2.6.6.<.^ K K K K R u j j j h y = o + o o O ",
"u C a a t t t w w w i e < % , < $ < r d d i w e x x L H H H =.r.r.e.p.p.p.i.u.s.t.i.*.@.%.%.X.%.G y y 0 y 9 J e.2.w.6.1.2.2.2.2.6.2.#.T U R E ^ Y p F j i h y o o O O % % "
};
