/* XPM */
static char *efe41e1bc29c48438d9f4e59ca840a0dUjN1bk6QH9ID6Bc0[] = {
/* columns rows colors chars-per-pixel */
"85 85 256 2 ",
"   c #050301",
".  c #0C0402",
"X  c #0C0B03",
"o  c #0A0B0A",
"O  c #130B04",
"+  c #1A0D03",
"@  c #130D0A",
"#  c #170703",
"$  c #0D100C",
"%  c #13130C",
"&  c #1C130C",
"*  c #181305",
"=  c #141412",
"-  c #1B1613",
";  c #1D1B14",
":  c #1B1B19",
">  c #0F0E12",
",  c #230B03",
"<  c #231404",
"1  c #23150C",
"2  c #251B0C",
"3  c #2C1B0C",
"4  c #2B1704",
"5  c #361C07",
"6  c #231B13",
"7  c #2B1D13",
"8  c #251C18",
"9  c #341E13",
"0  c #1E211A",
"q  c #2A220D",
"w  c #3C230C",
"e  c #372308",
"r  c #24231B",
"t  c #2A2518",
"y  c #342A1B",
"u  c #3B2A1B",
"i  c #372616",
"p  c #3B311A",
"a  c #241E22",
"s  c #292824",
"d  c #342C23",
"f  c #372C25",
"g  c #393528",
"h  c #3D3B33",
"j  c #3A3635",
"k  c #332E31",
"l  c #1E1E22",
"z  c #451D09",
"x  c #45270A",
"c  c #432B14",
"v  c #4B2D14",
"b  c #432C1B",
"n  c #482A19",
"m  c #552D1A",
"M  c #552B17",
"N  c #4C341C",
"B  c #483318",
"V  c #53331C",
"C  c #533B1D",
"Z  c #573719",
"A  c #50310D",
"S  c #65391C",
"D  c #442D23",
"F  c #443224",
"G  c #4C3423",
"H  c #493929",
"J  c #533423",
"K  c #543B24",
"L  c #5B3D24",
"P  c #543C2B",
"I  c #5A3A27",
"U  c #453C37",
"Y  c #54382D",
"T  c #6A3D23",
"R  c #653C27",
"E  c #6D3E2C",
"W  c #3E4335",
"Q  c #5B431B",
"!  c #63461D",
"~  c #76441F",
"^  c #4A422B",
"/  c #5C4224",
"(  c #5C432B",
")  c #564429",
"_  c #474539",
"`  c #584737",
"'  c #5C523D",
"]  c #624325",
"[  c #6C4325",
"{  c #63452B",
"}  c #6C442B",
"|  c #644A2C",
" . c #6B4B2C",
".. c #674B24",
"X. c #73452C",
"o. c #744A2C",
"O. c #7A4C2E",
"+. c #774526",
"@. c #6B522A",
"#. c #75552E",
"$. c #644A33",
"%. c #6C4C32",
"&. c #664837",
"*. c #734631",
"=. c #744A33",
"-. c #7B4D32",
";. c #744D3A",
":. c #794C3A",
">. c #6C533B",
",. c #695337",
"<. c #735235",
"1. c #7D5234",
"2. c #74543B",
"3. c #7B533C",
"4. c #775B39",
"5. c #7D6339",
"6. c #3D3D41",
"7. c #443E41",
"8. c #4C4B43",
"9. c #484746",
"0. c #544D45",
"q. c #4D5145",
"w. c #535346",
"e. c #55554B",
"r. c #5A584A",
"t. c #5D5D53",
"y. c #585755",
"u. c #564E52",
"i. c #675647",
"p. c #7A5C43",
"a. c #775745",
"s. c #665C56",
"d. c #725549",
"f. c #5E6257",
"g. c #5C624E",
"h. c #7A6448",
"j. c #636355",
"k. c #65655B",
"l. c #6C6B5D",
"z. c #696659",
"x. c #77675A",
"c. c #6D6C57",
"v. c #6C6C62",
"b. c #696765",
"n. c #746C65",
"m. c #6D7166",
"M. c #737364",
"N. c #78776B",
"B. c #7C7C74",
"V. c #7A7775",
"C. c #726D72",
"Z. c #615E61",
"A. c #3F4045",
"S. c #824D2D",
"D. c #844E34",
"F. c #845234",
"G. c #8A5534",
"H. c #84553B",
"J. c #8A553A",
"K. c #84593D",
"L. c #8C5B3C",
"P. c #8D5935",
"I. c #925C3D",
"U. c #925937",
"Y. c #8C552E",
"T. c #88613E",
"R. c #96623D",
"E. c #845B42",
"W. c #8B5C44",
"Q. c #885B47",
"!. c #915C41",
"~. c #925F4A",
"^. c #84644B",
"/. c #886648",
"(. c #946343",
"). c #9B6543",
"_. c #93644B",
"`. c #99654A",
"'. c #9A6B4C",
"]. c #9B6946",
"[. c #866856",
"{. c #9A6C52",
"}. c #8A7257",
"|. c #977459",
" X c #9E714F",
".X c #A36C49",
"XX c #AC724D",
"oX c #A7724B",
"OX c #B3784C",
"+X c #A47354",
"@X c #AA7554",
"#X c #AD7955",
"$X c #AC7B5B",
"%X c #A67659",
"&X c #B47C55",
"*X c #B27D5C",
"=X c #B57A55",
"-X c #A46F54",
";X c #87776A",
":X c #987966",
">X c #857C76",
",X c #8D736C",
"<X c #AA7D62",
"1X c #B37E61",
"2X c #7E8176",
"3X c #B9835A",
"4X c #838375",
"5X c #89877B",
"6X c #99857A",
"7X c #97856D",
"8X c #A88269",
"9X c #B38362",
"0X c #BC8865",
"qX c #A48878",
"wX c #B39078",
"eX c #C2875A",
"rX c #C8905D",
"tX c #C48B64",
"yX c #C68B68",
"uX c #C8936B",
"iX c #D5996C",
"pX c #D79C74",
"aX c #CA9976",
"sX c #DCA374",
"dX c #D9A16D",
"fX c #E2A975",
"gX c #7D7D83",
"hX c #817F80",
"jX c #8C8A84",
"kX c #998C87",
"lX c #97948A",
"zX c #9B9994",
"xX c #8F908B",
"cX c #A48C87",
"vX c #A59589",
"bX c #A69A96",
"nX c #B29891",
"mX c #A7A499",
"MX c #B6A697",
"NX c #BAA087",
"BX c #ABA8A3",
"VX c #B4ABA5",
"CX c #B9B5AB",
"ZX c #BBB9B5",
"AX c #B2B0AE",
"SX c #9EA097",
"DX c #CDAB8D",
"FX c #C4B9B2",
"GX c #C39E82",
"HX c #BFC1B7",
"JX c #C8C5BB",
"KX c #D5C8B8",
"LX c #D5D0CB",
"PX c #E7E5DA",
"IX c #F2EFEA",
"UX c #E4DCD8",
/* pixels */
"m M m M m m } =.=.=.=.=.Q.W._.Q.~.W.<X9X9X9X9X9X9X9X9X9X$X9X X(.`.`.`._.F.o.O.~ o.o.} } } } } } E X.R R E R 1.(.T.T.(.(.F.S S S T S [ 1.O.-.1.O.L.+X+X%X$X+X%X$X$X$X#X$X$X",
"m m M M M m *.=.;.;.=.=.Q.Q.W.W.Q.Q.$X9X9X9X9X9X$X$X*X9X1X9X X(.(.(.`.{.K.X.O.O.O.-.O.X.X.X.X.E T T } X.} T o._.L.(.T.(.F.T S T S S [ 1.1.1.F.-.K.1X<X+X+X@X1X1X$X$X#X#X#X",
"M M M m m m =.*.=.=.=.=.Q._.Q._.Q.W.$X9X9X9X9X9X9X9X3X$X*X9X'.(._.'.`.`.D.O.-.*.*.X.*.} } *.*.E } } R } T T 1.L.L.(.L.(.F.S S S T S } :.-.-.1.-.H.%X%X%X$X%X@X@X#X&X&X&X#X",
"m V M V M M =.*.=.:.*.=.Q.Q.Q.Q.W.L.$X*X3X*X9X*X*X3X*X$X1X9X-X_._._.(.).L.{.wXNXDXMXMXFXDXnXqX7X:X^.%.X.S S -.(.L.(.L.(.K.S T T T S X.1.1.1.1.1.L.$X|.%X$X@X$X*X@X#X#X#X#X",
"M M x M x M *.=.*.=.=.:.Q._.Q._._.(.1X0X9X9X9X9X9X9X0X0X0X9X-X`.'.`.].+X(. .{ ` ' r.s.z.4XmXMXmXvX6X:X3.Z T o._.L.(.L.T.1.S S S S S S o.O.O.O.O.H.%X1X$X+X$X$X$X*X*X*X$X$X",
"T T T E T } *.*.X.=.*.=.:.3.:.a.3.-.{.+X-X{.|.%X{._.{._._._.~.W.!.W._./.}.h.;X5XkXjX4X4XlXmXbXvXvX6X,X:Xa.} 1.(.(.(.(.(.T.J.J.G.J.G.L.(.(.(.R.(._.W._._._._._.{.{.{.{.{.{.",
"`.'.'.{.`._.-.X.=.*.} } V m m m m M =.:.:.:.:.a.m z z z z z S T a.R L i.vXVXUXPXPXLXJXLXFXjXN.lXM.l.x.kX7X:X|.+X{.'.+X+X*XtXuXuXyXyXyXuXuXtXtXuX|.m M v m n J ;.;.;.;.;.;.",
").).(.~.`.{.*.X.X.X.X.*.V m V V J m ;.E.H.a.a.a.R z M M M M R } >.x.FXPXPX>Xj.k.z.M.j._ e.B.ZXIXJXVXjX& # qX8X$X%X'.-X].#XtX0X0XtXtX0X0XtX0X0XyX<XM m J Y D J a.a.a.a.a.:.",
"`.`.).`.`._.*.X.*.*.*.*.J m m J J n ;.Q.:.a.a.a.R M m c P G G G LXxXN.e.k.w.M.4X4Xj.w.l.M.M.z._ M.mXmXd IXLXFXvX}.8X X-X9X0X0X0XtX0XtXtXtXtXtXtX%Xm J n J m J d.;.:.:.;.;.",
"`.`.!.(._._.=.X.=.X.*.*.Z V m V V m a.a.a.E.:.Q.V z N G vXMXMXi.8.jXjX4X5X4XM.l.l.>X4XM.z.v.z.t.5Xj.w.B.IXM.c.;XwXwX<X+X+X0X0XtXtX0XtXtXtX0XtXtX<XM J J J m I d.;.:.a.:.:.",
"`.`.`.'.'._.:.X.X.X.} } m M m m A m ;.:.a.a.;.a.G G i.s.mXCXCXjX@ B.xXlXB.B.z.z.c.4X5XM.l.j.t.M.r._ d ZXCXj.i.;XMXqX|.|.8XwX0XtXyXtXtXyXyXtXtXuX%Xv m V m M J i.;.;.d.;.;.",
"K.K.K.L.L.K.1.-.-.-.-.:.T R R R S R Q.|.[.h.[.[.^ x.KXJX4XM.B.JXr e.jX5X_ w.M.4X5X2Xc.j.l.g.M.N.g q e.PXe.l.4X5Xw.;X7X}.|.wX#X=X*X&X&X&X&X&X*X*X+XS R R R R &.[.[.[.[.[.[.",
"o.X.X.X.X.-.K.W.J.J.L.L.O.-.-.-.-.*.:XcXcX:X6XMXFXCXe.l.M.l.f.M.PX_ h l.lXlX5XM.M.M.N.M.c.j.N.g g 4XLXCXv.M.l.j.4XM.4XvXqX5 '.].].).).)..X).).).'.o.;.;.:.:.p.cXcXcXvXcXcX",
"o.X.o.o.o.o.L.L.J.J.J.L.-.-.-.-.H.:.:X:X,X6X0.lXxX4XV.jXj.j.M.N.PXd % g 5Xv.j.z.l.M.N.z.r.j.5Xr % m.mX_ B.N.2XjXr.M.z.^ g i.|.|.'.'.].R.R.).).).I.-.3.=.:.=.a.cXkXkXkXkXkX",
"o.o.=.=.=.o.K.F.J.J.J.L.O.O.-.-.X.;.,XcXkXVX_ 4X4Xv.n.v.z.N.5Xz.zXxXj.d l.e._ h g g _ h _ q.2Xd k xXLXN.V.e.b.V.4XjXz.h d 6XvX7X%X+X'..XR.)..X).R.O.1.-.O.*.a.kXlXkXkXkXkX",
"o.o.o.o.o.o.W.K.J.J.J.L.O.O.O.-.-.=.:XvXFXCXe.q.z.4X4Xt.l.4X5Xt.M.JXN.r 8.g d r ; % r ; s k k.j W xXLXxXm.y.y.C.zX4X_ w.t.CXMX}.8X%X X).R.R.).).).o.O.1.O.=.h.cXkXkXkXkX6X",
"[ } X.[ S [ K.W.L.L.J.K.O.O.D.O.+.3.qXFXLXV.n.t w.jXCXl.z.N.M.w._ JXN.X d ; ; O X X %     = k l h V.AXzXC.b.C.V.bXh r v.JXJXn.5X;X|.+X'.R.R.R.R.(.X.o.o.[ { a.vXvXvXvXvXcX",
"+X+X-X+X+X.XL.F.J.J.J.J.!.J.-.K.K.:X6Xv.8.B.M.t _ M.N.5XB.e.U _ _ h ;   & X X & O 8 d %     =   s k 9.C.u.xXxXV.n.r 0.lXmXz.l.VXbX6X|.wX$X#X3X&X3XoX#XoX#X+X|.}.:X:X:X:X:X",
"iXpXpXpXpXuXI.F.F.F.J.F.L.!.W.W.:XFXz.z.5XjXjXjXt.t j.k.N.0.t t r X O % O & t & + 7 f 6 t d s . s 8 @ U a b.b.y.e.N.JXxXw.j.M.;XxXvX,XwXDXDXpXsXdXsXfXdXfXfXuXT.K.J.K.K.K.",
"iXiXiXiXiXiXY.S.L.S.J.S.L.(.E.E.mXn.r.M.4Xe.N.5Xw.g j.U 8.d X r X r r 6 6 & p 2 O t H 7 y f y 1 U t . j 1 k j U s.4XLXzXt.>Xj.N.m.N.MXqXGXaXaXiXpXpXpXpXiXsXuXG.U.U.U.U.U.",
"iXiXiXiXiXiXY.F.S.F.F.G.!.E.p.NXlX8.t.4X5X_ n.4Xj.8.0.- s - X d X h r ; g q g i < p ^ t y f y y ` y + _ + & 6 g s.5XmXjXz.5Xt.>Xm.r.bXqXqXGXDXpXsXpXpXsXpXpXpXI.P.P.P.L.U.",
"iXiXiXiXiXiXF.-.G.J.J.F.W.Q.6XPXjXy.k.4XkX5XM.v.jXjXs O X . O h & h g q H p ^ B 3 K i.B b b e i r.F 3 P y + 1 y ' x.j.j.v.s.5X5X4XN.` CX;XqXGXsXiXiXdXdXdXiXuXY.L.L.L.L.L.",
"iXiXiXiXiXiXU.F.F.O.F.F.Q.P g j 9.V.v.v.j.v.N.r.d X .   y g g g * y ^ F H b ) N e C >.C $.p.) G a.P 5 P >.b b u + H U s.>X5Xg N.N.M.d CXt.s.qXDXdXdXsXsXsXsXiXR.L.J.J.J.L.",
"eXeXeXeXeXeXP.F.J.J.J.K.8X` r s m.v.j.k.n.5Xj.r * & O * y q u ' < ` ,.) b ) h.C e / ^.C / ,./ ( h./ w h.$.N n w < < f 0.M.v.l.v.t._ j 9.y.j y vXtX3X3X&X&X3X3XG.L.L.L.L.U.",
"oXoXXXXXXXXXJ.J.H.I.G.E.KXjXm.r.k y.q.b.B.m._ r - * + 3 q i N >.4 ,.>./ V | p./ 5 %.}.L { %.| %.[.{ x }. .C V N 5 9 7 U ` i.v.e.0.e.f.SXzX4Xv.vXwXK.K.Q.Q.E.W.J.L.J.J.L.I.",
"OXOXOXOXOXXXU.J.L.F.G.E.KXHXBX5Xj 9.9.f.B.e.t t 1 O 7 3 i c N a.5 >.2.{ L %.h.] x <.|.{ %.<. .%.[.%.V :X%.L C C N H 7 6 y 0.e.0.s.v.zXLXAXBXmXvXwX/.W.W.Q._.Q.L.L.L.L.L.I.",
"OXOXOXOXOXXXP.J.!.J.H.[.l.B.zXJXLXy.k 9.y.d . d 2 + F i b G L p.5 4.4.}  .<./.{ x <.:X%.<.2.%.%.[.<.L 8X<.] ] ] N ) 2 . 1 _ _ v.5XHXPX2Xt.5XmXn.6X:X_._.~._.Q.E.L.L.L.L.!.",
"OXOXOXOXOXXXP.G.D.J.2.MXk.t.k.lXIXBXy.d 6 6 & d 7 < H G N L %./.x E.3.} =.<.^.] x %.|.%.<.2.%.} /.%.C <X2.{ } { K ` f 2 1 y * w.4XSX5XW q.xXCXk.kXvX/.L.W.W.W._.L.L.L.L.W.",
"OXOXOXOXOXXXP.J.U.W.a.vXjXB.t.t.B.FXn.h 6 t 6 7 i 9 b P N / 2./.x /.4.] 1.<.^.R z  .|. .%.<.%.} /.{ v :Xp.%.%.%.B B ^ p q t   _ c.N.t.xX2XxXAXzXn.MX}.W.`._.Q.E.W.L.L.W.!.",
".X.X.X.X.X.XG.J.D.H.qXj.jXv.f.f.>XxXt.g & d O f y u i ( B / p./.x /.1.S 4.=./.] x  .|.{ { <.%. ./.L x :Xp.2.<.%.K N ` y q g O g j.2Xm.jXk.b.2XLX9.bX,X3.=.:.K.W.W.W.L.L.!.",
"U.I.I.I.R.(.D.J.P.K.nX_ 2Xq.j.4XmX_ w.s X g   y g p i ,.B { ^./.z T.1.Z T.%./.{ x %.}.] { 2.2. .^.] x :Xh.2.<.%.C ) ` i < ^ * d r.M.5XM.w.9.y.PXq.jX:Xp.R T X.W.W.L.L.L.!.",
"R.(.(.!.R.(.F.J.F.E.vXt.lXl.v.4XmX; ; % @ t O H H F b ,.N { ^./.z T.#.Z T.@.^.| v %.}./ { 4.2.{ h.{ N 7Xp.,.,.%./ i.h.H q '   O t _ M.N.j.y.m.LXxXkX6X^.R E E !.!.!.L.I.I.",
"!.(.(.(.!.(.F.J.F.3.7X4XN.v.f.w.k.t.r X % _ q r.H q ) >.C | }./.x T.#.! T.] ^.| v <.^.C ] 2.<./ p. .N |.4.{ | ,.( ) h.) i ,.* * p w.5Xw.M.m.b.j IXk.s.x.;.E X._.W.L.L.L.I.",
"I.).(.(.(.(.F.G.J.p.` r.v.j.j.f.B._ X O q _ 1 r.` B ` >.C | 4./.e T.#.A o.Z ^.| N ^./.N / p.,.C }.,.v [.4.C / / ( $.h.) e ,.< 2 q ^ M.z.j.v.t.% ZXq.N.kX[.E X.E.W.L.I.I.I.",
"I.(.I.I.(.(.F.F.K.[._ _ 8._ q.e.k.d . * q ` 2 ' ` ) $.` C | 4.}.e /.#.A ..Z h./ x ^.4.e / ^.| C |. .v h.h.C / %.{ >.[.` i ' + + q g x._ _ 8.t.; ZX9.b.kX}.R o.(.L.P.U.U.I.",
".X.X.X.X.X.XJ.G.E.[.x._ 0 g h g _ 6 * * 2 ' < i.i.` i.N C ( 2./.x K.<.Z ..Z 2./ x p.%.5 K p.{ | }.,.v 4.4.L | 2.$.p.h.) p i.3 < < t r.y t g r.l.LXf.q.;X:XO.F.+X.XoXoXoX+X",
"@XOXXX@X@X@XI.L.p.vXPXzXh W _ h w.r 2 & y i.3 x.x.&.i.) &.a.^.^.{ |.^.} =.=.^.%.R |.Q.c m { I { }.p.C p.%.L ( $.J i.x.i.^ i.< + < 2 U 2 4XCXPXPXLX5Xh ^ [.F.U.&X&X&X3X*X*X",
"oXXXoXXXXXoXL.J.>.s.5XzXCXPXmXq.X   @ & y U . H F < + 3 i b b n 5 &.I z m I >.K n d.d.9 n I n 9 { G 4 G 5 5 5 5 , u y 7 2 H + 1 * O q lXUXJXB._ w.4Xz.' :XP.Y.&XOXOXOX#X$X",
"oXXXXXXXXXoXL.W.` z.5XjX5XzXv.h t d U U 0.x.s.N.;Xn.i.x.[.[.x.x.x.cX,X[.[.[.x.` D d.[.` x.:X,Xd.6X,Xx.:Xx.[.,X,Xx.;Xl.s.r.b.U _ g 6 X 2XmXN.r.f.l.SXj.g 8XG.U.OX&X&X&X&X$X",
"XXXXXXXXXXoXL.(.0.s.jX5Xr.N.e.W r h 8.s.s.>XkXkXkXbXkXkXcX6X6X6XkXMXvXcX6X,Xx.0.D x.,Xi.;XkXkX6XvXcX6XnX6X6XvXnXbXbX5X>X>X5X0.0.h r X 2XSXN.8.2XN.lXw.y wX1.P.3X&XOXOX&X#X",
"@X@X@XoX@X@XL.{.s.x.4XN._ k.j.h % _ 9.y.b.V.mXjXbXBXzXzXlXlXlXbXvXbXbXkX>Xs.s.U k s.V.s.n.>X>XjXzXzXkXVX>XjXlXbXxXBXxXxXzXjXq.e.W 0   xXVX5Xj.zXM.N._ ^ NXL.P.*X&X&X3X3X1X",
"I.(.).I.R.(.H.|.x.c.B.5Xl.4XN.q.  X   o : q.y.%       O . - d 8.s .   # .   .   @ j j .   X X X X 6 d e.- .   . o o   s 9.9.$ : $ $   mXBXv.W M.M.4Xj.c.wX3X&X).R.R.(.(.(.",
"J.L.L.L.P.J.1.|.s.w.l.4Xz.v.l.t.X   $ : j xXxXq.s 0 s k s 9.b.lXy.s - s - @ @ $ : u.7.- = : r : : U b.bXb.9.s 8 s l k b.xXb.= > = = o BXzXv._ 4XM.g._ c.DXpXtXU.P.P.L.L.L.",
"I.L.T.L.I.L.<.}.r.' t.z.t.s.s.w.$   $ > = 9.9.0 %   = = = : s q.s @ = 8 @ - $ o = 9.k : % % % X = r s 9.s - % % 0 $ $ s 6.k o >   o   AXAX2Xr.B.j.g.W ^ GXuXyXI.L.L.L.L.L.",
"L.J.L.J.L.K.%.^.' r.l.t.r.z.j.0.% X = > o = : X X X ; X * X O t . & & & O r % @ @ U r t - % O % & ; - % ; O X X r % % % : $   o $ $ $ AXBXjXf.N.g.l.W p DXpXtXP.I.I.I.!.!.",
"I.L.I.L.L.L.<.[.s.l.B.v.l.j.e._ O ; 8 6 8 1 t t q t y < 3 < 3 F < u i 7 7 g t 2 6 ` d g t q 2 y y y t 2 p i q q y 2 q t t 6 @ - $ $ = zXzXV.f.2Xz.m._ ' DXaX3X(.!.!.!.!.!.",
"L.L.I.J.L.L.[ 2.f t t % t t t t & f g f f u u p B G ) K / N C / 5 K J n c P B 3 < P G G b c c K N B c B ) ) N N ^ p B p i i q q t & X 0.8.s $ s % s = H DXDX0XP.!.I.!.!.!.",
"@X@X@X+X#X+Xo.%.s.;XlX5XjXn.0.g 1 u F H P ` ) ) | ( ] <. . . . .M } } L v ( $.w 4 $.$./ / C C / @.Q Z ../ @.Q Q ( Q / C w B i q 7 + 1 s.jX>XV.zX>XjXt.r.wX0X1X.X-X-X-X-X-X",
"1X*X*X*X=X$XR a.;XkXCXBXZX5Xj._ < F K L ( 4.C 4.4.@.@.@.......@.A 4.1...]  .<.V 5 >.p. . .] Q ] 5.@.Z #.@.....! @...@.Q x / w p i 3 # kXFXVXBXFXmXZXhXs.wX$X+X#X#X$X$X%X%X",
"$X$X*X=X=X$X{ ^.;XkXmXzXBX5Xz._ q F K ( %.h.B 4.5.4...! Q ! @.@.A T.4. . .%.p.L 5 p.[.<. .| ]  ./.#.Q 5...! ] ..#.@.4.Q x ,.c p i 3 , MXLXFXbXbXzXAXB.s.wX9X#X*X@X@X@X@X%X",
"1X*X1X*X*X@XL a.' r.t.w.j.t.0.g 2 H K / ) h.e @.4.4.! ..Q ! #...A T.4.] ] ] ^.L x p.[.%.{ { ] ] /.%.Z /.! Z ! ! @...4.Q e ,.w i 3 < . vXmXB.8.9.h C.y.i.8X*X+XXX+X+X%X%X+X",
"$X@X*X$X1X$XR a.i.s.B.4X4Xl.r._ + p N N C h.4 / @.@.Z ..! #.5...x T.#.Z C V ^.L 5 2.[.] C ] ] / /.] x /.] ..] ! ! Z 4.C e ,.e 3 2 + . vXlXN.t.V.V.lXv.z.wX*X$X*X@X@X@X%X+X",
"9X1X1X*X*X%X} a.' i.N.N.l.s.w._ 1 i c N ) }.4 ,.@...A ..! @.5.@.A /.4.Z L C [.{ 5 2.[.L N /  .| /.] x /...<.#.o...Q 4.C e p.e 3 < + @ CXBX4Xj.4XN.4Xe.w.wX$X+X@X@X#X#X@X@X",
"L.L.W.!.I.!.:./.` i.M.z.z.M.j._ i u c N ( }.e 2.4. .C ......#.@.Z /.K.] | L [.{ w >.h.N N ] { ] /. .N }.@.#.@...Z ..h.G e h.u i i & . VXVX4Xt.N.v.N.q.^ <X).+XtXyXyXyXyXtX",
"G.J.H.J.F.H.E.{.i.d.c.r.l.>Xl._ y G N n K }.5 %.p.<.|  ..... .] Z /.1.] ] C h.L w 2.^.v N / / / /. .A /.] ! ! Q N | d.) c x.u f t 6 O BXCX5Xe.b.f.B.w.^ {.P.].uXyXyXyXyXtX",
"J.J.H.W.J.F.W.Q.d.i.z.0.v.>Xz.U i F K I I h.5 <.^.2.{ Z ]  . .] Z K.=.S S Z 2.C x ^.7X/ C C /  .[.] e  .A Q ..@.%.%.>.` ` ;Xy f 2 &   lXzXM.8.k.k.5Xr.' %XI.).yXyXyXyXyXtX",
"H.H.Q.K.J.L.K.W.h.d.l.j.5XB.r.g + 3 3 b { [.N >.&.K x $.a.2.<.] Z E.E.2.%.$.2.v < K >.e c / ,./ [.<.C /./.^.<.] ( [.d.G 3 H , 7 7 7 6 VXZXjXt.b.s.V.s.d.wXI.).uXtXtXtXtXtX",
"L.L.W.H.F.J.F.E.N i 6 ; _ f t s y U ` H P d.P >.>.i.x.a.p.p.>.{ N 2.2.{ ( K h.` ) h.}.N N L >.,.}.>.N >.>.;.&.R &.i.i.` P s.H U i @ . U 0.j = s 8 U f P |.I.].yXyXyXyXyXyX",
"G.G.G.G.I.!.F.K.d.d.j.s.n._ y t 6 d d 7 9 P y u F 7 F u P G b b w ) ( i 5 u i.P u ` d.u w N J N &.G 3 b n b c 5 b D D y y U 7 d 8 O @ U V.C.u.s.u.N.i.i.|.L..XuXyXyXyXyXtX",
"3X3X3X&X=X@XS.X.a.qXCXCXCXM._ t r r ; - d U t d 6 d f H f 3 i H F H b F i f ^ g 3 i ^ u u D F D D f 9 D D D f 9 F g 7 & 8 j t 8 - & & kXFXBXzXZXBXVX;Xd.{.H.S.L.I.I.I.I.I.",
"3X3X3X3XeX=XO.X.p.,XvXlXlXN.v.N.jXZXLXPXPXUXLXPXUXLXFXIXIXUXJXLXMXVXbX6X>XbXbXN._ w.4XkXlXkXbXBXCXFXLXUXLXLXLXLXLXUXLXLXLXLXJXVXV.8.- AXLXAXkXbXBXVXx.&.Q.-.D.J.J.J.J.J.J.",
"eX3X3XeXeX3X+.X.{ i.x.j.l.s._ t s q.y.9.6.7.9.9.9.y.Z.U U j U b.0.U U 0.s.8.h s s q.2Xl.8.h 8.9.k 7.u.u.j 7.u.Z.t.y.j 7.9.9.9.y.9.8 o jXxXn.8.u.s.>Xs.&./.-.O.H.K.H.H.K.J.",
"eX3X3X=X3X3X+.X.{ i.N.M.B.5Xt.t : s = l A.gXgX7.l = k - j j U >X0.8 6 & r X X X % _ f.s % = j r @ k s.b.j k k k - : s y.V.b.s s $   = zXZXzXn.n.s.N.0.P /.1.1.F.K.K.J.J.L.",
"eXeX3X3XeX3XX.} &.i.;XN.v.N.t.h % - o : k gXjXk a > a o k k U jXU 8 @ O - %     % k 9.: $   s o $ j b.C.k s a a o $ s y.V.b.- =   o % zXZXxXm.V.l.>Xi.P /.O.1.K.K.K.K.J.L.",
"OX3XeXOXeX#X=.%.d.x.M.m.e.k.f._ % : o $ l Z.b.k a s - = d s k V.s 7 1 & t 6 @ X = k g : @ % - o ; j t.e.s ; ; - X - s 9.y._ o = o   : zXzXB.j.B.>X>Xi.&.[.2.E.K.E.E.E.E.E.",
"Y.Y.Y.Y.G.L.8XcX;XM.M.l.k.N.z._   % .   o s 8   X @     @ @ @ U + + + & 1 @ @ @ @ - 8 6 - @ O . . & s t @ O O . O - % : 8 :   r :     zXmX5Xj.>XV.>Xr.i.cXqX:Xa.3.3.3.3.H.",
"P.S.S.Y.D.H.cXcX>Xv.k.l.l.N.j.W O O . & - @   1 & 1 O 1 1 + + 7 # # < 3 < # 6 7 1 . & t y 1 # 6 1 + O + 1 & + + 6 6 & @ O %   r & . . zXbXl.U _ h b.z.N.bXvXqXa.2.2.2.3.3.",
"G.F.L.G.J.Q.qXbX>Xl.k.k.k.v.r.g   * 7 y f 7 + F F i i u u 3 3 4 , 4 i u 4 , u u 7 # 3 F D 9 < H F 3 # 3 D u 9 9 g t 2 7 6 t . 6 6 + . mXCXkXl.B.s.;Xx.;XvXcX:X2.a.a.2.3.3.",
"D.S.G.S.F.E.qXcXv.w._ W _ 8._ d q 1 2 u P F < ` P i b w c c c 5 5 w N G w 3 G D 9 , b P G b i P ` u , b P H b u P u i 3 3 y * t 7 2 + N.jXN.e.s.r.n.x.;XcXcXqXp.a.a.2.2.3.",
"G.F.S.P.F.H.wX,Xf t r 0 r d g d d 1 < i ` ` 3 ` K w N 5 5 N K v 5 n K K N c P G 9 4 P ( G G G G &.G 5 P P P N b G G F 3 < D 7 F y 1   f _ t & s s r.s.>XbXvX6Xd.2.2.3.3.3.",
"S.G.D.U.S.H.8XqXbXCXPXIXPXmXj.t O q F i b ,.e G G c v c w J L L w L K N N n ( G 9 4 &.&.G G P b &.J w >.N G N n i G P b i P 9 y t 2 + bXLXLXZXIXLXFX>X,XcXqX:X2.=.=.<.<.<.",
"G.J.G.J.J.J.3.^.x.j.l.m.B.N.j._ U p u b p ' e ( ) N v ( K L I %.x ( K c c c P G 4 4 &.&.N c P w &.G w >.c N K J 5 c P P ` 0.4 , + t 1 >XbX>Xb.V.v.n.&.a.Q.:.1.[ } } ..} [ ",
"P.L.J.I.I.J.E.^.d.i.8.e.M.N.q.g d * H i 3 ` 5 ( ` K e %.N c v $.5 >.( v G w $.N 5 # ( ,.G w G i &.J 4 a.4 N ( ( 4 n P n w P 7 < 7 7 & V.zXn.q.y.u.s.>.<.L.1.1.[ [ [ [ [ [ ",
"U.L.G.U.U.J.E.^.i.` _ e.f.v.w.g t + u e e ' w ( ( K w { N v v ( 5 %.( n K w $.N w # / | G x K v &.J 5 >.w c ( ( w N K c 5 H 9 3 2 1 O 5XzXC.9.y.9.s.&. .(.1.O.o.[ ..[ [ [ ",
"L.U.U.I.I.J.3.a.' 0.s.k._ w.e._ t t p c b ,.B | ( K w L N V C L 5 { K c N c <./ w , C ( G x C v ,.K c a.N v / ( c K { V c ( w 3 < 1 O kXlXn.9.b.u.z.&.=./.1.O.[ [ [ [ [ } ",
"G.P.G.G.G.J.K.^.` U 0.e.g _ _ g * < < 4 5 N 5 v V v 5 m x m V C 4 K m w c x | / 5 , /  .K x N x C w 4 ( x e x v 5 v L v x J 5 4 4 , . n.N.r.8.V.b.s.&.3./.1.1.S [ [ [ [ [ ",
"R.(.R.R.I.).3.a.` _ 9.q.h 8._ k 2 q e e w ) e / / C A Z A Z ] ] 5 L K N V v { C 5 , / %.K x v v | v 5 $.K C C L x C L v x J 5 w 4 , , 6XkXs.U s.k.0.( =.K.-.1.1.O.o.o.o.o.",
"tXtXtXyXtX0XE.{ H _ 8.9.h _ U g 2 2 e 5 e K e / / C N A A Z C L 5 n N c n c C x 5 , C | J x x N K c 4 ( N C N C c K / v 5 N 5 w 5 < # cX6Xi.7 U 0.' L  ./.o.-._.'.'.'.'._.",
"tXeX3XeXeX0XK.I F U _ h h _ h d q 2 3 5 e P w / L C v x x v N L 4 n n c n c J c 4 , N / G x c N N w 4 G B C C N c K { N w J w w 5 < # 6X>X' 1 8 _ ` {  .E.o.O.+X'.'.'.'.'.",
"3XeXrXrXeX0X3.I F g h j j _ h t t 7 3 q i ) c ( ( K N x V V V { 5 n G b G N G i 4 , c ) G c c G B w 5 N b C G b c L $.N w K i u e 3 + x.x.` y t _ ` &.<.K.o.1.'.'.'.'.'.'.",
"rXtXtXeXrX0X} V f f F d U U g t y t d d g 0.D &.` G N G I V R %.G P ( P P G b b e 3 u F D u u Y G B b P G ) G F H P &.F b P u u d i 9 ' ` ` ` ` 2.R *.=.1.=.-.{.'.'.'.'.'.",
"eXtXtXyXyX0X-.R G b u i F H u 2 3 2 2 2 7 F i P c 5 5 z v v R =.%.=.;.=.%.&.} { } L I ( { &.R ;.a.a.:.a.=.:.*.E J J { I I >.{ { { / { /./.}.|.|.|.*.X.=.:.X.F.%X'.{.'.{.'.",
"&X=X=X=X=XXX+.R %.%.;.2.p.[.[.[.[.x.[.x.[.[.p./.a.2.;.*.} E 3._.I.(.L.L.L.L.L.(.(.L.H.=.:.H.H.H.W.H.D.D.D.D.D.K.1.-.1.F.K.(.L.(.R.R.R..X#X#X3X3X%XO.X.-.:.X.-.L.W.W.W.W.W.",
"+.+.+.+.S.F.T X.X.X.:.X.R J I { J J &.%.;.=.=.=.K.E.W.W.W.W.-X1X#X#X#X#X#X$X*X*X#X*X+X_._.`.`.`.1.X.+.X.O.+.F.'.+X+X.X+XoXoXoXoX@XXX.XU.U.P.U.G.I.+.-.-.-.-.X.S M M M M m ",
"O.+.+.+.+.o.T O.o.X.X.X.R V J I I J } } } T X.} -.1.K.H.F.D._.+X+X+X+X@X$X$X$X$X#X#X+X_._.~.!.`.K.X.X.X.=.T J.%X.XoX.X.X.X.XoXoXoX@X.XP.I.I.(.I.G.+.F.-.X.-.-.M M M m m Z "
};
