/* XPM */
static char *padrao_de_fundo_de_blocos_de_jog1700665673[] = {
/* columns rows colors chars-per-pixel */
"85 85 225 2 ",
"   c #491D0E",
".  c #5A270F",
"X  c #4B2513",
"o  c #4E2B1B",
"O  c #4C2714",
"+  c #512613",
"@  c #542C16",
"#  c #5C2D15",
"$  c #542D1B",
"%  c #5B2D19",
"&  c #56311E",
"*  c #5D311C",
"=  c #5F3016",
"-  c #612F15",
";  c #623216",
":  c #63341B",
">  c #6B361B",
",  c #64391D",
"<  c #693B1E",
"1  c #5B2E21",
"2  c #522F20",
"3  c #553120",
"4  c #5C3422",
"5  c #5F3A25",
"6  c #623524",
"7  c #643A23",
"8  c #6A3D25",
"9  c #653C29",
"0  c #6B3E2A",
"q  c #683729",
"w  c #723D25",
"e  c #713D29",
"r  c #653D34",
"t  c #6D4325",
"y  c #6D432C",
"u  c #6A432C",
"i  c #734325",
"p  c #794727",
"a  c #784A26",
"s  c #72442C",
"d  c #79462B",
"f  c #76492D",
"g  c #7B4C2D",
"h  c #754825",
"j  c #7D512F",
"k  c #6E4431",
"l  c #694636",
"z  c #724532",
"x  c #764A32",
"c  c #7B4D32",
"v  c #734C3C",
"b  c #7B4E3B",
"n  c #784631",
"m  c #745136",
"M  c #7D5133",
"N  c #75543D",
"B  c #7C533B",
"V  c #7D5837",
"C  c #754E41",
"Z  c #794E40",
"A  c #755240",
"S  c #7C5342",
"D  c #7C5A4A",
"F  c #7B5748",
"G  c #7D5D53",
"H  c #834E2D",
"J  c #84522E",
"K  c #8A552E",
"L  c #945B2E",
"P  c #844E33",
"I  c #894F33",
"U  c #814E39",
"Y  c #845334",
"T  c #8B5434",
"R  c #855936",
"E  c #8D5A36",
"W  c #84543B",
"Q  c #8A563B",
"!  c #86583B",
"~  c #8C5A3B",
"^  c #915735",
"/  c #925B35",
"(  c #925C3C",
")  c #965C38",
"_  c #8D603F",
"`  c #946236",
"'  c #95623C",
"]  c #9A633E",
"[  c #966A3B",
"{  c #9C6B3E",
"}  c #936837",
"|  c #845442",
" . c #895441",
".. c #865941",
"X. c #8C5C43",
"o. c #8D5E49",
"O. c #86594A",
"+. c #925D41",
"@. c #905C49",
"#. c #8E6143",
"$. c #8D624A",
"%. c #946243",
"&. c #9A6544",
"*. c #966946",
"=. c #9D6944",
"-. c #94644A",
";. c #9A664A",
":. c #966A4C",
">. c #9C6B4C",
",. c #9F704F",
"<. c #87655B",
"1. c #966B52",
"2. c #9D6D51",
"3. c #946550",
"4. c #9C7153",
"5. c #9C745A",
"6. c #A26C46",
"7. c #A26E4B",
"8. c #A86F47",
"9. c #A67146",
"0. c #AD7145",
"q. c #A5724B",
"w. c #AB734C",
"e. c #AC794E",
"r. c #B2764A",
"t. c #B37B4E",
"y. c #A26E52",
"u. c #A47252",
"i. c #AB7554",
"p. c #AD7954",
"a. c #A5755A",
"s. c #AB7759",
"d. c #A37B5C",
"f. c #AD7A5A",
"g. c #A47955",
"h. c #B17654",
"j. c #B37C55",
"k. c #B97D54",
"l. c #B27C5B",
"z. c #B87F5A",
"x. c #B1765A",
"c. c #996B62",
"v. c #947566",
"b. c #997264",
"n. c #96766A",
"m. c #9B7671",
"M. c #8A7064",
"N. c #A37E60",
"B. c #AC7C60",
"V. c #B07E68",
"C. c #B58156",
"Z. c #BD8355",
"A. c #B5815B",
"S. c #BA845C",
"D. c #BC895C",
"F. c #A4805F",
"G. c #9E897B",
"H. c #9C847A",
"J. c #A58161",
"K. c #A98162",
"L. c #B48262",
"P. c #BB8562",
"I. c #B58A66",
"U. c #BD8A63",
"Y. c #BC8B6A",
"T. c #B88969",
"R. c #BB906C",
"E. c #A3847A",
"W. c #AA857D",
"Q. c #A5897E",
"!. c #A88777",
"~. c #BC9170",
"^. c #C08355",
"/. c #C1865A",
"(. c #C38C5D",
"). c #CA925E",
"_. c #C6905D",
"`. c #C38B63",
"'. c #C98C65",
"]. c #C48D69",
"[. c #C88D6A",
"{. c #C08763",
"}. c #C69164",
"|. c #CB9565",
" X c #CD9A65",
".X c #C5916A",
"XX c #CB956B",
"oX c #CE996C",
"OX c #D3976A",
"+X c #D29B6C",
"@X c #D89D6E",
"#X c #D19C65",
"$X c #CD9671",
"%X c #CD9A72",
"&X c #D39D73",
"*X c #D99E71",
"=X c #D49F7A",
"-X c #DAA26F",
";X c #D3A16F",
":X c #D6A174",
">X c #D9A274",
",X c #DCA877",
"<X c #D6A179",
"1X c #DBA57B",
"2X c #DDAA7A",
"3X c #E1A574",
"4X c #E2AA76",
"5X c #E0A56F",
"6X c #9E8382",
"7X c #9F8C85",
"8X c #9D8E8D",
"9X c #9F928E",
"0X c #9D8D90",
"qX c #A28583",
"wX c #A28A85",
"eX c #A58C8C",
"rX c #AB8E8C",
"tX c #A98884",
"yX c #A2928C",
"uX c #AB918B",
"iX c #A98E90",
"pX c #A69291",
"aX c #B29390",
"sX c #B09189",
"dX c #E2B082",
/* pixels */
"$ % + % @ @ z x v x x x O.o.o.o.o.X.f.L.L.L.L.A.L.L.L.L.L.L.4.%.*.-.-.=.Y g g d g n s s z e z y 0 7 u 8 t 7 c #._ #._ #.R > < < < < t M g M M c ! d.a.a.a.d.f.f.f.f.p.j.g.",
"$ $ @ $ % @ z x x x z b O.$.o.o.$.O.f.K.L.L.K.A.K.l.B.A.L.L.y.%.-.&.-.>.Y g g g g g s e z z y y u 8 t 8 8 8 c #._ _ _ -.V , < < < < t M c M M g ! d.d.a.a.a.f.f.f.f.p.p.f.",
"$ $ @ @ @ % z x v x x x O.o.o.o.$...s.L.L.A.K.L.A.L.L.L.A.L.7.&.;.-.*.>.Y d p g c n z e 0 0 z k y 7 7 t 8 8 x #._ _ _ #.R , < < < < t M M M M c ! s.s.s.s.a.s.f.f.p.h.l.p.",
"$ $ $ $ $ & z x x x x b O.o.o.o.o.X.s.L.K.A.L.A.B.A.l.K.l.V.y.;.-.;.-.;.Q p g d g x s s z s y s y 7 u 8 u 7 M #._ #._ #.V < < < t < t M M c M x ..a.a.a.d.a.s.f.i.f.p.p.i.",
"+ + + + $ + x x z x x x X.@.o.-.-.o.l.P.V.V.z.V.T.L.V.P.P.Y.y.@.;.>.;.;.Y i d d d d s i z e y z 0 7 5 7 7 7 f #._ _ _ #.j = , ; > = < g g g g f B f.f.f.f.f.B.l.l.l.j.l.s.",
"w w 8 8 8 0 z x z x x x b W B B B b 2.a.a.a.a.a.1.3.3.3.3.3.@. .X. .+. .~ +.~ ( ~ +.b 0 z s z z z x f g f f R -.#.%.%.-.' R R R R Y _ ' _ #.%.#.-.$.$.$.$.$.-.1.2.2.2.2.1.",
";.;.7.7.>.;.x z z x f k & O @ $ $ $ z b b Z Z S 1           : w w w w > 2.~.T.Y.Y.].-.0 z z z 0 W :.:.-.-.*.>.u.,.,.u.>.f..X}.}.}.[.[.`..X.X'.XXf.O 2 o & o 3 C v v Z v v ",
"+.;.+.@.-.-.x s z z k x * & $ & $ % v | Z | S F 4 + + X + + q e w w w > y.{.P.V.L.Y.@.e z z z k W -.%.%.%.%.*.u.q.,.y.q.g.`.U.D.{.U.U.`.U.D.U.`.s.o 3 2 3 3 3 A v Z v Z v ",
";.;.;.;.-.-.x z z z z k 4 & & & 3 $ b S Z S S S 3 X X X X X 6 e w w w > 7.Y.V.z.P.T.@.e n n v z W %.%.%.%.%.>.,.4.q.u.>.p.].U.{.`.`.U.`.`.].U.[.s.o 2 & 2 2 3 v Z C v v v ",
"&.-.;.-.&.-.x s z z z x 4 & & & 1 $ v S S S S | 4 X X X X X > e w w w > >.Y.z.P.P.T.-.e n z z z W *.%.%.%.' -.,.u.4.4.>.p.U.U.`.{.{.{.`.{.U.U.'.s.o 2 3 3 2 5 A Z v C N v ",
"-.;.;.;.&.;.x s s k s k 4 $ o $ % $ v S Z Z b S 3 X X X X   : 8 > w w > 7.].P.U.P.Y.@.0 s z z z W *.%.*.*.-.>.u.u.u.q.q.f.].`.`.'.{.].].].`.`..Xf.2 & o 2 o & v l C v l l ",
"~  .~ ..~ ~ B M M c c c u 7 7 7 7 , O.<.<.<.<.<.l 3 4 5 4 4 t s p p w w %.f.u.i.i.f.%.x P b x x M Q Q R Q R ~ >.*.;.-.&.q.A.j.l.j.l.j.k.j.z.l.z.q.5 5 5 7 7 u <.<.<.<.<.<.",
"s i t s u f R ! ~ Q ! ~ g c c M M x m.tXqXqXqXwXG C C C v v B M I H Y Y E ~ R E R E _ ~ ! ..Q X.b 8 8 8 9 7 x ~ Q Q Q Q ~ &.&.&.&.] ] ] ] ] ] 6._ M m M m m D 8X0X0X0X0XeX",
"f f s f f f R ! R ! ~ Q g g c c x g m.qX6X6XH.6XD l C l v v c Y Y Y H Y ~ ( ( ' ( ( ~ Q ~ ~ Q X.b 8 y 0 0 u c ~ ~ ~ ~ Q _ >.=.*.&.&.6.&.6.6.] ] ' M M z m f F 8X8X0X0X8XG.",
"f f f f x g ! ~ ! R Q ~ H c g c x x m.qX6X6X6X7XG l C l l v M Y Y Y Y Y Q ~ ~ E E E ~ ~ ~ ~ W ~ b 9 0 0 0 0 x ~ ~ ~ ~ ~ ( ;.;.=.&.6.] &.6.) { 6._ g m f m k F 8X0X8X8X8XG.",
"m f f f x g ! Q Q Q Q Q c H g c M z m.qXqXm.6X7XG C v v m v M V Y J Y Y E ( ( ' ' ' ~ Q W Q Q ..c 9 k u u u c ~ ~ X.X.~ %.;.=.;.&.6.6.&.6.6.=.=.' j M c m m F 8X8X8X9X8XH.",
"t t y i y s ~ ~ Q Q Q ~ g g d g g f m.qXqX0X6XtXD r l l l l g j g j g g Y ~ ~ ~ ~ ~ ~ ~ I Q  .) d 6 9 5 7 7 s ~ ~ ! ~ Q ( =.;.&.=.=.&.( &.] ] ] ' s a f f t N 9X9X9XyXyXqX",
">.,.7.7.7.>.~ ! Q Q Q R ! T W ! W T c.b.b.b.c.c.5.5.5.5.5.5.g.p.p.i.p.i.i.p.p.i.i.f.7.+.+.+.@.@.;.&.%.-.%.=.-.&.&.*.;.;.=.;.;.6.;.&.6.z.z.C.C.S.A.q.g.g.i.q.5.F.v.v.n.v.b.",
";X@X@X*X*X*XQ M Y T Y Y ~ +.X.X.( +.@.^ ^ ^ ) T XXdX2X2X2X4X2X,X,X,X,X,X;X;X&X&X&X=Xz.;.y.6.;.;.j. X).).).).^.e.e.e.w.w.8.6.6.7.7.&.l.1X<X:X<X*X>X3X3X3X3X4XOXT R R T T Q ",
"oXOXOXOXOXOXR P Y H I Y ~ +.( ( ( +.( +.+.( +.( .X2X:X:X>X:X:X:X;X;X;X:X:XoXoXoX$X&Xx.@.7.@.;.;.p._._._.(.).Z.8.e.w.w.r.8.;.6.=.6.&.h.:X*X=X&X&X*X>X@X@X@X-X X( / ( ( ~ ( ",
"OXOXOXOXOXOXE H Y Y K Y X.( ( X.+.+.+.+.( +.+.^ .X1X:X,X,X<X>X:X>X:X:X:X&XoXoX%X$X=Xl.-.;.;.7.;.p.|._.).(.).Z.w.r.w.w.w.w.=.=.6.7.;.x.<X*X&X=X*X*X>X>X@X-X-X X^ E E ~ ( Q ",
"OX@XOXOXOXOXE P Y P I P ~ +.X.+.( ( +.( ( ( ( ( .X1X:X:X:X>X:X:X*X*X*X=XoXoX%XoX$X%Xl.&.7.;.;.@.p.|._.(.(.).Z.w.w.r.w.w.w.&.=.=.=.&.h.>X&X=X*X*X*X*X*X@X@X-X X/ E ( ( E ( ",
"@XOX@XOX@XOXR P P Y P Y ~ ( ~ ~ Q Q ( ( ( ) +.Q XX4X2X2X2X1X1X1X1X2X2X1X<X&X&X%X&X<Xl.-.2.;.;.;.h.|.).).).|.^.r.w.h.h.h.w.6.6.7.8.7.l.*X*X*X*X*X>X>X3X3X-X4X#XL ^ E ~ E +.",
"^././.^././.~ Y ! ! T Q >.y.q.u.y.y.( E ^ ( ^ ^ i.C.j.A.z.A.C.j.C.p.C.p.A.P.S.S.S.P.u.%.-.@.-.@.u.D.Z.S.Z.S.r.' &.) ) &.+.E ~ Q ~ ..&.'.`.U.{.{.S.C.C.A.C.A.p.~ ~ ~ ~ Q ^ ",
"0.0.0.0.0.r.Q Q Q Q Q T f.A.A.A.z.z.( T ^ E T E T E E E Q ^ E K K K K K [ q.q.w.8.w.-.~ @.o.@.o.>.j.p.h.p.j.6.g J J j Y j s g h s s T h.e.h.i.h.7.W ..~ ..! ..~ ~ ~ Q ~ ' ",
"r.r.r.r.r.h.^  .Q Q Q Q g.A.A.p.j.j.` K E ^ ^ ^ ( ( +.( ( ( ( ^ ` E ` E 6.e.p.u.i.p.;.O.o.X.+.X.y.h.t.h.h.h.6.J R Y Y R Y g g g g g R j.h.h.h.x.u.X.$.X.o.o.$.~ ~ ~ ~ ~ +.",
"r.r.r.r.r.r.~ Q Q Q Q T g.l.C.C.C.j.` ^ ^ ^ ^ ^ ^ +.+.( ~ ( ( E E E E K 6.u.w.w.u.p.;.X.o.X.o.X.7.p.p.f.f.l.7.J K J R R Y s g g g x Q x.h.h.i.h.a.X.X.$.o.X.X.X...~ ~ X.%.",
"r.r.r.r.r.r.Q Q Q Q Q Q g.C.C.A.l.z.) T T ^ E ^ +.+.@.+.( ( ( ~ E E E L =.p.i.u.u.i.;. .X.O.X.X.>.l.h.f.h.l.>.H R Y Y R Y g g g c x ~ l.x.h.h.x.u.X.$.X.$.o.X.X.X.~ ~ X.+.",
"e.e.r.w.r.h.~ Q Q Q Q Q i.C.C.C.A.j.' T ^ ^ ^ ^ ^ @.@.@.@.^ ~ ( ~ ( ( ~ 6.f.i.s.i.s.;.o.@.@.@.o.y.z.l.l.f.l.6.H J J J Y j f p p g s Q l.x.x.x.l.g.$.-.$.-.$.o...~ X.X.~ ( ",
"6.6.6.6.6.6.Q T Q I I Q h.C.C.C.A.A.] E ^ ) ) ) I I  . .U U Y P Y c Y H Q =.6.+.&.&.Q x b b b x  .6.=.;.6.=.=.&.*.&.&.*.%.' _ ' ~ $.%.=.;.;.7.;.@.P b c b x U o.X.( X.X.%.",
") ( &.( ) ( T Q I T I W p.S.C.C.C.S.] E / / ) ) n e n e e z n n h f s s I Q I Q T T d q 8 8 9 7 n ( ^ ( ( T &.p.e.e.e.u.u.q.u.u.u.u.;.E E T E E T 8 0 7 8 8 y +.+.~ ( X.( ",
"( ( %.+.+.+.T Y I I W I l.S.C.C.C.A.] / / ) ) ) n e n e e n z n s g n d P Q ^ Q ~ ~ d 9 u 0 0 0 P ( ( ( ( E *.q.q.q.e.e.q.q.q.q.q.q.=.E ~ ( ~ ~ Q 0 0 0 0 0 s X.X.' ~ X.( ",
"%.+.&.+.' %.W T T Y W Y j.Z.C.S.S.Z.] ^ ) ] ) ) b e e z z z n x x x z n Y Q ^ Q Q Q d 9 0 0 9 9 b ( ( ( ( Q &.e.q.w.w.w.q.q.q.q.,.q.*.~ E ~ ~ ( Y 0 0 0 0 0 k X.( ~ ~ ~ ' ",
"+.&.+.+.%.+.Y Y I Y I I p.S.A.z.z.A.] ) ) ) ) ( n z z z z z z z z g z d I  .Q Q Q ~ n 0 k u l 9 P ( ^ ( ( ( &.w.q.q.q.w.q.9.q.9.9.q.=.` E ~ ~ ( Q 8 0 0 0 0 s o.X.' ( ( +.",
"+.%.+.+.+.+.I Y W Y Y Y l./.P.S.S.P.` ^ ( ) ( ~ n s k k z z z s x s x n U Q Q I I ! s 7 5 5 5 5 P ) +.( +.^ =.u.w.q.9.w.9.,.9.9.q.q.{ R E R Q ~ Y 8 8 8 8 9 y X.~ ~ ( E ( ",
"8.6.7.7.6.8.~ Q Y Q ! ~ Y M M M Y Y u.f.i.p.g.C.~ T T T T ~ H H P P P g @.a.2.y.4.4.5.v.n.n.n.n.3.I T Q ^ T ) w.8.q.9.9.9.9.9.9.9.9.e.D.Z.D.S.D.j.H H c M j Y q.w.q.q.w.i.",
"r.w.w.w.w.u.( Q Q Q Q ~ 6 $ * * & + d.~.I.Y.I.U.{ / ` ` L ] ^ I I U I P 1.K.J.J.J.J.!.uXiXiXrXaXb.P I I ^ I ) w.8.9.9.9.9.9.9.9.9.9.C.;X;X:X;X,X}.K R E R T ` p.t.C.j.k.B.",
"w.w.w.w.w.w.Q Q Q Q Q Q 9 4 7 5 7 4 5.R.I.I.I.U.6.L L L ) ) K I I P I P :.J.F.J.d.N.!.tXrXeXtXrXc.P ^ I I I ( w.8.8.9.9.9.9.9.9.9.9.C.#X X XoXoXU.K R Y Y K E t.t.e.t.t.s.",
"h.8.w.w.w.8.~ T Q W ! ~ q 4 6 6 4 4 g.R.I.I.I.U.0.L ` L ) ) T H P I Q P >.J.F.F.d.N.!.eXeXiXeXaXb.P I I I I ) 0.8.8.9.9.9.9.e.9.w.9.C.:X;X%X+X:X}.K R T T K E t.C.t.j.t.N.",
"8.h.w.w.w.w.~ Q Q Q ! ..0 1 6 6 9 % d.R.I.I.I.D.8.L ) ` ) ) ^ P P P Y M >.F.F.b.N.N.!.eXeXeXeXpXb.I I I I I ) r.9.8.9.w.0.9.9.w.9.9.p.:X%XoXoX:X`.K T T T K / C.t.t.j.k.l.",
"w.h.w.w.u.u.( T ! ! ! ! 7 6 6 6 4 1 d.Y.Y.Y.I.U.{ L / L ` / T I I I Q P 2.B.J.N.K.N.!.sXiXpXrXaXb.H I Y T H ` w.9.9.q.w.q.9.9.q.q.6.j.:X:XoXoX:X'.J T Y K Y ^ j.C.j.j.j.V.",
"+.+.%.' &.( Y c g m g c x x v n n z >.d.g.d.g.u.j.C.C.C.C.Z.P ; q > q : M -.$.#.%.$.$.$.$.$.$.$.$.+.&.-.%.%.' _ ~ ~ ~ ~ &.7.q.8.q.9.q.p.p.C.C.e.j.S.S.S.z.S.z.&.' &.] -.3.",
"Q ( Q ~ ~ ~ c f f f f g x U W W W U >.y.u.>.q.=.U.XX}.}.}. XY . - - - . s ! R Y Q Y Y g g H c g Q >.=.=.=.*.' Q R Q Q I +.q.6.q.6.9.q.6.=.=.9.*.w.oX$X%XoXoX{.~ Q Q ~ (  .",
"( ( ~ X.~ _ c g f x f g U U b U U U ;.u.7.y.u.7.D.}._._.`. XY # : ; ; - z Q ! Q T ~ Y Y P Y Y M _ >.*.&.*.*.%.R ~ ~ Q W @.q.q.6.q.6.q.7.9.q.q.9.i.XXXXXX.XXX{.+.^ ( Q ( ^ ",
"~ ~ _ ~ ~ _ x x f x g x b U U U b U ;.y.y.u.7.>.{.}.}.}.`.oXI . ; - : - d Q ! T Q Q Y P Y P Y M ~ ,.*.*.*.>.' ! Q Q Q W ( q.7.7.8.8.7.8.q.9.q.=.e.XXXXXXXXXXU.( ^ +. .+. .",
"' #.( ' ~ R m f x x x x W B U U I P 2.7.7.y.y.7.P.}.`.`.`.|.Y # ; : : - g  .! Q Q T Y Y b M Y c ~ :.*.*.*.*.%.! Q X.Q Q ( q.7.7.7.7.7.q.7.,.q.6.i. XXXXXXXXX(.~ ^ @.+.+.+.",
"~ ~ ~ ~ _ R g f x c x x U W W U U U >.a.q.u.y.7.P.}.'.}.`.oXI . - - - . d Q ! T T R Y b g Y M c ..*.*.*.*.*.%.|  .Q Q Q +.7.8.7.8.7.q.q.q.q.q.,.g.XXXXXX.XoX{.^ +.+. . .+.",
"i.s.g.u.i.,.t 5 7 7 8 6 s z n n z z Q +.o.X.o.X.g.l.p.l.h.l.i.@.y.2.;.y.;.;.-.-.-.*.! g g c c g Y V R R V R R W P P P P Y ~ ~ ~ Q X.+.~ X.X.#._ %.A.l.A.z.S.C.y.y.y.y.x.y.",
"l.l.V.l.l.h.7 & 4 4 4 * 0 s e s i 0 W | | ..| | 4.i.i.s.i.i.B.B.f.B.B.B.y.:.:.>.:.>.! g f j j j g M j j j j j g g g g H g W W U W B | ......X...o.p.j.f.i.p.x.f.s.s.s.B.s.",
"f.l.l.l.j.f.0 * 4 4 6 4 s s s i s y W ......O...4.f.i.f.s.h.i.x.s.s.s.B.y.;.>.*.*.1.! f m f f f x M j M Y j j j g g g g J !  .Q W | ! ..O.......@.p.p.l.l.i.f.i.s.s.a.s.a.",
"x.x.x.l.l.f.8 4 4 6 4 4 e s e s s i ! ........| y.s.s.i.i.s.s.f.f.s.s.B.y.1.>.:.:.4.! a a g g f j M M V M j j j g j g g P Q W W W W | ..~ X.....@.f.p.f.h.x.s.i.s.i.i.s.a.",
"V.B.f.l.x.f.9 4 4 6 4 4 y s s s y y B ........| y.f.i.s.x.i.s.x.s.f.s.s.y.;.>.-.*.>.R s g a g g j j j j j M j g j a j g c ! W | W W ! ......O.~ %.l.f.l.x.s.x.s.s.a.a.a.y.",
"x.x.l.x.l.f.7 * 4 4 4 * i i i s t s B X.......W 2.s.s.s.i.s.x.f.s.s.i.s.w.>.;.>.>.>.R a a a a a j j M M J j H g g g j c M ! ! W W W ! ~ ! ..~ ! #.f.l.p.f.f.x.i.s.s.s.s.u.",
"+.@.X.( +.X.W W W Y W P a.f.p.i.p.l.R x m B x c z z z z z e +.y.7.y.y.w.y.a.a.a.a.a.L.~.R.Y.Y.R.q.J Y T R Y ( y.q.q.,.,.X.8 u 8 y 7 s ~ _ ~ R R ~ &.&.%.+.&.y.[.{.{.{.`.P.",
"! Y Q W W Y Q Q Q Q Q ! f.P.S.S.P.P.R z c x x m 0 7 q q q q @.w.7.7.y.w.u.i.a.s.g.a.Y.%X%X%XoX=Xl.P ^ ^ E T +.h.i.i.i.C.%.: , , , , t ` R R E E R ' ' ( ) ( 6.[.[.[.[.'.'.",
"Q Q Q ! Q W Q W ! ! ! T f.A.l.z.C.U.! z m x x x e 9 0 0 0 q +.7.y.y.y.7.u.f.i.s.s.g.I.%XXX$XXX%Xl.Y E T T T +.h.i.u.q.i.$., 7 7 < , h ` E E E E / ' +.+.+.+.6.{.`.'.[.'.{.",
"~ | Q  .Q Q Q Q W Q Q W i.P.z.l.z.P...z x c x x 0 0 q 9 0 9 #.,.q.q.>.q.u.d.s.i.i.a.U.%XoXoXXX=Xh.I ^ T T T &.i.i.q.e.g.%., 7 7 7 * t ~ E E E E ( ' +.' +.( ;.].'.'.'.'.{.",
"W Q W Q W W | Q W Q Q W f.S.l.S.l.P.~ s x x g z e q 0 0 0 7 $.q.>.y.u.q.u.i.i.a.i.a.P.%XoXoX X%Xp.I Q Q T T ] i.i.i.q.g.%., 7 , , 5 h _ E E E ~ ( ( &.&.+.( =.'.'.'.'.'.{.",
"Q ~ Q Q Q  .Q Q W Q W W f.A.z.z.C.P.! f c x f g s 9 8 9 9 q _ q.,.q.u.y.q.i.i.i.p.i.T.;XoXoXXX+Xp.P ^ T Q T ] u.q.q.q.g.' , < 7 < , i ( E E ( ^ ^ ' ' +.) +.;.].{.{.[.'.{.",
"A.j.k.j.k.k.n 8 w w e i ~ +.X.X.X.X.X.' _ ' %.' R Q R ! T T *.,.>.,.>.>.i.z.h.l.j.p.D.#X|. X|.+Xt.I T T T I ( 7.q.q.q.q.=.&.%.&.%.' q.U.D.D.S.D.l.g c M Y Y Y +.+.+.+.@.+.",
"^.Z.^.^.^.Z.p w q w w w b | | | S ! #.&.] [ ] ' ( ~ ` ~ ~ ~ *.,.,.>.>.>.p.k.j.j.k.t.D.#X X X X+Xe.H T T T K ) 6.6.6.6.6.7.7.7.6.6.=.e.}.`.`.`.XXA.g g g g M c Y W W Q U Q ",
"Z.Z.Z.Z.^.Z.p e e e 0 0 | O.|  .| ! ~ %.` ' ' &.( / ~ / ' E &.,.>.,.>.>.e.j.j.k.t.t.(.).|. X X#Xp.H T T Y I ( 6.6.6.7.6.6.6.6.>.6.=.w.`.(.`.'.'.A.g M c g j M ! Q Q  .Q Q ",
"Z.Z.^.Z.^.Z.g 8 e e q e | O.O. .! | _ ] ' ] ' ' ` ( ' ( ( E *.,.,.>.>.2.e.k.t.k.t.t.D. X X X X#Xr.H Y T T P ( 6.6.6.6.6.6.6.6.=.=.=.e.'.(.'.'.'.A.g c M J c c Y Q W Q Q Q ",
"^./.^./.^.k.d 7 0 8 w w | O.| ....| ( ] ' ' ' ' ( ~ E E ~ ~ &.,.>.>.y.=.w.j.t.k.k.t._. X X X|.#Xh.I K K K P ( 8.6.6.6.6.7.6.6.=.6.6.e.'.'.'.'.[.Z.c c g c c c ! ! W Q  .Q ",
"k.k.k.^.k.A.x y z z z s | | | | ..| ' ' ' ' ' ' _ ' ( ' ( ' -.>.7.>.>.>.e.h.t.t.t.t.(.+XoXoX}.&Xi.H J H P H ( 6.6.6.8.6.6.=.=.=.=.=.w.(.(.'.{.'.L.B B V V N B ! B ! ..| ..",
"E E T E T ~ !.Q.Q.Q.Q.tXF b v v Z v | ~ ~ ~ Q E q.j.h.h.h.j.6.` ` ` ` ' ^ E ^ / / K h.&XXX$XoX=X>.% 8 7 7 6 g &.&.) &.( ( ^ / ^ ^ E ~ ' ' ' ` ( 1.!.E.!.G.G.H.S N N N N ! ",
"P I H H I W W.rXrXeXwXuXF v v v v v ! ! Q Q Q Q i.z.z.z.k.A.6.L ` ` ` ` E Y T T K J p.=XXX$XXX=X>.% 6 4 6 1 d +.( +.&.) ( ( T E / E E ( E ' ~ ~ 3.wX7X7X7XwXH.S A A N B V ",
"I Y K K I Q tXiXeXeXeXrXF v N v v N | ~ ~ ~ ~ T i.k.j.j.j.C.{ ` ` ` ` ` ~ E T K L J h.=X$X$X$X=X4.@ 5 * 6 1 d ;.( ( &.&.` ( ^ ( ~ ~ ( / ( ( ( ^ :.wXwX7X7XeXH.A N A A N V ",
"Y Y I K I | W.rXeXeXeXrXF v C Z v v | ~ Q ~ Q E w.z.k.h.k.z.6.^ ` ` ( ' E T K T T H p.:XXX$XXX=X>.$ 7 5 6 4 z &.+.+.&.+.+. .) Q Q ( ( ) E ( ( / $.wXwXwX7XeXG.N N N N N N ",
"I K P K Y W tXiXeXeXiXrXF v Z v Z v W ~ ~ ~ ~ Q p.z.l.k.j.z.6./ ` ` ` ` / T E T L J f.<X%X%X%X<X2.O 4 4 * 1 n +.) +.+.&.) ^ Q Q ( ^ ~ ( ( ( ( E -.eX9XwX7XeX7XN N N V V V ",
"K I P Y I W V.W.E.E.E.Q.F l v v v v W W ~ W Q ! 7.i.i.i.i.i.' E ~ ` ~ ` R J Y Y Y H q.XX.X}..X Xq.t t t i 8 P ( ( +.+.+.+.(  .) Q  .Q ( ( ( ( ( -.!.E.E.E.E.n.m m m m m m ",
"T T T T ~ Q W B B W W | x z k k k z k z k z z z e n n z z s f s y y u y y t y y s 0 Y { ' [ ' ` ,.D.D.C.D.U.i.I ^ Q I I Q  . .I  .Q ( &.` ( ` ' X.Y U b U b j t u u u u u ",
"~ ~ ^ ^ ( Q W B M R B W x s z k k z k k k k z z z v e v e v r z l u f l u u k k z y J [ [ [ ' } ,.U.D.D.D.`.q.K T T W Q  . . . . . .Q +.] ( ) ( ( Y M M V M j t t t u t t ",
"^ ( ~ ^ ^ Q Q W M W b W x z s k z y z z z z k z z z b r Z e z z u u u u y l u k z y j [ } } { ` q.D.D.D.D.`.i.Y T Q Q Q Q  . . . . .+.] ` ( ' ] ( J j M j M m t t t t t t ",
"^ ^ ~ Q ~ Q R M P B Y M s s f k k z k k k x z z z e v z z z k k k u k u m s k k z r R [ } } [ } e.D.D.D.S.`.u.Y Q Q W W  .W  . . . .Q +.] ] ( ] ' J j M j M j t t u t t i ",
"Q T I ^ T T W V W W B W f y y y s k f y k k k k z b z z z z k k k u u u u u u u e 0 B [ } ' } ` C.U.D.(.D.`.i.Y T I Q W W U | | | I ( ) ) ( ( / ~ M J j M M j t t t t t 0 ",
"+.&.] +.+.] Y g c c c c x f f f f f x k x x n x z 0 k s k y z z z z s z y z z y z z W #. .+.( ( { C.C.C.j.A.q.Y Q Q Q Q Q o.+.X.@.Q +.6.6.6.=.6.&.j M m c M m a h f h f x ",
"(.'.D.'.'.'.w * 7 7 6 , W ~ _ ! _ R ! R ! | | ..0 % % % * % x ..W W W ! ~ Y ! W Q | W W Z | | | B _ Q Q R Q ~ ~ ( ( +.+.&.p.e.p.h.h.z.$X[.XXXXoXU.h g g f f M >.*.,.,.:.*.",
"(.D.(.(.(.D.i , 7 7 7 7 R ~ ! E E R R R ! ! W ..8 % % : : # g Q Q Q Y W ! Y R R R R W | | | | | | .... .~ Q ~ ( ~ +.( ( =.p.e.h.h.w.C.XXXXXXXXoXU.f c x g f V ,.*.,.*.:.>.",
"(.`.(.'.'.U.i : 7 , , , R ! R R R _ ! ~ Q  .| ..8 # : % : - x ! Y W ! R ! Y R R R W W | | | b | ! ..Q ~ ~ Q ~ ~ +.~ ~ ( =.e.e.r.r.e.A.oXXX}.|.OXP.s c f f k M :.:.>.:.>.:.",
"{.(.(.{.(.U.i , 7 , 7 , R R E R R R ~ ! ! | | ..8 % : = : # c ! Q Q ! R W R R R R ! ! | | | | |  . . .Q Q Q ~ ~ ( ( ( ( =.h.p.w.e.e.C.XXXXXXXX XS.s b x x s R >.:.*.:.*.;.",
"`._.'.'.`.`.i * 7 7 , 5 V _ E ~ _ _ ~ ! W | ! X.8 # # # # # d ! Y Y Y Y Y Y Y Y Y Y W | | | Z | Q  .X.Q Q ~ ( ~ ~ ~ ~ ( &.h.w.h.r.e.C. XoXXX X+X(.d x x c f b >.,.,.,.,.>.",
"k.k.k.j.k.j.t , 7 , 7 7 j V V M V W V B W W B W t : < < < > c +.~ X.~ ~ ~ ~ #._ _ X. .|  . .| Q  .W W W W W ~ -.%.%.@.+.6.w.i.r.p.w.h.(.D.(.(.}.j.d c x x x b X.#.$.#.#.X.",
"i h h h h g h s s s t f * & 4 3 & $ u y y y i 0 b ! W Y W Y >.g.g.a.i.i.f.f.K.j.p.A.u.-.;.-.;.@.W s s e s w Y w.w.u.w.w.w.7.7.8.8.w.8.^ ( E E ^ E x n c c x s # # @ % @ : ",
"p p p p a a h s h s s y 4 & 4 3 4 3 u u y s y i c W W Y W P ;.g.g.a.u.g.f.f.f.f.f.A.,.%.-.-.-.-.W e s s n e T u.7.7.7.7.8.w.w.w.w.w.6.^ ( ( ~ ( ~ g n P x b s # % % % % * "
};
