/* XPM */
static char *cf141d48238e4197d2dd16fb42d2bf31SeYw2RnlIwK7nVyp[] = {
/* columns rows colors chars-per-pixel */
"85 85 137 2 ",
"   c #1E1F1F",
".  c #1E201F",
"X  c #1F1F20",
"o  c #201F20",
"O  c #1F2020",
"+  c #232323",
"@  c #292626",
"#  c #2B2827",
"$  c #2E2929",
"%  c #332D2C",
"&  c #37302F",
"*  c #38312F",
"=  c #373030",
"-  c #3C3332",
";  c #413635",
":  c #443837",
">  c #463A39",
",  c #4A3C3A",
"<  c #4F403D",
"1  c #4F403D",
"2  c #50413D",
"3  c #50413E",
"4  c #51413E",
"5  c #51423E",
"6  c #51423F",
"7  c #53443F",
"8  c #51413F",
"9  c #534340",
"0  c #544340",
"q  c #544341",
"w  c #554341",
"e  c #544440",
"r  c #544441",
"t  c #554441",
"y  c #564441",
"u  c #554442",
"i  c #554542",
"p  c #564442",
"a  c #564542",
"s  c #574542",
"d  c #574642",
"f  c #544340",
"g  c #584642",
"h  c #584742",
"j  c #594643",
"k  c #594743",
"l  c #5A4843",
"z  c #5B4844",
"x  c #5C4945",
"c  c #5C4A45",
"v  c #5D4A45",
"b  c #5E4B45",
"n  c #5D4946",
"m  c #5D4A46",
"M  c #5E4A46",
"N  c #5F4A46",
"B  c #5E4B46",
"V  c #5F4B46",
"C  c #5E4A47",
"Z  c #5F4B47",
"A  c #5D4945",
"S  c #5F4B48",
"D  c #5F4B48",
"F  c #604B47",
"G  c #604C47",
"H  c #624D47",
"J  c #604C47",
"K  c #604B48",
"L  c #614C48",
"P  c #624D48",
"I  c #624E48",
"U  c #644E49",
"Y  c #644F49",
"T  c #654F4A",
"R  c #664F4B",
"E  c #634E49",
"W  c #66504A",
"Q  c #66504B",
"!  c #67504B",
"~  c #67504C",
"^  c #67514C",
"/  c #67504B",
"(  c #68514B",
")  c #68514C",
"_  c #69514C",
"`  c #68514D",
"'  c #69514D",
"]  c #68524C",
"[  c #69524C",
"{  c #69524D",
"}  c #6A534D",
"|  c #6B534D",
" . c #6B544E",
".. c #6C544E",
"X. c #6D544E",
"o. c #6D554E",
"O. c #6D544F",
"+. c #6E554F",
"@. c #6E564F",
"#. c #6F564F",
"$. c #6C544E",
"%. c #6F5550",
"&. c #6F5650",
"*. c #6F5650",
"=. c #705650",
"-. c #705750",
";. c #715750",
":. c #705751",
">. c #715751",
",. c #705751",
"<. c #715851",
"1. c #725851",
"2. c #725852",
"3. c #735852",
"4. c #735952",
"5. c #745953",
"6. c #745A53",
"7. c #755A53",
"8. c #765B53",
"9. c #755B54",
"0. c #765B54",
"q. c #775B54",
"w. c #765C54",
"e. c #775C54",
"r. c #775C55",
"t. c #725952",
"y. c #785C55",
"u. c #795D55",
"i. c #785C56",
"p. c #795D56",
"a. c #7A5D56",
"s. c #795E57",
"d. c #7A5E56",
"f. c #7A5E57",
"g. c #7B5E57",
"h. c #7B5F57",
"j. c #7C5F58",
/* pixels */
"p.p.p.p.p.j.p.0.+.m , = $ # % ; t ! 1.p.p.p.p.p.p.p.p.p.p.p.p.p.p.p.p.p.p.p.p.p.p.p.p.p.p.:.P 6 - % # % ; 6 P :.p.p.j.p.p.p.p.p.p.p.p.p.p.p.p.p.p.p.p.p.r.+.G < - $ + X   ",
"r.r.r.p.p.p.p.0.+.m , = $ # % ; 7 T :.p.p.p.p.r.r.r.r.r.r.r.r.r.r.r.r.r.r.r.r.r.r.p.p.p.0.+.G < - % # % ; 6 G +.r.p.p.p.r.r.r.r.r.r.r.r.r.r.r.r.p.p.p.p.5.+.m < - % + X   ",
"5.5.5.5.0.r.0.1.) z , = % # % ; 6 P +.5.0.0.5.5.5.5.5.5.5.5.5.5.5.5.5.5.5.5.5.5.5.5.0.0.1.) m , - % # % - , m  .5.0.0.5.5.5.5.5.5.5.5.5.5.5.5.5.5.0.0.0.1.) m , - $ + X   ",
"+.+.+.&.1.1.1.+.T t > * $ # % - < m ) +.:.:.:.&.+.&.&.&.:.&.:.&.&.&.&.+.+.+.+.+.&.:.1.1.+.! l , = $ @ $ = , z ! +.:.1.:.&.+.+.+.+.=.=.=.+.+.+.&.&.:.:.:.+.T k , = $ + O   ",
"! ! ! ~ ) ) ) T m 6 ; % $ @ % - , k P ( ) ) ( ( ! ! ~ ~ ~ ~ ~ ~ ) ( ! ! ! ! ! ! ! ) ) ) T m t : * $ @ $ = > t m ! ) ) ) ! ! ! ! ( ( ( ( ! ! ! ! ~ ) ) ) T F 9 : * $ + +   ",
"m m m m m S m m t , - % # @ $ * : 6 k m m m m m m m m m m m m m m m m m m m m m m F F P m t , ; % $ @ $ % ; , t m F S m m m m m m m m m m m m m m m G K m k , ; % # + +   ",
"t t t t t t t 9 , : = % @ + $ % ; , 6 t t t t t t t t t t t t t t t t w w w t t t t t t w 6 > - % @ + # % - > < w t t t t t t t t t t t w w w t t t t t w 6 > - % @ + +   ",
", , , , , , , , > ; % $ @ + # % = ; , , , , , , , , , , , , , , , , , , , , , , , , , , , > ; = $ @ + @ % = ; > , , , , , , , , , , , , , , , , , , , , , > ; & $ @ + + . ",
"> > > > > , , > ; - % $ @ + @ % * ; > > , , > > > > > > : : : > > > > > > > > > > , , , > : - % $ @ + @ $ % - : , , , > > > > > > > > > > > > > > > > > ; - = % # + + +   ",
"> > > > > > > > ; = % $ + + @ $ * - : > > > > > > ; ; - - - - - ; : > > > > > > > > > > > ; - % $ @ + @ $ % - : > > > > > > > > > > > > > > > > > ; ; - - * % $ @ + + + X ",
"> > > > > > > > ; = % $ + + @ $ & ; : > > > > > : ; - = % % * = ; ; > > > > > > > > > > > : - % $ @ + @ $ % - : > > > > > > > > > > > > > > > > : ; - = % % $ @ + + + + X ",
"> > > > > > > > ; - % $ + + @ $ & - : > > > > > ; - = % % % % % - ; > > > > > > > > > > > ; - % $ @ + @ $ % - : > > > > > > > > > > > > > > > > : - = % $ # @ + + + + + + ",
"> > > > > > > > ; = % $ + + @ $ % - : > > > > > ; - % % $ # $ % = ; : > > > > > > > > > > : - % $ @ + @ $ % - : > > > > > > > > > > > > > > > > ; - % % @ + + + + + + + X ",
": : : : : : : ; - = % # @ + @ $ % - ; : > > > ; - = % $ @ + @ % % - ; : : : : : : : : : : ; = % $ + + @ $ % - ; > > > : : : : : : : > > : : : ; - = % $ + + + + + + + + + ",
"- - - - - ; - - = % $ @ + + + # % % = - ; ; - - = % $ @ + + + @ % % = - - - - - - - - - - = % $ @ + + + @ $ % = - - - ; - - - - - - - - - - - - = % $ @ + + O O O + + + + ",
"% % % % % % % % % % # + + + + @ # % % % & * * % % $ @ + + + + + # % % % % % % % % % % % % % % @ + + + + + @ $ % % % % % % % % % % % % % % % % % % $ @ + + X     O O + + + ",
"$ $ $ $ $ $ $ $ $ # + + + + + + + @ $ $ $ % % $ $ @ + + + O + + + @ $ $ $ $ $ $ $ $ $ $ $ # @ + + + + + + + @ $ $ $ $ $ $ $ $ $ $ $ $ $ $ $ $ $ @ @ + + O       O O O + + ",
"@ @ @ @ @ @ @ @ @ + + + + + + + + + + @ @ @ @ @ @ + + + + + + + + + + @ @ @ @ @ + @ @ @ @ + + + + + + + + + + + @ @ @ @ @ @ @ @ @ @ @ @ @ @ @ @ + + + + + + + + O O O + + ",
"@ @ @ + + + + + + + + + + + + + + @ @ @ + + + + + + + + + + + + @ @ @ @ @ @ @ @ + + @ @ @ @ @ + + + + + + + @ @ @ + + + + + + + + @ @ @ @ @ @ @ @ @ + + + + + + + + + + + ",
"% % $ $ # @ + + + + + # $ % % % % % $ $ @ + + + + + @ # $ % % % % $ % $ % % % % $ $ % % % % % % % % % % % % % $ $ # @ + + + + + @ $ $ % % % % % % % % % % $ $ @ + + + + O ",
"; ; - * % $ + + + + $ % = - ; ; ; ; - * % $ + + + @ $ % = - ; ; ; - - - - - - - - - - - - - - - ; ; ; ; ; ; ; - = % $ @ + + @ $ % * - - ; ; - - - ; ; ; - - * % # + + + O ",
"6 6 < > - % # + + # % ; , < 6 t 7 6 < > - % # + @ $ % ; , < 6 6 6 6 6 6 6 6 6 6 6 6 6 6 6 6 6 6 6 6 6 6 6 6 6 < , ; % $ + + # % - > < 6 6 6 6 6 6 6 6 6 6 , : = % @ + + X ",
"T P m t , - % @ @ % - , t m P T T P m t , - % @ @ % - , t m P P P G G G G G G G G G G G G G G G G G G P P P G m t , - % @ @ % - , t m G P P G G G P P P G l < ; % # + O   ",
":.+.( m 6 ; % $ $ % ; 6 m ) +.:.:.+.~ m < ; % # $ % ; 6 G ) +.+.+.+.+.) +.+.+.+.+.+.+.+.+.+.+.+.+.$.+.+.+.+.+.) G 6 ; % $ # % - < m ! +.+.+.+.+.+.+.+.+.) P t > = $ + O   ",
"1.:.) P t : * % % * : t P ) :.1.1.:.) G 6 ; % $ $ % : t P ) :.:.:.&.+.+.+.+.+.+.&.&.&.+.+.+.+.+.+.+.+.&.:.:.:.) P t : % $ $ % ; 6 G ) &.:.:.:.+.&.:.:.:.+.T k , = $ + O   ",
"+.+.! F t > - % % - > t G ~ +.&.&.+.! m < - % @ $ % ; 6 m ~ $.+.+.) ) ) ) ) ) ) ) ) ) ) ) ) ) ) ) ) ) ) +.+.$.~ m 6 ; % $ @ % - < m !  .+.+.+. . .+.+.+.) P t > = $ + +   ",
"T P F k 6 > ; = = - , 6 z K T T T P m t , - % @ @ % - , t m P T T P P P P P P P P P P P P P P P P P P P T T P m t , - % @ @ % - , t m T T T T T P T T T P z 6 : % # + +   ",
"k k t 9 , > : - - ; > , 9 t k m z k t , ; * $ @ @ $ = : < t k k k k k k k k k k k k k k k k k k k k k k k k k t < : = $ @ @ $ * : , t k z z k k k z z z t 6 > - % @ + +   ",
"< < , , , > > ; ; > > , , , 6 6 6 < , > - % $ + @ $ % - > , 6 6 6 < , , , , , , , , , , , , , , , , , < 6 6 6 , > - % $ @ + $ % - > , < 6 6 6 , < < 6 < , , ; = % @ + + O ",
"> > > > > > > > > > > > > > , , , > > ; = % @ + + $ % = ; > , , , > > > > > > > > > > > > > > > > > > > , , , > ; = % $ + + @ % = ; > > > > > > > > > > > : - % $ + + +   ",
"> > > > > > > > > > > > > > > > > > : ; = % @ + + @ % = ; > > , > > > > > > > > > > > > > > > > > > > > > > > > ; = % @ + + @ % = - : : : ; ; - - ; ; : : ; - % $ + + +   ",
"> > > > > > > > > > , > > > > > > > > ; = % @ + + @ % = ; > > , > > > > > > > > > > > > > > > > > > > > > > > > ; = % @ + + @ % = - ; ; ; - = & = = - ; : ; = % $ + + +   ",
"> > > > > > > > > > > > > > > > > > > ; = % @ + + @ % = ; > > > > > > > > > > > > > > > > > > > > > > > > > > > ; = % @ + + @ % = ; ; ; - = % % % % - ; ; ; - % $ @ + +   ",
"> > > > > > > > > > > > > > > > > > > ; = % @ + @ # % = ; > > > > > > > > > > > > > > > > > > > > > > > > > > > ; = % # @ @ @ % = ; ; ; = % $ $ $ % = - ; ; - % $ @ + +   ",
"> > > > > > > > > > > > > > > > > > ; - & % @ + + @ % = - ; > > > > > > > > > > > > > > > > > > > > > > > > > ; - = % @ + + @ % = - ; - = % # @ @ $ % = ; ; = % $ + + +   ",
"- - - - ; ; - - ; ; - - - - - ; ; - - = % $ @ + + @ $ % = - - ; ; ; - - - ; ; ; ; ; ; ; - - - - - - - - ; ; - - = % $ @ + + @ $ % = - = % $ @ + + @ % & = = = % $ + + + O ",
"% % % % % % % % % % & & % % % * * % % % $ @ + + + + @ $ % % % * * & % % * = = = = = = = % % % % % % & & * * % % % $ @ + + + + @ $ % % % $ @ + + + + $ % % % % $ @ + + + + ",
"$ $ $ $ $ $ $ $ $ $ $ % $ $ $ $ $ $ $ $ @ + + + + + + @ $ $ $ $ % % $ $ % % % % % % % % $ $ $ $ $ $ $ $ $ $ $ $ $ @ + + + + + + @ $ $ # @ + + O + + + $ $ $ $ @ + + + + + ",
"@ @ @ @ @ @ @ @ @ @ @ @ @ @ @ @ @ @ @ + + + + + + + + + @ @ @ @ @ @ @ @ @ @ @ @ # @ @ @ @ @ @ @ @ @ @ @ @ @ @ @ + + + + + + + + + + + + + + + + + + + + @ @ @ + + + + + + ",
"@ @ @ @ @ @ @ @ @ @ @ @ @ @ @ @ @ @ @ + + + + + + + + + + @ @ @ @ @ + + + + + + + + + + + + @ @ @ @ @ @ @ @ @ @ + + + + + + + + + + + + + + + + + + + + + + + + + + + + + ",
"$ $ $ $ $ $ $ $ $ $ $ $ $ $ $ $ $ $ $ $ $ $ $ $ $ $ $ $ $ $ $ $ $ $ $ # @ + + + + + + @ # $ $ $ $ $ $ $ $ $ $ $ $ $ $ $ $ $ $ $ $ $ $ $ $ $ $ $ # @ + + + + + + + + + + + ",
"- - = = = = - - = = = = = = - - = = = = - - - - - - - = = = - - - = * & % # + + + + $ % & = - - - - - - = = = = = = - - - - - - = = = - - - - = * % $ + + + + + O + + + + ",
", , , , , , , , , , , , , , , , , , , , , , , , , , , , , , , , , , , ; = % @ + + $ % - : , , , , , , , , , , , , , , , , , , , , , , , < < < , : - % # + + O X X X + + + ",
"m m m m m m m m m m m m m m m m m m m m m m m m m m m m m m m m m m k 6 : * $ @ @ % - , t z m m m m m m m m m m m m m m m m m m m m m m V G V z 6 , - % @ + O   X O + + + ",
") ) ) ) ) ) ) ) ) ) ) ) ) ) ) ) ) ) ) ) ) ) ) ) ) ) ) ) ) ) )  . .) T z , - % # # & ; 6 m !  .+.) ) ) ) ) ) ) ) ) ) ) ) ) ) ) ) ) ) ) )  .+.) ! m 6 : % @ + O     O + + + ",
"+.+.+.+.+.+.+.+.+.+.+.+.+.+.+.+.+.+.+.+.+.+.+.+.+.+.+.+.+.&.&.:.:.&.) m 6 ; % # $ * : t P +.:.:.:.&.+.+.+.+.+.+.+.+.+.+.+.+.+.+.+.+.+.&.:.1.&.) P t : & # + O     O + + + ",
"+.+.+.+.+.+.+.+.+.+.+.+.+.+.+.+.+.+.+.+.+.+.+.+.+.+.+.+.+.+.+.&.&.+.~ m < - % # $ % : 6 P ) +.&.+.+.+.+.+.+.+.+.+.+.+.+.+.+.+.+.+.+.+.+.&.&.+.) G 9 : % @ + O     O + + + ",
"T T T T T T T T T T T T T T T T T T T T T T T T T T T T T T T ! ! T P t , - % @ @ % ; < z P ! ! T ! T T T T T T T T T T T T T T T T T T ! ! T P k , ; % @ + +     O + + + ",
"z z z z z z z z z z z z z z z z m m z z z z z z z z z z z z z m m z t < : * $ @ @ % - > 6 k z m m z z z z z z z z z z z z z z z z z z z m m z k 6 > - % @ + + X O + + + + ",
"6 6 6 6 6 6 6 6 6 6 6 6 6 6 6 6 6 6 6 6 6 6 6 6 6 6 6 6 6 6 6 6 6 6 , > - % $ + @ $ & ; , < 9 9 6 6 6 6 6 6 6 6 6 6 6 6 6 6 6 6 6 6 6 6 6 6 6 < , ; * $ + + O O O + + + + ",
", , , , , , , , , , , , , , , > > > > > > > , , , , , , , , , , , , > ; = % @ + + $ % - : > , , , , , , , , , , , , , , , , , , , , , , , , , > : - % $ + + + O O + + + + ",
"> > > > > > > > > > > > > > > : ; ; ; ; ; : > > > > > > > > > > > > > - = % @ + + $ % = ; > > > > > > > > > > > > > > > > > > > > > > > > > > > ; = % $ + + + O X + + + + ",
"> > > > > > > > > > > > > > ; ; - = = = - - ; > > > > > > > > > > > > - = % @ + + $ % = ; > > > > > > > > > > > > > > > > > > > > > > > > > > : ; = % # + + + O   + + + + ",
"> > > > > > > > > > > > > : ; - = % % % % = ; : > > > > > > > > > > > ; = % @ + + $ % = ; > > > > > > > > > > > > > > > > > > > > > > > > > > > ; = % $ + + + O   + + + + ",
"> > > > > > > > > > > > > : - = % % $ $ % = - : > > > > > > > > > > > ; = % @ + + $ % = ; > > > > > > > > > > > > > > > > > > > > > > > > > > > ; = % $ + + + O O + + + + ",
"> > > > > > > > > > > > > ; - % % @ @ @ $ % - ; > > > > > > > > > > ; - * % @ + + $ % = ; : > > > > > > > > > > > > > > > > > > > > > > > > > : ; = % # + + + O + + + + + ",
"; ; ; ; ; ; ; ; ; ; ; ; ; - = % $ + + + # % = - ; ; ; ; ; ; ; ; ; ; - = % $ @ + + @ $ % - ; ; ; ; ; ; ; ; ; ; ; ; ; ; ; ; ; ; ; ; ; ; ; ; ; ; - - % $ @ + + + O O + + + + ",
"= = = = = = = = = = = = = = % $ @ + + + + $ % % = = = = = = = = = = * % $ @ + + + + # % % = = = = = = = = = = = = = = = = = = = = = = = = = = = % % # + + + O O     + + + ",
"% % % % % % % % % % % % % % $ @ + + + + + + # $ % % % % % % % % % % $ $ @ + + + + + + @ $ % % % % % % % % % % % % % % % % % % % % % % % % % % % $ @ + + + O   O   X O + + ",
"@ @ @ @ @ @ @ @ @ @ $ $ $ # @ + + + + + + + + @ @ @ @ @ @ @ @ @ @ @ @ @ + + + + + + + + @ @ @ @ @ @ @ @ # # # $ $ # @ @ @ @ @ @ @ @ @ @ @ @ @ @ @ + + + + O O + O X O + + ",
"+ + + + + + + + + @ + + + + + + + + + + + + + + + @ @ + + + + @ @ + + + + + + + + + + + + + + @ + + + + + + + + + + + + + + + + + + + + @ @ @ + + + + + + + + + + + + + + ",
"# # # # # # # # @ @ + + + + + + + @ @ @ # # # # # # # # # # # # # # # # # @ @ @ @ @ # # # # # # # # @ @ @ + + + + + + @ @ # # # # # # # # # # # # # # # # @ + + + + + + + ",
"* & & & * * * % % % # @ + + + @ $ % % * * * * & & & & & & & & & & & & & * * * * * * * & & & * * * * % % $ # + + + + # % % & * * * & & & & & & & & * * * & % % # @ + + + + ",
"> > > > , , , : ; - % # + + @ $ * ; : , , , , > > > > > > > > > > > > > > , , , , , , , > > , , , > : - * % @ + + # % - ; : , , , > > > > > > > , , , , > ; - % $ + + O   ",
"k k k l l z l k 6 > - % @ @ $ % ; , t k z z l k k k k k k k k k k k k k k l l l l l l k k k l z z k t , ; & $ @ @ % = > 6 t l l l k k k k k k k k l z z k 6 , - % @ + O   ",
"( ( ! ! ) ) ) ! m 6 ; % $ # % - , k P ~ ) ) ( ! ! ! ! ! ! ! ! ! ! ! ! ! ! ! ! ! ! ! ! ! ! ! ! ) ) ! P k , - % @ # % ; 6 m ! ) ) ) ! ! ! ! ! ! ! ( ) ) ) ! m 6 : * $ + O   ",
"+.+.+.+.&.:.&.+.T t : * $ @ % - , m ) &.:.:.&.+.+.+.+.+.+.+.+.+.+.+.+.+.+.+.+.+.+.+.+.+.+.+.&.:.:.+.) m < - % # $ & > t P +.&.:.:.&.+.+.+.+.+.+.&.&.:.:.+.T k , = $ + O   ",
"+.+.+.&.&.&.&. .P t : * $ @ % - , m ) +.:.:.&.+.+.+.+.+.+.+.+.+.+.+.+.+.+.+.+.+.+.+.+.+.+.+.&.:.&.+.) m < - % @ $ & : t P  .&.:.&.&.+.+.+.+.+.+.+.&.:.&.$.T k , = $ + O   ",
"! ! ! ! ) ) ) T m 6 ; % $ @ % - , k P ! ) ) ) ! ! ! ! ! ! ! ! ! ! ! ! ! ! ! ( ( ! ! ! ! ! ! ) ) ) ! P k , - % @ # % ; 6 m T ) ) ) ) ~ ! ! ! ! ! ! ) ) ) T m 6 : * $ + +   ",
"m m m m m m m m t , - % # @ $ = : 6 k m m m m m m m m m m m m m m m m m m m m m m m m m m m m m m m k 6 : = $ @ # % - , t z m S m m m m m m m m m m F m m t , ; % @ + +   ",
"9 9 9 9 w w w 6 , : = % @ @ # % - > < 9 w w w 9 9 9 9 9 9 9 9 9 9 9 9 9 9 9 w w w w 9 9 9 9 9 w w 9 6 , - % $ @ @ $ = ; , 6 w t t w w w 9 9 9 9 w w w w 6 , : = % @ + + O ",
", , , , , , , , > - % $ @ + @ % = ; > , , , , , , , , , , , , , , , , , , , , , , , , , , , , , , , > ; = % @ + + $ % - > , , , , , , , , , , , , , , , , > - & $ @ + +   ",
"> > > > > > > > ; - % $ + + @ % * ; : > > > > > > > > > > > > > > > > > : : ; ; ; ; : > > > > > > > : - = % @ + + $ % - ; > > > : ; ; ; : : > > > > > > > : - % $ + + O   ",
"> > > > > > > > ; - % $ + + @ $ * - : > > > > > > > > > > > > > > > > : ; - - = = - - ; > > > > > > : - = % @ + + $ % = ; : : ; - - = - - ; : > > > > > > ; - % $ + + +   ",
"> > > > > > > > ; = % $ + + @ % & - : > > > > > > > > > > > > > > > > ; - = % % % & - ; : > > > > > : - = % @ + @ $ % - ; ; ; - = % % % = - ; : > > > > > ; - % $ + + +   ",
"> > > > > > > > ; - % $ + + @ % & - : > > > > > > > > > > > > > > > > ; - % % $ $ % = - : > > > > > > - = % @ + @ $ % - ; ; ; = % % $ % % = ; : > > > > > ; - % $ + + +   ",
"> > > > > > > > ; = % $ + + @ % % - ; > > > > > > > > > > > > > > > : - = % $ @ @ $ % = ; > > > > > > - & $ @ + + $ % = ; ; - * % # @ # % & - ; > > > > > ; = % $ + + +   ",
"; ; ; ; ; : ; ; - = % # + + @ $ % - ; ; : : : : ; ; ; ; ; ; ; : : ; ; - % $ @ + + # % = - ; : : : ; ; - % $ @ + + # % = - - = % $ @ + @ $ % = ; : > : : ; - = % $ + + + . ",
"- - - - - - - - = % $ @ + + @ # % % = - - - - - - - - - - - - - - - - % % # + + + @ $ % = = - - - - = % % $ + + + @ $ % * = % % @ + + + @ % % = - - - - - = % $ @ + + + + ",
"% % % % % % % % % $ @ + + + + @ $ % % % % % % % % % % % % % % % % % % % $ @ + + + + @ $ % % % % % % % % $ @ + + + + # % % % $ # + + + + + # % % % % % % % % % # + + + + + ",
"$ $ $ $ $ $ $ $ # @ + + + + + + @ @ $ $ $ $ $ $ $ $ $ $ $ $ $ $ $ $ $ @ + + + + + + + @ # $ $ $ $ $ $ @ + + + + + + @ @ $ $ @ @ + + + + + @ @ $ $ $ $ $ $ $ @ + + + + + + ",
"+ + + + + + + + + + + + + + + + + + + + + + + + + + + + + + + + + + + + + + + + + + + + + + + + + @ + + + + + + + + + + + + + + + + + + + + + + + @ + @ + + + + + + + + + ",
"+ + + + + + + + + + + + + + + + + + + + + + + + + + + + + + + + + + + + + + + + + + + + + + + + + + + + + + + + + + + + + + + + + + + + + + + + + + + + + + + + + + + + O ",
"+ X + + + + + + O + + + + + + + + + + + + + O + + + + + + + + + + + + + + + + + + + + O O O O O + + O O + + + + + + + + + + + + + + + + + + + + O O + + + + O + + + + + + ",
"                X + + + + + + + + O                                   O + + + + + + + O O           X o + + + + + + + O   O O + O + + + + + O O           O O O + + O + + "
};
