/* XPM */
static char *_db6652eb88d4061e93dd9c0691a25b3dwVipnFkEdirwhvq[] = {
/* columns rows colors chars-per-pixel */
"85 85 256 2 ",
"   c #0D0704",
".  c #130501",
"X  c #140B0A",
"o  c #1A0A06",
"O  c #1C150C",
"+  c #181309",
"@  c #1D1713",
"#  c #160F0C",
"$  c #240A06",
"%  c #360C03",
"&  c #231B0D",
"*  c #28160A",
"=  c #36170A",
"-  c #270D15",
";  c #241313",
":  c #2B1514",
">  c #241B13",
",  c #2B1B13",
"<  c #2C1519",
"1  c #2C1C1B",
"2  c #241C1A",
"3  c #341C15",
"4  c #331C1C",
"5  c #3A1D1C",
"6  c #371815",
"7  c #2B250C",
"8  c #36260C",
"9  c #2B2214",
"0  c #2C241C",
"q  c #262315",
"w  c #342413",
"e  c #342B14",
"r  c #34231C",
"t  c #3B221C",
"y  c #352B1B",
"u  c #3B2B1B",
"i  c #3B2815",
"p  c #363214",
"a  c #3B3515",
"s  c #3C3916",
"d  c #3C351A",
"f  c #3D391A",
"g  c #33321A",
"h  c #2E3217",
"j  c #2E1B21",
"k  c #3C2322",
"l  c #372823",
"z  c #3C3625",
"x  c #2F2828",
"c  c #1C1F24",
"v  c #49190F",
"b  c #462718",
"n  c #542A15",
"m  c #5B2D15",
"M  c #552D1A",
"N  c #5A2E1B",
"B  c #552517",
"V  c #423B1B",
"C  c #443417",
"Z  c #5C321C",
"A  c #583119",
"S  c #4B230E",
"D  c #62351C",
"F  c #65391D",
"G  c #67381B",
"H  c #68281A",
"J  c #472826",
"K  c #572A25",
"L  c #483827",
"P  c #553122",
"I  c #5B3422",
"U  c #583928",
"Y  c #573933",
"T  c #4C3232",
"R  c #623523",
"E  c #653A24",
"W  c #6A3C24",
"Q  c #6C3D2A",
"!  c #64382A",
"~  c #723C25",
"^  c #763D2C",
"/  c #683834",
"(  c #733633",
")  c #451A21",
"_  c #56442A",
"`  c #584736",
"'  c #4C4430",
"]  c #6D4325",
"[  c #6E432B",
"{  c #65452B",
"}  c #734425",
"|  c #72442C",
" . c #79462A",
".. c #74492D",
"X. c #7A4C2D",
"o. c #7A4725",
"O. c #7C512E",
"+. c #6D4432",
"@. c #674838",
"#. c #734532",
"$. c #754A33",
"%. c #7B4C33",
"&. c #754C3A",
"*. c #7C4E3A",
"=. c #794535",
"-. c #7D5134",
";. c #7C533B",
":. c #75533A",
">. c #66553B",
",. c #6F431E",
"<. c #553943",
"1. c #694E42",
"2. c #764E40",
"3. c #6B5647",
"4. c #745342",
"5. c #7C5343",
"6. c #775A4A",
"7. c #7D5C52",
"8. c #6B5F53",
"9. c #7A6858",
"0. c #75644B",
"q. c #63574B",
"w. c #8E3C37",
"e. c #834D2C",
"r. c #84522D",
"t. c #8C562E",
"y. c #824E33",
"u. c #834D3A",
"i. c #845334",
"p. c #8A5535",
"a. c #8D5935",
"s. c #84543B",
"d. c #8A553B",
"f. c #86593C",
"g. c #8C5A3C",
"h. c #855936",
"j. c #925B35",
"k. c #925C3C",
"l. c #955A38",
"z. c #974937",
"x. c #8D613D",
"c. c #8C6637",
"v. c #95613C",
"b. c #9A633E",
"n. c #976839",
"m. c #9B6026",
"M. c #A56C3F",
"N. c #845542",
"B. c #8A5542",
"V. c #855942",
"C. c #8B5C42",
"Z. c #8C5D49",
"A. c #845849",
"S. c #925D42",
"D. c #965D47",
"F. c #98554F",
"G. c #8E6242",
"H. c #8E624A",
"J. c #84654B",
"K. c #946243",
"L. c #9B6543",
"P. c #9D6944",
"I. c #93634B",
"U. c #9A664A",
"Y. c #966A4B",
"T. c #9C6B4B",
"R. c #956845",
"E. c #9D724C",
"W. c #85685A",
"Q. c #9B6C52",
"!. c #966A56",
"~. c #8C745B",
"^. c #9B7357",
"/. c #A16C45",
"(. c #A36D4B",
"). c #AA6E4C",
"_. c #A47244",
"`. c #A4724C",
"'. c #AB734C",
"]. c #AC7449",
"[. c #B2764B",
"{. c #B27A4D",
"}. c #A36E52",
"|. c #A47353",
" X c #AB7553",
".X c #AE7954",
"XX c #A57559",
"oX c #AB765A",
"OX c #AC7B5B",
"+X c #A4795A",
"@X c #B37C55",
"#X c #B27D5B",
"$X c #B47956",
"%X c #987866",
"&X c #917668",
"*X c #A87C63",
"=X c #B37E61",
"-X c #A4746E",
";X c #B2534C",
":X c #CB554B",
">X c #E85C52",
",X c #D56454",
"<X c #B58155",
"1X c #BD8355",
"2X c #B4815B",
"3X c #BA835B",
"4X c #BD895E",
"5X c #B5895E",
"6X c #9B826A",
"7X c #9B877A",
"8X c #8E8170",
"9X c #A98468",
"0X c #B38362",
"qX c #BB8563",
"wX c #BE8A62",
"eX c #B88969",
"rX c #A88879",
"tX c #B49273",
"yX c #C2875A",
"uX c #C9925B",
"iX c #C38C64",
"pX c #C98C64",
"aX c #C48B69",
"sX c #C78B68",
"dX c #C5916A",
"fX c #CB956B",
"gX c #CE996C",
"hX c #C89365",
"jX c #D39B6D",
"kX c #D6986B",
"lX c #C99975",
"zX c #D49D72",
"xX c #DB9D73",
"cX c #C58D76",
"vX c #D6A174",
"bX c #DAA376",
"nX c #D5A272",
"mX c #E1A874",
"MX c #9D8988",
"NX c #9B908E",
"BX c #A48A86",
"VX c #A79487",
"CX c #B69A86",
"ZX c #A88F92",
"AX c #B9A389",
"SX c #B7A393",
"DX c #DBB999",
"FX c #CBAB8D",
"GX c #E5BE98",
"HX c #E0B58E",
"JX c #D6BCA4",
"KX c #D5AD93",
"LX c #E7C29D",
"PX c #D8C5A9",
"IX c #E6C5A8",
"UX c #ECD1B4",
/* pixels */
"N B N B M N [ $.$.$.&.$.C.Z.I.Z.Z.Z.*X0X0X0X0X0X0X0X2X0X0X0XT.R.T.K.K.U.i.X. .| %.%.| Q | | #.#.] W W W W W X.G.g.G.g.R.h.G G G W G } -.%.%.-.X.g.|.|.XXOX|.XXoXOXOXOXOXOX",
"N M B B B M #.$.&.&.$.$.C.Z.Z.Z.Z.C.OX0X0X0X0X0XOX2XOX0X0XeX(.R.R.R.U.T.i.|  .X.%.%.| | #.[ [ [ ] W E W W W $.G.G.K.g.R.h.F F W F G } -.-.-.i.%.s.=X*XXX|.XX=X=XOX.X.X.X X",
"B n n N M M $.#.$.$.$.$.Z.I.Z.Z.Z.C.OX0X0X0X0X0X0X0X2X2X#X0X(.K.U.R.K.T.i. .%.X.X.X.| | [ Q #.[ ] W Q ] W W $.G.G.G.g.G.i.F F W W F | %.%.%.-.$.s.+XXX+XoXXXoXXX.X$X$X$X.X",
"M A n Z n n $.#.$.*.$.$.C.Z.C.Z.Z.C.oX2X2X#X2X#X2XOX2X#X=X0X}.U.U.U.K.U.d. .y. .X.X.| #.| [ #.] [ Q E Q W W $.H.x.x.x.R.f.W F W W F | -.-.-.-.-.g.+X|.OXOXXXOX#X.X.X.X.X X",
"n n S n S n #.$.#.$.$.*.C.H.Z.I.I.K.=XqXeX0XeX0XeX=XeXeXeX0XXXI.U.}.T.I.i.}  .} } | | | #.| [ Q E E E E F F ..C.g.x.x.g.-.G D D D D F ..X.X.X.X.h.+X*X*XXXOXOX#X#X#X#XOXOX",
"E W W ] W ] $.$.| $.#.$.$.;.*.5.;.%.Q.|.|.|.XXXX^.I.Y.Y.Y.I.I.C.d.C.C.f.S.S.S.S.g.K.%.Q | #.| | #.$.%.....X.f.I.R.R.R.K.g.p.i.p.i.p.g.K.R.K.v.K.I.C.I.H.H.H.I.T.Q.Q.Q.Q.Q.",
"U.Q.T.Q.Y.I.%.| $.$.[ [ Z M M M M n $.*.%.*.*.5.M v v v v S D W W W ~ ~ }.eX0XeXeXeXI.| #.$.| | V.I.Y.K.K.R.T.XXT.E.|.|.OXiXdXdXdXdXdXdXdXaXiXdX^.N n n M n A &.&.&.&.&.&.",
"L.L.K.K.U.Q.$.| | | | #.A M M M P M &.5.;.5.5.5.I S M B S S R #.~ ~ ~ G T.eX0XeX2XeXK.Q $.=.| | s.I.Y.R.K.R.U.}.^.E.T.T..XiXiX4XiXiXqXqXiXqXqXaX*XB P P U J P 2.4.4.2.5.&.",
"U.U.L.U.U.I.$.| $.#.#.+.I M M P P B &.5.5.5.5.N.I S S S M S R W ~ W ~ G (.qX<X3X2XeXK.| | #.%.] i.R.c.n.v.R.R.E.^.|.|.T..XwXiXqXqXiXiXiXiXiXiXpX+XM P J P M I 4.&.&.&.&.&.",
"U.U.D.K.I.I.$.| $.| #.#.Z A M A I B *.5.5.5.5.5.I b M M = B E ~ ~ ~ ~ G U.eXeX0XcXcX!.5.&.=.&.#.B.I.G.R.S.S.}.T.T.^.(.T..XwXqXqXiXqXiXiXiXiXiXpX*Xn P P Z M I 4.:.&.2.&.&.",
"U.U.U.T.T.I.%.| | | ] ] A M M M m n &.5.4.4.4.4.P = S S b S D ^ ~ W $.N.%X&X7.6.` >.' ' ` q.8.8.W.&XrX!.Q.U.L.|.|.|.|.|.#XaXiXiXiXiXiXaXpXiXpXdX+XS M P M n P 1.&.&.2.&.@.",
"f.f.f.g.g.f.-.%.%.%.%.%.W E E E E Z A.W.W.W.W.W.@.U I I P I ! $.W.6.@.u , 0 2 @ 2 0 > 2 2 @ @ @ @ @ * @.!.s.G.Y.R.I.U.K.`.#X#X@X@X@X@X@X$X$X@X@X|.Z ! ! E ! @.W.W.W.W.W.W.",
"..| | | | %.f.C.f.f.g.g.%.%.%.%.*.*.-XBXBXBXBXBX7.@.5.&.5.7.~.` l , & > > @ > x k k 4 < < : < < c q T W.@.E ..g.f.f.f.i.k.T.P.P.P.L.L.P.L.L.b./.U...&.&.%.&.7.BXBXBXZXBXBX",
"..| ........g.g.f.d.d.g.%.%.%.%.=.#.%X7XMXMXMXBX7.2.#.2.W.` y & < 4 4 1 r k 4 : ; ; ; ; ; 1 1 1 j l W.! Q | y.k.g.g.g.d.K.T.L.P.P.L.L.b.L.b.b.L.g.-.;.$.%.$.6.BXNXNXNXMXMX",
"....$.$.$...f.i.d.d.d.g.X.X.%.%.%.&.%XBXMXMXBXBX7./ 4.&XT l O 1 4 < : : t : 3 3 : : : 4 4 4 1 1 4 3./ Q W Q | S.g.g.g.g.K.T.L.P.P.P.L.P.P.P.P.P.v.O.;.%.%.#.6.MXNXNXNXMXMX",
"............C.f.f.d.d.g.X.X.X.%.X.$.%X7X7X7X7XrX7.4.~.u q 2 < 4 : 4 r , r , r , : $ : 4 4 4 1 1 L W.+.W [ { ;.g.g.g.g.d.K.U.L.T.P.L.L.L.P.P.P.P.b.X.X.-.X.#.7.MXNXNXNXMX7X",
"] ] | ] W } f.Z.f.f.g.f.%.X.%.%. .;.%XBXMXBXBXBXB.3.z 0 * : < 4 4 4 4 4 , 9 + : 4 5 6 4 4 1 l 4 7.U F R ! F } f.f.f.f.f.k.L.P.L.P.T.b.L.v.b.b.b.H.| ..| ] { 6.VXVXVXVXVXBX",
"`.`.}.|.`.(.g.i.f.d.f.f.i.i.i.i.d.i.!.%X&X%X%X%XQ.BXx O 3 , j j 1 1 < * . .   # t 5 4 4 1 2 1 - ` ^.T.K.U.n.v.(.R.R.L.L.P.P.P.P.L.L.(.#X<X<X@X3X<X`..X`.]. X^.~.%X%X&X%X%X",
"jXzXzXzXzXgXv.i.i.y.i.d.g.S.K.S.S.d.S.D.d.g.d.p.lXBX; # > > x ; O o $ $ $ $ . . : < ; ; # X X . * tXhXhXfXhX<X X X X X X'.(.(.(.(./.#XbXbXvXzXbXbXbXmXnXmXmXgXx.f.f.f.f.f.",
"kXkXkXkXkXjXt.r.i.i.y.i.g.g.g.g.D.k.k.l.l.l.l.j.lX@.. $ . @ @ o $ % B ^ B.u.J . . # # X         . %X4XuXyXuX1X).].].'.'.(./.L.P./.b.$XbXvXzXzXvXxXxXxXkXxXxXgXp.j.j.j.j.l.",
"fXkXkXkXfXjXt.i.p.p.i.p.k.S.g.S.C.g.j.j.j.l.k.k.lXN./ ) . X   $ B w.;X,X,X;X( $   X # X X X X X   9.wXuXyXuXyX).[.].].'.`./.P.(.(.L.@XvXzXzXzXzXbXbXxXbXxXxXzXl.a.a.a.g.g.",
"kXjXkXkXjXgXi.%.y.i.y.i.g.S.g.K.C.K.k.K.k.k.S.B.gXQ.!.K o . $ N ;X,X>X,X:X:Xw.%   X X X X X       6.wXpXpXuX<X X].`.`.'.(.P.L.P.(.L.@XvXzXzXxXzXjXjXvXbXnXjXfXr.g.g.g.g.g.",
"jXjXkXkXjXgXj.i.i.i.e.e.g.g.d.g.p.k.d.g.k.k.k.g.zX*X}.! o . 6 w.:X>X>X>X>X:Xz.$   X # X o $ $ w 3.9XhXpXpXhX1X X.X X X X'.(./.(.(.P.#XbXzXzXzXzXbXbXbXbXbXbXgXv.d.d.f.f.g.",
"yXyXyXyXyXyXa.i.i.a.i.d.T.|.Q.|.).).k.d.a.a.l.j.'.}.F.K o . % z.:X>X>X>X>X:Xz.o . + 2 < < 5 J 3.tXwX1XyX3X1X[.l.b.L.L.b.v.j.a.a.S.d./.pXiXyXyXsXyX<X3X@X<X4X<Xp.g.g.g.g.j.",
"].].].].].].d.d.p.d.g.d.OX<X2X2X<X<Xv.a.a.a.a.a.p.}.A.b o $ % ^ ;X:X,X,X:XF.N $ q < 5 ) T T L 0.JXFXeX X'.<Xb.e.r.r.i.i.-.X... .#...i. X'. X'. X}.i.f.V.B.V.C.g.g.g.f.g.k.",
"[.[.[.[.[.'.j.d.p.p.d.p..X2X.X2X@X<Xv.a.a.a.a.a.j.XX+.6 . * % % H H H v v % . . r r J J T t w >.FXPXFXlX XqXP.O.i.i.i.i.i.%. .X.#.| p.#X$X$X$X#X|.g.I.H.H.H.Z.g.g.g.g.g.k.",
"[.[.[.[.[.'.a.d.p.f.d.i..X<X.X<X@X#Xl.a.a.a.a.j.g.I.!.) r l T b = $ % % % * ; @ < T T J t $ 8 9.IXUXPXJXFX0X^.O.i.i.i.i.i.X...X.-.X.g.#X X$X X X|.g.G.Z.Z.Z.Z.C.g.g.g.g.S.",
"[.[.[.[.[.'.a.p.d.d.d.p..X<X@X<X@X#Xl.a.a.a.a.a.p.S.!./ J k k T T J J t k 4 1 x T r * $ o i &XIXUXDXLXDXFXFXY.p.p.i.i.i.i.X.X.X.%.| g.#X X$X$X$X|.g.H.Z.Z.Z.Z.C.g.g.g.C.C.",
"[.[. X X[.'.a.d.d.d.d.p..X<X@X<X@X#Xl.a.a.j.a.j.S.B.D.-XY k k 5 5 5 1 < l J k k > * $ b J.CXJXIXGXDXFXFXAXFX^.e.r.r.r.r.X...| |  . .g.oXoX#X#X#X|.S.I.H.I.Z.C.C.C.g.g.C.S.",
"/./././././.p.d.d.d.d.p..X<X<X<X#X<Xv.j.j.j.j.j.u.u.u.A.&XL * t t < l l 1 4 : o . = 6.FXDXIXIXFXtX6XtXAXKXeXL.P.P.R.P.P.R.K.K.K.K.g.K.T.P.P.T.P.I.%.;.%.*.%.*.C.C.C.g.g.S.",
"j.k.S.k.v.L.y.d.p.i.d.i..X<X<X<X<X3Xb.j.j.j.l.l. .~ | J.FXrX_ = = t w * * $ $ C :.tXDXLXDXFX6X_ C i ' 0.9XC.K..X'.'.'.'.`.`.`.|.|.|.L.g.p.p.p.g.f.W W R W W | C.C.C.g.g.k.",
"v.L.K.K.v.K.i.d.p.y.d.p.$X3X<X3X<X3Xb.j.l.l.l.l.u.=.[ ~.PXUXFX6.M = t J Y 4.%XFXDXIXGXHX0X{ b i g z C d _ %XK.'.`.'.'.'.`.`.`.`.T.|.R.g.g.g.g.k.d.W ] Q | W | C.S.S.g.k.k.",
"K.K.K.S.k.K.i.i.i.d.g.r.@X1X@X4X3X<Xb.j.l.l.l.k.=.A.&XSXJXIXIXGXFXlXFXHXHXGXLXLXDXLXDX~.C b a a a f s a a ' 3.7X|.`._._.'.).(.E.`.`.P.j.a.g.g.g.f.W [ ! Q Q #.Z.C.g.g.g.k.",
"D.K.K.K.k.L.p.f.i.i.i.y.@X4X3X3X$X3Xv.t.b.l.j.l.%.W.%XSXJXIXIXDXIXGXGXLXLXGXGXGXDXFX9X{ 8 8 a V a s s s d d d ' 9X`.{._.`.(.(.E.`.`.P.a.p.j.k.k.i.E Q Q Q Q | C.C.g.k.k.k.",
"k.S.k.v.k.K.i.i.i.i.i.g..XwX0X0XqXqXP.g.l.j.j.v.$.:.W.&XVXFXDXDXDXDXGXLXGXKXFXFXtXJ.P 8 u L V p s s a f L d d e >.9X'._._._.'._.`.`.P.k.a.a.a.a.g.E Q Q Q W } C.g.a.j.j.k.",
"(.(./././.(.g.d.p.p.f.f.-.h.i.-.p.X.^.OX X X$X X%X6.L u u 4.W.tXAXtXtX9X~.:._ A C C i i u p p V V V s a f a ' d h ~.+X_._._.'.(._.`. X3X<X3X<X3XOXX.%.%.%.X.i.`.`.`.`.`.|.",
"'. X'. X|.|.k.d.d.d.f.s.D m m A m S +XtXeXeXeXeX6.w & + , o * L L L L L C u i w w e e y d d p d s s s s f p L p z L 9X/._._._.`._._.<XvXvXvXvXbXdXa.a.h.a.a.j.@X@X@X<X#X#X",
"].'.`.'.'.`.g.i.d.g.g.C.W I ! ! ! Z *XeX0XeX9XtXq 2 > O O u , > 9 9 w r w r y 9 y z u y g p f f a s s s V V V d z g ~.|.]._._.`._._.{.vXjXgXhXjXhXr.t.t.i.t.t.{.{.{.{..XoX",
"'.'.].'.'.'.j.i.d.d.f.s.Q I ! U ! Z +XeXeXtXtX6X9 X @ > 9 * + q r y z u u u y q r y e e e e f p f f s s C V p d e ' ` 9X'.].`.'.'._.@XvXgXjXgXvXpXr.a.p.i.t.t.{.@X@X<X@XOX",
"[.'.).].`.'.j.i.B.d.f.s.Q K ! ! / N +XtX2X0XtX4.@ 2 2 & + & & q w y u u y u y , y y y d p p f a f f s s C V e V L h g *X).].'.`.`.`.@XvXgXzXzXzXaXr.g.p.i.p.j.@X{.{.{.@XOX",
" X X`. X|.|.g.i.f.f.f.s.W R R R R Z *XeXiXeXrXx @ @ O > & > & r r u u u J u , w w y z y e f s a f s d f d s V s z d w 3.9X/.].|._._.<XgXvXjXjXvXiXa.r.a.r.r.a.#X@X@X#X#X=X",
"g.k.v.L.K.K.i.%.X.X.%.s.| $.=.&.$.#.Q. X`.OX1.@ @ > q O > & , , w w w L 3.8.L w w e d e e d a a f a f f d s f s g p & ' %X`.].`.`./.'.@X@X@X@X@X<X<XqXqX3XqX#XP.v.v.K.K.K.",
"k.k.g.g.a.f.X.X.....| %.%.*.s.s.s.;.Q.(.`.^.` 2 @ q q O > & , , u w w L 1.3.C * 8 i d e i a a a f s f f d s f s g p 7 l %X`.M.P.`./.(./.P././.P.].fXgXfXfXgXaXr.a.a.g.j.g.",
"g.k.g.g.g.C.%.%.X.....%.%.%.u.u.;.s.U.(.(.^.` 2 > 2 O q > & * 9 w w i i C L i w = w u e i a a a f s s f s f f a h 7 q 0 &X|._.`.(.`.`.`./.`.`.`.{.gXfXfXpXhXdXk.g.j.g.k.g.",
"g.k.k.K.g.C.X...........%.y.u.y.=.s.L.|.Y.9XL O & > O q & & O , = u u i w i 8 w = 8 u e e p a d f s f f s f f p 7 7 q 0 6.|./.`./././.`./././.P.'.dXfXfXfXfXqXk.k.k.k.S.S.",
"g.K.k.g.i.f.X.$.#.$.%.%.s.*.s.u.s.%.}. XXXW.* 9 & > q O > & & & 9 w w u C L u 7 , w y y e d d d f s f s f f d e 7 e q 0 ` +X/.`.'.(.`.`.`.(.`.P.'.fXgXhXfXzX3Xp.S.S.S.S.S.",
"k.k.k.g.g.C.%...$.%.%.$.s.s.u.u.B. .}.T.^.@.+ q & & q O > & > > 0 w 9 y L >.L y 9 9 y y y d d d f s s s s f a 7 7 7 q q 3.|.(.|.}.(.(.|.`.|.|.|. XfXfXpXpXgXwXS.S.S.S.S.S.",
"|.|.|. X|.T...Z E E E R $.$.%.%.| =.d.K.J.6.' & & & O > > > O 2 0 r 0 r u ' z 9 9 q y y y d d V s s s s s f a 7 9 & 9 q 9.x.j.C.d.g.S.S.C.S.K.C.b.2X#X3X3X@X2X(.}.}.}.}.}.",
"=X=X#X#X@X#XW A I M Z I Q | | | W | y.B.5.%X9.8.C * * * * * ; r z 9 r w 8 8 y 0 , 9 e g g f f f f f a a V V C 8 7 > y >.J.s.N.s.s.;.s.V.V.V.C.d.S.#X X.X.X X X X XoXoXoXoX",
" XoX#X#X#XOXW I ! I R R [ | | | ] W B.B.V.%XW.8X8X9.` 7 9 , , r 9.l 0 q u w w l 9 e 7 e ' f p s f V V f s s s s 7 l y ~.O.C.s.s.B.s.s.f.f.C.Z.C.S.=XOX#X#X$X#XoX X XXXXXXX",
"#X0X0X#X#X XE I I N I Z ] | | | [ ] ;.H.N.A.%X6X&X7X7X7X9.Y ` 6XrXY l 0 > 9 z * w 7 7 p a s V V p s f s a a s V g l 1.:.O.d.s.C.s.s.s.f.V.Z.C.V.C.#XOX X XOX X X|.|.XXXXXX",
" XOXoX X=XoXW I R I R R | $.| | ] | s.s.V.V.5.^.W.3.9.9.&X&XrX9XeXW.3 l 0 L ' _ i u V V p a V 8 s s a s s f s s L L %XO.o.d.u.h.s.s.f.C.C.V.V.s.K.=X#X#X.X#XoX XXX X XXX|.",
"#X=X=XOX=X XQ R I Z D N | ..} } ..[ ;.V.s.C.Z.V.!.rX&X~.rXtXXX|.oXtXJ., 0 l 9.>.u ` >._ C 8 C _ C C a a s s p p V @.J.O.a.d.B.-.s.s.f.g.g.f.g.C.k.oXOX.X X.X X#X X X X X|.",
"g.g.S.C.K.S.%.;.s.s.s.s.|.OX X X|.0Xf.;.s.$.%.| %.] $.+.5.Q L.`.(.T.9X%X` l L d w ` 6XVX~.{ C 8 C C C a a a f L w U %XY.C.! ! ..] W X.g.f.a.g.f.f.U.R.K.K.P.(.qXsXsXsXsXiX",
"g.i.d.y.y.d.i.Z.s.s.d.d.OXqX3XqXqX2Xg...[ ;.$.;.Q E E Q R D S.`.|.P.|.XX%XY , w 8 w 3.tXCXrX~.>.V C C C C V p e y b @.rXW.1.W.U E m } g.a.a.a.i.g.K.g.k.j.k.(.cXsXsXsXsXiX",
"g.i.C.d.d.d.d.s.f.d.i.p. X3X@X@X{.iXi...$.$.#.$.] E Q W Q R I.|.|.(.).`.9XL w 9 i w L 6.6XCXCXrX%XJ.:.0.0.0.` L r 3 5 t k l < _ V.E } g.a.t.j.a.a.g.v.L.L.k.L.sXsXsXsXsXiX",
"s.s.B.s.g.g.B.B.d.i.i.p. X3X<X<X#XqXg.| *.$.$.$.Q Q Q / Q E g.|.}.Y.E.(.eX1., 1 , 3 6 b U 4.~.rXCXAXAXAXAXVXW.Y t t 4 k k J J 3 T 6.[ f.a.k.a.k.j.L.K.K.K.k.L.sXpXpXpXpXiX",
"g.g.B.i.i.i.s.B.d.f.f.g.OXqX2X3XqXqXg.| $.$.%.%.] Q ! Q Q W C.|.}.|. X(.^.&Xr - * * 3 6 6 t b Y @.6.0.0.4.@.P 3 3 3 t 5 4 J J J k J V.f.g.a.g.i.j.k.R.K.K.k.P.sXpXpXpXsXsX",
"r.p.d.a.j.k.i.s.s.f.d.d.XX=X#X#X0X=XS.%.%... . .} W W W W W g.E.T.`.P.T.rXL , - 1 : 3 t t t 6 = t t w = = = = 6 r k t 5 ) 5 ) / <.5 !.g.l.a.k.k.K.a.k.x.K.K./.aXsXsXsXaXiX",
"3X<X#X@X@X Xy.~ Q ~ ~ ~ C.S.C.S.g.g.f.g.k.k.R.K.f.i.f.f.f.i.U.|.T.T. X^.W.O + < ; $ 4 t 5 t t 5 t 3 = = 6 5 ) J 4 k 3 t b 6 ) J <.K 9XqX@XpX3XqX Xi.i.-.h.i.i.K.k.k.k.k.k.",
"1X<X<XyXyX3Xe.E W W W W s.B.s.B.s.f.g.R.R.v.v.v.g.g.g.g.k.f.R.T.T.T.}.-Xr , ; - ; ; 4 4 1 4 4 k : 3 4 4 6 6 6 5 k 4 4 r 3 J J 6 Y tX+X4XjXyXiXgX0XX.X...X.X. .e.f.f.d.d.g.",
"1X1XyXyXyX3X .W Q Q Q W s.N.N.N.B.s.g.R.v.v.L.v.k.g.k.k.k.g.T.T.T.T.!.6.+ ; < ; < ; ; ; ; < < : 4 t 4 6 6 5 k k k 4 J r r r * L H.Q..XhXuXpXyXiX2X .O.X.-.-.i.f.f.i.i.f.d.",
"1X1X1X1X1X<X .Q ~ ~ Q Q N.A.N.A.V.s.k.v.l.v.v.v.k.g.j.a.g.g.T.T.T.!.%X> @ j - > ; ; < ; ; ; ; k 4 1 4 4 t k l r 4 l l 1 r w b J.0XP._.yXyXpXpXfX0X .i...%.X.X.f.s.f.d.d.g.",
"1XyXyXyXyX3X .W W W W W N.A.N.A.N.s.S.b.v.b.v.v.k.j.k.a.j.a.U.U.Q.^.` # 2 - < O < < ; # ; ; ; ; 4 4 4 r t 4 r l r l 1 l r Y %X^.P./.].fXpXsXsXpX0X .-...-.%.%.d.f.f.f.d.g.",
"1X[.yX3X3X.X-.{ #.&.+.&.5.N.N.A.s.s.C.K.v.v.R.K.k.L.S.k.j.L.R.T.(.+XU ; < < - 2 2 2 X ; 1 O < - < T t 1 x x x 0 x x 1 l { +X|.v.P.P.{.4XiXiXiXiX#Xs.:.-.h.:.:.g.f.s.s.f.f.",
"p.p.t.t.j.K.9XrXrXrXrXrXV.*.*.&.&.;.s.f.a.f.f.f.'.@X'..X X@X/.n.j.Y.1.$ ; : ; ; + X 1 O # 2 # - 6.4.W.3.T r ; 3 T Y 3.%X^.K.p.b.a.p.a.v.v.l.l.k.!.rX7XrXrXBX7X:.:.:.;.;.s.",
"e.p.y.r.r.u.rXZXBXBXVXCX6.$.;.&.2.&.;.f.f.f.g.f.'.<X@X@X@X@XM.t.b.g.9.$ < $ $ $ * 3 * , X @ < Y 9Xn Z U 6.W.W.-X^.^.Q.K.g.g.a.j.k.g.k.k.j.j.k.k.W.BXMXNXBXNXMX4.:.:.:.;.;.",
"d.y.p.r.p.B.BXZXBXZXMXBX7.&.&.:.2.&.N.C.g.g.g.g.|.#X#X#X$X#X/.l.m.x.%Xt 4 6 b v 6 6 * $ j < 3 CXQ.n E P / P #.I.k.k.v.k.L.v.l.j.d.d.g.g.g.k.k.g.I.BXNXMXMXZX-X;.4.4.:.:.:.",
"d.e.i.r.i.B.BXZXZXZXMXBX7.2.@.2.&.&.s.g.d.d.d.p.'.#X$X@X$X@X/.j.m.n.*X1.Y K K K K B v J 4 - %XFX!.N Q N ! N  .L.L.k.D.k.v.p.a.a.g.g.k.v.k.k.k.g.I.BXBXMXBXZX%X;.4.4.:.:.:.",
"e.g.r.p.i.%.rXBXBXBXZXZX6.&.5.2.&.;.B.C.g.k.k.g.@X3X@X<X<X<X/.t.n.g.!.6.Y / ( ( ( ( R K K W.lXbX^.v D I Z m } L.D.D.U.k.S.k.k.f.g.g.k.k.a.j.j.j.!.BXMXBXBXNX7X4.4.:.:.:.:.",
"e.a.e.p.p.i.9XrXrXrXrXrX5.#.&.+.&.&.s.B.s.d.g.s.(. X`.|.|. Xv.a.^.%X%X1.b U / ( ( ! / ! 5.lXdXhXQ.G } ..] ] X.k.g.g.K.L.S.p.d.S.d.d.g.k.k.j.l.l.I.rX7X-X-XBX7X$.:.:.:.:.:.",
"j.a.d.d.p.d.s.5.;.V.5.5.$.| | +.+.+.#.#.| | | [ ^ =.=.=.| =.| | 1.: 3 : * = = K K / / / *XK.n.n.`.wX<X2XeXeXXXr.p.p.i.i.p.p.B.d.B.d.S.K.v.l.l.l.l.%.5.i.i.;.$.,.{ { { { ] ",
"d.k.d.k.k.p.f.;.h.s.s.s.$.$.#.#.#.#.+.#.#.#.#.#.#.&.#.#.#.#.+.[ 9.& , 2 X ; - * * 5 6 +.|.n.n.g.`.4X3XiX3XaX`.r.d.p.d.d.s.B.N.B.B.d.g.L.k.v.l.l.g.h.X.X.h.-.-.] ] ] ] ] } ",
"j.j.p.p.d.d.g.;.s.s.-.s.$.$.[ #.+.+.+.+.#.#.#.#.#.&.#.#.#.#.#.[ @.7.T $ 1 2 + O : o 6 %Xc.n.n.v.`.wX4X4X3XiX Xp.p.i.d.d.d.B.B.B.B.d.d.K.k.v.v.v.v.i.X.O.h.-.-.} ] { ] ] ] ",
"d.j.g.j.l.d.i.-.%.-.-.;.$.$.#.$.[ [ [ [ [ | | #.#.+.#.#.#.+.[ [ W &.@.W.9.z l q , , U %Xc.n.n.n._.wX4X1X3XiX Xr.i.i.d.i.s.B.s.N.B.d.d.K.l.v.v.b.g.i.i.O.-.-.-.] ] ] ] ] ] ",
"p.a.p.r.p.g.i.f.s.f.f.;.$.] ] | | | ..#.| #.#.#.$.#.$.$.&.+.#.[ +.+.{ { @.1.7.7.9.9.W.G.n.c.v.v.`.wX4X4XqXaX Xe.p.p.f.i.i.d.i.s.d.d.d.K.k.l.j.l.g.r.h.O.-.-.-.F ] ] ] ] ] ",
"L.L.b.l.l.L. ...$.%.%...%.$...%...........| | #.| E ] Q [ Q $.$...[ ..[ $.| W | [ | s.G.x.R.K.G.`.2X@X#X#X#X`.g.p.p.d.i.i.C.C.C.g.d.k.(././././.P.X.i.O.O.-.-.X...........",
"iXiXpXpXsXqX .F E E F W h.g.g.g.f.g.g.g.f.V.V.V.W m Z N Z Z $.s.d.d.C.d.i.h.x.i.k.p.d.d.%.*.;.s.i.g.g.g.p.p.g.p.K.K.K.K.T. XOXOX X X2XfXfXfXfXgX2Xo.X.$.$...-.Y.Y.T.T.T.T.",
"iXyXyXyXiXwX} Z E E D F s.g.f.h.f.f.f.f.s.s.B.V.W m Z m Z m %.C.u.d.d.i.p.i.i.h.y.d.C.s.A.N.N.N.s.C.g.f.i.i.S.S.k.g.k.j.L..X$X.X X X3XfXfXfXfXjXeX} ..$.#...-.|.U.U.T.U.U.",
"yXyXuXuXiXaX} D E E E F h.f.f.f.a.f.f.f.s.s.B.C.W m D Z Z m %.d.f.X.i.i.i.p.i.f.f.s.%.N.A.A.N.s.B.C.B.g.g.g.C.d.S.k.k.j.L..X{.'.{.{.<XfXpXhXpXfXqX} %.$.#.$.-.T.T.T.T.U.U.",
"yXuXyXyXiXiX} G E E F D h.a.h.h.a.i.f.g.B.V.V.V.W Z m Z m m %.f.f.f.f.f.f.f.p.a.h.f.s.N.N.N.N.*.B.s.C.i.g.g.k.g.k.k.g.k.P. X@X.X X'.<XgXhXhXhXfXqX} ;.$.$...X.Q.T.T.U.U.U.",
"iXiXpXpXfXwX} m E E F F h.g.g.h.G.f.C.C.s.s.s.V.W Z m m m m X.f.i.i.i.i.i.i.i.i.i.h.s.*.N.N.s.s.B.s.Z.d.g.f.k.S.g.g.g.k.P.'.@X@X'. X3XfXgXgXgXzXwX .%.$.$...-.|.T.Q.T.Q.T.",
"#X#X@X$X.X|.} G F D F E $.;.f.;.;.;.s.s.s.s.s.s.W F F G G G %.g.g.g.g.g.g.g.g.g.x.K.C.s.B.B.d.d.B.y.s.%.i.y.d.L.L.L.L.L./.'. X'.'.'.$X4X4XiXiXpX.X .%.$.%...%.f.G.G.Z.Z.Z.",
"} o.o.o.o.X.} | X.....[ Z A Z A A A E ] ] ] ] ] s.s.f.f.i.i.U.oX X|.XXoXOXOXOXOXOXOX|.U.U.U.I.I.i.| $.| | } i.(.(.}.(.(.(.].'.).'.'./.v.j.a.a.a.k. .%.=.%.%.| D m m m m Z ",
" . . . .} } } ] } } | [ Z A I I P I { [ [ | ] ] -.i.f.s.i.i.L.oX|.|.|.XXoXOXOXOX.XOXT.S.I.I.D.I.i.} | | | } p.|.(.`.(.(.).).`.)./.'.L.a.j.k.k.v.p.X.%.%...%.| n M m N Z Z "
};
