/* XPM */
static char *padrao_de_fundo_de_blocos_de_jog_3_1700831114[] = {
/* columns rows colors chars-per-pixel */
"85 85 256 2 ",
"   c #0A0503",
".  c #130301",
"X  c #1D0500",
"o  c #1A0B07",
"O  c #1C120C",
"+  c #171409",
"@  c #1B1614",
"#  c #0D1012",
"$  c #260905",
"%  c #360902",
"&  c #24140C",
"*  c #2A140D",
"=  c #27180A",
"-  c #35160B",
";  c #241312",
":  c #2A1512",
">  c #241B13",
",  c #2C1B14",
"<  c #2C1C1B",
"1  c #27191A",
"2  c #321A15",
"3  c #341C1C",
"4  c #3B1C1A",
"5  c #361815",
"6  c #270F11",
"7  c #38260D",
"8  c #2B2517",
"9  c #3C2C13",
"0  c #34241B",
"q  c #3B221D",
"w  c #3B2C1C",
"e  c #342916",
"r  c #3B3516",
"t  c #3D3915",
"y  c #3C351B",
"u  c #3E391A",
"i  c #363219",
"p  c #2D250F",
"a  c #291A22",
"s  c #351C22",
"d  c #3B2323",
"f  c #372624",
"g  c #3D3422",
"h  c #2D2821",
"j  c #481A0B",
"k  c #4D1C17",
"l  c #46240E",
"z  c #472618",
"x  c #542A15",
"c  c #5B2D15",
"v  c #552D1A",
"b  c #5A2E1B",
"n  c #522516",
"m  c #44351A",
"M  c #55311C",
"N  c #5C321C",
"B  c #5C3116",
"V  c #482A0E",
"C  c #62351C",
"Z  c #65391D",
"A  c #67391B",
"S  c #6B2A1A",
"D  c #432523",
"F  c #4A2B24",
"G  c #462B27",
"H  c #562C27",
"J  c #483627",
"K  c #553222",
"L  c #5C3422",
"P  c #573728",
"I  c #573934",
"U  c #4B3231",
"Y  c #623423",
"T  c #653B23",
"R  c #6A3D24",
"E  c #6C3E2A",
"W  c #663829",
"Q  c #733B29",
"!  c #663935",
"~  c #6F2E2A",
"^  c #5E1D19",
"/  c #5A453A",
"(  c #57462D",
")  c #6D4325",
"_  c #6D432C",
"`  c #65442A",
"'  c #734425",
"]  c #72442C",
"[  c #794629",
"{  c #75492D",
"}  c #7B4C2D",
"|  c #7A4725",
" . c #7C502E",
".. c #6C4432",
"X. c #6A4939",
"o. c #734532",
"O. c #754A33",
"+. c #7B4C33",
"@. c #744C3B",
"#. c #7C4E3A",
"$. c #784534",
"%. c #7D5134",
"&. c #75533D",
"*. c #7C533B",
"=. c #775336",
"-. c #6A583B",
";. c #6F431E",
":. c #663C42",
">. c #764E41",
",. c #6C5243",
"<. c #745341",
"1. c #7C5343",
"2. c #785A4A",
"3. c #7A5D52",
"4. c #6A4D43",
"5. c #7C6757",
"6. c #7B624D",
"7. c #824D2E",
"8. c #884E2B",
"9. c #85522C",
"0. c #8A542D",
"q. c #824E33",
"w. c #844A38",
"e. c #845334",
"r. c #8A5534",
"t. c #855935",
"y. c #8C5935",
"u. c #84543B",
"i. c #8A553B",
"p. c #86593C",
"a. c #8C5A3C",
"s. c #915A35",
"d. c #925C3C",
"f. c #965A39",
"g. c #91502E",
"h. c #8D613D",
"j. c #94613C",
"k. c #99633D",
"l. c #966838",
"z. c #916129",
"x. c #A96B37",
"c. c #845442",
"v. c #895542",
"b. c #865942",
"n. c #8B5C43",
"m. c #885B49",
"M. c #925D42",
"N. c #965A45",
"B. c #8C564E",
"V. c #B05649",
"C. c #8E6242",
"Z. c #8E624A",
"A. c #83654B",
"S. c #946243",
"D. c #9B6543",
"F. c #9D6944",
"G. c #94634B",
"H. c #9A664A",
"J. c #9C6B4B",
"K. c #966A4A",
"L. c #9D714B",
"P. c #866759",
"I. c #976B54",
"U. c #9A7459",
"Y. c #897359",
"T. c #A26C45",
"R. c #A36D4B",
"E. c #A86D49",
"W. c #A57245",
"Q. c #A5724B",
"!. c #AB734D",
"~. c #AC7649",
"^. c #B2764B",
"/. c #B27A4D",
"(. c #A36E52",
"). c #A36F59",
"_. c #A47353",
"`. c #AB7554",
"'. c #AD7A55",
"]. c #A4755A",
"[. c #AB765A",
"{. c #AC7B5B",
"}. c #A67A58",
"|. c #B37D55",
" X c #B27D5B",
".X c #B37855",
"XX c #BA6058",
"oX c #987766",
"OX c #917669",
"+X c #A87D64",
"@X c #B37E61",
"#X c #A3736A",
"$X c #D25B4E",
"%X c #E85B4E",
"&X c #D56554",
"*X c #8C3C3F",
"=X c #B58156",
"-X c #B4815B",
";X c #BA845B",
":X c #BD8559",
">X c #AD835E",
",X c #9E857A",
"<X c #998469",
"1X c #A78268",
"2X c #B38362",
"3X c #BC8563",
"4X c #BD8A63",
"5X c #BB8C6A",
"6X c #B68868",
"7X c #A78779",
"8X c #B89479",
"9X c #B59073",
"0X c #C2875A",
"qX c #C6915F",
"wX c #C38B64",
"eX c #C98C64",
"rX c #C48C69",
"tX c #C88B68",
"yX c #C5926A",
"uX c #CB956B",
"iX c #CE996C",
"pX c #C99365",
"aX c #D39B6D",
"sX c #D6986B",
"dX c #CB9874",
"fX c #D49D72",
"gX c #D99D75",
"hX c #C88F71",
"jX c #D6A274",
"kX c #DBA474",
"lX c #DBA77A",
"zX c #D3A373",
"xX c #E1A874",
"cX c #9D8988",
"vX c #9B908E",
"bX c #A48A86",
"nX c #A6938A",
"mX c #B79988",
"MX c #A88F92",
"NX c #BAA387",
"BX c #BAAA94",
"VX c #D09E83",
"CX c #C7A587",
"ZX c #C7AC93",
"AX c #C9B297",
"SX c #D6B898",
"DX c #D6AD8A",
"FX c #E1BD99",
"GX c #D7BEA2",
"HX c #CFBBA0",
"JX c #E2BEA6",
"KX c #E5C39D",
"LX c #D8C7A5",
"PX c #E6C6A5",
"IX c #EAD4B3",
"UX c #D6C09F",
/* pixels */
"v n b n v c _ O.@.O.#.$.m.m.G.Z.m.n.+X2X2X2X2X>X2X2X>X2X2X2XJ.S.J.S.K.H.t.} [ [ { $.] Q ] o...o.) ` R R R R +.C.h.C.h.C.p.A A A ) Z ) %.+.} %.} n._.].].{.].].[.{. X{. X[.",
"L v b b v v o.O.@.@.O.O.m.n.n.n.Z.n.{.2X2X2X2X@X{.>X{.@X@X6XL.H.K.S.H.I.e.| [ } +.w.o.] o._ _ _ E T R ` E ) { C.C.C.h.C.%.Z A ) A A ' %.+.%.%.+.p.1X{._._.[.+X@X'.{.'.[.'.",
"n x n H v v @.o.$.O.o.O.m.G.m.G.m.n.{.2X2X2X2X2X2X3X2X-X{.@XR.N.H.G.S.J.t.[ } } { { ] E _ E o.] ` E E R T T +.C.C.C.a.C.%.A Z ) R Z ) +.%.#.%.{ u.+XU.}.[.].].[.'..X|..X'.",
"v v x b x v o.o.O.#.o.O.m.M.m.m.n.n.[. X>X{.2X-X-X{.@X>X X6X_.H.H.H.S.H.i.[ q.[ } } $.o.] E o._ _ ` T R ) T +.Z.h.h.C.S.t.) A R ) A { %.%.%.%.%.p.}._.+X[.[.[. X'.'.'.'.[.",
"x x n n l x o.O.O.O.o.#.m.Z.m.G.G.Z.@X6X6X@X@X6X6X@X6X6X6X@X].H.H.(.J.H.e.Q | ' ' { ] ] o._ ] E R T T Z Z Z { n.a.h.h.h.%.A C C C C A { } } } { u.}.1X{.U.+X>X|. X@X X X{.",
"Z R R E R ' { o.o.o.o.=.#.*.#.1.*.#.I._.).U.).).U.Z.I.G.I.G.M.n.i.v.n.i.M.M.n.d.a.N.+.E E o.] ] o.O.+.O.{ { e.K.S.K.S.S.a.t.t.0.t.t.s.D.S.h.j.S.G.n.K.Z.Z.Z.G.I.I.I.J.I.I.",
"H.J.I.J.H.G.O.o.O.{ _ _ M x v x v x $.#.w.#.>.1.b j j j j n S W R Q ' R (.6X6X3X5X5XG.$.o.$.] _ n.Z.H.S.S.K.J.[.I.L.L.].{.rXyXyXyXwXyXuXuX5XwXyXU.b n n M n M @.@.#.#.@.$.",
"D.D.N.S.H.I.{ ] o.] { ..M M M M K v @.#.c.1.c.2.L k v n k n C o.R Q Q S I.hX@X6X2X5XM.E o.$.o.o.u.G.H.C.S.S.K.I.Q.U.R.L.'.4XwX:X4XwX3X4XwX:XwXrX+Xv v H P F P >.<.>.>.>.>.",
"H.H.N.H.H.H.o.o.o.o...o.L K v K K z @.1.1.1.c.1.C l z v l n B Q Q A Q A J.3X-X2X2X5Xm.] @.o.o.o.v.S.S.K.h.C.J.E.L._.].J.{.rX;XwX4X4XwX3XwX4XwXwX].v J v L v K <.@.@.@.@.@.",
"H.H.D.D.G.N.{ ] O.] o.o.N M K v L x #.1.1.1.>.c.K z l j l b Y Q S $.Q Q (.9X5X6X@XhXB.Q Q $.$.E %.D.j.d.F.h.H.]._.J.Q.H.[.yX4XwX4X4XwXwXwXwXtXeX+Xx K F M v L -.@.&.>.>.#.",
"H.H.H.J.H.G.+.{ ] ] ' _ B v v v c x $.1.>.>.>.1.M 7 l z n j K X.c.Z.c.m.oX#XOXOXP.OXP.3.P.Y.P.2.&.K.J.D.J.K.K.K.]._.Q.J.{.hXwXwXrXwXwXtXwXwXwXrX{.n M K v n K 4.4.4.,.>.X.",
"u.p.p.p.p.b.%.+.+.+.+.%.R T T T R N m.P.P.P.P.P.! L Y K H ( 3.U 8 > & > 8 @ @ 8 8 8 @ > @ @ i J 6.oXI.b.*.u.S.J.D.S.J.D.R.{.|.|.|.|.|.|.|.|.|. X_.N T ! ` L X.P.P.P.P.3.5.",
"{ { ' ] _ O.e.n.a.a.p.p.} +.+.+.w.#.#XbX,XbXbXbXB.@.1.>.&.,.3.J f O 1 @ O ; < : 1 a a f < ; : 3 ; 3 d 4.5.&.+.a.p.e.a.a.d.D.D.D.F.F.k.T.k.T.k.T.D.{ =.O.#.O.3.7XMXcXMXvXbX",
"' { { { { { p.n.t.i.a.p.+.} } %.w.! oXbX#XbX,X,X3.X...X.@.` 2.I./ ; f < a ; : $ : < < 3 3 3 < < f 1 > 8 > I P.C.G.n.e.a.S.D.J.D.F.D.F.k.D.k.k.F.h.%.*.O.=.=.2.nXcXvXcXcXcX",
"` { O.O.+.{ p.u.i.e.i.a.} +.+.+.$.>.#XcXcXcXcXbX2.4.,.@.&.*.+.%.5.G , 8 < 1 , 3 1 : : : < 3 < 1 : s ; 1 < & w P.Z.Z.n.u.S.J.J.F.F.D.D.x.T.D.F.T.j. .%.+.+...<.bXvXvXvXcXcX",
" .{ { { { O.a.e.a.i.i.d.} 7.} } >.:.#X#XcXcX,XbXm...>.>...=.=.%.P.I - 2 d < < < * & & , 3 3 < d 3 4 5 3 a < 1 > 1.P.Z.a.M.D.J.D.F.F.D.D.T.D.F.T.l.{ { %.{ O.6.nXvXvXMXcX,X",
";.` _ E A ' p.Z.a.a.p.p.+.} +.} { =.oXbXbXcX,XbX1.X.X.X.! ..O. .7.oX0 < : f 3 2 - 2 0 : : < s a 3 3 s s D % : , 8 / P.r.j.F.S.H.D.T.d.k.j.k.k.F.C._ { { ' ` 2.nXnXvXnXnXcX",
"Q.L.R.(._.Q.a.%.a.r.a.i.t.e.e.u.i.e.I.oXOX#X#X).}.U.U.}.U.U.=X~.`.oXh ; 3 3 s 2 q q < o . . o 6 : < a a 5 4 : > 1 U +XH.F.k.L.D.D.F.E. X;X;X|.-X=XQ.=XW.~.'.U.Y.OXoXOXoXoX",
"jXaXfXgXgXiXd.9.q.q.q.r.a.N.S.N.N.a.N.N.a.i.w.r.dXlXlXxXlXkXxXkXDX(   o $ . ; , : 1 1 o $ $ $ $ X . 6 1 < 8 & 1 @ , +X+X`.k.Q.R.R.F.{.gXjXjXzXlXkXkXkXzXxXxXiXh.e.t.e.u.t.",
"sXsXsXsXsXaX0.7.e.e.q.e.a.a.n.i.N.d.d.f.f.f.f.f.uXlXzXkXlXjXlXjXBX+ # #   o .   O @ o . j ~ w.Q n % $ X O 1 O o   o ,.[.E.T.T.J.R.k.{.lXgXfXfXjXsXgXkXsXsXgXiX0.s.s.s.s.d.",
"sXsXsXsXuXaXe.e.e.r.8.e.d.M.d.M.n.a.r.d.f.f.d.a.rXDXkXaXlXjXjXjXnX# #     @ . + #   . X S V.&X$XV.g.S $ . o o . s H @.@X!.T.T.T.R.D. XjXaXfXgXgXxXgXgXkXsXgXaXj.s.s.s.s.f.",
"sXsXsXsXsXaX9.+.7.e.q.e.a.M.n.S.n.S.d.j.d.M.N.v.yXlXkXzXlXjXlXjXmX+     o     + #     % *XV.$X%X%X$XXXQ % . . X :.P.I.[.E.T.T.N.E.D. XgXfXfXgXgXsXaXjXkXxXsXqX0.y.a.f.i.a.",
"sXsXsXsXsXiXd.q.e.t.7.7.a.d.a.p.r.d.i.a.j.d.M.i.aXlXxXlXlXDXkXlXCX,.g ; $ . @   # o o $ *XV.$X%X%X%X$XV.W $ X X *X#X[.].Q.T.R.R.R.H.|.kXfXfXgXgXkXjXlXkXxXxXiXj.a.r.i.a.a.",
"0X0X|.0X0X0Xs.e.e.r.e.i.J.(.J._.(.!.f.a.s.0.f.s.!.|.;X.X X;X'.=XwX8X7XF D s a a @ @ X $ v.V.$X%X%X%X$XV.H $ $ X *XV.I.R.d.s.r.i.N.i.J.wXwX0X@XeX0X;X;X|.=X0X|.r.a.a.a.a.a.",
"E.~.E.x.^.~.s.v.e.i.i.r.{.-X=X-X X Xk.y.y.y.y.s.g.r.r.a.g.f.e.C.8XGXbX..G U G s s f 6 $ k N.XX$X&X&XV.f.l $ X $ ~ *X(.q.7.[ } [ o.{ e.`.!.^.(..X(.e.b.b.c.p.n.n.a.i.a.a.d.",
"^.^.^.^.^.`.f.i.e.i.i.i.}.=X>X=X|.;Xj.0.g.s.s.r.f.d.d.S.S.y.>X9XAXSX<Xz D U U U 3 s 2 $ $ j ^ ^ S S S j $ : X X ^ >.].u.{ %.] } { [ t.|..X|..X.X_.p.G.Z.Z.Z.C.a.a.a.a.a.M.",
"^.^.^.^.^.^.g.i.e.i.i.e.}.=X'.=X|.=Xf.0.s.s.r.s.d.d.M.a.A.NXZXLXIXIXNXP % - s D U F 4 2 % % $ % j j % - I f 6 < k U.c.t.p.} { %.+.$.r. X[..X`..X].a.Z.n.m.n.n.n.a.n.a.a.M.",
"^.^.^.^.^.!.f.i.r.v.i.e.~.=X=X=X|.|.j.0.r.r.s.s.i.N.N.n.7XBXBXLXPXUXIXNXX.- $ 6 0 q w f 3 3 3 4 5 k U J U D I D B.c.+.t.} { { | +.[ a. X`..X.X[.).n.Z.b.Z.n.n.n.n.a.a.n.n.",
"^.^.`.`.^.^.r.r.i.i.i.i..X|.=X=X X;Xj.0.s.s.s.r.d.N.N.N.mXZXBXBXAXUXIXLXSX<X( r o = = e f f h 3 s 5 s 3 D D z 4.U. . .t.} } } [ { | a.[..X X X.X_.N.G.Z.G.m.n.n.a.n.a.n.d.",
"T.E.T.T.T.T.r.i.i.i.i.i.'.;X=X=X|.;Xf.s.s.s.f.s.w.w.w.u.P.ZXAXBXCXNXDXKXSXLXUX8XX.z $ X * 2 3 0 s s s D 7 - I nXD.L.j.k.Q.a.d.S.S.a.S.J.H.H.H.R.H.+.+.#.+.#.*.n.n.n.a.n.M.",
"s.d.M.M.M.D.q.i.r.r.i.8.'.;X=X=X X;Xd.s.s.d.s.f.w.Q ] ] $.1.,XY.X.( -.CXSXSXLXUXGX7X<.U * X $ & : 4 < 5 e 5.UXBX[.F.=X/.Q.[.R.]._._.D.a.e.r.a.r.i.A R Y W R ] n.S.a.n.d.S.",
"k.D.D.M.d.S.7.a.8.w.w.r.|.;X=X;X;X;Xk.s.f.f.f.f.7.Q _ ..o.I.X.- $ = 7 ( ;.h.dXKXJXJXJXZXoX6.X.J F d f / ,XLXLXLX;X|.W.Q.!.L.Q.L.Q.Q.J.a.a.d.a.d.e.Q _ E _ R ] n.S.M.d.a.d.",
"S.N.M.D.d.d.e.e.e.i.v.8./.:X|.;X;X|.T.s.d.f.d.D.$.$._ @.6.= + p p e i w r 7 ` 9XSXUXKXKXPXKXSXFXDXDXCXFXFXPXPXJXNX7X1X!.R./.J.Q.Q.~.F.s.a.a.a.a.e.Q _ T E ! o.n.n.a.j.h.M.",
"N.D.j.N.M.D.r.i.r.q.i.e.|.0X:X;X;X.Xf.s.k.f.d.s.{ O._ ,.> + i p e i y i m 7 7 -.7XDXUXSXKXKXSXKXPXFXFXPXFXSXGXAX7X<X>X!.T.W.F.Q.Q.Q.F.y.r.d.M.d.e.W R E E E ] n.C.h.a.d.d.",
"j.S.d.d.d.D.e.e.t.e.e.a.`.4X2X2X4X3XD.d.f.s.z.l.} R 5.e + + i p r r u r u m 7 7 ( A.<X9XCXSXSXSXFXSXFXSXAXAXHXBXCX1XQ.W.W.Q.W.Q.Q.Q.k.j.y.y.y.y.a.R E W E R ' n.a.s.s.s.a.",
"T.R.T.E.J.R.a.i.e.e.p.e.%.t.e.*.q.t.J.'.[.!.>X>Xy.p.5.+ 8 i 8 u t r r u u u m m 7 r 9 V K -.U.8X8XCXCXCXCXZXAXAX'.T.Q.~.W.W.W.Q.W.W./.=X=X;X;X;X'.7.q.+.+.} e.Q.Q.W.Q.Q._.",
"!.`.^.`.`.(.d.i.r.i.a.e.C b c B x v ].5X9XqX9XqXl.C.X.+ @ 8 u u t i t t m t u y m w p - - = * 7 m P ,.<XZXCX6X XT.T.E.W.x.W.W.Q.W.W.=XzXzXkXzXlXpXt.t.y.t.t.f.;X=X=X=X|. X",
"!.!.E.!.!.(.d.q.a.v.a.n.E Y W L E c >X9X>X6X>X>Xx.h.X.O h 8 u u t t t t t u m r g g w 8 , * * , * * w I oXI.s.^./.^.x.T.L.W.~.Q.W.W./.kXzXiXqXaXeX0.9.t.t.0.z./././.~.'.{.",
"!.!.E.^.^.!.d.e.v.e.t.u.E H W L T v ].9X6X6X6X5Xx.t.6.@ 8 r p u t t t t t t ( i y g w 8 & & > & : o & = X.Z.a.~.l.T.E.^.T.T.~.Q.~.T.|.jXiXiXiXjXeX9.0.r.0.0.0././.=X=X=X{.",
"!.^.E.!.E.Q.s.t.n.i.i.c.E H P W Y Y }.9X5X>X6X4Xx.h.U.+ i i u i t t t u u i r r u y g 8 p > 8 = & > > O e U.j.~.~.W.E.E.~.Q.~.Q.Q.Q.|.jXiXzXiXjXyX9.y.r.r.r.s.|./././.'.-X",
".X`.!.`.Q._.a.e.p.t.u.u.R Y Y Y C N ].8X5X5X6X6Xl.z.>X7 8 i m m t t t t t t t t t u y i p > > + ; > @ O G I.S.Q.W.E.Q.E.Q.!.Q.W.W.W.=XiXjXdXiXjXpXg.9.r.9.9.s. X;X|.;X X@X",
"a.N.j.D.S.S.e.}  . .} *.[ O.O.@.O.] L.{._._.}.}.:X~.9X( g u r t t t t t t t t t u u i i p = + p , > @ > 4.U.h.l.j.a.d.d.j.R.T.T.Q.W.Q.=X=X|.|.|.=X X3X3X;X0X XD.l.f.S.S.S.",
"d.j.a.a.y.a.} +.{ ' ] +.O.u.*.u.u.+.H.I.J.Q.F.L.0XsX9X5.g i m y u u u u m t t t u r y i p > = > & @ @ @ 5.U.h.9.i.e.a.i.d.R.Q.Q.E.T.R.T.F.T.T.F.~.uXdXuXuXiXwX9.s.s.d.a.a.",
"a.a.a.a.a.a.+.+. .{ { #.O.w.w.w.w.u.I.Q._.Q.L.F.=XiX5X<X8 i u g i i u u t t t t t r y y i p = = : ; 8 > OXI.D.y.i.i.v.i.N._.Q.E.W.Q.Q.Q.T.Q.Q.Q.~.dXuXdXpXpXyXs.i.i.d.a.d.",
"a.d.d.S.h.a.+.{ { { { { +.q.u.+.#.u.H.J.Q.Q.J.(.:XwXdX4.0 7 7 w u g u u u t t t u t y m i 8 = = 2 & < w <XS.k.t.e.i.n.e.j.R.R.F.E.F.Q.W.W.F.W.F./.uXyXuXuXpXwXj.f.v.d.v.N.",
"a.S.a.a.t.p.{ =.{ #.O.O.u.*.w.w.w.i.J.(.].R._.R.rXdX1X8 w 7 7 9 i u u u t t t t u t y u y e = & & o ; / 1XL.S.e.p.i.a.e.C.R.Q.Q.R.E.R.Q.Q.W.L.J.!.uXdXyXyXfX;Xe.d.N.d.N.d.",
"d.S.a.a.a.h.+.{ O.O.O.{ *.w.w.u.w.w.J.].]._.(.R.@XVX/ < f V m w i i t u u t t t u t y y y e 8 : = : > 5.U.L.S.c.a.i.i.i.M.J.J.Q.(.E.R._.L._.].Q.`.dXuXyXpXiXwXN.v.N.d.v.v.",
"_._.Q.`.}.L.{ B W R T Y $.O.$.+.o.] u.M.M.a.N.n.].+Xq h g M K y p p i t r t r t t y y m G y e 8 m f < Y.=.t.e.u.q.q.q.w.e.n.a.d.i.d.M.M.M.n.S.a.k. X|.;X:X|. X(.`.(.(.).).",
"@X@X@X.X.X X) M P b N L ` ] ] E o.R u.p.b.c.m.c.U.,.0 e m x K P l 7 7 9 m y y y u u t t t t t ( oXY.=.K. .9. . . .{ | }  .p.e.u.w.u.m.*.n.m.m.i.N. X`.'.'.`.`.`.[.'.[.[.].",
"[..X@X.X X{.R L P L Y Y ] ] o.] ] R c.b.b.b.v.c.+X( e h 9 V m P J w 7 e w i y y i y u m r t t ( NXNXY.A.=. . . .{  .} %.+.i.u.v.u.u.b.p.n.p.n.u.n.@X{.|.|. X X'.`.[.[.[.).",
" X2X@X X X`.T L Y L L L E E ] Q _ ] p.b.b.p.m.m.7Xw e h 9 9 7 P J w e e w i g i y y t 9 7 V V -.DXDXoXY.h.%.9.[ } 9.}  .} t.c.u.u.u.p.c.b.b.n.n.n.@X[.'.`.[..X[._.].].].].",
".X[.[.`.@X{.R N Y L Y Y o.o.] { _ ] *.b.b.b.u.v.<X> i i r r 7 w w w e f e g i u g y r t t m m A.DXZX5.m oX%.}  .9.} } { +.u.c.u.m.u.u.p.b.p.n.n.N.@X X X.X.X[.[.[.`.`.].`.",
" X@X@X{.@X].E Y Y N C b ] { Q [ ' +.+.u.m.n.c.m.5.8 h i i i w e e 0 0 0 8 0 w G g w y m m V m <XLXUX6.y 6.%. .| | } } e.e.e.b.b.u.#.u.p.p.a.a.p.a.[.{.'.'.'..X.X`.`.[.`.`.",
"i.n.C.n.D.N.w.*.u.c.u.e.(. X`.'.[.{.a.=.*.O.o.1./ 8 i i 8 8 g 9 q e , : & = , p y m w m z 9 ( NXSXZX2.r Y.h.a.(.R.Q.Q.J.a.R T T _ _ } a.y.y.a.a.a.J.S.D.N.D.(.@XrXrXrXwXwX",
"d.i.i.w.q.i.w.n.u.u.i.i. X4X-X3X;X3Xp.' O.O.&.U.a 8 8 8 p 8 y p 3 , : * * , - = q w q m w m -.BXLX8X/ ,.C.a.k.`._.'.'.{.S.A T T Z B | y.t.y.y.y.h.D.a.d.a.d.E.hXtXeXtXtXeX",
"i.e.v.i.r.d.i.u.u.i.e.e.`.:X|. X|.4Xy.] #.@.@.P.# @ > 8 8 8 8 , * * * , q d 9 - * 0 0 z 9 w P Y.1X<X2.U.p.0.k.`.!.`.Q.}.C.C Z T ) Z ' s.t.y.y.t.t.d.j.D.D.d.H.rX@XtXeXwXwX",
"c.u.c.c.n.i.v.c.i.t.e.r.`.-X;X=X X;Xi.@.@.[ _ 5.; & & & * * ; & : 5 F F 5 D 5 d z d D D G q 2 2 3.H.D.r.r.i.d.'.!.`.Q.{.S.B Z _ L Z { h.y.y.a.d.s.D.D.j.N.d.N.tXeXeXeXeX0X",
"p.a.v.i.e.e.e.v.i.u.t.a.[.3X-X-X3X4Xa...] } &./ ; ; : : & & * : F I D z k D D G G G G d w q 2 3 4 oXq.r.r.a.M.|.!.`.}.{.C.A C T Z C ) h.y.y.y.y.d.M.S.S.S.d.T.rXeXtXwXtXeX",
"9.r.r.s.d.d.e.i.v.e.n.a.].@X X2X{. Xa.{  . .I.f ; ; 6 $ 6 5 d G F k D z D H D z G F G D 4 2 < 4 , <.v.i.i.r.S.!.Q.Q.Q.Q.j.A Z A ` A { h.h.s.s.d.D.r.h.h.S.d.R.rXtXtXtXrX@X",
";X X X.X|.`.q.) E Q E Q p.S.n.N.m.H.d.y.D.n.Y.s ; * : 5 3 3 3 s 4 4 F G D D I z G D D D 3 6 5 s f U M.r.s.7.d.E.Q.Q.L.Q.Q.j.K.D.C.j.T.-X;X;X;X4X_.e.e.%.%.e.e.S.N.f.N.f.N.",
":X=X|.0X0X Xg.S Q R R R u.v.u.v.*.p.h.k.S.oXX.a G G G G G s 3 6 6 3 3 G U D D D G D D D s 5 3 d < 3.c.r.r.8.f.T.T.T.F.T.F.F.Q.Q.R.J.'.pXpXeXtXuX-X} } } } } } } i.i.i.i.d.",
"0X0X0X0X0X0X7.Q E E Q R c.v.c.v.n.*.S.j.a.1X< < d 3 3 < : 6 6 6 ; 1 d G 4 U G F G G D D 4 3 4 2 I U.7.r.y.e.d.T.E.Q.T.T.T.R.F.J.F.F.~.eX0XeXwXeX2X}  .} =.e.e.a.u.e.u.e.i.",
":X&X^.0X|.|.[ R Q E Q R c.B.c.B.n.1.S.f.D.5.& : $ 6 : * ; ; ; ; ; 6 I #XP.5 D s 4 4 4 5 5 5 s U }.t.r.8.r.e.s.T.F.T.T.~.F.E.T.R.T.F.~.eX0XeXeXeX-X} e.{ +.} } i.u.u.i.v.v.",
"0X0X0X/.0X;X[ R R E R W 1.m.c.m.e.1.C.k.{.J , $ > & $ & ; ; 1 ; @ U OX#XI.j D 4 k 4 z D D 5 I Y.2X| g.g.r.7.a.E.T.E.T.T.F.R.D.J.T.T.^.eXeXeXeXtX3X| %.{ *.+.+.p.i.p.e.i.a.",
":X/.;X:X;X'.%.` o.@...@.1.c.m.c.2.c.d.S.oXq 2 4 - l 5 - 2 f 0 1 f <XL.oXH v Y H Y ~ L I :.I m.CX~.} e.0.8.7.i.T.T.T.W.E.F.F.T.T.F.F./.:XyX:XyXwX Xu.*.%.%.&.*.a.*.p.*.b.b.",
"g.z.g.g.s.d.1X7X7X7X7X7Xm.$.#.@.>.#.e.U.1.G I H K k n 5 G $ D U +XL.L.P U P ~ ! ! ! ! H I ! CXVXR.b W Y C Y #.D.d.D.F.f.j.d.s.d.y.0.y.j.j.f.d.j.I.7X,X7X7XbX,X&.*.&.*.&.p.",
"8.r.9.r.8.w.bXMXbXbXMXmX1.@.@.&.@.$.c.oX! H ! ~ ~ ~ H H F F <.oXs.0.}.z s D ! k k 5 4 z l VXVXgXU.n Y T R H $.D.d.d.D.d.d.d.r.r.d.a.d.j.d.a.d.d.P.nXcXvXcXvXcX<.&.&.&.*.*.",
"r.7.r.9.r.B.7XMXcXMXcXbX3.@.@.@.@.1.P.1.! :.~ ~ ~ ~ ~ ! H @.1Xa.j.l.K.I a 6 X 6 % 5 : 4.CXdXdXgXR.x ! M L N $.j.N.M.D.M.d.d.d.y.i.r.a.a.a.d.d.a.K.7XvX,X,XnX,X*.1.<.&.&.-.",
"i.7.r.7.w.m.bXMXMXMXvXMX3.>.X.>.@.<.OXG D H ~ ~ ~ ^ ! ! 1.8XQ.z.y.l.t.I.J $ < > : : H ZXyXiXrXVXK.c ` M M L $.k.d.S.k.D.f.d.s.i.a.y.d.j.s.j.d.a.Z.7XvXcXcXMX,X&.&.<.&.&.*.",
"7.s.q.r.8.w.9XbXbXMXMXmX2.@.>.>.#.@.OX, $ 4 k ^ H ! ! B.hX2Xl.z.l.s.l.l.J.U.P.P.X.>.+XCXiXiXiXlXL.v v M N b ] J.d.S.S.d.d.d.i.r.a.a.a.d.s.s.s.s.I.bXcXnXbXvX,X&.2.&.=.-.*.",
"7.r.7.8.r.e.+X7X7X#X7X7X1.! #.X.o.X.OX: 6 $ 6 * 5 5 <.7X).`.H.h.h.y.z.h.t.} c.%.1...}.iXyXdX:XiXL.{ ` ' | E w.S.N.d.M.M.M.d.v.d.a.r.i.d.j.s.j.f.G.7XcX#X1XcX,XO.=.=.=.=.=.",
"r.r.i.i.i.i.c.c.#.v.1.c.+.$.] ..o.X.P.@ < o & ; > $ P.$.Q 7.] _ ` ] _ _ ` O.R ] ..' 9.l.k.a.l.l.L.-X4X:X=XrX].8.8.i.e.i.i.i.i.v.v.v.d.k.j.j.f.j.j.%.1.w.e.#.=.;.` ` ` ;.{ ",
"f.d.d.f.v.r.i.%.p.p.%.p.o.o.o.o...@.P.U @ 1 # @ @ / P.>.$.! #.E ` ` ..` _ ...._ o...%.L.l.l.k.h.~.4X:X4X;XyXQ.9.i.e.r.i.i.v.c.v.v.v.v.N.f.j.l.f.a.t.}  .%.%.%.{ ) ) ) ) ' ",
"f.r.w.i.f.r.v.*.e.*.*.u.+.o.] ..O.L <.3.4.U g / P.2.X.W o.E ..@.X._ ..O._ X.X...o.` %.l.l.l.l.l.L.4X4X4X=XwX'.t.r.e.i.i.v.v.v.v.v.i.f.D.s.j.f.j.j.e. . .t. .=.' ;.) ) ) ) ",
"r.f.s.f.d.f.%.%.+.*.%.*.{ o.o.O.{ o.@.@.X.3.1.<...$.@.#.*._ ` _ _ .._ .._ _ ` _ @._ %.l.l.z.l.l.W.4X:X:X;XwX`.7.e.q.i.i.i.c.c.c.v.i.i.N.j.k.f.k.h.e. . .%.%. .) ) ) ] ) _ ",
"i.r.r.7.9.a.e.p.e.p.u.u.O.) _ _ [ R W o.o.E o.{ E $.$.Q ] o.O._ .._ _ _ _ ...._ W _ =.K.l.l.l.l.=X4X4X4X4XrX!.8.r.i.i.u.w.v.u.w.i.i.r.N.f.j.d.s.y. .t. .%.%. .A ) ) ) ) ) ",
"N.k.k.j.f.D.{ { O.#.+.{ +.+.{ +.] =.*.o.O.] #.] _ E W o.o.] o.o.o.] o.o...] _ ] { o.u.C.v.d.d.a.W.=X'.;X|.-XR.a.r.i.i.e.i.M.n.d.d.i.M.R.T.T.T.T.F. .%. . . .%. .{ { { { { ",
"wXwXpXwXtXrX} Z R T C R u.p.h.a.h.p.p.u.n.*.n.b.` B N C b b $.m.i.u.p.p.p.b.p.u.c.u.b.c.c.>.u.u. .%.y.a.i.r.a.e.M.M.S.d.H.`.'.'.`..X XuXtXuXpXuX-X| { =.O...} H.K.L.K.J.K.",
"wX0X0X0XwX3X' B Z Z C Z t.h.p.t.t.p.p.a.p.n.p.1.T c b c N N $.e.i.i.e.i.t.t.t.e.e.u.u.c.1.B.c.c.h.p.p.a.t.e.N.S.d.d.d.a.F.`.|.'.`.`.;XiXiXiXuXsX5X| {  .{ O. .U.J.K.J.K.K.",
"0X0XqXqXeXwX' C T T T Z %.p.t.p.y.y.y.t.u.p.u.n.Q c C b S c } n.q.i.i.e.t.r.t.r.p.e.u.c.c.c.c.1.h.b.b.p.a.i.n.i.M.d.M.d.k././.~.!..X=XpXpXpXpXuX3X| +.O.{ =.=.K.J.J.K.J.J.",
"0XqX0X0XeXwX;.A T T Z C  .t.t.y.y.t.i.p.c.b.p.b.R B c C B c 7.i.e.i.p.e.i.e.r.i.t.p.u.c.c.c.c.1.v.u.n.u.v.a.a.a.j.d.y.d.F.`.|.^.!.^.=XuXpXpXpXiX3X' u.o.O.O.} I.J.L.K.K.H.",
"eXeXqXeXyXwX;.B T T Z Z t.h.h.t.h.p.n.p.u.c.u.b.R B c B B c +.e.e.t.t.e.e.e.t.t.e.e.#.*.c.c.w.w.v.c.N.a.a.i.d.N.a.a.i.d.F.!..X`.!.~.;XaXiXiXiXaXrX[ O.O.O.{ %.].I.L.I.I.I.",
"|.|.|.|.'.`.{ A Y C Z `  .*.p.*.u.=.u.c.u.u.u.u.E C Z Z A C +.d.a.a.a.a.n.M.a.n.h.S.n.c.v.v.v.v.v.w.u.+.w.e.i.D.S.D.D.D.T.E.`.^.`./.|.;X:X4XwXwX'.} $.+.+.{ +.e.C.h.S.n.n.",
"| | | | | } ' ' } { { { N M L M M M T _ _ _ E ) u.u.u.u.e.e.H.[.'.].}.'.{.{.{.-X{.{._.H.I.I.N.G.u.{ o.] [ ] e.R.(.R.(.E.R.!.!.!.!.!.T.j.a.z.y.y.a.[ +.O.O.} [ C x v c c b ",
"[ [ | [ ' ' ' ) ) ) { _ N M L K N K ` _ ] ] _ ] %.u.e.e.t.q.H.}._._.].].[.{.{.>X'.{.R.S.G.M.M.G.w.] ] Q [ Q t._.R.E.`.R.!.!.E.E.E.Q.T.r.s.d.d.j.t.7.+.+.+.{ O.x c c c b B "
};
