/* XPM */
static char *player4_1_1700667471[] = {
/* columns rows colors chars-per-pixel */
"85 85 256 2 ",
"   c #0C0705",
".  c #1B0B03",
"X  c #1C0C0C",
"o  c #160704",
"O  c #1D130B",
"+  c #1D190C",
"@  c #191405",
"#  c #1E1B12",
"$  c #1C1516",
"%  c #160B11",
"&  c #240D0C",
"*  c #270904",
"=  c #23130C",
"-  c #231B0C",
";  c #2A1C0C",
":  c #261507",
">  c #37180C",
",  c #241313",
"<  c #2A1514",
"1  c #241C13",
"2  c #2C1B14",
"3  c #251A1B",
"4  c #2C1B1A",
"5  c #251619",
"6  c #321A15",
"7  c #331B1A",
"8  c #391A17",
"9  c #300809",
"0  c #2B220E",
"q  c #28230D",
"w  c #252113",
"e  c #2B2313",
"r  c #2D2A14",
"t  c #2D231B",
"y  c #28271A",
"u  c #322515",
"i  c #342B15",
"p  c #3B2D14",
"a  c #33231C",
"s  c #342C1B",
"d  c #3A2D1B",
"f  c #3B231C",
"g  c #3B3215",
"h  c #3B321A",
"j  c #373118",
"k  c #33290E",
"l  c #1D1A23",
"z  c #2B1D21",
"x  c #371D22",
"c  c #2D2522",
"v  c #392724",
"b  c #3A3324",
"n  c #3E2F34",
"m  c #1F221C",
"M  c #461B16",
"N  c #47140A",
"B  c #482518",
"V  c #5B2D15",
"C  c #552D1A",
"Z  c #562A17",
"A  c #42351C",
"S  c #443319",
"D  c #5C321C",
"F  c #57311A",
"G  c #4C230D",
"H  c #62351C",
"J  c #65391D",
"K  c #67381B",
"L  c #6E341E",
"P  c #462927",
"I  c #572E26",
"U  c #463727",
"Y  c #5B3422",
"T  c #563427",
"R  c #4A3933",
"E  c #553635",
"W  c #492A30",
"Q  c #653B23",
"!  c #6A3D24",
"~  c #6B3E2A",
"^  c #663629",
"/  c #733A27",
"(  c #693B34",
")  c #6F352B",
"_  c #411921",
"`  c #55442A",
"'  c #594739",
"]  c #51452D",
"[  c #6D4325",
"{  c #6D432C",
"}  c #65422C",
"|  c #734425",
" . c #72442C",
".. c #794729",
"X. c #75492D",
"o. c #7B4C2D",
"O. c #7A4726",
"+. c #7D512E",
"@. c #6D4432",
"#. c #694939",
"$. c #734532",
"%. c #754A33",
"&. c #7B4D33",
"*. c #744C3B",
"=. c #7C4E3B",
"-. c #774334",
";. c #7D5234",
":. c #7C533B",
">. c #75533A",
",. c #68543A",
"<. c #6F431E",
"1. c #5A4843",
"2. c #664A42",
"3. c #764E41",
"4. c #695648",
"5. c #745242",
"6. c #7C5342",
"7. c #76594A",
"8. c #785C53",
"9. c #6F5555",
"0. c #7A6556",
"q. c #77654C",
"w. c #7D6761",
"e. c #893A33",
"r. c #824E2E",
"t. c #8A4D28",
"y. c #88542E",
"u. c #824E33",
"i. c #864B39",
"p. c #845334",
"a. c #8A5535",
"s. c #8C5A35",
"d. c #84543B",
"f. c #8A553B",
"g. c #86593C",
"h. c #8C5A3C",
"j. c #855935",
"k. c #925B35",
"l. c #925C3C",
"z. c #945837",
"x. c #964A36",
"c. c #8E603E",
"v. c #94613C",
"b. c #99633D",
"n. c #966637",
"m. c #A66A3C",
"M. c #845442",
"N. c #8A5542",
"B. c #855942",
"V. c #8B5C43",
"C. c #895B4A",
"Z. c #925D42",
"A. c #965C47",
"S. c #93514E",
"D. c #B4544C",
"F. c #8E6143",
"G. c #8E624A",
"H. c #86644B",
"J. c #946343",
"K. c #9B6443",
"L. c #9D6944",
"P. c #93634B",
"I. c #99664A",
"U. c #9B6B4B",
"Y. c #96684A",
"T. c #876758",
"R. c #9B6C52",
"E. c #936B57",
"W. c #89735A",
"Q. c #9A7459",
"!. c #9D704F",
"~. c #A16B45",
"^. c #A36D4B",
"/. c #A76B49",
"(. c #A4724C",
"). c #AC744D",
"_. c #AB7548",
"`. c #B2764C",
"'. c #B27A4C",
"]. c #A36E53",
"[. c #A5625E",
"{. c #A47354",
"}. c #AB7554",
"|. c #AD7A55",
" X c #A57559",
".X c #AB765A",
"XX c #AC7B5B",
"oX c #A5795A",
"OX c #B37C55",
"+X c #B27D5B",
"@X c #B67A55",
"#X c #8C7665",
"$X c #987865",
"%X c #8E7166",
"&X c #A77C63",
"*X c #B37E61",
"=X c #A07E74",
"-X c #A45D65",
";X c #CF584F",
":X c #E55C4F",
">X c #D46356",
",X c #E26052",
"<X c #B48155",
"1X c #BC8255",
"2X c #B4815C",
"3X c #BB845B",
"4X c #BC895D",
"5X c #AE815D",
"6X c #9C8368",
"7X c #9C8579",
"8X c #A88469",
"9X c #B38362",
"0X c #BD8963",
"qX c #BA8868",
"wX c #A88877",
"eX c #AA937A",
"rX c #B7967A",
"tX c #B88E71",
"yX c #B7A37C",
"uX c #C2885A",
"iX c #C6915F",
"pX c #C38B64",
"aX c #C98C64",
"sX c #C48B6A",
"dX c #C88B68",
"fX c #C5926B",
"gX c #CB956B",
"hX c #CB9568",
"jX c #D5996C",
"kX c #C89975",
"lX c #D49D72",
"zX c #DB9D73",
"xX c #C88F71",
"cX c #DBA474",
"vX c #D9A578",
"bX c #CEA375",
"nX c #E1A874",
"mX c #9D8988",
"MX c #9B908E",
"NX c #A48A87",
"BX c #A59389",
"VX c #B79B84",
"CX c #A99192",
"ZX c #BAA389",
"AX c #B8A998",
"SX c #B8B5A6",
"DX c #C39D83",
"FX c #C6A888",
"GX c #C6AC94",
"HX c #C9B39A",
"JX c #D6B69A",
"KX c #D6AC8A",
"LX c #D4BAA4",
"PX c #C9B7A5",
"IX c #D7C4AD",
"UX c #E8C7AD",
/* pixels */
"C Z Z Z C F { %.%.%.%.$.C.C.P.P.G.C.XX9X8X9X9X9X9X9X5X9X9X9XU.Y.U.J.J.U.d.o.....-.&. .~  . .@.$.[ } ! ! ! ! %.F.c.F.c.Y.;.K K K ! K [ +.+.;.;.X.h. XoX{..X X X XXXXX+X.X.X",
"Y C I Z Z Z X.*.*.*.=.$.V.C.C.V.C.V.XX9X9X9X9X5XoX5X5X5X9X9X(.J.P.J.P.^.p.O...o.&.&.$. .$.~ { { ~ Q Q [ ~ ! o.F.F.F.c.F.j.J J [ ! K | ;.&.;.j.&.g.&X&X X X.X*X*X.X.X|..X|.",
"B Z Z Z Z Z *.$.%.%.%.%.C.P.A.G.V.V.XX9X5X9X9X9X9X9X9X2XXX9X].K.U.J.J.U.p...&.o.o.X./ ~  .~ $. .{ ! ~ } [ Q %.F.F.F.c.F.+.J K ! ! K  .;.%.;.;.%.d.oX{.oX X X}..XOXOX|.OXOX",
"Z C Z D Z Z *.$.%.*.$.%.C.C.V.C.G.N..X9X2X5X2X*X2XXX9XXX*X9X].A.P.I.P.U.f...u.O.o.&.X.$.$.~ $. .{ } Q ! ! [ %.F.c.c.c.F.j.! J [ ! J X.;.;.;.;.;.N.&X!.&XXX.X.X*X|.|.|.}..X",
"Z Z G Z G Z $.%.$.*.%.=.C.C.P.P.P.G.*X9X9XqXqX*XqX*XqXqXqX9X XI.I.].U.I.p.| O.| | o. . .$.{  .~ Q Q ! Q J J X.V.c.c.c.c.;.K H H H K K X.o.X.o.X.g.oX9X&XQ.XXXXXXXX*X+X+XXX",
"K ! ! ~ ! / $.%. .%.$.%.&.:.=.6.:.;.R.{.].Q.[. XQ.G.R.I.E.P.P.Z.g.N.Z.j.Z.Z.l.Z.l.J.&.~ ~ $. . .$.&.%.X.X.o.g.P.F.J.Y.J.h.j.j.y.p.p.s.v.J.v.v.J.J.F.P.G.G.G.P.R.R.R.R.R.R.",
"I.U.U.R.Y.P.%. .%.X.{ { F F C C C Z %.=.=.=.3.3.C N G N N G ^ ^ / ! / / [.sX9XqXqXtXI.$.-.$. .{ B.P.Y.J.G.J.R. X!.!.{.{.2X0XfXfXsXfXfXfXfXfXpXfXQ.Z Z B C C F >.*.*.=.*.*.",
"K.A.A.J.I.R.%. .$. .X.@.F C F S I C *.6.i.6.M.7.^ M Z B G G ^ / / / ~ K I.tX*XqX9XqXZ.^ -.=.$. .d.P.Y.J.v.J.U.!.!.!.U.U.|.pXpX4XpXpX4X4X0X0XpXfX&XC I I T P T 5.3.5.3.3.*.",
"I.I.A.I.I.I.$. .$.$.%.@.Y F I C I B *.6.6.6.M.6.F B C G G G H ( / ! ..L ].xXtXrXrXVX&XC.C.C.5.#.d.I.J.v.b.J.I.R.!.Q.U.{.}.sXpXpX0XpXpXpXpX0XpXaXoXC I C Y F F 5.*.*.*.3.*.",
"I.K.K.J.P.J.%. .%. . .$.Y C C T F Z >.M.6.6.3.6.Y B B B G G ^ C.0.T.2.9.9.5.2.1.E 1.E R 1.1.9.4.%X$XE.P.J.J.J. X}.U.{.U.XX0X4XpX0X0X0XpXpX0XpXdX&XB I U I F T 5.>.*.3.3.*.",
"I.P.I.U.I.P.&.%. . . . .F F C C V Z -.M.3.3.3.3.D G B B > F *.5.v $ $ l $ $ $ z 3 3 5 3 c z z c a U 4.%X6XQ.P.!.U.|.^.(.OXfX0XsXpXsXpXpXpXpXpXdXoXG C T C G F 2.#.*.3.#.*.",
"d.h.g.N.h.g.;.&.&.o.&.&.! Q Q Q ^ Y C.T.T.T.T.%XQ T Y Y ` T } T.9.a c $ $ , 5 < 4 7 x c 4 < O 4 4 2 1 O P 8.W.&XU.I.J.b.).|.2XOXOXOX+X@XOXOXOXOX{.J Q } } Y #.T.T.w.w.T.8.",
"X.X.|  . .%.d.B.h.g.h.g.o.%.&.o.i.6.=XNXNXNXNXNX0.2.3.*.@.>.B.&.T.7.= v a = 2 < = : ; 2 6 2 2 6 7 = 4 c 3 , f 4.$X>.J.h.a.~.K.J.L.L.b.~.L.L.m.~.U.X.>.%.;.*.7.NXMXCXCXCXmX",
"| X.X.X.X.X.h.h.j.d.g.h.o.&.&.;.&.( $X=X=XmX=X=X8.2.3.3.3. ...h.:.$Xu 3 c 4 7 2 4 < , , 2 t 4 1 6 6 7 4 < 3 3 4 T =XB.g.J.L.l.U.L.K.L.b.b.b.b.b.h.;.;.%.&.>.7.BXmXMXmXmXmX",
"X.[ X.>.%.X.d.p.f.f.f.h.o.o.o.&.=.*.-XmXmXmXmXNX8.#.#.*.*.>.;.+.+.E.4., 3 c 2 4 4 , , , < 4 t 2 6 6 6 4 2 4 4 3 3 U %XG.d.].^.I.L.L.b.~.~.L.L.L.n.+.;.%.o.@.7.mXMXMXMXMXmX",
"X.X.X.X.X.%.h.g.h.a.f.h.r.r.o.&.-.2.=X=X=XmX7XwXC.#.*.*.>.>.>.;.k.;.$XU 2 a 2 7 6 6 8 7 ; = ; 2 6 8 6 8 8 2 4 , l 3 U $XJ.I.K.L.L.K.L.L.~.b.L.L.K.o.&.;.o.@.q.BXMXMXmXNX7X",
"[ [  .~ K X.d.F.g.g.h.h.o.o.&.o.X.;.$XNXmXNXNXNX5.#.#.#.( #.%.;.p.>.0.v 3 < t 1 < x x 7 & o o o . & 7 4 z 3 4 4 4 5 4 0.H.~.~.I.L.L.b.b.b.b.v.b.P.X.X.{ { } 7.BXBXMXMXBXNX",
"(.!.^.{.(.(.h.;.h.a.h.d.d.p.p.d.a.d.E.&X%X-X$XE.oXQ.!.oXQ. X|.'.^.tX'     o . . < 4 4 4 o o o 9 * * * & 5 5 z < O , - 4.$X^.~.J.I.K.~.+X+X3XOX3X<X(.<X_._.'.Q.Q.$X$X$X$X#X",
"lXlXjXlXzXgXv.p.u.u.p.a.h.Z.J.A.Z.f.A.A.f.k.x.a.bXvXvXvXvXvXvXcXKXKXy   %     o X X o . o > I ) ) I N * o * < < X = o f 8XL./.U.^.~.+XlXvXbXzXvXcXcXcXjXnXnXgXh.;.d.d.h.f.",
"jXjXjXjXjXjXy.r.p.p.r.u.h.h.V.f.A.l.l.z.l.l.l.k.gXnXbXcXvXcXcXcXgXFX%     @ X   % o   o . C e.;X>XD.e.L N * o o o 9 M T tXL.^.L.~.K..XvXbXzXlXcXzXcXjXcXzXcXgXy.k.k.k.k.l.",
"hXjXjXjXhXjXp.p.a.a.p.a.l.Z.h.l.V.h.l.k.z.l.l.l.xXKXcXjXvXlXvXbXvXrXX         % % O   o * L D.;X:X;X>XD.e.G * o o 8 S.S.tXJ.~.K.^.A.@XvXlXlXlXlXcXzXcXcXzXjXlXn.s.z.a.k.k.",
"jXjXjXjXjXlXy.&.r.p.u.p.l.Z.V.Z.h.J.Z.v.A.l.A.N.fXvXcXcXvXcXvXcXvXrX1.c   X & o o % o o 9 ) ;X;X:X:X,X;XD.e.9 . * N -X[.9XL./.^.^.K.+XzXlXlXzXlXjXjXlXcXnXjXiXy.k.h.h.h.h.",
"jXjXbXjXjXgXk.u.p.a.r.r.h.h.h.h.f.l.a.h.l.k.l.k.jXvXnXvXKXnXvXvXvXKXLXBXv < < & X & @ o * L D.;X:X:X:X;X;Xe.> o o N -X-XtX^.~.L.].L.+XvXlXlXzXzXcXcXcXcXnXnXjXv.h.f.h.s.h.",
"1XuX>XuXuXuXs.d.p.a.p.f.U.{.!.{.]./.l.h.h.s.z.z.).+X3X@X+X0X+XOX<XfXJXBX2.W W v x 7 2 O o V S.;X,X>X,X;XD.e.9 o * _ S.S.&Xj.a.k.Z.f.L.pXpX0XuXdXuX2X3X<X'.3X2Xj.h.l.f.k.l.",
"m.m.`.m.`./.z.N.a.f.h.a.|.5X<X2X+X9Xh.s.s.s.s.a.z.a.f.a.a.l.t.J.ZXHXLX$XU U T P W x z 4 X * N ) e.e.x.x.) M 9 & 9 < 2.E.A.L r.X.o.| p.|.).`.}.}.].V.g.B.B.B.d.h.h.f.h.h.l.",
"<X'.'.'.`.`.h.f.a.d.g.p.oX<X<X5X3X1Xk.y.t.k.k.k.a.l.l.A.A.Z.&XFXGXIXUXoXB * B W W W x 7 * * 9 9 N N N N N 8 8 < % 9 2.E.d.p.o.&.o. .j.+X}.@XOX|.{.J.C.G.C.G.J.V.h.h.h.h.l.",
"1Xm.`.>X`.`.a.f.a.d.f.a.|.<X|.<X'.'.n.k.a.z.s.f.l.Z.z.z.V.Q.AXIXIXUXUXJXW.B * * 8 v W v 4 4 8 > > > B M B I R P W W $Xd.j.| X.X.u.&.k..X}.+X).).].Z.V.G.V.P.J.N.h.V.h.h.Z.",
"_.'.<Xm.`.`.z.a.a.f.N.a.|.<X<X<X2X+Xn.y.a.a.a.z.z.Z.A.A.Q.wXAXAXHXJXUXUXJXQ.` k * & 7 v v v c 7 t 7 f _ M W W P x 7.E.d.g.o.o.o.-.X.f.@X}.@X{.OX{.h.V.P.C.V.V.M.V.h.h.V.V.",
"'.'.`.`.}.).a.f.f.f.f.a..X2X<X<X+X2Xb.z.s.z.z.z.z.S.%X%X7.' ` 0.6XAXHXHXGXFXZX6X#.M * . < t t r 4 a 8 6 x _ 8 u 4.6X;.y.O...| o.X.o.f..X.X@X|.@X XZ.G.P.P.C.V.P.h.V.h.V.Z.",
"m.~.^.~.~.^.a.f.f.i.a.a.OX2X<X<X3X@Xk.a.z.l.k.k.u.H.#XU @ e 0 k ` 6XbXyXyXFXFXyXVXE.' > . @ - ; f a 8 8 M > B 2.BXQ.Y.L.~.J.Z.k.F.V.J.^.K./.A.^.G.=.*.:.=.&.d.V.V.l.V.h.J.",
"k.l.J.l.v.K.u.a.a.u.a.i.|.3X<X<X1X3Xb.J.J.Q.Q.6XW.4.] 1 q k : ; k ] 6XyXHXZXbXFXKXDXVX#X,.U > * : : 6 8 > B q.SXIXyX(.'.(.oX X).{.{.U.h.f.z.h.g.>.@.! Q ! !  .N.F.l.h.Z.l.",
"J.K.J.Z.v.J.u.g.a.i.a.a.OX3X<X3X5XtXoXW.7.' ] n n b y q 0 : q 0 k q ] W.yXZXbXFXFXFXGXAXZXeX$XE.4.1.' #.7.wXJXIXIXFX<X_.(.!.!.~.~.^.^.d.V.P.E.q.T.C.=.} { !  .V.Z.V.l.V.l.",
"l.K.J.Z.J.h.h.d.p.a.a.y.<X1X<XqXZXW.] g j j j j h h d r q ; q 0 ; ; : h q.eXGXFXFXbXZXbXHXFXFXHXFXFXkXbXFXFXHXJXIXSXeXrXU.(._.m.!.(.!.g.Q.0.4 < $ c 9.7.( /  .V.C.h.h.v.l.",
"K.Z.J.Z.k.K.f...j.d.u.d.(.tXyXFX6X,.A g j j j g d h h j i q - - w q - : p ,.6XZXZXbXHXFXHXbXFXbXFXFXFXFXbXFXFXKXHXZXtXrX{.U.!.5X6X6XrXrX6X4.= O X 3 c 9.=.^ | P.v.h.c.l.c.",
"Z.Z.A.z.K.l.u.G.$XE.$X$XrXZXPXZXeXq.] g j j g g h h h j i e - - + 1 1 - ; g ` >.6X8XrXZXyXyXFXGXFXGXGXFXFXFXZXFXZXZX8X!.5XeX6X' s ] 7XIXAX4.: . 5 3 % 1.T.^ [ v.h.k.k.k.l.",
"^.^./.~.)./.B.$X' W v b T T.HXPXZX6X,.g g g g g h g j s i e w - - - - - ; 0 g S S ` q.Q.eXyXyXZXZXFXFXyXVXrXeX6X6XeXrX8Xq.b m m m b w.PXPX7XT u , O , R T.&.p.^.(.(.(.(.{.",
"`.).).`./..X$X8.v z v v > #.ZXJXZXyXW.] g g g g g j r r i e w ; 1 # # + - q k g g g S S ` ,.q.W.6X6X6X6XH.,.` S 0 U b y q + # # : k 4.AXIXGX5.: & X 1 ' E.h.s.<X<X<X<X|.+X",
").)./.).^.].Q.0.v z z a > ` rXJXLXHX6X,.g g g g r r r r r y w - # # 1 1 - - q p g g p p p S S p S T ` T U A i ; : , 1 $ m m + - : : ` 8XHXLX7XA : : = T.G.j.y.<X'.'.'.'..X",
").`.).).@X^.J.$X2.b 7 f P #.wXHXJXKXyXW.` g j q r r r r r y q + 3 # # # + + - 0 i j h h g d d k g p g p g i e w - - 1 w + + + q ; : d T.GXLXVX2.= ; U E.h.z.y.1X'.<X<X<XXX",
")./.}.).`./.s.g.$X7.2.7.T.W.wXLXJXJXFX6X` k q q r r r r r r q + # # + w - - q 0 i d d s g h d d g k p p h j r w # - - - @ q q + - w 2 ' AXLXHX6Xv f %XP.p.t.k.OX'.'.'.OX5X",
"}.}.).}.{.{.h.a.h.P.Q.E.} E.7XSXIXIXJXeX] r j q y y r j s y - q 1 1 # - + ; q q p s d s h j j b d p p A d u t @ - - - - + @ - w - : : A #XPXPXCXE.Q.J.a.y.t.z.2X<X@X2X9X*X",
"k.l.v.K.v.J.p.o.&.%.>.X.&.T.7XCXJXHXLXHXW.g r b ' ' ] g q y w @ # - - , ; - q 0 u ] ] U d h h j g S u d d s t 2 @ - - q ; 2 ; @ # 1 , e ' NXJXFXtXtXqX3X+X0X2Xv.n.l.b.J.J.",
"h.l.h.h.j.h.o.%.&.X.X. .d.6.$X7XHXLXLXyXeX6X6XeXrXbXyXrX0.j @ w - - w - ; - ; e A ,.4.] g h h h k g 0 s s s - - e q + - - = ; 2 # m m % a T.8X(.}.fXkXgXgXlXfXa.a.h.k.h.f.",
"V.l.h.h.h.h.&.&. .o. .&.=.=.E.$X6X8X6X6X!.5Xn.6X4XhXpXfXZX] w # - - - - : - u u g ] ` A h p g g g g r b b t + - 1 - @ , w w w 1 w + w ' W.8X(.~.|.gXgXgXgXgXpXh.k.z.f.Z.N.",
"h.l.v.J.c.h.&.X.;.&.X.%.&.-.=.6.i.-.I..X!.U.U.~.uXiXiXqXyXU y @ + - - @ : 0 i i g g g g g g g g i r j s w s y + - + 1 w O @ 1 b 4.$X8X5X|.(.^.L.'.lXpXhXgXsXpXl.Z.Z.l.N.Z.",
"h.J.h.h.j.h.X.;.%. .*.o.d.M.u.M.i.i.^.}.L.(._.(.uXhXaXkX,.+ 1 y = - - @ : 0 j r g g A h g g g g h r b b u 0 2 1 @ m q @ d 4.$XwX&XY.~._.m.L.(.Q._.fXhXhXgXgXfXa.z.Z.Z.l.l.",
"l.l.h.h.c.c.%.o.$.%.=. .d.=.i.u.N.u.U. X{.{.U.U.@XkXkX$Xd t + @ - + + - - r b ] A g h A g h h g s i q.6XW.T e 1 w + d 7.$X&XQ.].(.^.).}.(.(.{.L.5XgXfXhXjXkXaXa.N.A.Z.Z.Z.",
"}.{.(.{.|.U.X.F Q ~ Q Q { %.X.X.{ $.N.h.Z.P.N.J.{.XXwXd # $ w + w + @ - 0 h ' 4.] h g b d j h j b 4.W.,.q.$X#Xq.4.T.E.C.d.d.z.z.s.l.N.V.C.F.c.n.c.2X5X<X9X@X@X}.].].].[.].",
"*X*X+X@X@X+X~ F Y D D Q ~ ~ $./ ~ ..u.d.B.M.C.M.].&X0.c + 1 - + # + + + j j A ] U d S g j j b s R #X>.;.+.+.+.j.j.;.O.o.o.h.d.d.d.d.M.d.C.B.V.V.Z.XX}..X|.}.}.|..X.X.X.X.X",
" X.X+X+XOX+XQ Y Y Y Y ^ ~  . . . .~ d.C.V.M.C.B.].&X' O @ w q - w + + r j r j g g g p g U j y i 0.0.c.+.+.;.+.X.o.o.o.+.r.d.d.M.d.d.B.M.F.g.N.B.Z.*X|.2X+X@XOX.X}..X.X.X.X",
"+X9X*X+X+X.XQ D T Y T Y @.{  . . .{ B.B.:.g.C.B.].eXs + + w - + - @ + j b U g g g k g h h r i ] W.>.+.+.;.;.p.o.o.+.o.r.;.d.d.M.d.d.g.B.B.B.N.N.V.+X.X|.}..X@X}.{.{.{. X X",
".X.X.X.X*X.X! Y Y ^ ^ Y @. . .| } } d.B.M.N.V.d.R.$Xq # - - - - + + q b ' q.4.] S k h j j r ,.W.+.+.+.+.;.+.o.o.+.o.O.o.p.d.d.d.B.M.d.g.B.g.V.V.J.*X+X+X.X@X.X.X.X.X.X X X",
"@X*X*X+X*X X .Y D H D V .. .O.O.X.[ &.B.B.B.d.M.$XT.e # # + - - @ - e b 4.6Xq.g g k g k b b ,.q.+.y.y.+.+.;.p...o.o.o.p.p.j.B.M.d.;.d.N.g.h.h.h.l..X|.|.}.|..X@X}.}.}.}.].",
"k.Z.Z.V.A.Z.&.i.d.d.i.d.].{.}.}.|.|.h.&.%.:.6.3.T.' w # 1 - 1 + - q s g U ` U r k S A r b s 4.ZXoXX.s.r.a.j.Z.^.(.(.(.U.h.! ! Q { ! o.h.j.h.g.h.h.U.I.J.K.I.].*XsXsXsXsXpX",
"f.d.g.u.a.a.d.C.a.f.d.h.5XqX2X2X2XqXV.@.>.0.0.7.v t % 3 = 2 : - - a d h i k k g d d d j U y v 2.eXB.h.s.s.y.l.@X(.|.|.XXY.K ! Q J H | s.s.s.s.s.h.J.l.h.z.l.^.xXdXdXdXdXaX",
"k.d.N.N.a.f.f.d.d.M.d.F.9XxXqXtX4XqXB.H.T.' f < 3 4 3 4 = 6 : 1 : 2 u d U d i g i h h s s b s a 5.E.h.a.s.a.Z.}.(.{.(.|.F.J D Q [ K | c.y.s.s.h.j.l.v.L.Z.l.~.sXdXpXdXaXuX",
"M.d.M.N.h.f.N.M.p.h.C.T.U c R 9.w.w.9.R z < < 5 5 < < 7 2 < = = O @ ; p p f U i b d b s a 1 - O $ 4.$Xg.t.k.K.oX|.{.{.XXh.K J Q ` K | c.s.h.f.k.k.J.J.J.A.l.K.dXuXaXdXuXaX",
"h.h.N.f.p.p.d.d.C.H.%Xv X 4 8 _ P P x < , < 5 4 4 < < < < = & = = . @ ; d P d j s a 2 2 = + O O % X #.E.P.f.v.).|.{.{.XXJ.K H Q J D | c.s.j.s.k.k.v.K.J.Z.l.~.xXdXdXdXdXdX",
"y.p.k.f.k.l.a.N.E.9.v c & x _ W v 7 < < 4 < < < < < < < 2 2 4 < : : : : 6 v s b ; ; = X X O = $ , 3 $ b 0.E.h.).(.).(.(.v.H J ! [ K | c.k.k.k.l.K.f.h.c.l.J.^.qXdXsXsXsX*X",
"3X2X+X@X@X{.r./ M.T.c % x _ I I P _ x x 7 < , < = < < 4 6 < < , & & = @ = 4 : @ = = + = = = , < < O $ % $ 2.E.&X_.(.(.(.!.F.L.K.F.F.~.4X4X4X3X9X}.p.p.o.j.p.a.J.z.l.Z.z.l.",
"1X1X3XuXiX<Xr.! ~ *.0.W < W _ I 8 7 7 < < < < < < < < < < 4 4 z z , $ < O & , : & & O , , , X , & < , $ X , P w.|.L.(.b.U.!.(.~.^.U.|.fXfXaXdXgX9Xo.o.X.o.o.o.o.d.f.f.f.z.",
"1X1X1XuX4X<Xo.! /  .$.%X2.W E _ _ v 7 6 6 6 < < & < < < < < 4 < 5 5 = & X O < . $ & , , , , , , < & & < < o   n &X(.(./.L.!.L.~.L.L._.aXuXaXaXaX2Xo.+.o.;.;.;.h.a.p.d.d.N.",
"1X1XuX'.>X<XO.! | ! / -.%X8.E _ f 8 6 < 6 7 4 < < 4 2 , , , 5 4 2 2.T.9.U O , < & , & , , , < < & & < 9 & < 4 4 7.$X~.m./.U.L./.~.L.`.aXiXuXaXaX9XO.p.X.&.&.o.f.d.g.f.h.f.",
"1X4X>XuXuX3X..Q / Q / ) M.$X8.B 7 8 6 7 4 < < < < < , , 5 n 1.4.W.=XQ.&X%Xv % $ , , 5 , , , & & < < 9 . 5 7 8 S R 8X^.m.m.L.^.L.~.~.`.aXaXaXaXaX9Xo.p.X.p.&.%.h.d.d.d.f.N.",
"1X<XuX>X4X|.;.} *.( *.) N.C.%X8.P v x z 4 z 5 z l 3 7 ' E.&XQ.8XU.U.~./.5X8X4.= l % X = & & , $ & & 9 8 M I ^ I E &XI.).U.l.b.m.L.~.'.4XpX4XpXpX+Xd.>.;.;.>.:.h.B.d.B.B.g.",
"k.y.y.y.c.c.8XwXwXwXwXwXM.3.8.T.9.R 2 < e 3 4 a T %XwXtXXXXX~.s.s.n.n.k.s.F.W.T.U c 3 $ $ , , & 9 < 8 M Z ^ ( ( E C. Xk.k.L.s.z.s.y.k.v.v.v.l.v.E.wXNXwX7XwX7X>.>.>.>.:.g.",
"t.y.p.y.u.i.wXCXCXNXwXCX7.*.#.5.T.#X%X4.7.%X$X%XtX9XOX@X@X'.m.n.n.n.k.n.s.y.p.h.$Xq.P $ l 3 & < & 8 W ^ ) ^ I ( E 2. XZ.l.N.h.h.v.h.h.v.l.k.l.k.E.NXmXMXBXMXmX5.>.>.>.>.:.",
"s.r.s.r.a.N.NXCXCXMXNXNX7.*.=.*.3.3.C.A.A.f.g.Z.}.OXOX3X1X<Xb.k.k.s.k.b.l.a.s.a.y.G.wXw.7 % , & x P I ) ) L ) ) E I =X%XT.H.Q.V.h.a.h.h.h.l.Z.h.G.eXMX7XmXBX=X>.5.5.>.6.>.",
"a.u.u.t.u.N.NXCXNXCXCXNX8.#.3.3.-.=.B.N.h.Z.k.a._.2X|.|.'.3X^.s.n.k.b.l.a.s.a.y.k.t.|.KXrX' 4 3 _ E ( ) L ) ) I _ M W n $ 7 E.d.h.h.v.l.l.l.v.k.P.NXBXmXmXCX7X:.5.5.>.q.>.",
"u.k.r.a.y.=.tXNXNXCXCXNX6.*.*.*.*.5.g.N.g.a.h.h.`.1X<X>X1X@X~.n.n.s.k.n.c.s.s.y.y.t.1XlXxXDXwX' I I E ( ) ) ) I N 8 % l $ U $Xa.h.h.k.k.s.k.l.s.R.NXmXmXNXMX7X5.5.>.>.;.:.",
"r.s.r.a.a.a.&XNXwXwX=XNX6.*.*.3.*.#.%.M.C.h.g.d.^..X}.}.}.|.J.r.s.c.s.h.y.X.p.j.p.o.(.hXgXfXkXDXC.5.I I ( ) N N 9 & z 5 n T.E.z.f.f.l.l.l.l.v.k.P.wX7X=X7XwX7XX.>.>.>.,.;.",
"z.a.f.f.i.g.i.M.:.M.M.C./ -.$.@.@.*.-.$. . . .$.@.$.$.$. .X.{ X.} X. . .[ X.$.{ } { g.K.n.n.n.n.wXrXT._ M _ 9 9 & 5 . ' %X7.a.N.N.f.l.A.b.l.n.k.z.*.d.=.d.=.>.<.[ } <.} [ ",
"s.l.z.l.l.a.f.;.d.d.d.g.%.X.$.$.$.@.@.@.{ $.$.$.$.*.-.( -.-.@.@.} @.@.{ } { @.@.#.[ +.6Xn.n.n.c.~.fXrX7.v . , , X E 8.E.A.i.N.i.N.N.z.A.l.n.l.l.l.p.o.+.c.+.;.[ [ [ [ [ { ",
"z.f.a.a.f.z.N.:.j.:.;.:.%.$.~ $.@.$.@.@.$.$.$.$.$.-.*.@.*.-.@.{ @.@.,.{ X.#.@.@.$.[ +.n.n.n.m.c.OXOXqXDX$XT 6 v 0.T.C.d.i.i.S.C.N.N.f.A.z.n.l.b.v.p.+.+.;.;.;.[ <.[ [ [ [ ",
"f.z.f.z.k.f.;.;.&.:.;.d.%. .$.%.{ $.@.X.@. . .$.$.$.$.-.$.@.{ { @.} } @.} @.{ { %.{ ;.n.n.n.n.n._.4XpX4XqXrX8XW.A.N.d.f.N.N.M.M.N.f.f.K.l.b.n.b.c.;.y.+.;.;.+.[ [ [ { [ [ ",
"a.a.a.y.a.l.;.g.d.g.d.:.%.[ } X.{ X.X.@.X.$.$.$.%.@.*.$.*.{ $.{ X.@.{ { } { } { ~ { >.c.n.n.n.n.<XpX1X4X4XfX{.;.y.a.a.f.f.M.M.N.N.a.s.A.k.l.l.k.h.y.j.X.;.;.+.J [ [ | [ [ ",
"A.l.n.n.l.^.| o.%.&.%.o.%.%.X.%.X.X.o.X.%. .$.$. .~  .^ { ! $.%.X.$. . . .{  .{ $.%.d.V.S.V.c.h.Y.<X<X1X@X3XU.p.h.g.d.p.a.l.Z.f.f.z.Z.^.~./.~.~.U.+.;.+.X.;.+.o.X.X.X.X.X.",
"pXaXpXfXdXpXo.H Q ! J ! d.h.c.h.g.g.g.g.g.B.B.B.! V D D H D X.d.N.d.g.B.g.g.g.d.d.d.M.B.M.M.d.d.:.c.p.z.y.a.h.J.C.Z.J.l.I.|.OX).}..X*XgXgXhXhXhX2XO.X.X.+.X.;.Y.Y.!.!.Y.Y.",
"aX4XuXuXaX0X/ D Q J H J d.h.g.j.j.h.g.g.d.g.M.B.! V D V D V &.N.d.a.f.d.d.p.j.j.d.d.d.M.6.M.M.M.:.V.V.f.h.p.h.f.h.Z.J.h.J.}.OX'.}.).3XgXgXhXhXjX0XO.X.;.%.{ ;.{.U.Y.U.U.Y.",
"uXuXhXuXaX0X| H J Q Q J j.j.g.j.s.j.h.h.h.M.g.N.! Z H V D V &.h.a.f.p.p.a.j.s.p.j.d.d.M.M.M.M.M.N.V.g.d.J.h.Z.l.v.l.l.h.U.OX}._.).OX<XgXfXaXhXhX9XO.;.%.,.o.;.Y.!.U.Y.Y.U.",
"uXuXuXuXaXpX<.K Q Q J D +.j.y.j.s.p.h.g.d.B.B.B.[ D V D V V r.a.j.f.a.f.p.h.j.h.p.d.g.M.M.M.M.=.N.f.A.d.f.f.h.l.l.l.h.l.L.).OX`.OX).1XgXhXhXhXhX9X| i.X.%.%.o.R.U.U.Y.Y.U.",
"pXaXaXaXhXpX<.V } Q J J j.c.c.c.J.h.V.g.M.d.d.B.! V V V H V o.d.p.d.p.d.p.p.p.p.p.j.:.=.M.M.i.=.N.M.V.f.V.g.l.Z.h.h.s.h.L.}.|.}.).).<XgXhXhXhXlXsX..=.X.%. .;.{.!.!.!.U.U.",
"<X2X'.OX|.{.| J H D J [ ;.>.:.:.:.>.d.g.d.d.d.d.! J J Q K H &.l.h.h.h.h.h.h.h.F.c.F.V.f.N.N.N.N.N.&.g.u.i.u.h.J.K.J.K.K./.).).`.).|.OX3X4XpXpXpX|.o.*.%.&.X.o.g.F.c.F.F.F.",
"| O.O.r.O.o.X.| o.X.X.{ J F Y F D C Q { ~  .~ { d.d.d.p.j.u.U..XoX}.oX.XXXXX5X+XXX*X].I.E.P.A.I.i.X.%. . .| f.^.^.].).^.^./.)./.).).~.n.s.n.k.s.h.O.&.&.%.&. .H Z Z Z Z V ",
"O.o.O.O.| | | [ | [ X.{ D F Y T F Y } X.} $.{ [ &.j.g.d.p.r.J..X{.{. X XXXXXXX2X|.XXU.J.P.A.Z.I.d.~  ./ ../ p.{.).^.{./.)./.).)./._.L.s.k.l.l.v.s.o.&.%.X.%.X.Z Z V Z D D "
};
