/* XPM */
static char *padrao_de_fundo_de_blocos_de_jog_2_1700831027[] = {
/* columns rows colors chars-per-pixel */
"85 85 256 2 ",
"   c #0D0803",
".  c #170805",
"X  c #1B140C",
"o  c #19140B",
"O  c #1C1615",
"+  c #17100F",
"@  c #250A05",
"#  c #241A0D",
"$  c #2C1D0D",
"%  c #271409",
"&  c #36160B",
"*  c #240E13",
"=  c #251313",
"-  c #2B1514",
";  c #241C13",
":  c #2B1B14",
">  c #241C1B",
",  c #2C1B1A",
"<  c #271619",
"1  c #341C15",
"2  c #341D1B",
"3  c #3A1D1B",
"4  c #381914",
"5  c #360A02",
"6  c #2A240D",
"7  c #36270B",
"8  c #2D2314",
"9  c #292617",
"0  c #332514",
"q  c #332C14",
"w  c #34231C",
"e  c #3B221C",
"r  c #352B1B",
"t  c #3B2C1B",
"y  c #3B2715",
"u  c #3B3515",
"i  c #3D3916",
"p  c #3B341B",
"a  c #3D391A",
"s  c #353316",
"d  c #38330F",
"f  c #371D21",
"g  c #2C1D24",
"h  c #382823",
"j  c #3C3523",
"k  c #302B2D",
"l  c #1B1C1B",
"z  c #441B17",
"x  c #4B170B",
"c  c #482717",
"v  c #542A15",
"b  c #5B2D15",
"n  c #552D1A",
"m  c #5A2E1B",
"M  c #542517",
"N  c #433B1B",
"B  c #443617",
"V  c #5D321C",
"C  c #58311A",
"Z  c #4D230E",
"A  c #62351C",
"S  c #65391D",
"D  c #67381A",
"F  c #753C1F",
"G  c #461E25",
"H  c #452926",
"J  c #582B25",
"K  c #483827",
"L  c #553122",
"P  c #5B3423",
"I  c #57372A",
"U  c #583834",
"Y  c #4D3333",
"T  c #623523",
"R  c #653A23",
"E  c #6B3C24",
"W  c #6C3E2A",
"Q  c #643729",
"!  c #723D27",
"~  c #6A3632",
"^  c #763731",
"/  c #661C0E",
"(  c #73441D",
")  c #584838",
"_  c #504330",
"`  c #6D4325",
"'  c #6D432C",
"]  c #63432B",
"[  c #734325",
"{  c #72442D",
"}  c #79462A",
"|  c #75492D",
" . c #7A4C2D",
".. c #7A4826",
"X. c #7C502F",
"o. c #6D4432",
"O. c #684839",
"+. c #734532",
"@. c #754A33",
"#. c #7B4C33",
"$. c #744C3B",
"%. c #7C4E3A",
"&. c #794534",
"*. c #6B563D",
"=. c #7D5134",
"-. c #76523C",
";. c #7C533B",
":. c #775437",
">. c #41431B",
",. c #5A4E42",
"<. c #774E41",
"1. c #685846",
"2. c #745241",
"3. c #7C5343",
"4. c #78594A",
"5. c #6E5046",
"6. c #786449",
"7. c #786857",
"8. c #6C6658",
"9. c #623F43",
"0. c #8E3D37",
"q. c #834D2D",
"w. c #814D25",
"e. c #86522D",
"r. c #8A552D",
"t. c #824E33",
"y. c #834E38",
"u. c #845334",
"i. c #8A5535",
"p. c #8D5935",
"a. c #84543B",
"s. c #8A553B",
"d. c #86593D",
"f. c #8C5A3C",
"g. c #855935",
"h. c #915A35",
"j. c #925C3C",
"k. c #965B39",
"l. c #95443A",
"z. c #8D603D",
"x. c #95613D",
"c. c #9A633D",
"v. c #976438",
"b. c #A36B3B",
"n. c #855542",
"m. c #895542",
"M. c #855942",
"N. c #8B5C43",
"B. c #8C5D4A",
"V. c #84594A",
"C. c #925D42",
"Z. c #985E45",
"A. c #89544B",
"S. c #B2554B",
"D. c #8F6143",
"F. c #8D624A",
"G. c #82634A",
"H. c #946243",
"J. c #9B6543",
"K. c #9E6944",
"L. c #94634B",
"P. c #9A664A",
"I. c #9C6B4B",
"U. c #96694A",
"Y. c #9B714E",
"T. c #866859",
"R. c #9B6B52",
"E. c #956A57",
"W. c #8A7259",
"Q. c #9B7557",
"!. c #A26C45",
"~. c #A36D4B",
"^. c #A96D49",
"/. c #A5714C",
"(. c #AB734D",
"). c #AA7448",
"_. c #B2764B",
"`. c #B27A4D",
"'. c #A26E52",
"]. c #A26759",
"[. c #A47354",
"{. c #AB7554",
"}. c #AD7A55",
"|. c #A5755A",
" X c #AB765A",
".X c #AC7A5B",
"XX c #A5795A",
"oX c #B37D55",
"OX c #B27D5B",
"+X c #B47956",
"@X c #8C7563",
"#X c #987766",
"$X c #927469",
"%X c #A87C64",
"&X c #B37E61",
"*X c #A07E74",
"=X c #CA544A",
"-X c #E85A51",
";X c #CF6358",
":X c #D66E61",
">X c #B58156",
",X c #BC8255",
"<X c #B4815B",
"1X c #BA845B",
"2X c #BC895E",
"3X c #AC825E",
"4X c #9B877A",
"5X c #96836B",
"6X c #A88367",
"7X c #B38362",
"8X c #BB8562",
"9X c #BD8963",
"0X c #BC8C6B",
"qX c #B58968",
"wX c #A88879",
"eX c #B98B75",
"rX c #AB9278",
"tX c #BA9578",
"yX c #BA916B",
"uX c #C2885A",
"iX c #C6915F",
"pX c #C38B64",
"aX c #C98C64",
"sX c #C48B69",
"dX c #C88B68",
"fX c #C6916A",
"gX c #CB956B",
"hX c #CE9A6D",
"jX c #C89365",
"kX c #D5996C",
"lX c #CE9972",
"zX c #D49D72",
"xX c #DB9D73",
"cX c #C58F74",
"vX c #D5A274",
"bX c #DBA474",
"nX c #DAA77A",
"mX c #D6A270",
"MX c #E1A977",
"NX c #9D8988",
"BX c #9B908E",
"VX c #A48A86",
"CX c #A59489",
"ZX c #B59A86",
"AX c #A88F92",
"SX c #B9A389",
"DX c #BDA893",
"FX c #D9B999",
"GX c #CEAC8D",
"HX c #E4BD99",
"JX c #DEBEA6",
"KX c #E0BFAC",
"LX c #EAC39C",
"PX c #DBC5A7",
"IX c #CCC1AF",
"UX c #E6C6A7",
/* pixels */
"m M m M n n { @.$.@.$.+.N.N.F.B.B.N.%X6X7X7X7X6X<X7X3X7X7X6XI.U.I.H.H.I.u.| } } &.#.{ { { { +.+.` ] E E W E @.D.z.D.z.U.=.D D D ` D ` =. . .=. .f.[.XX[..X|.|. X.X.X.XOX X",
"J n m n v n +.@.$.$.@.&.B.B.B.B.B.N..X7X7X7X7X&X.X<X.X7X7X8X~.J.L.H.I.R.u.}  . .&.#.{ { +.W ' ' W R R ` ` R  .D.D.D.z.F.g.S S ` E S [ =.#.=.=.#.d.6X%X|.'. X&X%X.X.X}. X}.",
"c M M n n n @.+.&.@.@.@.B.L.B.L.B.N..X7X<X7X7X7X8X7X7X3X.X7X'.J.U.J.H.I.u. . .} |  .{ ! ' W +.' ' W W ] R E  .D.D.D.z.D.=.D D R S S | =.=.%.=.| a. XQ.XX|.XX X XoXoXoX+X}.",
"n C n V v v $.@.@.%.+.@.N.B.m.B.D.m.XX&X3X<X3XOX<X.X7XOX&X7X'.L.P.U.L.P.i.} q.} | #.+.+.{ W +.{ ' ` R E ` E @.F.z.z.z.D.g.` D ` ` S | =.=.=.=.=.d.%XQ..X.X X XOX{.{.}.}. X",
"v v Z v Z v +.@.+.#.+.%.V.L.B.L.L.B.OX8X8X8XqX&X7X&X8XqXqXqX XZ.P.'.R.J.u.[ ..! [  .{ ! +.' { E R R R S S S { N.d.z.z.z.=.D A A A D D [  .| |  .a.XX&XXXXX%X7X.X&XOX&X X X",
"S E E W E ! { @.{ @.+.:.@.;.%.3.a.$.R.|.|.E.|.|.Q.F.E.U.E.Z.L.m.s.m.C.y.N.C.C.j.f.H.#.W ' +.+.{ +.@.@.@. . .d.U.U.U.J.H.f.g.u.r.u.u.z.x.H.H.x.H.H.D.U.T.F.F.F.I.R.R.R.R.R.",
"I.I.P.R.U.L.@.{ @.+.o.' V C v v n v &.%.&.%.<.<.m x x x x x A E E E ! ! R.0X7XqX0X0XL.+.+.+.{ ' M.F.U.H.D.F.I.XXI.Y.Y.[.3XsXfXfXsXfXfXfXfXfXpXfXQ.m Z c n v C $.$.$.$.$.$.",
"J.J.Z.L.U.R.+.{ { { ' o.C n L B L n $.n.<.3.3.3.I z n M Z M T +.! ! ! D R.cX&X0X&X0XZ.W +.&.+.+.a.L.U.H.H.J.I.Y.Q.Y./.I.}.9XpX2X9XpX2X9XpX2X9XjX%Xn J J I H I <.<.-.<.<.%.",
"P.P.J.P.P.P.@.{ @.+.+.o.P L L L J v $.V.<.3.3.V.P Z c Z c Z A ! ^ D F D L.eX8XOX1X&XZ.W +.&.+.@.=.U.x.c.K.H.I.I.[.[.I./.{.0X8X0X9XpX9XpX9X9XpXpX|.n L H L n L $.$.$.$.$.+.",
"P.L.Z.H.H.L.| { @.{ +.+.V C n n V n $.3.<.3.3.n.P c M c c M A ! F F F D '.eX&X0XeXcXE.n.<.<.&.^ a.I.H.H.J.f.U.[.I.XX~.K.}.sXfX1X9X9XpXpXpXpXdXdX%Xn L K V C P 5.-.$.<.2.$.",
"P.P.P.I.P.L.#.{ { { { ` C C n n n v &.n.<.<.2.3.L x c Z c Z V E { o.B.7.@X$XT.4.,.,.U Y ,.,.1.1.@X#XT.D.L.L.I.!. XP.[. X XpXuXaXsXpXsXpXpXpXpXpX XZ n L n c L *.5.5.5.$.O.",
"d.d.d.m.f.M.=.%.#. .#.#.E R R R R P V.T.T.T.T.T.O.L P T I P E } G.Y g l O O O l 9 > 9 g > O > w : H O.@X#XM.m.P.x.[.P.C.{.OX}.,XoXoXoXoXoXoXoXOX[.A Q ] R R O.T.7.T.T.7.T.",
"[ [ | [ {  .a.M.d.d.d.N. . .@.#.3.%.*XVXVXVXVXVX4.$.$.$.$.O.;.u.N.W.K g O g O * , = , f f 2 , - > > : % e O.V.W.f.q.j.q.x.J.H.H.K.K.K.K.c.!.c.!.I.| :.@.:.@.4.VXVXAXAXNXVX",
"| { | | | | d.f.d.i.d.f.#.#. .=.^ $.#X*X*XNX*XVX4.$.$.5.$.$.:.u.w.u.*X4 , h - 2 , = = 2 , - : , f f 2 g < ; j ) Q.F.d.U.f.I.U.U.K.J.c.J.!.c.c.K.f.X.;.@.%.@.4.CXNXNXBXNXNX",
"| | @.@.@.| d.u.p.i.i.f. .t.#.#.0.<.$XNXNXNXVX*X4.O.O.$.$.o.:.X.e.e.| 4.8 O g 1 2 2 * @ * : 1 0 3 - : , , > > ; U #Xa.m.j.Z.Y.J.K.K.J.!.c.!.c.K.v.X.:.#.#.+.4.NXBXBXNXNXNX",
"| | | | @.| m.d.f.i.s.f. . . .q.<.^ $X*XNX*XVX*X7.<.2.$.-.:.=.u.a.d.i.#Xj g g 2 - 1 - % & , 2 , 1 : 0 , - g - < > j #Xf.j.!.K.P.K.c.J.K.c.!.K.K.K. . .#.@.@.6.NXBXBXBXVXNX",
"` ] { ` E [ d.F.d.d.f.d.#.| #. .[ ;.#XVXVXVXVX*X2.O.O.O.~ O.o.:. .=.#.[ T.< g 2 , 2 4 3 f - + O : 1 1 - f g - $ $ > k #XZ.J.P.Z.J.P.c.J.c.c.c.c.D.| | | ` ] 6.CXCXCXBXCXVX",
"/.Y.~.'./.I.f.=.f.i.f.i.u.a.u.a.i.a.L.#X$X$X#X].XXQ.[.XXQ.Q.>X`.}./.{.qXO.= , - , f 2 2 f *     . % : , , g 2 - # > k %X~.Z.I.^.J.J.~.+X<X>XoX1X>X(.>XY.).`.Q.Q.$X@X#X#X#X",
"mXkXkXxXzXlXx.e.u.q.i.u.j.C.H.H.Z.s.Z.Z.f.j.m.l.zXnXnXnXnXnXMXbXnXnXnXSX.   +   * * * , = . 5 5 @ @ @ . * = h = # + - T. X!.!.~.~.!.&XzXnXnXzXnXmXbXbXmXMXMXhXz.u.d.u.d.u.",
"kXkXkXkXkXkXr.q.t.t.q.i.f.N.f.m.Z.f.k.Z.k.k.k.h.gXnXmXbXnXvXbXxXmXmXvXwX          . . + . . G ^ m.^ M 5 @ . = X . . . ^ |.!.J.!.!.H.oXnXzXzXzXzXxXxXmXkXkXxXgXi.h.h.h.h.j.",
"jXkXkXkXjXkXu.u.u.u.u.u.j.j.j.C.N.f.s.k.h.h.Z.s.sXGXbXmXnXzXnXzXnXmXzXT.    .   + + +     @ ^ S.:X;XS.0.M @ . . . 3 ~ <. X!.!.~.~.Z.oXvXzXzXxXxXbXxXxXbXxXxXkXv.h.i.i.k.j.",
"kXkXkXkXkXkXu.#.e.u.t.u.f.C.N.H.N.H.j.x.C.C.C.m.fXnXbXmXnXbXbXvXvXvXvX6..   .   .     +   5 0.=X=X-X-X;XS.M @   . G E.L.%X!.J.P.~.J.OXxXzXzXxXxXkXkXbXbXmXkXiXe.p.j.h.f.f.",
"kXkXjXkXkXhXk.t.u.i.q.t.f.C.d.f.p.j.s.f.j.k.j.j.kXnXMXMXGXMXnXnXnXnXGX0X4.h . @ . + + +   @ 0.=X-X-X-X-XS.0.5 . @ J ].].OX!.^.P.~.P.OXzXzXzXxXxXbXvXnXbXbXbXkXx.i.f.f.s.s.",
"uXuX:XuXuXuXh.u.u.i.u.i.I.'.I.[.'.(.j.p.f.r.k.h.(.oX1X+XOX1XoX>X>X}.<X>XZX7.h 4 2 < O +   5 0.=X-X-X-X-X=Xl.5 @ @ ~ Z.R.P.r.h.d.Z.i.I.aXpX2X&XdXuX1X,XoX,XuX>Xp.f.p.f.j.f.",
"b._.b._._.^.i.s.s.s.f.s.>X3X>X>X+X<Xx.h.i.h.h.r.r.f.s.h.k.e.i.p.r.p.W.DXIX8.K K H G f f f . M m.S.=X;X=XS.^ 5 . . z A.R.u.} [ } @.| u.(.(.}.^.{.R.u.d.V.a.d.N.d.f.f.d.f.j.",
"`.`._._._.(.k.m.i.u.s.u.}.3X>X3X+X<Xx.r.i.h.i.h.k.k.m.k.j.c.j.g.x.3XGXIXGX1.r h Y J G f g . . x x / / F / 5 & o . 4 W |.|  .u. .+.} g.OX+X+X+X+X Xf.L.F.F.F.F.f.f.f.f.j.j.",
"_._._._._._.h.s.u.s.s.a.[.>X>X>XoX<Xk.r.i.h.i.h.Z.m.C.C.s.j.d.U.tXFXPXUXPXW.% % 4 z U h ; > 1 @ 5 & 5 5 z H Y f h & Q.M.=.X.} [ #.| s.OX{.+X{. X[.f.F.N.M.F.F.f.N.f.f.f.C.",
"_._._._._._.h.y.i.s.s.u.}.>X}.>XoXoXx.r.r.h.h.i.l.Z.C.C.j.f.d.tXGXGXFXUXUXHX5Xd @ 5 4 e k k , f w e H H Y J H H 3 ~ F.t.g.|  .X.#.} j. X(.+X X+X[.N.F.M.B.N.N.N.f.m.N.N.N.",
"_._.+X{._.(.h.s.s.s.s.i. X+X>X>XoX<Xk.r.h.h.i.h.Z.Z.B.Z.B.Z.N.GXSXSXGXHXPXJXPXZX6.c @ % ; h h h h g - 2 2 h H h U #X#.i.X.[ | [ | } f.}.+XOXOX.X|.N.L.L.L.B.m.N.f.N.f.N.H.",
"b.!.!.!.!.!.i.u.s.s.i.i.oX1X>X>X+X1Xc.i.h.h.h.j.s.&.a.a.#.s.;.E.GXGXrX#XSXGXKXUXFXSX6.7 . @ % 2 f f 3 3 c 4 & h 5XE.!.x.K.x.z.x.x.x.H.I.Z.Z.~.K.H.y.#.$.%.%.a.N.H.N.f.N.j.",
"k.C.C.j.j.J.q.s.y.q.l.u.}.>X>X>X<X1Xc.h.h.h.k.k.q.! &.! W } ' $.5X*._ d B I #XFXFXUXFXtX:.y @ @ @ @ 3 4 & & _ SXFXrX(.>X(.[.[.[.[.[.P.j.s.u.i.f.s.D E T R R { N.N.f.N.j.j.",
"k.Z.J.C.H.H.u.s.i.i.s.u.OX1X,X1X1X<Xc.h.k.j.k.k.} ^ +.{ &.{ @.E.] u j j s d c P 3XFXLXLXFXSX@X1.U K y y B 6.GXPXPXtX/.)./.K.XXI.Y./.J.f.f.j.f.j.s.! { W ' E { N.C.H.j.f.C.",
"H.Z.j.Z.j.Z.u.u.y.f.f.t.oX,XoXuX2XoXK.h.k.Z.k.J.&.` +.} ] W.*._ s a s i i u B c n W.FXLXFXLXLXHXGXMXnXnXGXHXUXPXPXDXrX6X/.b./.Q././.K.z.p.p.j.f.d.W ! Q W W +.N.N.N.z.z.j.",
"C.H.J.Z.j.J.u.s.u.u.y.u.`.2X1X<X+XoXk.h.c.k.j.h.$.+.{ ' W._ 9 K a a u i u u u u 7 ) 5XGXFXHXHXLXLXLXLXLXHXLXPXPXFXZX#XtX`.).).Y.)./.c.z.p.j.j.j.t.E W W W W o.N.H.f.p.x.H.",
"j.J.j.C.j.J.u.u.i.u.i.f.{.9X8X7XpX8XK.h.k.i.r.h.t.E o.T.) j j p i i u i i i u c c 7 N T.rXGXGXGXFXHXFXFXPXFXGXGXCX5XwXQ.Y.b.b.)././.K.v.r.f.p.g.f.S W E ' R [ z.f.h.h.h.f.",
"!.!.~.!.!.~.f.s.u.i.u.d.=.g.=.u.t.d.I..X{.(.3X>Xp.i.G.7.9 j >.s i i i i i u p p B y d t B B ] *.Y.rXZXtXSXrXW.*.t t K G.6X(.).!././.).>X>X1X1X1XOXq. .%.#.| u.)././././.[.",
"{.(.(.(.{.(.j.s.i.i.s.a.A m v C v b |.yXyXyXyXyXb.v.%Xj j s >.i B i i i i a p s s s r 0 0 y c y u K K B K K 1 o % X X 0 6.U.)./.!.).>XmXbXmXmXnXjXp.g.g.g.p.h.>X>X>X>XoXOX",
"(.(._.(.{.~.f.t.f.f.f.M.W T Q P W b 6XyX3XqX3X2Xb.p.W.s j a i i i i i i i u u u r s p j r 8 q r y r y 0 0 : ; 8 # ; 9 o q rXH._.).b.>XhXmXhXjXhXaXe.r.r.g.r.h.`.`.`.).`..X",
"{._.(.(.(./.h.i.m.d.d.d.W J Q I R v Q.eXqXyXyXyXc.Q.) p s >.7 N u a u a a i p s r r q h w $ t h h t t r 0 # % ; ; X O O q W.[.).)./.}.vXhXhXhXmXpXe.r.u.r.r.r.`.oX>X>X>X.X",
"(._.^.^.(.(.p.u.m.i.d.a.W J Q T P P %XyXyX3X7XyX/.@Xp j a i d N a a a a u i p i s s r h w 8 r r t t r r 0 0 : % # # 9 O o 1.}.b././.>XvXhXvXhXvXjXe.f.i.u.i.k.+X`.`.`.}.OX",
" X{.(.{.{.[.f.u.d.g.a.a.E T T T T R |.0XqX7X0X0XXX*.9 j i i >.i p p a a i i u u q s p r 8 $ 0 H H t t t r 8 $ o = O O X O k 5XK.).!.>XhXvXhXhXvXpXr.e.i.e.e.p.OX>XoXoXOX&X",
"f.k.j.J.j.H.u.#.X.X. .;.{ +.#.$.+.{ Q..XXX{..X[.qX_ 6 r u i i i a a a a i u u u s q t t 0 0 K 1.1.K w q 0 $ # # 9 o 8 9 o + 1.Y./.!./.>X>X>X}.>X>X<X8X8X1X9X+XK.c.c.J.H.J.",
"f.j.f.f.g.f. .| | ` | #.#.;.y.a.n.#.P.'.I.I.~.I.SXa 9 9 u i i i a p a a a u u q p q p r $ $ B *.1.K 0 e 0 ; # 6 ; o 9 9 o O *./.~.!.!.!.K.K.!.K.).lXlXlXjXkXpXe.h.s.f.f.f.",
"j.C.f.f.j.z.#.#.X. .| @.#.y.y.%.y.a.R.I.[./.[.~.4X6 6 9 q u i N a a i a a u u u 7 y B 0 $ 1 y K B y y r 0 $ # X # ; o # 9 9 ) Y.(.~.(.).I.)././.).lXgXgXfXjXfXk.h.h.f.j.f.",
"f.j.j.H.f.D. .o.| | +. .%.t.%.y.#.y.R.I./.[.I.'.7.X 9 6 6 d i B s i a i i a s p 0 q c 8 6 y y 7 e y t y 6 # # # o 9 6 o X 9 K 6X/.!.!./.!.!./.I.`.fXfXgXgXjXpXj.C.f.C.m.f.",
"f.H.f.f.u.f. .X.| #.@.#.a.%.y.a.y.y.'.'./.[.~. X1.9 9 6 6 d s i i i i i a a p p r q r 6 $ 0 p K K e e 0 8 X # # # o 9 % 6 O o T.~.!.!.)././.!.!.(.gXlXfXfXzX1Xu.C.m.C.k.C.",
"j.j.j.f.f.z.:.| +.#.%.&.a.%.y.y.a.y.R.Y.[.Y.[.|.1.l 6 6 6 6 s N i i i i a a p a t 0 r 0 8 r K ,.H r 8 r 8 ; # # 6 o 9 X 6 X o ] [.~.~././././.Y.}.lXlXfXjXhX9XZ.k.C.m.Z.C.",
"{.[./.}.XXY.[ C R R R A +.+.@.&.&.! m.C.C.x.C.B.$X9 9 6 6 q d B i i i i a p a j s r 9 9 # 0 j _ p 8 w 0 8 ; ; X # 9 o % 6 9 _ 6.C.j.B.D.N.D.B.f.c.<XOX>X1XoXOX~.].{.'.].].",
"&X&XOX+X+X<XW C I n P V W { { { } E u.M.%.M.N.3.%X5.h O 6 d B B j p a a i a i i r s 0 6 ; 0 r 8 0 0 6 6 h h . # % 7 # 6 u 1.7.5Xy.a.M.;.N.M.N.M.H.OX{.XXoX{.}. X X X X X X",
" X XOXOX+X.XE P R P T T ' +.{ { W { %.N.B.V.n.M.[.ZX9 s 6 u N B N a N a a i s u >.s 6 8 8 r r 8 0 8 0 j 1.w 0 ; 0 7 >.8.5X5X7.5Xa.M.N.n.N.M.m.d.C.&X.XOX+X+XOX}.{. X X X].",
"OX8X&X.X+X XR P P m P V W { ! { +.+.3.n.M.m.M.n.!.Q.8.8 j >.i d s p a i i i i i p q q 6 0 0 w w 0 , h K @XW.Y ,.8.NX5XCX$X@X5XV.a.;.n.a.N.M.m.m.C.OX}.}.{. X{.{.[.XX[.XX|.",
" X X X X&X.XR P I T Q T +.+.{ { +.R M.N.d.B.d.a.^..XwXK j s d >.N i i d d u B d N p N q 0 _ ) j 8 h 4 7.G.:.@X$X$X7.7.1.-.#X3.n.M.a.d.f.M.d.N.N.Z.&XOX X X X+X X X X X|.XX",
"+X&X&X.X&X{.! T P V A b ! | { [ | ! =.H.d.M.M.;.{.|.wX5.t s a i i d d B B B B B N _ 1._ t 1.7.K 6 # 5.F.g.g. .V.#XG.T.W.:.;.m.d.a.%.a.N.d.d.f.f.f..X.XXX}.}. X+X{.{.{.{.(.",
"h.N.C.N.Z.Z.#.%.a.n.a.d.[. X{.}.~.qXg.| ;.@.-.$.@.o.4.K t p >.d i i B B d d B ] W.rX5X) 0 j K 0 ) T.E.g.r...c.~.L.[.I.Q.F.` ` S ` ` | f.p.f.d.d.d.I.H.J.Z.K.~.sXpXsXsXsXpX",
"s.u.s.t.t.s.a.N.a.s.s.i. X9XOX9XpX+Xd.=.O.2.T.5.4.T.U 0 p p q >.B d B B B | W.rXSXZX6.7 7 0 w K rX%.C.l.e.x.x.{.OX X/.7Xf.A S R A A ( p.p.p.p.p.j.H.j.j.h.j.~.cXsX:XdXdXaX",
"j.a.m.m.i.s.d.d.d.s.u.u.{.1X1X+XoX2Xf.{ T.O.* H H 2 H 1 0 H ) 6.6.6.:.6.5XrXZXZX4X4.c y 0 : 0 j cXt.i.k.f.u.H.{./.).[.}.x.S E R ` S [ z.p.p.p.p.g.j.x.J.Z.j.Z.dXsXpXdXpXiX",
"M.a.n.m.m.s.m.d.d.u.u.g.}.1X+X<X8XOXC.F.h g G H c 3 2 w w U T.ZXSXSXSXZXZXrX@X5.K c 1 * $ # 1 1.sXw.i.h.i.i.I.(.(.[.(.XXH.V S ] ] V ` z.p.f.p.f.f.J.H.x.Z.j.Z.dXaXaXaXaXuX",
"f.m.s.a.u.u.t.m.s.a.i.d..X8X<X1X+X0XE.H h G G z 2 3 e e 0 3 L ~ 6.6.7.4.5.I c e c 1 1 1 - @ j 4X|.y.h.k.h.s.j.{.(.{.}.[.D.D A R S V [ z.p.p.p.f.j.x.H.H.C.j.!.cXaXaXdXsXdX",
"e.u.f.h.j.j.t.m.m.a.s.f. X7XOX7XoXqX#X2 ~ U z G f e h f e 1 & & % & 7 c y 4 4 e 3 4 2 - 1 = : _ eX#.i.q.i.s.j.}.).[././.x.D S S ` S [ z.z.h.p.k.c.i.x.z.x.C.!.sXsXsXsXsXpX",
"2X+X+XoXoX{.q.! W ! ! ! s.C.B.C.j.B.*XH U G G 4 e 3 2 2 3 c z 4 0 & - 4 4 e 3 2 3 H f . * = . = T.n.u.k.i.q.j./././.Y.)./.x.P.K.H.z./.2X1X2X1X2X Xu.=.=.u.u.u.H.j.j.C.k.f.",
",X,X,XuXuX1Xq.E W W ! E a.M.y.m.a.a.V.tXU h 3 c 2 2 2 3 3 3 z z 4 1 1 2 e 3 h 3 2 f < * * * * < z E.%.i.i.e.k.~.K.!.c.!.I.!././.I.~.}.jXaXaXaXgX<X . .|  . .|  .a.s.s.s.m.",
",XuXuX,XuX,X} ! E ! W Q a.A.n.n.V.f.j.U.4.H - y e h h h f 3 h 3 2 2 3 2 1 , - * - - * * < < * * = 5.F. .i.r.j.^./.^././.!.!.K.K.K.K.).pXuXaXdXdX<X .X. .=.u.u.f.a.u.a.a.s.",
",X,X+XuXuX+X} ! ! ! W ! n.V.A.A.V.;.x.x.%X4.e 0 w w 2 h 2 g h e 3 2 , 2 2 , < = + - < + * < < g O % E.M.i.q.i.^.K.!.!./.!.~.I.~.!.K.(.aXiXpXaXaX7X .u. .#. .} a.i.d.s.s.s.",
",X,X,X:XuX+X..R W W E E n.V.n.n.d.d.D.x.k.~.4XY w , w g h h 2 2 h 2 2 2 , = = - = = = = = * * * l O U a.e.i.k.!.!.^.!.).c.~.J.!.!.!._.aXiXaXaXdX1X..=.| ;.#.#.s.d.d.a.s.f.",
",X`.:X>X>X}.=.] +.$.O.$.<.m.A.V.3.a.H.P.k.x.P.XX) h > w w h w 8 k , H Y - < < * - = = = < < * * % * Y F. .q.f.(.!.!.!.!.!.K.K.K.!.K.}.2XpX2XpXpXOXa.;.=.=.:.;.f.3.3.d.M.M.",
"r.r.r.h.h.H.6XwXwXwXwXwXV.&.%.$.-.@.d.f.p.i.g.f.tX#X4.5.h g > k K T.Q.6X5.. O = O + # + . * < - - * ) R A D t.j.c.J.K.c.k.j.h.k.i.r.p.v.c.k.x.v.R.wXVXwXrX4X4X:.:.;.;.;.a.",
"r.u.r.e.q.y.wXAXVXVXAXZX4.+.;.$.5.$.;.f.d.d.s.i.^.,X8XeXeXrX#X@X}.v.r.p.#Xc , O = % = : @ @ * * * * 5.V T P ^ P.j.j.Z.j.j.f.h.i.C.f.j.k.f.j.j.f.T.VXNXNXNXBX4X2.-.-.-.:.;.",
"i.e.s.e.s.m.VXAXNXAXVXVX4.<.$.<.$.$.n.d.f.j.N.s.).2XoX_.oX>Xc.h.h.v.v.c.f.$X= > = % % 4 z z z 3 G Y T.P Q J +.J.C.C.H.J.j.j.f.h.g.f.f.f.j.j.j.f.F.rXBXNXNXAX*X3.-.2.2.-.:.",
"i.t.i.q.q.m.VXAXAXAXAXVX4.<.O.<.$.$.d.i.d.f.f.s.'.&X.X+XoX+Xb.v.v.p.v.v.e.M.W.% 3 z z x J J J ~ H O.G.P I T &.J.j.J.j.H.j.k.s.h.f.p.f.j.h.j.x.f.U.wXCXNXNXAX4X;.2.2.2.;.;.",
"q.h.e.y.y.t.eXVXVXVXAXZX4.$.2.<.$.;.M.N.f.C.f.f.(.uXOX+XoX+X!.v.v.v.p.v.c.r.B.-.J Q ~ ~ ~ ^ ~ ~ 9.O.] P J A ! Z.j.J.J.j.j.f.h.s.f.f.j.j.p.h.h.h.T.VXNXNXCXCX4X2.2.:.:.:.6.",
"q.i.t.r.t.a.&XVXwX*XwXwX3.+.%.O.$.@.n.M.a.s.a.a.!.(.(.}.(.{.H.g.p.z.=.f.e.e.d.E.5.J 9.^ ^ ^ ~ J H 5.T.T.2.( ..J.j.j.Z.C.C.C.m.k.f.i.f.j.h.k.x.k.L.wX4X*X*XwX4X@.:.:.:.:.:.",
"h.i.i.i.s.s.a.n.%.V.3.3.$.^ { o.o.o.o.+.+.+.! +.^ &.&.&.! &.{ { [ ' @.o.` } o.+.$XJ ~ ~ G / z 5 - * # 2 T.qXoXq.u.y.t.i.s.s.s.y.m.m.j.J.x.x.x.k.c.#.3.t.y.<.@.( ] ] ` ] ` ",
"i.k.s.k.f.s.s.;.=.u.;.d.@.+.+.o.+.+.o.{ o.+.+.&.+.<.+.+.~ +.+.W ] o.o.] ] o.o.o.A.U z & - * : @ + g * % 6XyX/.u.h.y.i.s.a.m.n.m.m.m.s.Z.x.v.h.x.f.u.X.X.g.=.=.` ` ` ` ` [ ",
"k.f.y.s.h.s.s.a.a.a.;.a.@.+.{ +.o.o.o.{ +.o.+.+.+.$.$.^ $.$.+.o.o.o.o.| | O.o.o.O.T.- X * + O O % % U *XyX2X}.u.u.u.s.s.s.A.m.A.m.s.f.Z.j.c.k.x.x.u. .X.g.X.:.` ` ` ` ` ` ",
"i.i.k.k.k.h.=.=.#.=.=.;.@.{ +.@.' o.o.o.' { ' +.+.o.+.+.+.o.' W o.] ' o.] o.' ' ~ 4.I 9 : ; r _ W.tXeX8X>XjX}.q.u.t.s.s.s.m.n.n.m.m.s.Z.j.x.k.c.z.=.X.X.=.=.X.` ` ` { ` ' ",
"s.h.i.q.u.p.u.d.a.d.a.a.@.` ` | o.| +.| o.+.| +.+.+.+.$.@.o.+.' o.' ' ' o.' ' ] ^ Q E.#X6XQ.Q.Y.}.yX2X,XuXuX).a.s.s.s.i.y.s.a.a.y.i.i.J.h.v.h.k.z.e.g.X.=.=.X.S ` ` ` ` ` ",
"Z.k.x.x.c.J.| | @.:.#.| #.@. .@.| [  .| @.{ +.+.+.W o.W ' W @.@.+.+.{ +.o.{ ' ' #.{ ;.B.C.C.j.r.K.}.2X+X,X,X[.t.u.i.f.u.s.N.C.f.C.i.Z.~.!.!.!.!.K...u.X.X.:.=. .| | |  .| ",
"dXaXjXaXdXpX .S R E S E g.f.d.z.f.d.D.d.s.M.M.M.R b V b V V @.u.s.s.d.d.d.d.d.d.u.z.;.N.&.<.m.m.d.z.u.i.i.i.d.N.H.C.H.j.K.{. X}. X+XOXgXgXfXjXgX1X..|  .| | =.U.U.Y.I.U.U.",
"pXuX2XuXpX9X! b R A A A a.z.d.g.d.f.g.d.d.a.d.m.E b V b b b #.f.s.s.a.d.g.u.a.g.z.#.;.n.V.n.A.<.f.m.d.C.d.N.C.f.j.f.j.f.J.{.oX}.{.{.1XhXgXgXgXkX0X .| @.| o.=.Y.U.U.U.U.U.",
"uXuXjXiXaXpX[ A A E R S =.d.d.g.p.p.d.d.d.M.M.m.E v A m A b #.s.u.i.u.u.i.g.i.i.t.f.a.a.A.y.%.n.M.m.d.M.m.m.j.h.Z.j.j.j.J._.`.).(._.>XfXjXjXjXkX8X[  .:.| @.=.Y.Y.K.Y.I.U.",
"uXiXuXuXiXfX( D R R S V X.g.g.g.p.u.f.d.M.M.M.M.W V V V b D } i.i.d.u.i.d.u.d.p.g.g.M.n.n.n.<.n.m.a.N.a.s.f.f.N.j.j.f.j.K.(.}.{.{.`.oXhXjXjXjXjX8X[ ;.+.@.#.| R.I.I.I.U.I.",
"iXaXaXaXfX9X[ b ] R S S g.z.z.z.z.f.N.d.a.n.a.a.E b b b b b #.i.g.u.u.d.u.u.u.u.u.u.;.%.n.n.y.y.m.M.C.m.m.f.f.C.f.f.s.k.K.(.oX+X(.(.,XgXhXhXhXzX9X} %.+.@.{ u.Q.Y.Y.R.I.I.",
"oX+XoX}.oX[.[ S A A V ` X.:.d.;.;.;.d.d.a.a.a.d.E A S S D A #.f.f.N.f.f.N.f.j.f.D.H.m.m.m.m.m.s.m.t.a.y.y.t.i.J.J.H.J.J.!.(.(._.(.}.`.2X2XuXpXfX}.| #.&.#.| #.d.D.z.F.N.F.",
"[ ........q.[ [ #.|  .' S C L C C C R ] ' W W ` a.a.u.d.u.u.I..X{.[.XX X.X.X.X7X.X.X[.P.E.L.Z.L.y.{ } { { ..d.~.~.[.~.~.~.(.(.(.(.(.!.v.h.z.p.p.j. .#.#.#.| } A v b b b b ",
" .} ..} [ [ [ ` [ ` { ' P n P L L V ] o.' { { ` =.u.a.u.u.u.J.XX X[.[. XXX.X.X.X}.3XI.H.C.L.Z.L.a.! { { ! ! i.[.(.~.(.'.(.^.^.^.!.(.!.i.h.h.j.x.i. .#.#.+.| { b v b v V V "
};
